<?xml version="1.0" standalone="no"?>
<!DOCTYPE svg PUBLIC "-//W3C//DTD SVG 1.1//EN" "http://www.w3.org/Graphics/SVG/1.1/DTD/svg11.dtd" >
<svg xmlns="http://www.w3.org/2000/svg">
<metadata>icon font for a2v10</metadata>
<defs>
  <font id="A2v10" horiz-adv-x="1024">
    <font-face font-family="A2v10"
      units-per-em="1024" ascent="878"
      descent="146" />
    <missing-glyph horiz-adv-x="0" />
    <glyph glyph-name="arrow-up"
      unicode="&#xE900;"
      horiz-adv-x="1024" d="M512.002 696.667L515.252 696.5C516.04 696.42 516.816 696.302 517.586 696.167C517.835 696.123 518.087 696.092 518.336 696.042C518.906 695.927 519.443 695.686 520.002 695.542C521.42 695.176 522.844 694.813 524.211 694.25C526.358 693.363 528.371 692.228 530.252 690.917C531.783 689.849 533.262 688.657 534.627 687.292L790.627 431.292C803.123 418.795 803.123 398.538 790.627 386.042C778.131 373.545 757.874 373.546 745.377 386.042L544.002 587.417V67.333C544.002 49.661 529.674 35.335 512.002 35.333C494.329 35.333 480.002 49.66 480.002 67.333V587.417L278.627 386.042C266.131 373.545 245.874 373.546 233.377 386.042C220.881 398.538 220.881 418.795 233.377 431.292L489.377 687.292C491.447 689.361 493.785 690.991 496.211 692.375C497.304 692.999 498.375 693.672 499.544 694.167L499.961 694.333C501.26 694.86 502.616 695.193 503.961 695.542C504.52 695.687 505.057 695.926 505.627 696.042C505.862 696.089 506.1 696.124 506.336 696.167C508.174 696.495 510.069 696.667 512.002 696.667z" />
    <glyph glyph-name="arrow-left"
      unicode="&#xE901;"
      horiz-adv-x="1024" d="M446.708 644.623C459.205 657.119 479.462 657.119 491.958 644.623C504.454 632.126 504.455 611.869 491.958 599.373L290.583 397.998H810.667C828.34 397.998 842.667 383.671 842.667 365.998C842.665 348.326 828.339 333.998 810.667 333.998H290.583L491.958 132.623C504.454 120.126 504.455 99.869 491.958 87.373C479.462 74.877 459.205 74.877 446.708 87.373L190.708 343.373C189.342 344.738 188.151 346.217 187.083 347.748C185.772 349.629 184.637 351.642 183.75 353.789A31.968 31.968 0 0 0 181.833 360.414A32.203 32.203 0 0 0 181.333 365.998C181.333 367.93 181.505 369.826 181.833 371.664A31.908 31.908 0 0 0 183.667 378.039L183.833 378.456C184.327 379.625 185.001 380.696 185.625 381.789C186.487 383.3 187.371 384.822 188.5 386.206L190.708 388.623L446.708 644.623z" />
    <glyph glyph-name="arrow-down"
      unicode="&#xE902;"
      horiz-adv-x="1024" d="M512.002 696.667C529.674 696.665 544.002 682.339 544.002 664.667V144.583L745.377 345.958C757.874 358.454 778.131 358.455 790.627 345.958C803.123 333.462 803.123 313.205 790.627 300.708L534.627 44.708L532.211 42.5C531.54 41.953 530.789 41.526 530.086 41.042C528.271 39.791 526.353 38.693 524.294 37.833C522.395 37.043 520.452 36.409 518.461 36C518.132 35.933 517.75 35.932 517.419 35.875C515.654 35.573 513.854 35.333 512.002 35.333C510.067 35.333 508.176 35.546 506.336 35.875C506.086 35.92 505.834 35.949 505.586 36C505.301 36.058 505.034 36.185 504.752 36.25C503.027 36.651 501.322 37.143 499.669 37.833C498.677 38.249 497.774 38.824 496.836 39.333C494.185 40.77 491.618 42.468 489.377 44.708L233.377 300.708C220.881 313.205 220.881 333.462 233.377 345.958C245.874 358.454 266.131 358.455 278.627 345.958L480.002 144.583V664.667C480.002 682.34 494.329 696.667 512.002 696.667z" />
    <glyph glyph-name="arrow-right"
      unicode="&#xE903;"
      horiz-adv-x="1024" d="M532.042 644.623C544.538 657.119 564.795 657.119 577.292 644.623L833.292 388.623L835.5 386.206C836.624 384.828 837.473 383.294 838.333 381.789C838.996 380.631 839.692 379.491 840.208 378.248A31.852 31.852 0 0 0 842.125 371.664C842.454 369.823 842.667 367.933 842.667 365.998C842.666 364.146 842.427 362.346 842.125 360.581C842.085 360.349 842.128 360.103 842.083 359.873A31.895 31.895 0 0 0 840.333 353.956C840.296 353.865 840.204 353.797 840.167 353.706C839.307 351.646 838.209 349.729 836.958 347.914C836.474 347.211 836.047 346.46 835.5 345.789A32.684 32.684 0 0 0 833.292 343.373L577.292 87.373C564.795 74.877 544.538 74.877 532.042 87.373C519.545 99.869 519.546 120.126 532.042 132.623L733.417 333.998H213.333C195.661 333.998 181.335 348.326 181.333 365.998C181.333 383.671 195.66 397.998 213.333 397.998H733.417L532.042 599.373C519.545 611.869 519.546 632.126 532.042 644.623z" />
    <glyph glyph-name="import"
      unicode="&#xE904;"
      horiz-adv-x="1024" d="M853.333 184.667C871.006 184.667 885.333 170.34 885.333 152.667V67.333C885.333 36.215 872.963 6.379 850.958 -15.625A117.32 117.32 0 0 0 768 -50H256A117.32 117.32 0 0 0 173.042 -15.625A117.318 117.318 0 0 0 138.667 67.333V152.667C138.667 170.34 152.994 184.667 170.667 184.667C188.34 184.667 202.667 170.34 202.667 152.667V67.333L202.917 62.042A53.343 53.343 0 0 1 218.292 29.625A53.327 53.327 0 0 1 256 14H768A53.327 53.327 0 0 1 805.708 29.625A53.328 53.328 0 0 1 821.333 67.333V152.667C821.333 170.34 835.66 184.667 853.333 184.667zM512 739.333C529.673 739.333 544 725.006 544 707.333V272.583L702.708 431.292C715.205 443.789 735.462 443.789 747.958 431.292C760.455 418.795 760.455 398.539 747.958 386.042L534.625 172.708C532.551 170.635 530.18 169.052 527.75 167.667C526.59 167.005 525.453 166.307 524.208 165.792C522.84 165.227 521.42 164.867 520 164.5C519.44 164.355 518.905 164.115 518.333 164C518.098 163.953 517.861 163.917 517.625 163.875C515.796 163.55 513.922 163.333 512 163.333C510.064 163.333 508.175 163.546 506.333 163.875C506.097 163.917 505.86 163.952 505.625 164C505.054 164.116 504.518 164.355 503.958 164.5C502.54 164.869 501.117 165.226 499.75 165.792C498.507 166.308 497.367 167.004 496.208 167.667C493.79 169.049 491.44 170.644 489.375 172.708L276.042 386.042C263.545 398.539 263.545 418.795 276.042 431.292C288.538 443.789 308.795 443.789 321.292 431.292L480 272.583V707.333C480 725.006 494.327 739.333 512 739.333z" />
    <glyph glyph-name="export"
      unicode="&#xE905;"
      horiz-adv-x="1024" d="M853.333 184.667C871.006 184.667 885.333 170.34 885.333 152.667V67.333C885.333 36.215 872.963 6.379 850.958 -15.625A117.32 117.32 0 0 0 768 -50H256A117.32 117.32 0 0 0 173.042 -15.625A117.318 117.318 0 0 0 138.667 67.333V152.667C138.667 170.34 152.994 184.667 170.667 184.667C188.34 184.667 202.667 170.34 202.667 152.667V67.333L202.917 62.042A53.343 53.343 0 0 1 218.292 29.625A53.327 53.327 0 0 1 256 14H768A53.327 53.327 0 0 1 805.708 29.625A53.328 53.328 0 0 1 821.333 67.333V152.667C821.333 170.34 835.66 184.667 853.333 184.667zM513.083 739.292C513.362 739.282 513.639 739.267 513.917 739.25C515.58 739.152 517.206 738.926 518.792 738.583C520.211 738.275 521.583 737.794 522.958 737.292C523.491 737.097 524.064 737.014 524.583 736.792C525.398 736.444 526.128 735.918 526.917 735.5C527.932 734.961 528.97 734.475 529.917 733.833A32.137 32.137 0 0 0 534.625 729.958L747.958 516.625C760.455 504.128 760.455 483.872 747.958 471.375C735.462 458.878 715.205 458.878 702.708 471.375L544 630.083V195.333C544 177.66 529.673 163.333 512 163.333C494.327 163.333 480 177.66 480 195.333V630.083L321.292 471.375C308.795 458.878 288.538 458.878 276.042 471.375C263.545 483.872 263.545 504.128 276.042 516.625L489.375 729.958L491.792 732.167C492.227 732.522 492.718 732.796 493.167 733.125A32.071 32.071 0 0 0 495.208 734.5A31.56 31.56 0 0 0 498.333 736.208A31.42 31.42 0 0 0 500.708 737.208C501.885 737.652 503.08 737.992 504.292 738.292C505.148 738.504 505.993 738.775 506.875 738.917C507.347 738.993 507.818 739.07 508.292 739.125A32.423 32.423 0 0 0 512 739.333C512.363 739.333 512.723 739.304 513.083 739.292z" />
    <glyph glyph-name="arrow-left-right"
      unicode="&#xE906;"
      horiz-adv-x="1024" d="M617.375 388.624C629.872 401.121 650.128 401.121 662.625 388.624C675.119 376.127 675.121 355.87 662.625 343.374L546.583 227.332H896C913.673 227.332 928 213.005 928 195.332C927.999 177.66 913.672 163.332 896 163.332H546.583L662.625 47.29C675.119 34.794 675.121 14.536 662.625 2.04C650.129 -10.453 629.871 -10.453 617.375 2.04L446.708 172.707C445.343 174.072 444.15 175.552 443.083 177.082C441.772 178.964 440.637 180.977 439.75 183.124A31.932 31.932 0 0 0 437.833 189.749A32.2 32.2 0 0 0 437.333 195.332C437.333 197.265 437.505 199.16 437.833 200.999A31.927 31.927 0 0 0 439.667 207.374L439.833 207.79C440.327 208.959 441.001 210.031 441.625 211.124C442.487 212.635 443.372 214.157 444.5 215.54L446.708 217.957L617.375 388.624zM361.375 729.957C373.872 742.454 394.128 742.454 406.625 729.957L577.292 559.29L579.5 556.874C580.624 555.496 581.473 553.962 582.333 552.457C582.996 551.299 583.692 550.159 584.208 548.915A31.826 31.826 0 0 0 586.125 542.332C586.454 540.491 586.667 538.601 586.667 536.665C586.667 534.814 586.427 533.014 586.125 531.249C586.085 531.017 586.128 530.771 586.083 530.54A31.908 31.908 0 0 0 584.333 524.624C584.296 524.533 584.204 524.465 584.167 524.374C583.307 522.314 582.209 520.397 580.958 518.582C580.474 517.879 580.047 517.128 579.5 516.457A32.678 32.678 0 0 0 577.292 514.04L406.625 343.374C394.129 330.88 373.871 330.88 361.375 343.374C348.879 355.87 348.881 376.127 361.375 388.624L477.417 504.665H128C110.328 504.665 96.001 518.993 96 536.665C96 554.339 110.327 568.665 128 568.665H477.417L361.375 684.707C348.879 697.203 348.881 717.46 361.375 729.957z" />
    <glyph glyph-name="arrow-left-right-full"
      unicode="&#xE907;"
      horiz-adv-x="1024" d="M745.375 303.289C757.872 315.786 778.128 315.786 790.625 303.289L918.625 175.289C920.69 173.224 922.284 170.874 923.667 168.456C924.329 167.298 925.026 166.158 925.542 164.914A31.884 31.884 0 0 0 927.458 158.331C927.788 156.49 928 154.6 928 152.664C928 150.756 927.779 148.897 927.458 147.081A31.825 31.825 0 0 0 925.542 140.456A31.802 31.802 0 0 0 922.208 134.414C921.144 132.89 919.985 131.399 918.625 130.039L790.625 2.039C778.129 -10.456 757.871 -10.456 745.375 2.039C732.879 14.536 732.879 34.792 745.375 47.289L818.75 120.664H128C110.328 120.664 96.001 134.992 96 152.664C96 170.337 110.327 184.664 128 184.664H818.75L745.375 258.039C732.879 270.536 732.879 290.792 745.375 303.289zM233.375 729.956C245.872 742.453 266.128 742.453 278.625 729.956C291.121 717.459 291.121 697.202 278.625 684.706L205.25 611.331H896C913.673 611.331 928 597.004 928 579.331C927.999 561.659 913.672 547.331 896 547.331H205.25L278.625 473.956C291.121 461.459 291.121 441.202 278.625 428.706C266.129 416.211 245.871 416.211 233.375 428.706L105.375 556.706C104.009 558.072 102.817 559.55 101.75 561.081C100.439 562.963 99.304 564.976 98.417 567.123A31.9 31.9 0 0 0 96.5 573.748C96.18 575.561 96 577.425 96 579.331C96 581.264 96.172 583.159 96.5 584.998A31.971 31.971 0 0 0 98.333 591.373L98.5 591.789C98.994 592.958 99.668 594.03 100.292 595.123C101.676 597.548 103.305 599.886 105.375 601.956L233.375 729.956z" />
    <glyph glyph-name="arrow-export"
      unicode="&#xE908;"
      horiz-adv-x="1024" d="M640.002 611.333C693.752 611.333 745.287 589.965 783.294 551.958C821.301 513.951 842.669 462.417 842.669 408.667S821.301 303.382 783.294 265.375C745.287 227.368 693.752 206.001 640.002 206H247.919L363.961 89.958C376.456 77.462 376.456 57.205 363.961 44.708C351.464 32.212 331.208 32.213 318.711 44.708L148.044 215.375C135.547 227.872 135.547 248.128 148.044 260.625L318.711 431.292C331.208 443.787 351.464 443.788 363.961 431.292C376.456 418.795 376.456 398.538 363.961 386.042L247.919 270H640.002A138.661 138.661 0 0 1 738.044 310.625A138.659 138.659 0 0 1 778.669 408.667A138.656 138.656 0 0 1 738.044 506.708A138.653 138.653 0 0 1 640.002 547.333H597.336C579.663 547.333 565.336 561.66 565.336 579.333C565.336 597.006 579.663 611.333 597.336 611.333H640.002z" />
    <glyph glyph-name="arrow-open"
      unicode="&#xE909;"
      horiz-adv-x="1024" d="M617.375 601.953C629.871 614.45 650.128 614.449 662.625 601.953L833.292 431.287C845.788 418.79 845.788 398.533 833.292 386.037L662.625 215.37C650.128 202.874 629.871 202.874 617.375 215.37C604.88 227.866 604.88 248.124 617.375 260.62L733.417 376.662H341.333A138.66 138.66 0 0 1 243.292 336.037A138.655 138.655 0 0 1 202.667 237.995A138.659 138.659 0 0 1 243.292 139.953A138.66 138.66 0 0 1 341.333 99.328H384C401.673 99.328 416 85.001 416 67.328C416 49.655 401.673 35.328 384 35.328H341.333C287.584 35.329 236.048 56.697 198.042 94.703C160.035 132.711 138.667 184.245 138.667 237.995S160.035 343.279 198.042 381.287C236.048 419.293 287.584 440.661 341.333 440.662H733.417L617.375 556.703C604.88 569.2 604.88 589.457 617.375 601.953z" />
    <glyph glyph-name="arrow-sort"
      unicode="&#xE90A;"
      horiz-adv-x="1024" d="M278.461 689.505C291.029 699.754 309.579 699.011 321.294 687.297L491.961 516.63C504.456 504.134 504.454 483.877 491.961 471.38C479.464 458.883 459.208 458.883 446.711 471.38L330.669 587.422V67.338C330.669 49.666 316.341 35.34 298.669 35.338C280.996 35.338 266.669 49.665 266.669 67.338V587.422L150.627 471.38C138.131 458.883 117.874 458.883 105.377 471.38C92.882 483.877 92.881 504.134 105.377 516.63L276.044 687.297L278.461 689.505zM725.336 696.672C743.006 696.67 757.333 682.342 757.336 664.672V144.588L873.377 260.63C885.874 273.123 906.132 273.124 918.627 260.63C931.123 248.134 931.121 227.877 918.627 215.38L747.961 44.713C735.464 32.217 715.208 32.217 702.711 44.713L532.044 215.38C519.549 227.877 519.548 248.134 532.044 260.63C544.541 273.123 564.798 273.124 577.294 260.63L693.336 144.588V664.672C693.338 682.342 707.664 696.672 725.336 696.672z" />
    <glyph glyph-name="download"
      unicode="&#xE90F;"
      horiz-adv-x="1024" d="M853.333 184.667C871.006 184.667 885.333 170.34 885.333 152.667V67.333C885.333 36.215 872.963 6.379 850.958 -15.625A117.32 117.32 0 0 0 768 -50H256A117.32 117.32 0 0 0 173.042 -15.625A117.318 117.318 0 0 0 138.667 67.333V152.667C138.667 170.34 152.994 184.667 170.667 184.667C188.34 184.667 202.667 170.34 202.667 152.667V67.333L202.917 62.042A53.343 53.343 0 0 1 218.292 29.625A53.327 53.327 0 0 1 256 14H768A53.327 53.327 0 0 1 805.708 29.625A53.328 53.328 0 0 1 821.333 67.333V152.667C821.333 170.34 835.66 184.667 853.333 184.667zM512 739.333C529.673 739.333 544 725.006 544 707.333V272.583L702.708 431.292C715.205 443.789 735.462 443.789 747.958 431.292C760.455 418.795 760.455 398.539 747.958 386.042L534.625 172.708C532.551 170.635 530.18 169.052 527.75 167.667C526.59 167.005 525.453 166.307 524.208 165.792C522.84 165.227 521.42 164.867 520 164.5C519.44 164.355 518.905 164.115 518.333 164C518.098 163.953 517.861 163.917 517.625 163.875C515.796 163.55 513.922 163.333 512 163.333C510.064 163.333 508.175 163.546 506.333 163.875C506.097 163.917 505.86 163.952 505.625 164C505.054 164.116 504.518 164.355 503.958 164.5C502.54 164.869 501.117 165.226 499.75 165.792C498.507 166.308 497.367 167.004 496.208 167.667C493.79 169.049 491.44 170.644 489.375 172.708L276.042 386.042C263.545 398.539 263.545 418.795 276.042 431.292C288.538 443.789 308.795 443.789 321.292 431.292L480 272.583V707.333C480 725.006 494.327 739.333 512 739.333z" />
    <glyph glyph-name="pane-close"
      unicode="&#xE90B;"
      horiz-adv-x="1024" d="M574.708 473.958C587.205 486.455 607.462 486.455 619.958 473.958L705.292 388.625C717.788 376.128 717.788 355.872 705.292 343.375L619.958 258.042C607.462 245.545 587.205 245.545 574.708 258.042C562.212 270.538 562.212 290.795 574.708 303.292L637.417 366L574.708 428.708C562.212 441.205 562.212 461.462 574.708 473.958zM768 739.333C799.119 739.333 828.954 726.963 850.958 704.958A117.317 117.317 0 0 0 885.333 622V110C885.333 78.881 872.963 49.046 850.958 27.042A117.317 117.317 0 0 0 768 -7.333H256A117.317 117.317 0 0 0 173.042 27.042A117.317 117.317 0 0 0 138.667 110V622C138.667 653.119 151.037 682.954 173.042 704.958A117.317 117.317 0 0 0 256 739.333H768zM256 675.333A53.327 53.327 0 0 1 218.292 659.708A53.327 53.327 0 0 1 202.667 622V110L202.917 104.708A53.34 53.34 0 0 1 218.292 72.292A53.327 53.327 0 0 1 256 56.667H352V675.333H256zM416 56.667H768A53.327 53.327 0 0 1 805.708 72.292A53.327 53.327 0 0 1 821.333 110V622A53.327 53.327 0 0 1 805.708 659.708A53.34 53.34 0 0 1 773.292 675.083L768 675.333H416V56.667z" />
    <glyph glyph-name="pane-open"
      unicode="&#xE90C;"
      horiz-adv-x="1024" d="M617.375 473.958C629.872 486.455 650.128 486.455 662.625 473.958C675.122 461.462 675.122 441.205 662.625 428.708L599.917 366L662.625 303.292C675.122 290.795 675.122 270.538 662.625 258.042C650.128 245.545 629.872 245.545 617.375 258.042L532.042 343.375C519.545 355.872 519.545 376.128 532.042 388.625L617.375 473.958zM768 739.333C799.119 739.333 828.954 726.963 850.958 704.958A117.317 117.317 0 0 0 885.333 622V110C885.333 78.881 872.963 49.046 850.958 27.042A117.317 117.317 0 0 0 768 -7.333H256A117.317 117.317 0 0 0 173.042 27.042A117.317 117.317 0 0 0 138.667 110V622C138.667 653.119 151.037 682.954 173.042 704.958A117.317 117.317 0 0 0 256 739.333H768zM256 675.333A53.327 53.327 0 0 1 218.292 659.708A53.327 53.327 0 0 1 202.667 622V110L202.917 104.708A53.34 53.34 0 0 1 218.292 72.292A53.327 53.327 0 0 1 256 56.667H352V675.333H256zM416 56.667H768A53.327 53.327 0 0 1 805.708 72.292A53.327 53.327 0 0 1 821.333 110V622A53.327 53.327 0 0 1 805.708 659.708A53.34 53.34 0 0 1 773.292 675.083L768 675.333H416V56.667z" />
    <glyph glyph-name="switch"
      unicode="&#xE90D;"
      horiz-adv-x="1024" d="M318.72 345.947A32 32 0 1 0 363.947 300.72L247.893 184.667H554.667A32 32 0 0 0 554.667 120.667H247.893L363.947 4.613A32 32 0 1 0 318.72 -40.613L148.053 130.053A32 32 0 0 0 138.667 152.667A32.171 32.171 0 0 0 141.013 164.699L141.184 165.125C141.653 166.277 142.336 167.344 142.976 168.453A31.872 31.872 0 0 0 148.053 175.28L318.72 345.947zM660.053 772.613A32 32 0 0 0 705.28 772.613L875.947 601.947A31.787 31.787 0 0 0 880.981 595.12C881.664 593.968 882.347 592.816 882.859 591.579A31.829 31.829 0 0 0 879.531 561.072A32.555 32.555 0 0 0 875.947 556.72L705.28 386.053A32 32 0 1 0 660.053 431.28L776.107 547.333H426.667A32 32 0 0 0 426.667 611.333H776.107L660.053 727.387A32 32 0 0 0 660.053 772.613z" />
    <glyph glyph-name="requery"
      unicode="&#xE90E;"
      horiz-adv-x="1024" d="M384.018 739.35C401.677 739.34 416.009 725.009 416.018 707.35V536.683C416.018 519.016 401.682 504.693 384.018 504.683C366.345 504.683 352.018 519.01 352.018 536.683V633.725A313.757 313.757 0 0 1 245.351 523.85A313.684 313.684 0 0 1 205.893 326.85C214.697 258.636 245.706 195.223 294.101 146.35A313.565 313.565 0 0 1 473.726 56.391C491.223 53.958 503.44 37.764 501.018 20.266C498.579 2.771 482.432 -9.454 464.934 -7.025C382.898 4.375 306.88 42.457 248.601 101.308A377.63 377.63 0 0 0 142.434 318.683C131.842 400.819 148.507 484.182 189.934 555.891C217.4 603.429 254.79 644.05 299.101 675.35H213.351C195.678 675.35 181.351 689.677 181.351 707.35C181.36 725.015 195.683 739.35 213.351 739.35H384.018zM559.101 739.058A377.719 377.719 0 0 0 775.434 630.725C833.702 571.879 871 495.481 881.601 413.35A377.685 377.685 0 0 0 834.059 176.142C806.593 128.603 769.205 87.984 724.893 56.683H810.684C828.345 56.674 842.676 42.343 842.684 24.683C842.684 7.015 828.35 -7.308 810.684 -7.317H640.018C623.456 -7.317 609.832 5.265 608.184 21.391L608.018 24.683V195.35C608.027 213.015 622.35 227.35 640.018 227.35C657.678 227.341 672.009 213.01 672.018 195.35V98.35C715.859 125.463 752.601 163.105 778.643 208.183C813.041 267.739 826.944 336.972 818.143 405.183C809.336 473.392 778.326 536.814 729.934 585.683A313.657 313.657 0 0 1 550.268 675.641C532.768 678.079 520.544 694.265 522.976 711.766C525.422 729.256 541.606 741.49 559.101 739.058z" />
    <glyph glyph-name="upload"
      unicode="&#xE910;"
      horiz-adv-x="1024" d="M512 483.333C513.92 483.333 515.798 483.157 517.625 482.833C517.861 482.791 518.098 482.756 518.333 482.708C518.904 482.594 519.441 482.353 520 482.208C521.418 481.842 522.842 481.48 524.208 480.917C525.452 480.403 526.591 479.702 527.75 479.042C530.187 477.654 532.546 476.037 534.625 473.958L705.292 303.292C717.788 290.795 717.788 270.538 705.292 258.042C692.795 245.545 672.538 245.545 660.042 258.042L544 374.083V24.667C544 6.994 529.673 -7.333 512 -7.333C494.327 -7.333 480 6.994 480 24.667V374.083L363.958 258.042C351.462 245.545 331.205 245.545 318.708 258.042C306.212 270.538 306.212 290.795 318.708 303.292L489.375 473.958C491.445 476.028 493.783 477.657 496.208 479.042C497.301 479.666 498.373 480.339 499.542 480.833L499.958 481C501.258 481.527 502.613 481.859 503.958 482.208C504.517 482.353 505.055 482.593 505.625 482.708C505.86 482.756 506.098 482.791 506.333 482.833A32.17 32.17 0 0 0 512 483.333zM853.333 739.333C871.006 739.333 885.333 725.006 885.333 707.333C885.333 689.66 871.006 675.333 853.333 675.333H170.667C152.994 675.333 138.667 689.66 138.667 707.333C138.667 725.006 152.994 739.333 170.667 739.333H853.333z" />
    <glyph glyph-name="apply"
      unicode="&#xE911;"
      horiz-adv-x="1024" d="M640 739.333C657.673 739.333 672 725.006 672 707.333C672 689.66 657.673 675.333 640 675.333H256A53.327 53.327 0 0 1 218.292 659.708A53.327 53.327 0 0 1 202.667 622V110L202.917 104.708A53.34 53.34 0 0 1 218.292 72.292A53.327 53.327 0 0 1 256 56.667H768A53.327 53.327 0 0 1 805.708 72.292A53.327 53.327 0 0 1 821.333 110V366C821.333 383.673 835.66 398 853.333 398C871.006 398 885.333 383.673 885.333 366V110C885.333 78.881 872.963 49.046 850.958 27.042A117.317 117.317 0 0 0 768 -7.333H256A117.317 117.317 0 0 0 173.042 27.042A117.317 117.317 0 0 0 138.667 110V622C138.667 653.119 151.037 682.954 173.042 704.958A117.317 117.317 0 0 0 256 739.333H640zM830.708 644.625C843.205 657.122 863.462 657.122 875.958 644.625C888.454 632.128 888.455 611.871 875.958 599.375L534.625 258.042C522.129 245.547 501.871 245.546 489.375 258.042L361.375 386.042C348.879 398.538 348.88 418.795 361.375 431.292C373.872 443.788 394.128 443.788 406.625 431.292L512 325.917L830.708 644.625z" />
    <glyph glyph-name="unapply"
      unicode="&#xE912;"
      horiz-adv-x="1024" d="M105.377 772.623C117.874 785.119 138.131 785.119 150.627 772.623L849.044 74.206A32.24 32.24 0 0 0 851.002 72.414A32.05 32.05 0 0 0 852.752 70.498L918.627 4.623C931.122 -7.874 931.123 -28.131 918.627 -40.627C906.131 -53.123 885.874 -53.122 873.377 -40.627L825.127 7.623C821.194 5.424 817.18 3.358 813.002 1.623C802.312 -2.816 791.021 -5.616 779.544 -6.752L768.002 -7.336H256.002A117.333 117.333 0 0 0 173.044 27.039A117.329 117.329 0 0 0 138.669 109.998V621.998C138.669 642.757 144.075 662.283 153.544 679.206L105.377 727.373C92.881 739.869 92.881 760.126 105.377 772.623zM203.252 629.498C202.908 627.046 202.669 624.546 202.669 621.998V109.998L202.919 104.706A53.357 53.357 0 0 1 218.294 72.289A53.339 53.339 0 0 1 256.002 56.664H768.002L773.252 56.914C773.984 56.987 774.692 57.228 775.419 57.331L554.669 278.081L491.961 215.373C479.465 202.877 459.208 202.878 446.711 215.373L318.711 343.373C306.214 355.869 306.214 376.126 318.711 388.623C331.208 401.119 351.464 401.119 363.961 388.623L469.336 283.248L509.419 323.331L203.252 629.498zM768.002 739.331A117.329 117.329 0 0 0 850.961 704.956A117.333 117.333 0 0 0 885.336 621.998V195.331C885.334 177.66 871.007 163.332 853.336 163.331C835.663 163.331 821.337 177.659 821.336 195.331V621.998A53.339 53.339 0 0 1 805.711 659.706A53.357 53.357 0 0 1 773.294 675.081L768.002 675.331H341.336C323.663 675.331 309.337 689.659 309.336 707.331C309.336 725.004 323.663 739.331 341.336 739.331H768.002zM702.711 516.623C715.208 529.119 735.464 529.119 747.961 516.623C760.455 504.126 760.457 483.869 747.961 471.373L662.627 386.039C650.131 373.543 629.874 373.545 617.377 386.039C604.881 398.536 604.881 418.792 617.377 431.289L702.711 516.623z" />
    <glyph glyph-name="brand-excel"
      unicode="&#xE913;"
      horiz-adv-x="1024" d="M341.333 427.385L382.875 494.01H458.917L376.125 366.843L469.333 238.01H391.042L341.333 308.926L291.625 238.01H213.333L306.542 366.843L223.75 494.01H299.792L341.333 427.385zM725.333 269.801C743.001 269.801 757.325 255.468 757.333 237.801C757.333 220.128 743.006 205.801 725.333 205.801H682.667C664.994 205.801 650.667 220.128 650.667 237.801C650.675 255.468 664.998 269.801 682.667 269.801H725.333zM725.333 397.801C743.001 397.801 757.325 383.468 757.333 365.801C757.333 348.128 743.006 333.801 725.333 333.801H682.667C664.994 333.801 650.667 348.128 650.667 365.801C650.675 383.468 664.998 397.801 682.667 397.801H725.333zM725.333 525.801C743.001 525.801 757.325 511.468 757.333 493.801C757.333 476.128 743.006 461.801 725.333 461.801H682.667C664.994 461.801 650.667 476.128 650.667 493.801C650.675 511.468 664.999 525.801 682.667 525.801H725.333zM545.458 780.676C555.141 783.58 565.637 781.706 573.75 775.676A32.023 32.023 0 0 0 586.667 750.01V696.676H853.333L856.625 696.51C872.748 694.862 885.328 681.234 885.333 664.676V110.01C885.333 92.337 871.006 78.01 853.333 78.01H586.667V-17.99A32.015 32.015 0 0 0 574.958 -42.74A32.04 32.04 0 0 0 548.375 -49.365L121.708 35.968C106.76 38.966 96 52.095 96 67.343V622.01C96.004 636.135 105.263 648.614 118.792 652.676L545.458 780.676zM160 598.218V93.593L522.667 21.051V707.01L160 598.218zM586.667 142.01H821.333V632.676H586.667V142.01z" />
    <glyph glyph-name="logout"
      unicode="&#xE914;"
      horiz-adv-x="1024" d="M512 739.333C543.119 739.333 572.954 726.963 594.958 704.958A117.317 117.317 0 0 0 629.333 622V536.667C629.333 518.994 615.006 504.667 597.333 504.667C579.66 504.667 565.333 518.994 565.333 536.667V622A53.327 53.327 0 0 1 549.708 659.708A53.335 53.335 0 0 1 517.292 675.083L512 675.333H213.333A53.327 53.327 0 0 1 175.625 659.708A53.327 53.327 0 0 1 160 622V110A53.327 53.327 0 0 1 175.625 72.292A53.327 53.327 0 0 1 213.333 56.667H512A53.327 53.327 0 0 1 549.708 72.292A53.327 53.327 0 0 1 565.333 110V195.333C565.333 213.006 579.66 227.333 597.333 227.333C615.006 227.333 629.333 213.006 629.333 195.333V110C629.333 78.881 616.963 49.046 594.958 27.042A117.317 117.317 0 0 0 512 -7.333H213.333A117.318 117.318 0 0 0 130.375 27.042A117.32 117.32 0 0 0 96 110V622A117.32 117.32 0 0 0 130.375 704.958A117.318 117.318 0 0 0 213.333 739.333H512zM745.375 516.625C757.872 529.122 778.128 529.122 790.625 516.625L918.625 388.625C919.673 387.577 920.586 386.439 921.458 385.292C921.627 385.07 921.796 384.851 921.958 384.625C922.426 383.976 922.837 383.3 923.25 382.625A31.946 31.946 0 0 0 925.042 379.208C925.313 378.611 925.6 378.027 925.833 377.417A32.014 32.014 0 0 0 927.292 372.458C927.371 372.073 927.393 371.679 927.458 371.292C927.72 369.746 927.884 368.197 927.917 366.625C927.926 366.124 927.889 365.626 927.875 365.125A31.652 31.652 0 0 0 927.458 360.75C927.382 360.292 927.346 359.83 927.25 359.375C926.849 357.478 926.343 355.585 925.583 353.75C924.842 351.961 923.899 350.299 922.875 348.708C922.237 347.719 921.591 346.721 920.833 345.792C920.628 345.54 920.379 345.328 920.167 345.083C919.667 344.508 919.172 343.922 918.625 343.375L790.625 215.375C778.128 202.878 757.872 202.878 745.375 215.375S732.878 248.128 745.375 260.625L818.75 334H384C366.327 334 352 348.327 352 366C352 383.673 366.327 398 384 398H818.75L745.375 471.375C732.878 483.872 732.878 504.128 745.375 516.625z" />
    <glyph glyph-name="folder-ban"
      unicode="&#xE915;"
      horiz-adv-x="1024" d="M818.583 227.125A159.973 159.973 0 0 0 923.792 180.458A159.98 159.98 0 0 0 970.667 67.333L970.458 59.417A159.977 159.977 0 0 0 923.792 -45.792A159.977 159.977 0 0 0 818.583 -92.458L810.667 -92.667A159.987 159.987 0 0 0 697.542 -45.792A159.973 159.973 0 0 0 650.875 59.417L650.667 67.333A159.98 159.98 0 0 0 697.542 180.458A159.982 159.982 0 0 0 810.667 227.333L818.583 227.125zM769.375 -19.167C782.169 -25.277 796.218 -28.667 810.667 -28.667L820.167 -28.208A96.01 96.01 0 0 1 878.542 -0.542A95.994 95.994 0 0 1 906.667 67.333L906.208 76.833C905.103 87.958 902.027 98.726 897.25 108.708L769.375 -19.167zM810.667 163.333A95.987 95.987 0 0 1 742.792 135.208A95.987 95.987 0 0 1 714.667 67.333L715.125 57.833A95.83 95.83 0 0 1 724.042 26L852 153.958A95.83 95.83 0 0 1 820.167 162.875L810.667 163.333zM384 739.333A31.993 31.993 0 0 0 406.625 729.958L525.25 611.333H810.667C841.785 611.333 871.621 598.963 893.625 576.958A117.32 117.32 0 0 0 928 494V366C928 348.327 913.673 334 896 334C878.327 334 864 348.327 864 366V494A53.327 53.327 0 0 1 848.375 531.708A53.338 53.338 0 0 1 815.958 547.083L810.667 547.333H512A31.997 31.997 0 0 0 489.375 556.708L370.75 675.333H213.333A53.327 53.327 0 0 1 175.625 659.708A53.327 53.327 0 0 1 160 622V152.667A53.329 53.329 0 0 1 175.625 114.958A53.327 53.327 0 0 1 213.333 99.333H512C529.673 99.333 544 85.006 544 67.333C544 49.66 529.673 35.333 512 35.333H213.333A117.322 117.322 0 0 0 130.375 69.708A117.325 117.325 0 0 0 96 152.667V622A117.32 117.32 0 0 0 130.375 704.958A117.318 117.318 0 0 0 213.333 739.333H384z" />
    <glyph glyph-name="assets"
      unicode="&#xE916;"
      horiz-adv-x="1024" d="M571.351 782C600.451 781.998 626.287 767.252 643.934 744.792C661.436 722.517 670.393 693.619 670.393 664.667V536.667C670.393 518.994 656.066 504.667 638.393 504.667C620.72 504.667 606.393 518.994 606.393 536.667V664.667C606.393 680.978 601.247 695.519 593.601 705.25C586.105 714.788 577.811 717.998 571.351 718H236.101C229.641 717.998 221.347 714.788 213.851 705.25C206.205 695.519 201.059 680.978 201.059 664.667V14H510.393C528.066 14 542.393 -0.327 542.393 -18C542.393 -35.673 528.066 -50 510.393 -50H83.726C66.053 -50 51.726 -35.673 51.726 -18C51.726 -0.327 66.053 14 83.726 14H137.059V664.667C137.059 693.618 146.016 722.517 163.518 744.792C181.165 767.252 207.002 781.998 236.101 782H571.351zM760.143 440.458A31.985 31.985 0 0 0 781.518 428.667L876.976 309.375H887.809A84.584 84.584 0 0 0 947.601 284.625A84.525 84.525 0 0 0 972.351 224.875V119.833C972.343 102.17 958.015 87.839 940.351 87.833H913.518C909.312 77.549 903.103 68.089 895.101 60.083C879.254 44.237 857.72 35.336 835.309 35.333A84.55 84.55 0 0 0 775.559 60.083A84.458 84.458 0 0 0 757.101 87.833H650.976A84.458 84.458 0 0 0 632.518 60.083A84.586 84.586 0 0 0 572.726 35.333A84.57 84.57 0 0 0 512.976 60.083C504.974 68.089 498.766 77.549 494.559 87.833H467.726C450.058 87.833 435.734 102.167 435.726 119.833V277.375C435.726 281.44 436.51 285.475 438.018 289.25L490.518 420.542A32.023 32.023 0 0 0 520.226 440.667H756.559L760.143 440.458zM572.726 140.375A20.559 20.559 0 0 1 558.226 134.375A20.563 20.563 0 0 1 552.226 119.875A20.578 20.578 0 0 1 558.226 105.375C562.068 101.533 567.294 99.339 572.726 99.333C578.166 99.333 583.379 101.528 587.226 105.375C591.071 109.221 593.268 114.437 593.268 119.875C593.26 125.305 591.066 130.535 587.226 134.375A20.578 20.578 0 0 1 572.726 140.375zM835.309 140.375A20.566 20.566 0 0 1 820.809 134.375A20.563 20.563 0 0 1 814.809 119.875A20.551 20.551 0 0 1 820.809 105.375C824.653 101.531 829.874 99.337 835.309 99.333C840.746 99.336 845.965 101.531 849.809 105.375A20.5 20.5 0 0 1 855.809 119.625V120.167A20.569 20.569 0 0 1 849.809 134.375A20.568 20.568 0 0 1 835.309 140.375zM499.726 162.25C503.368 168.523 507.759 174.407 512.976 179.625A84.556 84.556 0 0 0 572.726 204.375A84.628 84.628 0 0 0 632.518 179.625A84.59 84.59 0 0 0 650.976 151.833H757.101A84.558 84.558 0 0 0 775.559 179.625A84.56 84.56 0 0 0 835.309 204.375C857.718 204.373 879.254 195.469 895.101 179.625C900.317 174.408 904.709 168.524 908.351 162.25V224.875A20.53 20.53 0 0 1 902.351 239.375C898.504 243.222 893.25 245.375 887.809 245.375H499.726V162.25zM514.976 309.375H672.018V376.667H541.893L514.976 309.375zM736.018 309.375H795.018L741.143 376.667H736.018V309.375zM339.726 227.333C357.399 227.333 371.726 213.006 371.726 195.333C371.726 177.66 357.399 163.333 339.726 163.333H297.059C279.386 163.333 265.059 177.66 265.059 195.333C265.059 213.006 279.386 227.333 297.059 227.333H339.726zM339.726 398C357.399 398 371.726 383.673 371.726 366C371.726 348.327 357.399 334 339.726 334H297.059C279.386 334 265.059 348.327 265.059 366C265.059 383.673 279.386 398 297.059 398H339.726zM339.726 568.667C357.399 568.667 371.726 554.34 371.726 536.667C371.726 518.994 357.399 504.667 339.726 504.667H297.059C279.386 504.667 265.059 518.994 265.059 536.667C265.059 554.34 279.386 568.667 297.059 568.667H339.726zM510.393 568.667C528.066 568.667 542.393 554.34 542.393 536.667C542.393 518.994 528.066 504.667 510.393 504.667H467.726C450.053 504.667 435.726 518.994 435.726 536.667C435.726 554.34 450.053 568.667 467.726 568.667H510.393z" />
    <glyph glyph-name="clip"
      unicode="&#xE917;"
      horiz-adv-x="1024" d="M789.013 579.353A149.008 149.008 0 0 1 745.388 684.686A149.075 149.075 0 0 1 640.013 728.353C600.49 728.353 562.584 712.633 534.638 684.686L257.304 407.353C212.392 362.437 187.143 301.537 187.138 238.019A239.557 239.557 0 0 1 257.304 68.644A239.547 239.547 0 0 1 426.679 -1.522A239.572 239.572 0 0 1 596.054 68.644L873.388 345.978C885.885 358.457 906.146 358.466 918.638 345.978C931.134 333.481 931.134 313.183 918.638 300.686L641.304 23.353C584.385 -33.564 507.173 -65.519 426.679 -65.522C346.187 -65.522 268.975 -33.559 212.054 23.353A303.634 303.634 0 0 0 123.138 238.019A303.582 303.582 0 0 0 212.054 452.644L489.388 729.978A213.048 213.048 0 0 0 640.013 792.353C696.503 792.349 750.692 769.921 790.638 729.978C830.582 690.033 853.008 635.842 853.013 579.353C853.013 522.856 830.587 468.635 790.638 428.686L513.304 151.353A122.54 122.54 0 0 0 426.679 115.478A122.557 122.557 0 0 0 340.054 151.353C317.079 174.328 304.138 205.528 304.138 238.019C304.143 270.504 317.084 301.674 340.054 324.644L617.388 601.978C629.885 614.457 650.146 614.466 662.638 601.978C675.134 589.481 675.134 569.183 662.638 556.686L385.304 279.353C374.339 268.385 368.143 253.528 368.138 238.019C368.138 222.503 374.334 207.617 385.304 196.644C396.277 185.672 411.162 179.478 426.679 179.478C442.193 179.481 457.085 185.675 468.054 196.644L745.388 473.978A149.059 149.059 0 0 1 789.013 579.353z" />
    <glyph glyph-name="lead"
      unicode="&#xE918;"
      horiz-adv-x="1024" d="M768 270A159.982 159.982 0 0 0 881.125 223.125A159.982 159.982 0 0 0 928 110L927.792 102.083C926.367 73.301 917.145 45.631 901.417 21.833L961.292 -38.042C973.779 -50.539 973.785 -70.798 961.292 -83.292C948.798 -95.784 928.539 -95.779 916.042 -83.292L856.167 -23.417C832.369 -39.145 804.699 -48.367 775.917 -49.792L768 -50A159.982 159.982 0 0 0 654.875 -3.125A159.982 159.982 0 0 0 608 110A159.982 159.982 0 0 0 654.875 223.125A159.982 159.982 0 0 0 768 270zM768 206A95.987 95.987 0 0 1 700.125 177.875A95.987 95.987 0 0 1 672 110A95.989 95.989 0 0 1 700.125 42.125A95.991 95.991 0 0 1 768 14L777.5 14.458A96.003 96.003 0 0 1 835.875 42.125A95.993 95.993 0 0 1 864 110L863.542 119.5A96.003 96.003 0 0 1 835.875 177.875A95.989 95.989 0 0 1 768 206zM490.667 270C508.34 270 522.667 255.673 522.667 238C522.667 220.327 508.34 206 490.667 206H426.667A138.653 138.653 0 0 1 328.625 165.375A138.653 138.653 0 0 1 288 67.333V-18C288 -35.673 273.673 -50 256 -50C238.327 -50 224 -35.673 224 -18V67.333C224 121.084 245.368 172.618 283.375 210.625C321.382 248.632 372.916 270 426.667 270H490.667zM512 782C565.751 782 617.284 760.632 655.292 722.625C693.299 684.618 714.667 633.084 714.667 579.333L714.417 569.292A202.651 202.651 0 0 0 655.292 436.042A202.646 202.646 0 0 0 522.042 376.917L512 376.667C458.249 376.667 406.716 398.034 368.708 436.042A202.651 202.651 0 0 0 309.583 569.292L309.333 579.333C309.333 633.084 330.701 684.618 368.708 722.625C406.716 760.632 458.249 782 512 782zM512 718A138.653 138.653 0 0 1 413.958 677.375A138.653 138.653 0 0 1 373.333 579.333L373.5 572.458A138.657 138.657 0 0 1 413.958 481.292A138.653 138.653 0 0 1 512 440.667L518.875 440.833A138.658 138.658 0 0 1 610.042 481.292A138.652 138.652 0 0 1 650.667 579.333L650.5 586.208A138.657 138.657 0 0 1 610.042 677.375A138.657 138.657 0 0 1 518.875 717.833L512 718z" />
    <glyph glyph-name="currency-uah"
      unicode="&#xE91A;"
      horiz-adv-x="1024" d="M566.125 611.292C590.48 611.292 613.77 602.437 632.333 586.667C650.845 570.938 663.579 549.332 669.042 525.542C674.503 501.762 672.362 476.656 662.875 454.208C660.891 449.514 658.534 445.015 655.958 440.667H682.667C700.34 440.667 714.667 426.34 714.667 408.667C714.667 390.994 700.34 376.667 682.667 376.667H570.417L531.208 355.333H682.667C700.34 355.333 714.667 341.006 714.667 323.333C714.667 305.66 700.34 291.333 682.667 291.333H428.875C426.564 287.94 424.47 284.295 422.708 280.375C416.397 266.329 414.429 250.204 417.292 234.625C420.021 219.795 427.3 206.962 437.292 198.042C447.23 189.176 459.244 184.669 471.208 184.667H552.125C560.74 184.667 569.49 187.774 576.917 194.083C584.399 200.443 590.134 209.762 592.667 220.792C596.626 238.007 613.781 248.742 631 244.792C648.224 240.837 658.996 223.683 655.042 206.458C649.579 182.668 636.844 161.062 618.333 145.333C599.762 129.556 576.449 120.659 552.083 120.667H471.208C442.92 120.669 415.903 131.348 394.708 150.25C373.567 169.108 359.503 194.955 354.333 223.083C350.147 245.876 351.716 269.386 358.625 291.333H341.333C323.66 291.333 309.333 305.66 309.333 323.333C309.333 341.006 323.66 355.333 341.333 355.333H401.667C407.502 360.053 413.732 364.301 420.375 367.917L436.458 376.667H341.333C323.66 376.667 309.333 390.994 309.333 408.667C309.333 426.34 323.66 440.667 341.333 440.667H554.042L584.917 457.458C592.838 461.77 599.772 469.22 603.958 479.125C608.149 489.05 609.143 500.421 606.667 511.208C604.134 522.239 598.4 531.557 590.917 537.917C583.49 544.226 574.741 547.334 566.125 547.333H471.542C462.926 547.333 454.176 544.226 446.75 537.917C439.268 531.557 433.533 522.238 431 511.208C427.04 493.993 409.885 483.259 392.667 487.208C375.442 491.163 364.671 508.317 368.625 525.542C374.087 549.332 386.822 570.938 405.333 586.667C423.905 602.444 447.217 611.341 471.583 611.333L566.125 611.292zM512 782A416.056 416.056 0 0 0 806.167 660.167A416.056 416.056 0 0 0 928 366L927.5 345.542A416.06 416.06 0 0 0 896.333 206.792A416.028 416.028 0 0 0 806.167 71.833A416.028 416.028 0 0 0 671.208 -18.333A416.06 416.06 0 0 0 532.458 -49.5L512 -50A416.056 416.056 0 0 0 217.833 71.833A416.028 416.028 0 0 0 127.667 206.792A416.053 416.053 0 0 0 96.5 345.542L96 366A416.056 416.056 0 0 0 217.833 660.167A416.056 416.056 0 0 0 512 782zM512 718A352.007 352.007 0 0 1 377.292 691.208A352.027 352.027 0 0 1 263.083 614.917A352.027 352.027 0 0 1 186.792 500.708A352.007 352.007 0 0 1 160 366L160.417 348.708A352.014 352.014 0 0 1 186.792 231.292A352.027 352.027 0 0 1 263.083 117.083A352.027 352.027 0 0 1 377.292 40.792A352.007 352.007 0 0 1 512 14L529.292 14.417A352.014 352.014 0 0 1 646.708 40.792A352.027 352.027 0 0 1 760.917 117.083A352.027 352.027 0 0 1 837.208 231.292A352.007 352.007 0 0 1 864 366L863.583 383.292A352.014 352.014 0 0 1 837.208 500.708A352.027 352.027 0 0 1 760.917 614.917A352.027 352.027 0 0 1 646.708 691.208A352.007 352.007 0 0 1 512 718z" />
    <glyph glyph-name="currency-usd"
      unicode="&#xE91B;"
      horiz-adv-x="1024" d="M512 611.333C529.673 611.333 544 597.006 544 579.333V568.667H554.667A117.332 117.332 0 0 0 614.5 553.958A117.524 117.524 0 0 0 659.208 509.958C668.015 494.651 662.761 475.072 647.458 466.25C632.153 457.429 612.58 462.702 603.75 478A53.401 53.401 0 0 1 583.458 498A53.392 53.392 0 0 1 555.75 504.667H544V398H554.667A117.333 117.333 0 0 0 637.625 363.625A117.345 117.345 0 0 0 672 280.667A117.343 117.343 0 0 0 637.625 197.708A117.333 117.333 0 0 0 554.667 163.333H544V152.667C544 134.994 529.673 120.667 512 120.667C494.327 120.667 480 134.994 480 152.667V163.333H462.458A117.35 117.35 0 0 0 409.5 178.042C390.9 188.375 375.419 203.567 364.792 222C355.968 237.307 361.241 256.878 376.542 265.708C391.853 274.535 411.423 269.269 420.25 253.958A53.37 53.37 0 0 1 440.542 234C448.994 229.305 458.586 226.968 468.25 227.292C468.609 227.304 468.974 227.333 469.333 227.333H480V334H469.333A117.328 117.328 0 0 0 386.375 368.375A117.343 117.343 0 0 0 352 451.333A117.35 117.35 0 0 0 386.375 534.292A117.333 117.333 0 0 0 469.333 568.667H480V579.333C480 597.006 494.327 611.333 512 611.333zM544 227.333H554.667A53.35 53.35 0 0 1 608 280.667A53.351 53.351 0 0 1 554.667 334H544V227.333zM469.333 504.667A53.339 53.339 0 0 1 431.625 489.042A53.352 53.352 0 0 1 416 451.333A53.347 53.347 0 0 1 469.333 398H480V504.667H469.333zM512 782A416.056 416.056 0 0 0 806.167 660.167A416.056 416.056 0 0 0 928 366L927.5 345.542A416.06 416.06 0 0 0 896.333 206.792A416.028 416.028 0 0 0 806.167 71.833A416.028 416.028 0 0 0 671.208 -18.333A416.06 416.06 0 0 0 532.458 -49.5L512 -50A416.056 416.056 0 0 0 217.833 71.833A416.028 416.028 0 0 0 127.667 206.792A416.053 416.053 0 0 0 96.5 345.542L96 366A416.056 416.056 0 0 0 217.833 660.167A416.056 416.056 0 0 0 512 782zM512 718A352.007 352.007 0 0 1 377.292 691.208A352.027 352.027 0 0 1 263.083 614.917A352.027 352.027 0 0 1 186.792 500.708A352.007 352.007 0 0 1 160 366L160.417 348.708A352.014 352.014 0 0 1 186.792 231.292A352.027 352.027 0 0 1 263.083 117.083A352.027 352.027 0 0 1 377.292 40.792A352.007 352.007 0 0 1 512 14L529.292 14.417A352.014 352.014 0 0 1 646.708 40.792A352.027 352.027 0 0 1 760.917 117.083A352.027 352.027 0 0 1 837.208 231.292A352.007 352.007 0 0 1 864 366L863.583 383.292A352.014 352.014 0 0 1 837.208 500.708A352.027 352.027 0 0 1 760.917 614.917A352.027 352.027 0 0 1 646.708 691.208A352.007 352.007 0 0 1 512 718z" />
    <glyph glyph-name="currency-eur"
      unicode="&#xE91C;"
      horiz-adv-x="1024" d="M512 611.333C559.668 611.333 602.704 591.565 636.333 560C649.218 547.905 649.887 527.635 637.792 514.75C625.696 501.865 605.427 501.239 592.542 513.333C569.084 535.354 541.214 547.333 512 547.333C465.519 547.333 419.922 514.92 394.333 462H469.333C487.006 462 501.333 447.673 501.333 430C501.333 412.327 487.006 398 469.333 398H375.458A241.26 241.26 0 0 1 373.333 366C373.333 354.967 374.082 344.288 375.458 334H469.333C487.006 334 501.333 319.673 501.333 302C501.333 284.327 487.006 270 469.333 270H394.333C419.922 217.08 465.519 184.667 512 184.667C541.167 184.667 569.038 196.642 592.5 218.667C605.385 230.761 625.655 230.135 637.75 217.25C649.845 204.365 649.177 184.095 636.292 172C602.667 140.438 559.631 120.667 512 120.667C424.493 120.667 355.58 184.683 325.625 270H298.667C280.994 270 266.667 284.327 266.667 302C266.667 319.673 280.994 334 298.667 334H311.125C309.968 344.546 309.333 355.23 309.333 366S309.968 387.454 311.125 398H298.667C280.994 398 266.667 412.327 266.667 430C266.667 447.673 280.994 462 298.667 462H325.625C355.58 547.317 424.493 611.333 512 611.333zM512 782A416.056 416.056 0 0 0 806.167 660.167A416.056 416.056 0 0 0 928 366L927.5 345.542A416.06 416.06 0 0 0 896.333 206.792A416.028 416.028 0 0 0 806.167 71.833A416.028 416.028 0 0 0 671.208 -18.333A416.06 416.06 0 0 0 532.458 -49.5L512 -50A416.056 416.056 0 0 0 217.833 71.833A416.028 416.028 0 0 0 127.667 206.792A416.053 416.053 0 0 0 96.5 345.542L96 366A416.056 416.056 0 0 0 217.833 660.167A416.056 416.056 0 0 0 512 782zM512 718A352.007 352.007 0 0 1 377.292 691.208A352.027 352.027 0 0 1 263.083 614.917A352.027 352.027 0 0 1 186.792 500.708A352.007 352.007 0 0 1 160 366L160.417 348.708A352.014 352.014 0 0 1 186.792 231.292A352.027 352.027 0 0 1 263.083 117.083A352.027 352.027 0 0 1 377.292 40.792A352.007 352.007 0 0 1 512 14L529.292 14.417A352.014 352.014 0 0 1 646.708 40.792A352.027 352.027 0 0 1 760.917 117.083A352.027 352.027 0 0 1 837.208 231.292A352.007 352.007 0 0 1 864 366L863.583 383.292A352.014 352.014 0 0 1 837.208 500.708A352.027 352.027 0 0 1 760.917 614.917A352.027 352.027 0 0 1 646.708 691.208A352.007 352.007 0 0 1 512 718z" />
    <glyph glyph-name="currency-other"
      unicode="&#xE91F;"
      horiz-adv-x="1024" d="M660.042 559.292C672.538 571.788 692.795 571.788 705.292 559.292C717.788 546.795 717.788 526.538 705.292 514.042L645.458 454.25A159.183 159.183 0 0 0 659.833 427.25A160.088 160.088 0 0 0 672 366C672 344.989 667.874 324.162 659.833 304.75C655.916 295.296 651.081 286.283 645.458 277.792L705.292 217.958C717.788 205.462 717.788 185.205 705.292 172.708C692.795 160.212 672.538 160.212 660.042 172.708L600.208 232.542C591.717 226.919 582.704 222.084 573.25 218.167A160.088 160.088 0 0 0 512 206A160.088 160.088 0 0 0 450.75 218.167A159.183 159.183 0 0 0 423.75 232.542L363.958 172.708C351.462 160.212 331.205 160.212 318.708 172.708C306.212 185.205 306.212 205.462 318.708 217.958L378.5 277.792A159.28 159.28 0 0 0 364.167 304.75A160.084 160.084 0 0 0 352 366C352 387.011 356.126 407.838 364.167 427.25C368.085 436.707 372.874 445.756 378.5 454.25L318.708 514.042C306.212 526.538 306.212 546.795 318.708 559.292C331.205 571.788 351.462 571.788 363.958 559.292L423.75 499.5C432.244 505.126 441.293 509.915 450.75 513.833A160.088 160.088 0 0 0 512 526C533.012 526 553.838 521.874 573.25 513.833A159.28 159.28 0 0 0 600.208 499.5L660.042 559.292zM512 462A96.035 96.035 0 0 1 475.25 454.708C463.605 449.884 453.038 442.788 444.125 433.875C435.212 424.962 428.116 414.395 423.292 402.75A96.035 96.035 0 0 1 416 366A96.035 96.035 0 0 1 423.292 329.25C428.116 317.605 435.212 307.038 444.125 298.125C453.038 289.212 463.605 282.116 475.25 277.292A96.035 96.035 0 0 1 512 270A96.035 96.035 0 0 1 548.75 277.292C560.395 282.116 570.962 289.212 579.875 298.125C588.788 307.038 595.884 317.605 600.708 329.25A96.035 96.035 0 0 1 608 366A96.035 96.035 0 0 1 600.708 402.75C595.884 414.395 588.788 424.962 579.875 433.875C570.962 442.788 560.395 449.884 548.75 454.708A96.035 96.035 0 0 1 512 462zM512 782A416.056 416.056 0 0 0 806.167 660.167A416.056 416.056 0 0 0 928 366L927.5 345.542A416.06 416.06 0 0 0 896.333 206.792A416.028 416.028 0 0 0 806.167 71.833A416.028 416.028 0 0 0 671.208 -18.333A416.06 416.06 0 0 0 532.458 -49.5L512 -50A416.056 416.056 0 0 0 217.833 71.833A416.028 416.028 0 0 0 127.667 206.792A416.053 416.053 0 0 0 96.5 345.542L96 366A416.056 416.056 0 0 0 217.833 660.167A416.056 416.056 0 0 0 512 782zM512 718A352.007 352.007 0 0 1 377.292 691.208A352.027 352.027 0 0 1 263.083 614.917A352.027 352.027 0 0 1 186.792 500.708A352.007 352.007 0 0 1 160 366L160.417 348.708A352.014 352.014 0 0 1 186.792 231.292A352.027 352.027 0 0 1 263.083 117.083A352.027 352.027 0 0 1 377.292 40.792A352.007 352.007 0 0 1 512 14L529.292 14.417A352.014 352.014 0 0 1 646.708 40.792A352.027 352.027 0 0 1 760.917 117.083A352.027 352.027 0 0 1 837.208 231.292A352.007 352.007 0 0 1 864 366L863.583 383.292A352.014 352.014 0 0 1 837.208 500.708A352.027 352.027 0 0 1 760.917 614.917A352.027 352.027 0 0 1 646.708 691.208A352.007 352.007 0 0 1 512 718z" />
    <glyph glyph-name="bookmark"
      unicode="&#xE920;"
      horiz-adv-x="1024" d="M597.333 782C651.084 782 702.618 760.632 740.625 722.625C778.632 684.618 800 633.084 800 579.333V-18C800 -29.801 793.488 -40.64 783.083 -46.208A31.987 31.987 0 0 0 750.25 -44.625L512 114.208L273.75 -44.625A31.987 31.987 0 0 0 240.917 -46.208C230.512 -40.64 224 -29.801 224 -18V579.333C224 633.084 245.368 684.618 283.375 722.625C321.382 760.632 372.916 782 426.667 782H597.333zM426.667 718A138.653 138.653 0 0 1 328.625 677.375A138.653 138.653 0 0 1 288 579.333V41.792L494.25 179.292L498.417 181.625C508.447 186.333 520.342 185.564 529.75 179.292L736 41.792V579.333C736 616.11 721.38 651.37 695.375 677.375A138.653 138.653 0 0 1 597.333 718H426.667z" />
    <glyph glyph-name="code"
      unicode="&#xE921;"
      horiz-adv-x="1024" d="M256.002 696.667C273.674 696.665 288.002 682.339 288.002 664.667C288.002 646.994 273.674 632.668 256.002 632.667A53.333 53.333 0 0 1 218.294 617.042A53.329 53.329 0 0 1 202.669 579.333V408.667A32.001 32.001 0 0 0 193.294 386.042L173.252 366L193.294 345.958A32.001 32.001 0 0 0 202.669 323.333V152.667L202.919 147.375A53.343 53.343 0 0 1 218.294 114.958A53.333 53.333 0 0 1 256.002 99.333C273.674 99.332 288.002 85.006 288.002 67.333C288.002 49.661 273.674 35.335 256.002 35.333A117.327 117.327 0 0 0 173.044 69.708A117.325 117.325 0 0 0 138.669 152.667V310.083L105.377 343.375C92.881 355.872 92.881 376.128 105.377 388.625L138.669 421.917V579.333A117.325 117.325 0 0 0 173.044 662.292A117.327 117.327 0 0 0 256.002 696.667zM768.002 696.667A117.333 117.333 0 0 0 850.961 662.292A117.327 117.327 0 0 0 885.336 579.333V421.917L918.627 388.625C931.123 376.129 931.123 355.871 918.627 343.375L885.336 310.083V152.667A117.33 117.33 0 0 0 850.961 69.708A117.333 117.333 0 0 0 768.002 35.333C750.329 35.333 736.002 49.66 736.002 67.333C736.002 85.006 750.329 99.333 768.002 99.333A53.34 53.34 0 0 1 805.711 114.958A53.333 53.333 0 0 1 821.336 152.667V323.333A31.997 31.997 0 0 0 830.711 345.958L850.752 366L830.711 386.042A31.997 31.997 0 0 0 821.336 408.667V579.333A53.333 53.333 0 0 1 805.711 617.042A53.34 53.34 0 0 1 768.002 632.667C750.329 632.667 736.002 646.994 736.002 664.667C736.002 682.34 750.329 696.667 768.002 696.667zM384.419 398C402.091 397.999 416.419 383.672 416.419 366S402.091 334.001 384.419 334H384.002C366.329 334 352.002 348.327 352.002 366C352.002 383.673 366.329 398 384.002 398H384.419zM512.419 398C530.091 397.999 544.419 383.672 544.419 366S530.091 334.001 512.419 334H512.002C494.329 334 480.002 348.327 480.002 366C480.002 383.673 494.329 398 512.002 398H512.419zM640.419 398C658.091 397.999 672.419 383.672 672.419 366S658.091 334.001 640.419 334H640.002C622.329 334 608.002 348.327 608.002 366C608.002 383.673 622.329 398 640.002 398H640.419z" />
    <glyph glyph-name="chart-area"
      unicode="&#xE922;"
      horiz-adv-x="1024" d="M680.923 483.283A32.014 32.014 0 0 0 705.298 473.95L875.965 303.283A32.023 32.023 0 0 0 885.34 280.658V67.325C885.335 49.658 871.007 35.328 853.34 35.325H170.673C158.875 35.325 148.035 41.842 142.465 52.241A31.995 31.995 0 0 0 144.048 85.075L314.715 341.075L318.465 345.7C328.015 355.476 343.009 358.252 355.631 351.95L503.131 278.2L657.673 471.325L659.923 473.866C665.473 479.468 672.97 482.843 680.923 483.283zM537.006 217.991C527.586 206.218 511.205 202.636 497.715 209.366L352.298 282.075L230.465 99.325H821.34V267.408L685.34 403.408L537.006 217.991zM681.215 739.283A32.019 32.019 0 0 0 705.298 729.95L875.965 559.283C888.454 546.786 888.459 526.527 875.965 514.033C863.47 501.54 843.212 501.544 830.715 514.033L684.798 659.95L493.923 430.825C484.421 419.432 468.321 416.078 455.048 422.7L308.215 496.116L196.256 346.783C185.651 332.661 165.597 329.815 151.465 340.408C137.339 351.014 134.491 371.066 145.09 385.2L273.09 555.866L276.881 560.116C286.498 569.06 300.868 571.323 312.965 565.283L460.965 491.283L658.09 727.825L660.381 730.283A31.994 31.994 0 0 0 681.215 739.283z" />
    <glyph glyph-name="chart-bar"
      unicode="&#xE923;"
      horiz-adv-x="1024" d="M512 739.333C530.107 739.333 548.402 733.387 562.667 721.5C577.094 709.474 586.662 691.778 586.667 671.792V529.542C586.666 528.351 586.526 527.174 586.458 526H853.333C871.441 526 889.736 520.054 904 508.167C918.427 496.141 927.996 478.445 928 458.458V316.208C927.996 296.222 918.427 278.526 904 266.5C889.736 254.613 871.441 248.667 853.333 248.667H757.125C757.192 247.493 757.333 246.316 757.333 245.125V102.875C757.329 82.889 747.76 65.193 733.333 53.167C719.069 41.28 700.774 35.333 682.667 35.333H256C237.893 35.333 219.598 41.28 205.333 53.167C190.906 65.193 181.338 82.889 181.333 102.875V671.792C181.338 691.778 190.906 709.474 205.333 721.5C219.598 733.387 237.893 739.333 256 739.333H512zM256 248.667C251.483 248.667 248.075 247.113 246.333 245.667C245.707 245.144 245.443 244.719 245.333 244.542V103.458C245.443 103.28 245.707 102.855 246.333 102.333C248.075 100.886 251.483 99.333 256 99.333H682.667C687.184 99.333 690.592 100.886 692.333 102.333C692.96 102.855 693.223 103.28 693.333 103.458V244.542C693.223 244.719 692.96 245.145 692.333 245.667C690.592 247.113 687.184 248.667 682.667 248.667H256zM256 462C251.483 462 248.075 460.447 246.333 459C245.707 458.478 245.443 458.053 245.333 457.875V316.792C245.443 316.614 245.707 316.189 246.333 315.667C248.075 314.22 251.483 312.667 256 312.667H853.333C857.85 312.667 861.259 314.22 863 315.667C863.627 316.189 863.89 316.614 864 316.792V457.875C863.89 458.053 863.627 458.478 863 459C861.259 460.447 857.85 462 853.333 462H256zM252.833 675.083C249.881 674.582 247.641 673.419 246.333 672.333C245.707 671.811 245.443 671.386 245.333 671.208V530.125C245.443 529.947 245.707 529.522 246.333 529C248.075 527.553 251.483 526 256 526H512C516.517 526 519.925 527.553 521.667 529C522.293 529.522 522.557 529.947 522.667 530.125V671.208C522.557 671.386 522.293 671.811 521.667 672.333C519.925 673.78 516.517 675.333 512 675.333H256L252.833 675.083z" />
    <glyph glyph-name="chart-column"
      unicode="&#xE924;"
      horiz-adv-x="1024" d="M597.333 739.333A74.659 74.659 0 0 0 650.125 717.458A74.656 74.656 0 0 0 672 664.667V567.833C675.515 568.341 679.073 568.667 682.667 568.667H853.333L860.708 568.292A74.654 74.654 0 0 0 906.125 546.792A74.659 74.659 0 0 0 928 494V67.333A74.656 74.656 0 0 0 906.125 14.542A74.659 74.659 0 0 0 853.333 -7.333H170.667C169.54 -7.333 168.43 -7.239 167.333 -7.125C148.746 -6.293 131.089 1.328 117.875 14.542A74.655 74.655 0 0 0 96 67.333V323.333A74.659 74.659 0 0 0 117.875 376.125A74.659 74.659 0 0 0 170.667 398H341.333C344.927 398 348.485 397.675 352 397.167V664.667A74.656 74.656 0 0 0 373.875 717.458A74.659 74.659 0 0 0 426.667 739.333H597.333zM170.667 334A10.667 10.667 0 0 1 160 323.333V67.333L160.208 65.25A10.662 10.662 0 0 1 170.667 56.667H341.333C344.162 56.667 346.875 57.791 348.875 59.792C350.875 61.792 352 64.504 352 67.333V323.333A10.667 10.667 0 0 1 341.333 334H170.667zM426.667 675.333A10.663 10.663 0 0 1 419.125 672.208C417.125 670.208 416 667.496 416 664.667V67.333C416 64.504 417.125 61.792 419.125 59.792C421.125 57.791 423.838 56.667 426.667 56.667H597.333C600.162 56.667 602.875 57.791 604.875 59.792C606.875 61.792 608 64.504 608 67.333V664.667C608 667.496 606.875 670.208 604.875 672.208A10.663 10.663 0 0 1 597.333 675.333H426.667zM682.667 504.667A10.667 10.667 0 0 1 672 494V67.333C672 64.504 673.125 61.792 675.125 59.792C677.125 57.791 679.838 56.667 682.667 56.667H853.333C856.162 56.667 858.875 57.791 860.875 59.792C862.875 61.792 864 64.504 864 67.333V494A10.669 10.669 0 0 1 853.333 504.667H682.667z" />
    <glyph glyph-name="chart-pie"
      unicode="&#xE925;"
      horiz-adv-x="1024" d="M422.94 773.235C432.185 774.319 441.574 773.588 450.523 771.027A70.59 70.59 0 0 0 475.148 758.319A70.448 70.448 0 0 0 492.94 737.11A70.454 70.454 0 0 0 501.19 710.694C501.305 709.594 501.356 708.466 501.357 707.36V408.694A53.424 53.424 0 0 1 516.982 370.944C526.982 360.954 540.554 355.361 554.69 355.361H844.815A74.722 74.722 0 0 0 897.607 333.486A74.73 74.73 0 0 0 919.482 280.694C919.482 278.264 919.197 275.811 918.648 273.444A416.116 416.116 0 0 0 814.94 80.819A416.057 416.057 0 0 0 627.898 -32.556A416.104 416.104 0 0 0 409.149 -35.348A416.068 416.068 0 0 0 219.232 73.235C166.751 125.718 129.29 191.3 110.69 263.152A415.97 415.97 0 0 0 113.482 481.86A416.052 416.052 0 0 0 226.857 668.944C280.657 720.063 347.144 755.891 419.44 772.652L422.94 773.235zM431.148 709.652A352.045 352.045 0 0 1 270.94 622.569A352.102 352.102 0 0 1 174.982 464.277C157.699 403.901 156.912 339.991 172.649 279.194C188.387 218.396 220.075 162.894 264.482 118.485A352.093 352.093 0 0 1 425.19 26.61A352.07 352.07 0 0 1 610.273 28.985A352.06 352.06 0 0 1 768.565 124.902C810.717 169.263 840.486 223.871 855.107 283.235C854.643 285.098 853.736 286.855 852.357 288.235A10.723 10.723 0 0 1 844.815 291.36H554.69C523.572 291.36 493.694 303.691 471.69 325.694C449.688 347.698 437.357 377.577 437.357 408.694V704.527C437.232 705.175 437.091 705.821 436.773 706.402A6.425 6.425 0 0 1 435.148 708.319A6.521 6.521 0 0 1 432.898 709.485C432.331 709.647 431.736 709.653 431.148 709.652zM621.482 754.777C629.951 760.774 640.818 762.261 650.607 758.819A416 416 0 0 0 806.607 660.61A415.982 415.982 0 0 0 904.815 504.61C908.26 494.821 906.771 483.956 900.773 475.485C894.773 467.025 885.022 461.985 874.648 461.985H682.648A74.702 74.702 0 0 0 629.857 483.86A74.702 74.702 0 0 0 607.982 536.652V728.652A32.054 32.054 0 0 0 621.482 754.777zM671.982 536.652A10.706 10.706 0 0 1 675.107 529.11A10.708 10.708 0 0 1 682.648 525.985H826.107C809.366 558.898 787.603 589.114 761.357 615.36C735.111 641.606 704.894 663.371 671.982 680.11V536.652z" />
    <glyph glyph-name="chart-pivot"
      unicode="&#xE926;"
      horiz-adv-x="1024" d="M745.375 559.292C757.872 571.788 778.128 571.788 790.625 559.292L918.625 431.292C931.122 418.795 931.122 398.538 918.625 386.042C906.128 373.545 885.872 373.545 873.375 386.042L800 459.417V110C800 92.327 785.673 78 768 78H384C380.565 78 377.31 78.707 374.208 79.708L449.292 4.625C461.788 -7.872 461.788 -28.128 449.292 -40.625C436.795 -53.122 416.538 -53.122 404.042 -40.625L276.042 87.375C263.545 99.872 263.545 120.128 276.042 132.625L404.042 260.625C416.538 273.122 436.795 273.122 449.292 260.625C461.788 248.128 461.788 227.872 449.292 215.375L374.208 140.333C377.306 141.333 380.57 142 384 142H736V459.417L662.625 386.042C650.128 373.545 629.872 373.545 617.375 386.042C604.878 398.538 604.878 418.795 617.375 431.292L745.375 559.292zM343.917 110L353.667 100.25C352.675 103.337 352 106.584 352 110C352 113.43 352.667 116.694 353.667 119.792L343.917 110zM170.667 611.333C188.34 611.333 202.667 597.006 202.667 579.333V110C202.667 92.327 188.34 78 170.667 78C152.994 78 138.667 92.327 138.667 110V579.333C138.667 597.006 152.994 611.333 170.667 611.333zM170.667 739.333C188.34 739.333 202.667 725.006 202.667 707.333C202.667 689.66 188.34 675.333 170.667 675.333C152.994 675.333 138.667 689.66 138.667 707.333C138.667 725.006 152.994 739.333 170.667 739.333zM768 739.333C785.673 739.333 800 725.006 800 707.333C800 689.66 785.673 675.333 768 675.333H298.667C280.994 675.333 266.667 689.66 266.667 707.333C266.667 725.006 280.994 739.333 298.667 739.333H768z" />
    <glyph glyph-name="chart-stacked-area"
      unicode="&#xE927;"
      horiz-adv-x="1024" d="M853.333 99.339C871.004 99.339 885.33 85.01 885.333 67.339C885.333 49.666 871.006 35.339 853.333 35.339H170.667C152.994 35.339 138.667 49.666 138.667 67.339C138.67 85.01 152.996 99.339 170.667 99.339H853.333zM680.917 653.964A32.008 32.008 0 0 0 705.292 644.631L875.958 473.964C881.958 467.965 885.332 459.824 885.333 451.339V238.006C885.333 220.333 871.006 206.006 853.333 206.006H170.667C158.865 206.006 148.027 212.518 142.458 222.923A31.996 31.996 0 0 0 144.042 255.756L314.708 511.756L318.458 516.381C328.008 526.155 343.004 528.931 355.625 522.631L503.125 448.881L657.667 642.006L659.917 644.548C665.466 650.148 672.965 653.524 680.917 653.964zM537 388.673C527.578 376.895 511.201 373.311 497.708 380.048L352.292 452.756L230.458 270.006H821.333V438.089L685.333 574.089L537 388.673z" />
    <glyph glyph-name="chart-stacked-bar"
      unicode="&#xE928;"
      horiz-adv-x="1024" d="M170.667 782C188.34 782 202.667 767.673 202.667 750V653.25C206.211 653.71 209.772 654 213.333 654H512C530.107 654 548.402 648.054 562.667 636.167C577.094 624.141 586.662 606.445 586.667 586.458V444.208C586.666 443.017 586.526 441.841 586.458 440.667H853.333A74.663 74.663 0 0 0 906.125 418.792A74.659 74.659 0 0 0 928 366V195.333A74.656 74.656 0 0 0 906.125 142.542C892.902 129.318 875.228 121.697 856.625 120.875C855.541 120.764 854.446 120.667 853.333 120.667H213.333C209.737 120.667 206.184 121.033 202.667 121.542V24.667C202.667 6.994 188.34 -7.333 170.667 -7.333C152.994 -7.333 138.667 6.994 138.667 24.667V750C138.667 767.673 152.994 782 170.667 782zM211.25 376.458A10.66 10.66 0 0 1 202.667 366V195.333A10.66 10.66 0 0 1 205.792 187.792A10.66 10.66 0 0 1 213.333 184.667H693.333V376.667H213.333L211.25 376.458zM330.667 440.667H512C516.517 440.667 519.925 442.22 521.667 443.667C522.293 444.189 522.557 444.614 522.667 444.792V585.875C522.557 586.053 522.293 586.478 521.667 587C519.925 588.447 516.517 590 512 590H330.667V440.667z" />
    <glyph glyph-name="chart-stacked-line"
      unicode="&#xE929;"
      horiz-adv-x="1024" d="M853.33 99.339C871.002 99.339 885.327 85.01 885.33 67.339C885.33 49.666 871.004 35.339 853.33 35.339H170.664C152.992 35.341 138.664 49.667 138.664 67.339C138.667 85.009 152.994 99.338 170.664 99.339H853.33zM680.914 653.964A32.012 32.012 0 0 0 705.289 644.631L875.955 473.964C888.452 461.468 888.451 441.211 875.955 428.714C863.459 416.218 843.202 416.218 830.705 428.714L685.33 574.089L536.997 388.673C527.575 376.895 511.198 373.311 497.705 380.048L352.289 452.756L197.289 220.256C187.486 205.551 167.619 201.578 152.914 211.381C138.213 221.186 134.237 241.053 144.039 255.756L314.705 511.756L318.455 516.381C328.004 526.155 343.001 528.93 355.622 522.631L503.122 448.881L657.664 642.006L659.914 644.548C665.463 650.148 672.963 653.524 680.914 653.964z" />
    <glyph glyph-name="comment-discussion"
      unicode="&#xE92F;"
      horiz-adv-x="1024" d="M256 483.333C273.673 483.333 288 469.006 288 451.333C288 433.66 273.673 419.333 256 419.333H170.667A10.663 10.663 0 0 1 163.125 416.208C161.125 414.208 160 411.496 160 408.667V59.25L233.375 132.625L238.25 136.625A31.996 31.996 0 0 0 256 142H554.667C557.496 142 560.208 143.125 562.208 145.125C564.209 147.125 565.333 149.838 565.333 152.667V238C565.333 255.673 579.66 270 597.333 270C615.006 270 629.333 255.673 629.333 238V152.667A74.659 74.659 0 0 0 607.458 99.875A74.656 74.656 0 0 0 554.667 78H269.25L150.625 -40.625C141.474 -49.776 127.707 -52.535 115.75 -47.583C103.792 -42.63 96 -30.943 96 -18V408.667A74.656 74.656 0 0 0 117.875 461.458A74.659 74.659 0 0 0 170.667 483.333H256zM853.333 782A74.659 74.659 0 0 0 906.125 760.125A74.659 74.659 0 0 0 928 707.333V280.667C928 267.724 920.208 256.036 908.25 251.083C896.293 246.132 882.526 248.891 873.375 258.042L754.75 376.667H469.333A74.655 74.655 0 0 0 416.542 398.542A74.655 74.655 0 0 0 394.667 451.333V707.333A74.659 74.659 0 0 0 416.542 760.125A74.656 74.656 0 0 0 469.333 782H853.333zM469.333 718A10.665 10.665 0 0 1 461.792 714.875A10.663 10.663 0 0 1 458.667 707.333V451.333A10.66 10.66 0 0 1 461.792 443.792A10.66 10.66 0 0 1 469.333 440.667H768A31.997 31.997 0 0 0 790.625 431.292L864 357.917V707.333A10.667 10.667 0 0 1 855.417 717.792L853.333 718H469.333z" />
    <glyph glyph-name="queue"
      unicode="&#xE92A;"
      horiz-adv-x="1024" d="M816 739.333C834.388 739.333 852.039 732.044 865.042 719.042C878.044 706.039 885.333 688.388 885.333 670V446C885.333 427.612 878.044 409.961 865.042 396.958C852.039 383.956 834.388 376.667 816 376.667H714.667V238A74.663 74.663 0 0 0 692.792 185.208A74.663 74.663 0 0 0 640 163.333H512C508.244 163.333 504.682 164.103 501.333 165.292V62C501.333 43.612 494.044 25.961 481.042 12.958C468.039 -0.044 450.388 -7.333 432 -7.333H208C189.612 -7.333 171.961 -0.044 158.958 12.958C145.956 25.961 138.667 43.612 138.667 62V286C138.667 304.388 145.956 322.039 158.958 335.042C171.961 348.044 189.612 355.333 208 355.333H311.292C310.103 358.682 309.333 362.244 309.333 366V494A74.663 74.663 0 0 0 331.208 546.792A74.663 74.663 0 0 0 384 568.667H522.667V670C522.667 688.388 529.956 706.039 542.958 719.042C555.961 732.044 573.612 739.333 592 739.333H816zM208 291.333C206.586 291.333 205.209 290.792 204.208 289.792C203.208 288.791 202.667 287.414 202.667 286V62L203.083 59.958C203.349 59.319 203.709 58.707 204.208 58.208C205.209 57.208 206.586 56.667 208 56.667H432C433.414 56.667 434.791 57.208 435.792 58.208C436.792 59.208 437.333 60.585 437.333 62V286C437.333 287.414 436.792 288.791 435.792 289.792C435.293 290.291 434.681 290.651 434.042 290.917L432 291.333H208zM384 504.667A10.669 10.669 0 0 1 373.333 494V366C373.333 362.244 372.564 358.682 371.375 355.333H432C450.388 355.333 468.039 348.044 481.042 335.042C494.044 322.039 501.333 304.388 501.333 286V225.417C504.678 226.603 508.249 227.333 512 227.333H640A10.669 10.669 0 0 1 650.667 238V494A10.669 10.669 0 0 1 640 504.667H384zM592 675.333C590.586 675.333 589.209 674.792 588.208 673.792C587.208 672.791 586.667 671.414 586.667 670V568.667H640A74.663 74.663 0 0 0 692.792 546.792A74.663 74.663 0 0 0 714.667 494V440.667H816C817.414 440.667 818.791 441.208 819.792 442.208C820.792 443.208 821.333 444.585 821.333 446V670C821.333 671.414 820.792 672.791 819.792 673.792C819.293 674.291 818.681 674.651 818.042 674.917L816 675.333H592z" />
    <glyph glyph-name="codecheck"
      unicode="&#xE92B;"
      horiz-adv-x="1024" d="M256.002 696.667C273.674 696.665 288.002 682.339 288.002 664.667C288.002 646.994 273.674 632.668 256.002 632.667A53.333 53.333 0 0 1 218.294 617.042A53.329 53.329 0 0 1 202.669 579.333V408.667A32.001 32.001 0 0 0 193.294 386.042L173.252 366L193.294 345.958A32.001 32.001 0 0 0 202.669 323.333V152.667L202.919 147.375A53.343 53.343 0 0 1 218.294 114.958A53.333 53.333 0 0 1 256.002 99.333C273.674 99.332 288.002 85.006 288.002 67.333C288.002 49.661 273.674 35.335 256.002 35.333A117.327 117.327 0 0 0 173.044 69.708A117.325 117.325 0 0 0 138.669 152.667V310.083L105.377 343.375C92.881 355.872 92.881 376.128 105.377 388.625L138.669 421.917V579.333A117.325 117.325 0 0 0 173.044 662.292A117.327 117.327 0 0 0 256.002 696.667zM768.002 696.667A117.333 117.333 0 0 0 850.961 662.292A117.327 117.327 0 0 0 885.336 579.333V421.917L918.627 388.625C931.123 376.129 931.123 355.871 918.627 343.375L885.336 310.083V152.667A117.33 117.33 0 0 0 850.961 69.708A117.333 117.333 0 0 0 768.002 35.333C750.329 35.333 736.002 49.66 736.002 67.333C736.002 85.006 750.329 99.333 768.002 99.333A53.34 53.34 0 0 1 805.711 114.958A53.333 53.333 0 0 1 821.336 152.667V323.333A31.997 31.997 0 0 0 830.711 345.958L850.752 366L830.711 386.042A31.997 31.997 0 0 0 821.336 408.667V579.333A53.333 53.333 0 0 1 805.711 617.042A53.34 53.34 0 0 1 768.002 632.667C750.329 632.667 736.002 646.994 736.002 664.667C736.002 682.34 750.329 696.667 768.002 696.667zM617.377 473.958C629.874 486.454 650.131 486.455 662.627 473.958C675.123 461.462 675.123 441.205 662.627 428.708L491.961 258.042C479.464 245.545 459.208 245.546 446.711 258.042L361.377 343.375C348.881 355.872 348.881 376.128 361.377 388.625C373.874 401.121 394.131 401.121 406.627 388.625L469.336 325.917L617.377 473.958z" />
    <glyph glyph-name="variable"
      unicode="&#xE92C;"
      horiz-adv-x="1024" d="M184.712 721.624C192.613 737.426 211.825 743.848 227.629 735.957C243.428 728.055 249.852 708.844 241.962 693.041C140.15 489.416 139.145 285.92 242.879 36.957C249.663 20.649 241.935 1.92 225.629 -4.876C209.32 -11.662 190.592 -3.933 183.796 12.374C74.206 275.399 73.202 498.592 184.712 721.624zM796.379 735.957C812.183 743.846 831.395 737.425 839.296 721.624C950.805 498.593 949.802 275.397 840.212 12.374C833.418 -3.933 814.688 -11.659 798.379 -4.876C782.07 1.919 774.343 20.647 781.129 36.957C884.863 285.919 883.857 489.417 782.046 693.041C774.155 708.845 780.577 728.057 796.379 735.957zM426.671 525.999C443.346 525.998 459.183 521.553 472.754 509.999C484.987 499.581 492.734 485.538 498.671 472.207C504.692 458.686 510.562 441.773 517.129 423.166C518.329 419.767 519.592 416.274 520.879 412.666C534.925 431.146 550.35 449.595 566.712 465.957C597.202 496.447 637.178 525.999 682.671 525.999C700.342 525.997 714.671 511.671 714.671 493.999C714.67 476.328 700.342 462.001 682.671 461.999C664.164 461.999 640.139 448.883 611.962 420.707C588.838 397.583 567.058 368.439 548.004 340.666C555.994 319.843 562.47 301.764 567.837 286.374C574.594 267.004 579.375 253.27 584.004 242.832C588.71 232.225 591.643 228.949 592.712 228.041C592.963 227.828 593.024 227.797 593.171 227.749C593.471 227.651 594.673 227.332 597.337 227.332H640.004C657.675 227.33 672.004 213.004 672.004 195.332C672.003 177.662 657.675 163.335 640.004 163.332H597.337C580.679 163.332 564.842 167.755 551.296 179.249C539.059 189.637 531.374 203.641 525.504 216.874C519.556 230.285 513.8 247.001 507.421 265.291C506.106 269.06 504.672 272.931 503.254 276.957C489.158 258.395 473.731 239.809 457.296 223.374C426.807 192.885 386.829 163.334 341.337 163.332C323.665 163.332 309.338 177.66 309.337 195.332C309.337 213.006 323.664 227.332 341.337 227.332C359.844 227.334 383.871 240.449 412.046 268.624C435.29 291.868 457.131 321.222 476.254 349.124A1925.084 1925.084 0 0 0 456.796 401.874C449.841 421.581 444.899 435.547 440.171 446.166C435.362 456.963 432.374 460.336 431.254 461.291C430.994 461.511 430.934 461.537 430.796 461.582C430.504 461.678 429.327 461.999 426.671 461.999H384.004C366.332 461.999 352.005 476.327 352.004 493.999C352.004 511.672 366.331 525.999 384.004 525.999H426.671z" />
    <glyph glyph-name="comment"
      unicode="&#xE92D;"
      horiz-adv-x="1024" d="M768 750C813.264 750 856.66 732.006 888.667 700A170.65 170.65 0 0 0 938.667 579.333V238C938.667 192.736 920.673 149.34 888.667 117.333A170.651 170.651 0 0 0 768 67.333H566.458L363.25 -54.583A42.683 42.683 0 0 0 343.083 -60.625A42.711 42.711 0 0 0 322.458 -56.25A42.762 42.762 0 0 0 306.417 -42.542A42.672 42.672 0 0 0 298.917 -22.875L298.667 -18V67.333H256A170.672 170.672 0 0 0 138.375 114.333A170.69 170.69 0 0 0 85.542 229.458L85.333 238V579.333A170.65 170.65 0 0 0 135.333 700A170.651 170.651 0 0 0 256 750H768zM341.333 366A42.658 42.658 0 0 1 311.167 353.5A42.662 42.662 0 0 1 298.667 323.333A42.658 42.658 0 0 1 311.167 293.167A42.658 42.658 0 0 1 341.333 280.667H597.333A42.662 42.662 0 0 1 627.5 293.167A42.658 42.658 0 0 1 640 323.333A42.662 42.662 0 0 1 627.5 353.5A42.662 42.662 0 0 1 597.333 366H341.333zM341.333 536.667A42.662 42.662 0 0 1 311.167 524.167A42.662 42.662 0 0 1 298.667 494A42.662 42.662 0 0 1 311.167 463.833A42.662 42.662 0 0 1 341.333 451.333H682.667A42.662 42.662 0 0 1 712.833 463.833A42.662 42.662 0 0 1 725.333 494A42.662 42.662 0 0 1 712.833 524.167A42.662 42.662 0 0 1 682.667 536.667H341.333z" />
    <glyph glyph-name="comment-add"
      unicode="&#xE92E;"
      horiz-adv-x="1024" d="M810.667 227.333C828.34 227.333 842.667 213.006 842.667 195.333V99.333H938.667C956.34 99.333 970.667 85.006 970.667 67.333C970.667 49.66 956.34 35.333 938.667 35.333H842.667V-60.667C842.667 -78.34 828.34 -92.667 810.667 -92.667C792.994 -92.667 778.667 -78.34 778.667 -60.667V35.333H682.667C664.994 35.333 650.667 49.66 650.667 67.333C650.667 85.006 664.994 99.333 682.667 99.333H778.667V195.333C778.667 213.006 792.994 227.333 810.667 227.333zM768 739.333A159.982 159.982 0 0 0 881.125 692.458A159.982 159.982 0 0 0 928 579.333V344.667C928 326.993 913.673 312.667 896 312.667C878.327 312.667 864 326.993 864 344.667V579.333A95.987 95.987 0 0 1 835.875 647.208A95.987 95.987 0 0 1 768 675.333H256A95.987 95.987 0 0 1 188.125 647.208A95.991 95.991 0 0 1 160 579.333V238A95.991 95.991 0 0 1 188.125 170.125A95.987 95.987 0 0 1 256 142H341.333C359.006 142 373.333 127.673 373.333 110V38.542L495.958 112.083C511.113 121.176 530.782 116.279 539.875 101.125C548.968 85.97 544.03 66.301 528.875 57.208L357.792 -45.458C347.91 -51.381 335.61 -51.507 325.583 -45.833C315.551 -40.153 309.333 -29.529 309.333 -18V78H256A159.982 159.982 0 0 0 142.875 124.875A159.982 159.982 0 0 0 96 238V579.333A159.982 159.982 0 0 0 142.875 692.458A159.982 159.982 0 0 0 256 739.333H768zM597.333 355.333C615.006 355.333 629.333 341.006 629.333 323.333C629.333 305.66 615.006 291.333 597.333 291.333H341.333C323.66 291.333 309.333 305.66 309.333 323.333C309.333 341.006 323.66 355.333 341.333 355.333H597.333zM682.667 526C700.34 526 714.667 511.673 714.667 494C714.667 476.327 700.34 462 682.667 462H341.333C323.66 462 309.333 476.327 309.333 494C309.333 511.673 323.66 526 341.333 526H682.667z" />
    <glyph glyph-name="comment-lines"
      unicode="&#xE930;"
      horiz-adv-x="1024" d="M597.458 391.6C615.131 391.6 629.458 377.273 629.458 359.6C629.458 341.927 615.131 327.6 597.458 327.6H341.458C323.785 327.6 309.458 341.927 309.458 359.6C309.458 377.273 323.785 391.6 341.458 391.6H597.458zM682.792 562.267C700.465 562.267 714.792 547.94 714.792 530.267C714.792 512.594 700.465 498.267 682.792 498.267H341.458C323.785 498.267 309.458 512.594 309.458 530.267C309.458 547.94 323.785 562.267 341.458 562.267H682.792zM768.125 775.6A159.982 159.982 0 0 0 881.25 728.725A159.982 159.982 0 0 0 928.125 615.6V274.267A159.982 159.982 0 0 0 881.25 161.142A159.982 159.982 0 0 0 768.125 114.267H563.667L357.917 -9.192C348.035 -15.115 335.735 -15.241 325.708 -9.567C315.676 -3.886 309.458 6.738 309.458 18.267V114.267H256.125A159.982 159.982 0 0 0 143 161.142A159.982 159.982 0 0 0 96.125 274.267V615.6A159.982 159.982 0 0 0 143 728.725A159.982 159.982 0 0 0 256.125 775.6H768.125zM256.125 711.6A95.987 95.987 0 0 1 188.25 683.475A95.987 95.987 0 0 1 160.125 615.6V274.267A95.991 95.991 0 0 1 188.25 206.392A95.987 95.987 0 0 1 256.125 178.267H341.458C359.131 178.267 373.458 163.94 373.458 146.267V74.808L538.333 173.725L542.167 175.683A32 32 0 0 0 554.792 178.267H768.125L777.625 178.725A96.003 96.003 0 0 1 836 206.392A96 96 0 0 1 863.667 264.767L864.125 274.267V615.6A95.987 95.987 0 0 1 836 683.475A95.987 95.987 0 0 1 768.125 711.6H256.125z" />
    <glyph glyph-name="comment-next"
      unicode="&#xE931;"
      horiz-adv-x="1024" d="M788.042 217.958C800.538 230.455 820.795 230.455 833.292 217.958L961.292 89.958L963.5 87.542C963.85 87.113 964.093 86.609 964.417 86.167C964.903 85.503 965.357 84.826 965.792 84.125C966.401 83.142 966.966 82.155 967.458 81.125A31.71 31.71 0 0 0 968.458 78.792C968.93 77.563 969.269 76.31 969.583 75.042C969.796 74.185 970.066 73.341 970.208 72.458C970.284 71.986 970.362 71.516 970.417 71.042C970.557 69.824 970.667 68.589 970.667 67.333C970.667 66.97 970.595 66.61 970.583 66.25C970.574 65.971 970.558 65.695 970.542 65.417C970.444 63.768 970.255 62.156 969.917 60.583C969.607 59.145 969.093 57.768 968.583 56.375C968.388 55.842 968.306 55.269 968.083 54.75A31.911 31.911 0 0 0 961.292 44.708L833.292 -83.292C820.795 -95.788 800.538 -95.788 788.042 -83.292C775.545 -70.795 775.545 -50.538 788.042 -38.042L861.417 35.333H682.667C664.994 35.333 650.667 49.66 650.667 67.333C650.667 85.006 664.994 99.333 682.667 99.333H861.417L788.042 172.708C775.545 185.205 775.545 205.462 788.042 217.958zM768 739.333A159.982 159.982 0 0 0 881.125 692.458A159.98 159.98 0 0 0 928 579.333V344.667C928 326.994 913.673 312.667 896 312.667C878.327 312.667 864 326.994 864 344.667V579.333A95.987 95.987 0 0 1 835.875 647.208A95.987 95.987 0 0 1 768 675.333H256A95.987 95.987 0 0 1 188.125 647.208A95.991 95.991 0 0 1 160 579.333V238A95.993 95.993 0 0 1 188.125 170.125A95.991 95.991 0 0 1 256 142H341.333C359.006 142 373.333 127.673 373.333 110V38.542L495.125 111.583C510.272 120.663 529.905 115.761 539 100.625C548.092 85.472 543.192 65.802 528.042 56.708L357.792 -45.458C347.91 -51.381 335.61 -51.507 325.583 -45.833C315.551 -40.153 309.333 -29.529 309.333 -18V78H256A159.982 159.982 0 0 0 142.875 124.875A159.982 159.982 0 0 0 96 238V579.333A159.98 159.98 0 0 0 142.875 692.458A159.982 159.982 0 0 0 256 739.333H768zM597.333 355.333C615.006 355.333 629.333 341.006 629.333 323.333C629.333 305.66 615.006 291.333 597.333 291.333H341.333C323.66 291.333 309.333 305.66 309.333 323.333C309.333 341.006 323.66 355.333 341.333 355.333H597.333zM682.667 526C700.34 526 714.667 511.673 714.667 494C714.667 476.327 700.34 462 682.667 462H341.333C323.66 462 309.333 476.327 309.333 494C309.333 511.673 323.66 526 341.333 526H682.667z" />
    <glyph glyph-name="comment-outline"
      unicode="&#xE932;"
      horiz-adv-x="1024" d="M768.125 775.6A159.982 159.982 0 0 0 881.25 728.725A159.982 159.982 0 0 0 928.125 615.6V274.267A159.98 159.98 0 0 0 881.25 161.142A159.982 159.982 0 0 0 768.125 114.267H563.667L357.917 -9.192C348.035 -15.115 335.735 -15.241 325.708 -9.567C315.676 -3.887 309.458 6.738 309.458 18.267V114.267H256.125A159.982 159.982 0 0 0 143 161.142A159.98 159.98 0 0 0 96.125 274.267V615.6A159.982 159.982 0 0 0 143 728.725A159.982 159.982 0 0 0 256.125 775.6H768.125zM256.125 711.6A95.991 95.991 0 0 1 188.25 683.475A95.989 95.989 0 0 1 160.125 615.6V274.267A95.991 95.991 0 0 1 188.25 206.392A95.987 95.987 0 0 1 256.125 178.267H341.458C359.131 178.267 373.458 163.94 373.458 146.267V74.808L538.333 173.725L542.167 175.683A32 32 0 0 0 554.792 178.267H768.125L777.625 178.725A96.003 96.003 0 0 1 836 206.392A96 96 0 0 1 863.667 264.767L864.125 274.267V615.6A95.989 95.989 0 0 1 836 683.475A95.991 95.991 0 0 1 768.125 711.6H256.125z" />
    <glyph glyph-name="comment-previous"
      unicode="&#xE933;"
      horiz-adv-x="1024" d="M788.042 217.958C800.538 230.455 820.795 230.455 833.292 217.958C845.788 205.462 845.788 185.205 833.292 172.708L759.917 99.333H938.667C956.34 99.333 970.667 85.006 970.667 67.333C970.667 49.66 956.34 35.333 938.667 35.333H759.917L833.292 -38.042C845.788 -50.538 845.788 -70.795 833.292 -83.292C820.795 -95.788 800.538 -95.788 788.042 -83.292L660.042 44.708L657.833 47.125C657.471 47.569 657.21 48.083 656.875 48.542A31.655 31.655 0 0 0 655.5 50.583A31.653 31.653 0 0 0 653.792 53.708A31.42 31.42 0 0 0 652.792 56.083A31.817 31.817 0 0 0 651.708 59.667C651.497 60.523 651.224 61.368 651.083 62.25C651.008 62.722 650.929 63.192 650.875 63.667A32.387 32.387 0 0 0 650.667 67.333C650.667 67.71 650.695 68.085 650.708 68.458C650.718 68.737 650.733 69.014 650.75 69.292A32.03 32.03 0 0 0 651.417 74.167C651.831 76.066 652.404 77.937 653.167 79.75L653.208 79.958C653.725 81.163 654.454 82.27 655.125 83.417C656.515 85.791 658.108 88.025 660.042 89.958L788.042 217.958zM768 739.333A159.982 159.982 0 0 0 881.125 692.458A159.98 159.98 0 0 0 928 579.333V344.667C928 326.994 913.673 312.667 896 312.667C878.327 312.667 864 326.994 864 344.667V579.333A95.987 95.987 0 0 1 835.875 647.208A95.987 95.987 0 0 1 768 675.333H256A95.987 95.987 0 0 1 188.125 647.208A95.991 95.991 0 0 1 160 579.333V238A95.993 95.993 0 0 1 188.125 170.125A95.991 95.991 0 0 1 256 142H341.333C359.006 142 373.333 127.673 373.333 110V38.542L495.125 111.583C510.272 120.663 529.905 115.761 539 100.625C548.092 85.472 543.192 65.802 528.042 56.708L357.792 -45.458C347.91 -51.381 335.61 -51.507 325.583 -45.833C315.551 -40.153 309.333 -29.529 309.333 -18V78H256A159.982 159.982 0 0 0 142.875 124.875A159.982 159.982 0 0 0 96 238V579.333A159.98 159.98 0 0 0 142.875 692.458A159.982 159.982 0 0 0 256 739.333H768zM597.333 355.333C615.006 355.333 629.333 341.006 629.333 323.333C629.333 305.66 615.006 291.333 597.333 291.333H341.333C323.66 291.333 309.333 305.66 309.333 323.333C309.333 341.006 323.66 355.333 341.333 355.333H597.333zM682.667 526C700.34 526 714.667 511.673 714.667 494C714.667 476.327 700.34 462 682.667 462H341.333C323.66 462 309.333 476.327 309.333 494C309.333 511.673 323.66 526 341.333 526H682.667z" />
    <glyph glyph-name="comment-urgent"
      unicode="&#xE934;"
      horiz-adv-x="1024" d="M512 312.667C529.673 312.667 544 298.34 544 280.667V280.25C544 262.577 529.673 248.25 512 248.25C494.327 248.25 480 262.577 480 280.25V280.667C480 298.34 494.327 312.667 512 312.667zM512 568.667C529.673 568.667 544 554.34 544 536.667V408.667C544 390.994 529.673 376.667 512 376.667C494.327 376.667 480 390.994 480 408.667V536.667C480 554.34 494.327 568.667 512 568.667zM768 739.333A159.982 159.982 0 0 0 881.125 692.458A159.98 159.98 0 0 0 928 579.333V238A159.982 159.982 0 0 0 881.125 124.875A159.982 159.982 0 0 0 768 78H563.542L357.792 -45.458C347.91 -51.381 335.61 -51.507 325.583 -45.833C315.551 -40.153 309.333 -29.529 309.333 -18V78H256A159.982 159.982 0 0 0 142.875 124.875A159.982 159.982 0 0 0 96 238V579.333A159.98 159.98 0 0 0 142.875 692.458A159.982 159.982 0 0 0 256 739.333H768zM256 675.333A95.987 95.987 0 0 1 188.125 647.208A95.991 95.991 0 0 1 160 579.333V238A95.993 95.993 0 0 1 188.125 170.125A95.991 95.991 0 0 1 256 142H341.333C359.006 142 373.333 127.673 373.333 110V38.542L538.208 137.458L542.042 139.417A32.017 32.017 0 0 0 554.667 142H768L777.5 142.458A96.003 96.003 0 0 1 835.875 170.125A96.003 96.003 0 0 1 863.542 228.5L864 238V579.333A95.987 95.987 0 0 1 835.875 647.208A95.987 95.987 0 0 1 768 675.333H256z" />
    <glyph glyph-name="flag"
      unicode="&#xE935;"
      horiz-adv-x="1024" d="M374.667 757.375A245.41 245.41 0 0 0 534.417 687.542A181.308 181.308 0 0 1 661.333 635.708A181.31 181.31 0 0 1 788.25 687.542C797.447 696.55 811.17 699.147 823.042 694.167C834.915 689.179 842.659 677.544 842.667 664.667V280.667A32.04 32.04 0 0 0 833.083 257.833A245.376 245.376 0 0 0 673.333 188L661.333 187.708A245.372 245.372 0 0 0 489.583 257.833A181.352 181.352 0 0 1 362.667 309.667C319.534 309.667 277.998 294.24 245.333 266.5V-18C245.333 -35.673 231.006 -50 213.333 -50C195.66 -50 181.333 -35.673 181.333 -18V664.667C181.338 673.255 184.785 681.528 190.917 687.542A245.397 245.397 0 0 0 362.667 757.667L374.667 757.375z" />
    <glyph glyph-name="approve"
      unicode="&#xE936;"
      horiz-adv-x="1024" d="M566.25 738.75A117.31 117.31 0 0 0 637.625 704.958A117.32 117.32 0 0 0 672 622V440.667H768A117.32 117.32 0 0 0 850.958 406.292A117.32 117.32 0 0 0 885.333 323.333C885.333 321.226 885.122 319.108 884.708 317.042L842.042 103.708C841.975 103.375 841.911 103.04 841.833 102.708C834.656 72.093 820.62 43.829 800.125 23.333C782.44 5.649 760.105 -5.856 735.625 -7.333H426.667C387.961 -7.333 350.728 6.723 321.708 31.958C318.293 25.614 313.979 19.729 308.792 14.542A74.659 74.659 0 0 0 256 -7.333H170.667A74.659 74.659 0 0 0 117.875 14.542A74.656 74.656 0 0 0 96 67.333V366A74.659 74.659 0 0 0 117.875 418.792A74.663 74.663 0 0 0 170.667 440.667H298.667L305.542 440.833A138.658 138.658 0 0 1 396.708 481.292A138.658 138.658 0 0 1 437.167 572.458L437.333 579.333V622A117.32 117.32 0 0 0 471.708 704.958A117.32 117.32 0 0 0 554.667 739.333L566.25 738.75zM554.667 675.333A53.329 53.329 0 0 1 516.958 659.708A53.327 53.327 0 0 1 501.333 622V579.333C501.333 525.583 479.966 474.049 441.958 436.042A202.61 202.61 0 0 0 330.667 379.25V152.667A95.987 95.987 0 0 1 358.792 84.792A95.987 95.987 0 0 1 426.667 56.667H725.333C726.238 56.667 727.141 56.618 728.042 56.542C735.435 55.913 744.865 58.573 754.875 68.583C765.159 78.867 774.404 95.564 779.5 117.292L821.208 325.917C820.568 339.12 815.099 351.651 805.708 361.042A53.327 53.327 0 0 1 768 376.667H640C622.327 376.667 608 390.994 608 408.667V622A53.327 53.327 0 0 1 592.375 659.708A53.338 53.338 0 0 1 559.958 675.083L554.667 675.333zM170.667 376.667A10.667 10.667 0 0 1 160 366V67.333L160.208 65.25A10.662 10.662 0 0 1 170.667 56.667H256C258.829 56.667 261.541 57.791 263.542 59.792C265.542 61.792 266.667 64.504 266.667 67.333V376.667H170.667z" />
    <glyph glyph-name="disapprove"
      unicode="&#xE937;"
      horiz-adv-x="1024" d="M256 739.333A74.669 74.669 0 0 0 308.792 717.458A74.617 74.617 0 0 0 321.708 700.083A159.994 159.994 0 0 0 426.667 739.333H735.625C760.104 737.856 782.44 726.35 800.125 708.667C818.055 690.736 831.019 666.86 838.792 640.667L841.833 629.292L842.042 628.292L884.708 414.958C885.121 412.894 885.333 410.772 885.333 408.667A117.335 117.335 0 0 0 850.958 325.708A117.327 117.327 0 0 0 768 291.333H672V110A117.337 117.337 0 0 0 637.625 27.042A117.322 117.322 0 0 0 554.667 -7.333A117.325 117.325 0 0 0 471.708 27.042A117.337 117.337 0 0 0 437.333 110V152.667A138.665 138.665 0 0 1 396.708 250.708A138.663 138.663 0 0 1 305.542 291.167L298.667 291.333H170.667A74.669 74.669 0 0 0 117.875 313.208A74.677 74.677 0 0 0 96 366V664.667A74.672 74.672 0 0 0 117.875 717.458A74.667 74.667 0 0 0 170.667 739.333H256zM728.042 675.458C727.141 675.382 726.237 675.333 725.333 675.333H426.667A95.997 95.997 0 0 1 358.792 647.208A96.001 96.001 0 0 1 330.667 579.333V352.792A202.666 202.666 0 0 0 441.958 295.958C479.964 257.952 501.332 206.415 501.333 152.667V110A53.345 53.345 0 0 1 554.667 56.667A53.333 53.333 0 0 1 592.375 72.292A53.341 53.341 0 0 1 608 110V323.333C608.003 341.004 622.329 355.333 640 355.333H768A53.333 53.333 0 0 1 805.708 370.958C815.107 380.358 820.577 392.909 821.208 406.125L779.5 614.708C774.404 636.434 765.158 653.133 754.875 663.417C744.866 673.424 735.434 676.087 728.042 675.458zM170.667 675.333A10.673 10.673 0 0 1 160 664.667V366A10.671 10.671 0 0 1 170.667 355.333H266.667V664.667A10.685 10.685 0 0 1 263.542 672.208A10.676 10.676 0 0 1 258.083 675.125L256 675.333H170.667z" />
    <glyph glyph-name="flag2"
      unicode="&#xE938;"
      horiz-adv-x="1020.0155642023346" d="M190.551 635.591A244.455 244.455 0 0 0 363.14 654.913A180.605 180.605 0 0 1 498.442 673.41A180.608 180.608 0 0 1 582.111 781.336C585.559 793.687 596.103 802.762 608.825 804.379C621.552 805.99 634.027 799.81 640.447 788.705L831.7 457.445A31.907 31.907 0 0 0 834.805 432.975A244.42 244.42 0 0 0 731.776 293.168L721.57 286.941A244.405 244.405 0 0 0 538.484 261.894A180.651 180.651 0 0 1 403.182 243.396C365.973 221.914 337.825 187.919 323.463 147.72L465.16 -97.706C473.962 -112.951 468.738 -132.443 453.493 -141.249C438.246 -150.054 418.751 -144.825 409.95 -129.584L69.945 459.325C65.671 466.736 64.524 475.589 66.818 483.832A244.446 244.446 0 0 0 180.054 629.866L190.551 635.591z" />
    <glyph glyph-name="calendar-today"
      unicode="&#xE93C;"
      horiz-adv-x="1024" d="M682.667 782C700.34 782 714.667 767.673 714.667 750V696.667H768A117.32 117.32 0 0 0 850.958 662.292A117.32 117.32 0 0 0 885.333 579.333V323.333C885.333 305.66 871.006 291.333 853.333 291.333C835.66 291.333 821.333 305.66 821.333 323.333V376.667H202.667V67.333L202.917 62.042A53.343 53.343 0 0 1 218.292 29.625A53.327 53.327 0 0 1 256 14H490.667C508.34 14 522.667 -0.327 522.667 -18C522.667 -35.673 508.34 -50 490.667 -50H256A117.32 117.32 0 0 0 173.042 -15.625A117.318 117.318 0 0 0 138.667 67.333V579.333A117.32 117.32 0 0 0 173.042 662.292A117.32 117.32 0 0 0 256 696.667H309.333V750C309.333 767.673 323.66 782 341.333 782C359.006 782 373.333 767.673 373.333 750V696.667H650.667V750C650.667 767.673 664.994 782 682.667 782zM256 632.667A53.327 53.327 0 0 1 218.292 617.042A53.329 53.329 0 0 1 202.667 579.333V440.667H821.333V579.333A53.329 53.329 0 0 1 805.708 617.042A53.34 53.34 0 0 1 773.292 632.417L768 632.667H714.667V579.333C714.667 561.66 700.34 547.333 682.667 547.333C664.994 547.333 650.667 561.66 650.667 579.333V632.667H373.333V579.333C373.333 561.66 359.006 547.333 341.333 547.333C323.66 547.333 309.333 561.66 309.333 579.333V632.667H256zM873.375 175.292C885.872 187.788 906.128 187.788 918.625 175.292C931.122 162.795 931.122 142.538 918.625 130.042L747.958 -40.625C735.462 -53.122 715.205 -53.122 702.708 -40.625L617.375 44.708C604.878 57.205 604.878 77.462 617.375 89.958C629.872 102.455 650.128 102.455 662.625 89.958L725.333 27.25L873.375 175.292z" />
    <glyph glyph-name="calendar"
      unicode="&#xE93D;"
      horiz-adv-x="1024" d="M288.625 184.917C306.298 184.917 320.625 170.59 320.625 152.917C320.625 135.244 306.298 120.917 288.625 120.917H288.417C270.748 120.922 256.417 135.247 256.417 152.917C256.417 170.586 270.748 184.911 288.417 184.917H288.625zM416.625 184.917C434.298 184.917 448.625 170.59 448.625 152.917C448.625 135.244 434.298 120.917 416.625 120.917H416.417C398.748 120.922 384.417 135.247 384.417 152.917C384.417 170.586 398.748 184.911 416.417 184.917H416.625zM544.833 184.917C562.506 184.917 576.833 170.59 576.833 152.917C576.833 135.244 562.506 120.917 544.833 120.917H544.625C526.959 120.925 512.625 135.249 512.625 152.917S526.959 184.908 544.625 184.917H544.833zM288.542 312.917C306.215 312.917 320.542 298.59 320.542 280.917C320.542 263.244 306.215 248.917 288.542 248.917H288C270.327 248.917 256 263.244 256 280.917C256 298.59 270.327 312.917 288 312.917H288.542zM416.625 312.917C434.298 312.917 448.625 298.59 448.625 280.917C448.625 263.244 434.298 248.917 416.625 248.917H416.417C398.748 248.922 384.417 263.247 384.417 280.917C384.417 298.586 398.748 312.911 416.417 312.917H416.625zM544.625 312.917C562.298 312.917 576.625 298.59 576.625 280.917C576.625 263.244 562.298 248.917 544.625 248.917H544.417C526.748 248.922 512.417 263.247 512.417 280.917C512.417 298.586 526.748 312.911 544.417 312.917H544.625zM672.833 312.917C690.506 312.917 704.833 298.59 704.833 280.917C704.833 263.244 690.506 248.917 672.833 248.917H672.625C654.959 248.925 640.625 263.249 640.625 280.917S654.959 312.908 672.625 312.917H672.833zM672 782.25C689.673 782.25 704 767.923 704 750.25V696.917H757.333A117.325 117.325 0 0 0 840.292 662.542A117.325 117.325 0 0 0 874.667 579.583V67.583A117.322 117.322 0 0 0 840.292 -15.375A117.325 117.325 0 0 0 757.333 -49.75H245.333A117.322 117.322 0 0 0 162.375 -15.375A117.322 117.322 0 0 0 128 67.583V579.583A117.325 117.325 0 0 0 162.375 662.542A117.322 117.322 0 0 0 245.333 696.917H298.667V750.25C298.667 767.923 312.994 782.25 330.667 782.25C348.34 782.25 362.667 767.923 362.667 750.25V696.917H640V750.25C640 767.923 654.327 782.25 672 782.25zM192 67.583L192.25 62.292A53.343 53.343 0 0 1 207.625 29.875A53.327 53.327 0 0 1 245.333 14.25H757.333A53.329 53.329 0 0 1 795.042 29.875A53.327 53.327 0 0 1 810.667 67.583V376.917H192V67.583zM245.333 632.917A53.327 53.327 0 0 1 207.625 617.292A53.329 53.329 0 0 1 192 579.583V440.917H810.667V579.583A53.329 53.329 0 0 1 795.042 617.292A53.343 53.343 0 0 1 762.625 632.667L757.333 632.917H704V579.583C704 561.91 689.673 547.583 672 547.583C654.327 547.583 640 561.91 640 579.583V632.917H362.667V579.583C362.667 561.91 348.34 547.583 330.667 547.583C312.994 547.583 298.667 561.91 298.667 579.583V632.917H245.333z" />
    <glyph glyph-name="month"
      unicode="&#xE93E;"
      horiz-adv-x="1024" d="M341.333 312.667C359.006 312.667 373.333 298.34 373.333 280.667V110C373.333 92.327 359.006 78 341.333 78C323.66 78 309.333 92.327 309.333 110V280.667C309.333 298.34 323.66 312.667 341.333 312.667zM512 312.667C529.673 312.667 544 298.34 544 280.667V110C544 92.327 529.673 78 512 78C494.327 78 480 92.327 480 110V280.667C480 298.34 494.327 312.667 512 312.667zM682.667 312.667C700.34 312.667 714.667 298.34 714.667 280.667V110C714.667 92.327 700.34 78 682.667 78C664.994 78 650.667 92.327 650.667 110V280.667C650.667 298.34 664.994 312.667 682.667 312.667zM682.667 782C700.34 782 714.667 767.673 714.667 750V696.667H768A117.32 117.32 0 0 0 850.958 662.292A117.32 117.32 0 0 0 885.333 579.333V67.333C885.333 36.215 872.963 6.379 850.958 -15.625A117.32 117.32 0 0 0 768 -50H256A117.32 117.32 0 0 0 173.042 -15.625A117.318 117.318 0 0 0 138.667 67.333V579.333A117.32 117.32 0 0 0 173.042 662.292A117.32 117.32 0 0 0 256 696.667H309.333V750C309.333 767.673 323.66 782 341.333 782C359.006 782 373.333 767.673 373.333 750V696.667H650.667V750C650.667 767.673 664.994 782 682.667 782zM202.667 67.333L202.917 62.042A53.343 53.343 0 0 1 218.292 29.625A53.327 53.327 0 0 1 256 14H768A53.327 53.327 0 0 1 805.708 29.625A53.327 53.327 0 0 1 821.333 67.333V376.667H202.667V67.333zM256 632.667A53.327 53.327 0 0 1 218.292 617.042A53.329 53.329 0 0 1 202.667 579.333V440.667H821.333V579.333A53.329 53.329 0 0 1 805.708 617.042A53.34 53.34 0 0 1 773.292 632.417L768 632.667H714.667V579.333C714.667 561.66 700.34 547.333 682.667 547.333C664.994 547.333 650.667 561.66 650.667 579.333V632.667H373.333V579.333C373.333 561.66 359.006 547.333 341.333 547.333C323.66 547.333 309.333 561.66 309.333 579.333V632.667H256z" />
    <glyph glyph-name="cloud-outline"
      unicode="&#xE940;"
      horiz-adv-x="1024" d="M431.5 684.135C521.387 711.483 621.025 693.586 693.083 635.844C754.762 586.518 788.397 514.086 784.917 439.344H790.875C890.343 439.341 970.652 358.284 970.667 258.635C970.667 158.932 890.353 77.847 790.833 77.844H284.042C282.717 77.844 281.408 77.979 280.125 78.135C155.633 80.15 53.333 178.135 53.333 301.302C53.348 417.574 144.589 511.481 259.583 523.26C285.411 599.55 349.758 659.231 431.5 684.135zM653.083 585.885C598.178 629.894 520.668 644.328 450.167 622.885C379.739 601.431 329.25 548.292 315.25 485.552C311.985 470.929 299.024 460.515 284.042 460.51C190.821 460.51 117.349 388.074 117.333 301.302C117.333 214.47 190.816 142.01 284.042 142.01C285.138 142.01 286.223 141.952 287.292 141.844H790.833C854.636 141.847 906.667 193.906 906.667 258.635C906.652 323.31 854.626 375.341 790.875 375.344H748.625A32.015 32.015 0 0 0 723.667 387.344C717.602 394.913 715.272 404.834 717.375 414.302C731.261 476.746 707.733 542.171 653.125 585.844L653.083 585.885z" />
    <glyph glyph-name="cloud"
      unicode="&#xE941;"
      horiz-adv-x="1024" d="M428.375 694.333C522.027 722.79 625.298 703.857 699.75 644.125C758.874 596.851 793.103 529.521 795.833 458.958L795.958 449.917L799.833 449.792C897.96 445.224 976.595 366.134 981.167 267.625L981.333 258.625C981.333 155.928 900.909 72.071 799.792 67.375L790.833 67.167H284.042L274.542 67.5C149.116 72.202 47.705 169.858 42.875 292.042L42.667 301.292C42.675 418.489 131.427 515.052 246.792 532.417L251.667 533.083L254.625 540.792C282.913 609.911 342.353 664.804 418 690.917L428.375 694.333z" />
    <glyph glyph-name="dashboard-outline"
      unicode="&#xE943;"
      horiz-adv-x="1024" d="M384 227.333A74.659 74.659 0 0 0 436.792 205.458A74.659 74.659 0 0 0 458.667 152.667V67.333A74.66 74.66 0 0 0 436.792 14.542A74.659 74.659 0 0 0 384 -7.333H213.333A74.656 74.656 0 0 0 160.542 14.542A74.656 74.656 0 0 0 138.667 67.333V152.667A74.655 74.655 0 0 0 160.542 205.458A74.656 74.656 0 0 0 213.333 227.333H384zM213.333 163.333A10.66 10.66 0 0 1 205.792 160.208A10.66 10.66 0 0 1 202.667 152.667V67.333A10.66 10.66 0 0 1 205.792 59.792A10.66 10.66 0 0 1 213.333 56.667H384C386.829 56.667 389.541 57.791 391.542 59.792C393.542 61.792 394.667 64.504 394.667 67.333V152.667C394.667 155.496 393.542 158.208 391.542 160.208A10.665 10.665 0 0 1 384 163.333H213.333zM810.667 398A74.655 74.655 0 0 0 863.458 376.125A74.659 74.659 0 0 0 885.333 323.333V67.333A74.656 74.656 0 0 0 863.458 14.542A74.656 74.656 0 0 0 810.667 -7.333H640A74.659 74.659 0 0 0 587.208 14.542A74.66 74.66 0 0 0 565.333 67.333V323.333A74.663 74.663 0 0 0 587.208 376.125A74.659 74.659 0 0 0 640 398H810.667zM640 334A10.669 10.669 0 0 1 629.333 323.333V67.333C629.333 64.504 630.458 61.792 632.458 59.792A10.665 10.665 0 0 1 640 56.667H810.667A10.66 10.66 0 0 1 818.208 59.792A10.66 10.66 0 0 1 821.333 67.333V323.333C821.333 326.162 820.209 328.875 818.208 330.875C816.208 332.875 813.496 334 810.667 334H640zM384 739.333A74.659 74.659 0 0 0 436.792 717.458A74.659 74.659 0 0 0 458.667 664.667V408.667A74.663 74.663 0 0 0 436.792 355.875A74.659 74.659 0 0 0 384 334H213.333A74.655 74.655 0 0 0 160.542 355.875A74.659 74.659 0 0 0 138.667 408.667V664.667A74.655 74.655 0 0 0 160.542 717.458A74.655 74.655 0 0 0 213.333 739.333H384zM213.333 675.333A10.66 10.66 0 0 1 205.792 672.208A10.66 10.66 0 0 1 202.667 664.667V408.667C202.667 405.838 203.791 403.125 205.792 401.125C207.792 399.125 210.504 398 213.333 398H384A10.669 10.669 0 0 1 394.667 408.667V664.667C394.667 667.496 393.542 670.208 391.542 672.208A10.665 10.665 0 0 1 384 675.333H213.333zM810.667 739.333A74.655 74.655 0 0 0 863.458 717.458A74.656 74.656 0 0 0 885.333 664.667V579.333A74.656 74.656 0 0 0 863.458 526.542A74.655 74.655 0 0 0 810.667 504.667H640A74.659 74.659 0 0 0 587.208 526.542A74.66 74.66 0 0 0 565.333 579.333V664.667A74.659 74.659 0 0 0 587.208 717.458A74.659 74.659 0 0 0 640 739.333H810.667zM640 675.333A10.665 10.665 0 0 1 632.458 672.208C630.458 670.208 629.333 667.496 629.333 664.667V579.333C629.333 576.504 630.458 573.792 632.458 571.792A10.665 10.665 0 0 1 640 568.667H810.667A10.66 10.66 0 0 1 818.208 571.792A10.66 10.66 0 0 1 821.333 579.333V664.667A10.66 10.66 0 0 1 818.208 672.208A10.66 10.66 0 0 1 810.667 675.333H640z" />
    <glyph glyph-name="dashboard"
      unicode="&#xE944;"
      horiz-adv-x="1024" d="M384 238A85.324 85.324 0 0 0 444.333 213A85.325 85.325 0 0 0 469.333 152.667V67.333A85.325 85.325 0 0 0 444.333 7A85.324 85.324 0 0 0 384 -18H213.333A85.325 85.325 0 0 0 153 7A85.325 85.325 0 0 0 128 67.333V152.667A85.325 85.325 0 0 0 153 213A85.325 85.325 0 0 0 213.333 238H384zM810.667 408.667A85.325 85.325 0 0 0 871 383.667A85.326 85.326 0 0 0 896 323.333V67.333A85.325 85.325 0 0 0 871 7A85.325 85.325 0 0 0 810.667 -18H640A85.324 85.324 0 0 0 579.667 7A85.325 85.325 0 0 0 554.667 67.333V323.333A85.326 85.326 0 0 0 579.667 383.667A85.324 85.324 0 0 0 640 408.667H810.667zM384 750A85.324 85.324 0 0 0 444.333 725A85.325 85.325 0 0 0 469.333 664.667V408.667A85.326 85.326 0 0 0 444.333 348.333A85.324 85.324 0 0 0 384 323.333H213.333A85.325 85.325 0 0 0 153 348.333A85.326 85.326 0 0 0 128 408.667V664.667A85.325 85.325 0 0 0 153 725A85.325 85.325 0 0 0 213.333 750H384zM810.667 750A85.325 85.325 0 0 0 871 725A85.325 85.325 0 0 0 896 664.667V579.333A85.325 85.325 0 0 0 871 519A85.325 85.325 0 0 0 810.667 494H640A85.324 85.324 0 0 0 579.667 519A85.325 85.325 0 0 0 554.667 579.333V664.667A85.325 85.325 0 0 0 579.667 725A85.324 85.324 0 0 0 640 750H810.667z" />
    <glyph glyph-name="database"
      unicode="&#xE945;"
      horiz-adv-x="1024" d="M512 782C605.189 782 696.024 768.167 764.583 742.458C798.814 729.622 827.829 713.724 848.833 694.708C869.825 675.703 885.333 651.105 885.333 622V110C885.333 80.895 869.825 56.297 848.833 37.292C827.829 18.276 798.814 2.378 764.583 -10.458C700.313 -34.559 616.468 -48.22 529.458 -49.833L512 -50C418.811 -50 327.976 -36.167 259.417 -10.458C225.186 2.378 196.171 18.276 175.167 37.292C154.175 56.297 138.667 80.895 138.667 110V622C138.667 651.105 154.175 675.703 175.167 694.708C196.171 713.724 225.186 729.622 259.417 742.458C327.976 768.167 418.811 782 512 782zM821.333 272.875C804.834 262.603 785.716 253.467 764.583 245.542C696.024 219.833 605.189 206 512 206S327.976 219.833 259.417 245.542C238.284 253.467 219.166 262.603 202.667 272.875V110L203.25 105.667C204.552 100.638 208.384 93.57 218.125 84.75C231.104 73 252.095 60.626 281.875 49.458C341.34 27.159 424.137 14 512 14L544.667 14.625C620.192 17.447 690.092 29.946 742.125 49.458C771.905 60.626 792.896 73 805.875 84.75C815.616 93.57 819.448 100.638 820.75 105.667L821.333 110V272.875zM821.333 528.875C804.834 518.603 785.716 509.467 764.583 501.542C696.024 475.833 605.189 462 512 462S327.976 475.833 259.417 501.542C238.284 509.467 219.166 518.603 202.667 528.875V366L203.25 361.667C204.552 356.638 208.384 349.57 218.125 340.75C231.104 329 252.095 316.626 281.875 305.458C341.34 283.159 424.137 270 512 270S682.66 283.159 742.125 305.458C771.905 316.626 792.896 329 805.875 340.75C815.616 349.57 819.448 356.638 820.75 361.667L821.333 366V528.875zM512 718C424.137 718 341.34 704.841 281.875 682.542C252.095 671.374 231.104 659 218.125 647.25C205.139 635.492 202.667 626.841 202.667 622L203.25 617.667C204.552 612.638 208.384 605.57 218.125 596.75C231.104 585 252.095 572.626 281.875 561.458C341.34 539.159 424.137 526 512 526S682.66 539.159 742.125 561.458C771.905 572.626 792.896 585 805.875 596.75C818.861 608.508 821.333 617.159 821.333 622L820.75 626.333C819.448 631.362 815.616 638.43 805.875 647.25C792.896 659 771.905 671.374 742.125 682.542C682.66 704.841 599.863 718 512 718z" />
    </font>
</defs>
</svg>
