<svg width="1024" height="1024" viewBox="0 0 1024 1024" fill="none" xmlns="http://www.w3.org/2000/svg">
<path d="M384.018 138.65C401.677 138.66 416.009 152.991 416.018 170.65V341.317C416.018 358.984 401.682 373.307 384.018 373.317C366.345 373.317 352.018 358.99 352.018 341.317V244.275C308.161 271.388 271.402 309.063 245.351 354.15C210.953 413.703 197.095 482.942 205.893 551.15C214.697 619.364 245.706 682.777 294.101 731.65C342.498 780.522 405.601 812.137 473.726 821.609C491.223 824.042 503.44 840.236 501.018 857.734C498.579 875.229 482.432 887.454 464.934 885.025C382.898 873.625 306.88 835.543 248.601 776.692C190.33 717.843 153.033 641.454 142.434 559.317C131.842 477.181 148.507 393.818 189.934 322.109C217.4 274.571 254.79 233.95 299.101 202.65H213.351C195.678 202.65 181.351 188.323 181.351 170.65C181.36 152.985 195.683 138.65 213.351 138.65H384.018Z" fill="black"/>
<path d="M559.101 138.942C641.128 150.347 717.161 188.43 775.434 247.275C833.702 306.121 871 382.519 881.601 464.65C892.197 546.783 875.481 630.149 834.059 701.858C806.593 749.397 769.205 790.016 724.893 821.317H810.684C828.345 821.326 842.676 835.657 842.684 853.317C842.684 870.985 828.35 885.308 810.684 885.317H640.018C623.456 885.317 609.832 872.735 608.184 856.609L608.018 853.317V682.65C608.027 664.985 622.35 650.65 640.018 650.65C657.678 650.659 672.009 664.99 672.018 682.65V779.65C715.859 752.537 752.601 714.895 778.643 669.817C813.041 610.261 826.944 541.028 818.143 472.817C809.336 404.608 778.326 341.186 729.934 292.317C681.536 243.444 618.394 211.829 550.268 202.359C532.768 199.921 520.544 183.735 522.976 166.234C525.422 148.744 541.606 136.51 559.101 138.942Z" fill="black"/>
</svg>
