<svg width="24" height="24" viewBox="0 0 24 24" fill="none" xmlns="http://www.w3.org/2000/svg">
<path d="M7.46973 12.4698C7.76262 12.1769 8.23738 12.1769 8.53027 12.4698C8.82314 12.7627 8.82316 13.2375 8.53027 13.5303L5.81055 16.2501H13C13.4142 16.2501 13.75 16.5859 13.75 17.0001C13.75 17.4143 13.4142 17.7501 13 17.7501H5.81055L8.53027 20.4698C8.82314 20.7627 8.82316 21.2375 8.53027 21.5303C8.23739 21.8232 7.76261 21.8232 7.46973 21.5303L3.46973 17.5303C3.43771 17.4983 3.40978 17.4637 3.38477 17.4278C3.35404 17.3837 3.32743 17.3365 3.30664 17.2862C3.28591 17.2359 3.27105 17.1838 3.26172 17.1309C3.25423 17.0884 3.25 17.0447 3.25 17.0001C3.25 16.9548 3.25402 16.9103 3.26172 16.8673C3.27081 16.8164 3.28505 16.7663 3.30469 16.7178L3.30859 16.7081C3.32018 16.6807 3.33596 16.6556 3.35059 16.6299C3.38303 16.5731 3.42122 16.5183 3.46973 16.4698L7.46973 12.4698Z" fill="black"/>
<path d="M15.4697 2.46979C15.7626 2.1769 16.2374 2.1769 16.5303 2.46979L20.5303 6.46979C20.5787 6.51819 20.616 6.57326 20.6484 6.62995C20.664 6.6571 20.6803 6.68382 20.6924 6.71296C20.7131 6.76295 20.7279 6.81466 20.7373 6.86725C20.745 6.9104 20.75 6.9547 20.75 7.00007C20.75 7.04478 20.7448 7.08836 20.7373 7.13092C20.7279 7.18388 20.7132 7.23586 20.6924 7.2862C20.6715 7.33656 20.645 7.38367 20.6143 7.4278C20.5893 7.46351 20.5621 7.49846 20.5303 7.53034L16.5303 11.5303C16.2374 11.8232 15.7626 11.8232 15.4697 11.5303C15.1768 11.2375 15.1769 10.7627 15.4697 10.4698L18.1895 7.75007H10C9.58581 7.75007 9.25003 7.41425 9.25 7.00007C9.25 6.58585 9.58579 6.25007 10 6.25007H18.1895L15.4697 3.53034C15.1768 3.23746 15.1769 2.76269 15.4697 2.46979Z" fill="black"/>
</svg>
