<svg width="1024" height="1024" viewBox="0 0 1024 1024" fill="none" xmlns="http://www.w3.org/2000/svg">
<path d="M512.002 181.333C529.674 181.335 544.002 195.661 544.002 213.333V733.417L745.377 532.042C757.874 519.546 778.131 519.545 790.627 532.042C803.123 544.538 803.123 564.795 790.627 577.292L534.627 833.292L532.211 835.5C531.54 836.047 530.789 836.474 530.086 836.958C528.271 838.209 526.353 839.307 524.294 840.167C522.395 840.957 520.452 841.591 518.461 842C518.132 842.067 517.75 842.068 517.419 842.125C515.654 842.427 513.854 842.667 512.002 842.667C510.067 842.667 508.176 842.454 506.336 842.125C506.086 842.08 505.834 842.051 505.586 842C505.301 841.942 505.034 841.815 504.752 841.75C503.027 841.349 501.322 840.857 499.669 840.167C498.677 839.751 497.774 839.176 496.836 838.667C494.185 837.23 491.618 835.532 489.377 833.292L233.377 577.292C220.881 564.795 220.881 544.538 233.377 532.042C245.874 519.546 266.131 519.545 278.627 532.042L480.002 733.417V213.333C480.002 195.66 494.329 181.333 512.002 181.333Z" fill="black"/>
</svg>
