<svg width="1024" height="1024" viewBox="0 0 1024 1024" fill="none" xmlns="http://www.w3.org/2000/svg">
<path d="M512.002 181.333L515.252 181.5C516.04 181.58 516.816 181.698 517.586 181.833C517.835 181.877 518.087 181.908 518.336 181.958C518.906 182.073 519.443 182.314 520.002 182.458C521.42 182.824 522.844 183.187 524.211 183.75C526.358 184.637 528.371 185.772 530.252 187.083C531.783 188.151 533.262 189.343 534.627 190.708L790.627 446.708C803.123 459.205 803.123 479.462 790.627 491.958C778.131 504.455 757.874 504.454 745.377 491.958L544.002 290.583V810.667C544.002 828.339 529.674 842.665 512.002 842.667C494.329 842.667 480.002 828.34 480.002 810.667V290.583L278.627 491.958C266.131 504.455 245.874 504.454 233.377 491.958C220.881 479.462 220.881 459.205 233.377 446.708L489.377 190.708C491.447 188.639 493.785 187.009 496.211 185.625C497.304 185.001 498.375 184.328 499.544 183.833L499.961 183.667C501.26 183.14 502.616 182.807 503.961 182.458C504.52 182.313 505.057 182.074 505.627 181.958C505.862 181.911 506.1 181.876 506.336 181.833C508.174 181.505 510.069 181.333 512.002 181.333Z" fill="black"/>
</svg>
