<svg width="1024" height="1024" viewBox="0 0 1024 1024" fill="none" xmlns="http://www.w3.org/2000/svg">
<path d="M532.042 233.377C544.538 220.881 564.795 220.881 577.292 233.377L833.292 489.377L835.5 491.794C836.624 493.172 837.473 494.706 838.333 496.211C838.996 497.369 839.692 498.509 840.208 499.752C841.092 501.886 841.723 504.092 842.125 506.336C842.454 508.177 842.667 510.067 842.667 512.002C842.666 513.854 842.427 515.654 842.125 517.419C842.085 517.651 842.128 517.897 842.083 518.127C841.693 520.139 841.112 522.123 840.333 524.044C840.296 524.135 840.204 524.203 840.167 524.294C839.307 526.354 838.209 528.271 836.958 530.086C836.474 530.789 836.047 531.54 835.5 532.211C834.817 533.047 834.071 533.848 833.292 534.627L577.292 790.627C564.795 803.123 544.538 803.123 532.042 790.627C519.545 778.131 519.546 757.874 532.042 745.377L733.417 544.002H213.333C195.661 544.002 181.335 529.674 181.333 512.002C181.333 494.329 195.66 480.002 213.333 480.002H733.417L532.042 278.627C519.545 266.131 519.546 245.874 532.042 233.377Z" fill="black"/>
</svg>
