<svg width="1024" height="1024" viewBox="0 0 1024 1024" fill="none" xmlns="http://www.w3.org/2000/svg">
<path d="M278.461 188.495C291.029 178.246 309.579 178.989 321.294 190.703L491.961 361.37C504.456 373.866 504.454 394.123 491.961 406.62C479.464 419.117 459.208 419.117 446.711 406.62L330.669 290.578V810.662C330.669 828.334 316.341 842.66 298.669 842.662C280.996 842.662 266.669 828.335 266.669 810.662V290.578L150.627 406.62C138.131 419.117 117.874 419.117 105.377 406.62C92.8819 394.123 92.8811 373.866 105.377 361.37L276.044 190.703L278.461 188.495Z" fill="black"/>
<path d="M725.336 181.328C743.006 181.33 757.333 195.658 757.336 213.328V733.412L873.377 617.37C885.874 604.877 906.132 604.876 918.627 617.37C931.123 629.866 931.121 650.123 918.627 662.62L747.961 833.287C735.464 845.783 715.208 845.783 702.711 833.287L532.044 662.62C519.549 650.123 519.548 629.866 532.044 617.37C544.541 604.877 564.798 604.876 577.294 617.37L693.336 733.412V213.328C693.338 195.658 707.664 181.328 725.336 181.328Z" fill="black"/>
</svg>
