<svg width="1024" height="1024" viewBox="0 0 1024 1024" fill="none" xmlns="http://www.w3.org/2000/svg">
<path d="M640.002 266.667C693.752 266.667 745.287 288.035 783.294 326.042C821.301 364.049 842.669 415.583 842.669 469.333C842.669 523.083 821.301 574.618 783.294 612.625C745.287 650.632 693.752 671.999 640.002 672H247.919L363.961 788.042C376.456 800.538 376.456 820.795 363.961 833.292C351.464 845.788 331.208 845.787 318.711 833.292L148.044 662.625C135.547 650.128 135.547 629.872 148.044 617.375L318.711 446.708C331.208 434.213 351.464 434.212 363.961 446.708C376.456 459.205 376.456 479.462 363.961 491.958L247.919 608H640.002C676.778 607.999 712.04 593.379 738.044 567.375C764.048 541.37 778.669 506.109 778.669 469.333C778.669 432.557 764.048 397.297 738.044 371.292C712.04 345.287 676.778 330.667 640.002 330.667H597.336C579.663 330.667 565.336 316.34 565.336 298.667C565.336 280.994 579.663 266.667 597.336 266.667H640.002Z" fill="black"/>
</svg>
