<svg width="1024" height="1024" viewBox="0 0 1024 1024" fill="none" xmlns="http://www.w3.org/2000/svg">
<path d="M853.333 693.333C871.006 693.333 885.333 707.66 885.333 725.333V810.667C885.333 841.785 872.963 871.621 850.958 893.625C828.954 915.629 799.119 928 768 928H256C224.881 928 195.046 915.629 173.042 893.625C151.037 871.621 138.667 841.785 138.667 810.667V725.333C138.667 707.66 152.994 693.333 170.667 693.333C188.34 693.333 202.667 707.66 202.667 725.333V810.667L202.917 815.958C204.133 828.16 209.545 839.628 218.292 848.375C228.294 858.377 241.855 864 256 864H768C782.145 864 795.706 858.377 805.708 848.375C815.71 838.373 821.333 824.811 821.333 810.667V725.333C821.333 707.66 835.66 693.333 853.333 693.333Z" fill="black"/>
<path d="M513.083 138.708C513.362 138.718 513.639 138.733 513.917 138.75C515.58 138.848 517.206 139.074 518.792 139.417C520.211 139.725 521.583 140.206 522.958 140.708C523.491 140.903 524.064 140.986 524.583 141.208C525.398 141.556 526.128 142.082 526.917 142.5C527.932 143.039 528.97 143.525 529.917 144.167C531.574 145.29 533.157 146.574 534.625 148.042L747.958 361.375C760.455 373.872 760.455 394.128 747.958 406.625C735.462 419.122 715.205 419.122 702.708 406.625L544 247.917V682.667C544 700.34 529.673 714.667 512 714.667C494.327 714.667 480 700.34 480 682.667V247.917L321.292 406.625C308.795 419.122 288.538 419.122 276.042 406.625C263.545 394.128 263.545 373.872 276.042 361.375L489.375 148.042L491.792 145.833C492.227 145.478 492.718 145.204 493.167 144.875C493.83 144.39 494.508 143.934 495.208 143.5C496.228 142.869 497.264 142.297 498.333 141.792C499.109 141.424 499.9 141.097 500.708 140.792C501.885 140.348 503.08 140.008 504.292 139.708C505.148 139.496 505.993 139.225 506.875 139.083C507.347 139.007 507.818 138.93 508.292 138.875C509.508 138.735 510.746 138.667 512 138.667C512.363 138.667 512.723 138.696 513.083 138.708Z" fill="black"/>
</svg>
