<svg width="1024" height="1024" viewBox="0 0 1024 1024" fill="none" xmlns="http://www.w3.org/2000/svg">
<path d="M318.708 532.044C331.205 519.547 351.462 519.547 363.958 532.044C376.454 544.541 376.455 564.798 363.958 577.294L247.917 693.336H554.667C572.34 693.336 586.667 707.663 586.667 725.336C586.665 743.008 572.339 757.336 554.667 757.336H247.917L363.958 873.377C376.454 885.874 376.455 906.131 363.958 918.627C351.462 931.123 331.205 931.123 318.708 918.627L148.042 747.961C146.676 746.595 145.484 745.117 144.417 743.586C143.106 741.704 141.97 739.691 141.083 737.544C140.199 735.399 139.565 733.176 139.167 730.919C138.847 729.105 138.667 727.241 138.667 725.336C138.667 723.403 138.838 721.508 139.167 719.669C139.555 717.5 140.162 715.361 141 713.294L141.167 712.877C141.661 711.709 142.334 710.637 142.958 709.544C144.342 707.119 145.972 704.781 148.042 702.711L318.708 532.044Z" fill="black"/>
<path d="M660.042 105.377C672.538 92.8807 692.795 92.8807 705.292 105.377L875.958 276.044C878.023 278.109 879.618 280.459 881 282.877C881.663 284.036 882.359 285.176 882.875 286.419C883.759 288.552 884.39 290.758 884.792 293.002C885.121 294.843 885.333 296.734 885.333 298.669C885.333 300.577 885.112 302.436 884.792 304.252C884.393 306.512 883.762 308.73 882.875 310.877C881.986 313.026 880.856 315.036 879.542 316.919C878.478 318.443 877.318 319.934 875.958 321.294L705.292 491.961C692.795 504.456 672.538 504.456 660.042 491.961C647.545 479.464 647.546 459.208 660.042 446.711L776.083 330.669H426.667C408.994 330.669 394.668 316.341 394.667 298.669C394.667 280.996 408.994 266.669 426.667 266.669H776.083L660.042 150.627C647.545 138.131 647.546 117.874 660.042 105.377Z" fill="black"/>
</svg>
