<svg width="24" height="24" viewBox="0 0 24 24" fill="none" xmlns="http://www.w3.org/2000/svg">
<path d="M9.00041 3.24965C9.41429 3.24988 9.7502 3.58576 9.75041 3.99965V7.99965C9.75041 8.41372 9.41442 8.74941 9.00041 8.74965C8.58619 8.74965 8.25041 8.41386 8.25041 7.99965V5.72523C7.22251 6.36068 6.36097 7.24369 5.75041 8.30043C4.94419 9.69619 4.61941 11.319 4.8256 12.9176C5.03196 14.5164 5.75872 16.0026 6.89299 17.1481C8.02729 18.2935 9.50627 19.0345 11.1029 19.2565C11.513 19.3135 11.7994 19.6931 11.7426 20.1032C11.6854 20.5132 11.307 20.7997 10.8969 20.7428C8.97417 20.4756 7.1925 19.5831 5.82658 18.2037C4.46084 16.8245 3.5867 15.0341 3.3383 13.109C3.09003 11.184 3.48062 9.23015 4.45158 7.54945C5.09531 6.4353 5.97162 5.48325 7.01017 4.74965H5.00041C4.58619 4.74965 4.25041 4.41386 4.25041 3.99965C4.25062 3.58561 4.58632 3.24965 5.00041 3.24965H9.00041Z" fill="black"/>
<path d="M13.1039 3.25648C15.0264 3.52378 16.8084 4.41636 18.1742 5.79555C19.5399 7.17474 20.4141 8.96532 20.6625 10.8903C20.9108 12.8153 20.5191 14.7692 19.5483 16.4498C18.9045 17.564 18.0282 18.516 16.9897 19.2496H19.0004C19.4143 19.2499 19.7502 19.5857 19.7504 19.9996C19.7504 20.4137 19.4144 20.7494 19.0004 20.7496H15.0004C14.6122 20.7496 14.2929 20.4548 14.2543 20.0768L14.2504 19.9996V15.9996C14.2506 15.5856 14.5863 15.2496 15.0004 15.2496C15.4143 15.2499 15.7502 15.5857 15.7504 15.9996V18.2731C16.7779 17.6376 17.6391 16.7554 18.2494 15.6989C19.0556 14.303 19.3815 12.6804 19.1752 11.0817C18.9688 9.48304 18.242 7.99659 17.1078 6.85121C15.9735 5.70575 14.4936 4.96478 12.8969 4.74281C12.4867 4.68569 12.2002 4.30633 12.2572 3.89613C12.3146 3.48622 12.6939 3.1995 13.1039 3.25648Z" fill="black"/>
</svg>
