<svg width="1024" height="1024" viewBox="0 0 1024 1024" fill="none" xmlns="http://www.w3.org/2000/svg">
<path d="M745.375 574.711C757.872 562.214 778.128 562.214 790.625 574.711L918.625 702.711C920.69 704.776 922.284 707.126 923.667 709.544C924.329 710.702 925.026 711.842 925.542 713.086C926.425 715.219 927.056 717.425 927.458 719.669C927.788 721.51 928 723.4 928 725.336C928 727.244 927.779 729.103 927.458 730.919C927.059 733.178 926.429 735.396 925.542 737.544C924.653 739.693 923.522 741.703 922.208 743.586C921.144 745.11 919.985 746.601 918.625 747.961L790.625 875.961C778.129 888.456 757.871 888.456 745.375 875.961C732.879 863.464 732.879 843.208 745.375 830.711L818.75 757.336H128C110.328 757.336 96.0013 743.008 96 725.336C96 707.663 110.327 693.336 128 693.336H818.75L745.375 619.961C732.879 607.464 732.879 587.208 745.375 574.711Z" fill="black"/>
<path d="M233.375 148.044C245.872 135.547 266.128 135.547 278.625 148.044C291.121 160.541 291.121 180.798 278.625 193.294L205.25 266.669H896C913.673 266.669 928 280.996 928 298.669C927.999 316.341 913.672 330.669 896 330.669H205.25L278.625 404.044C291.121 416.541 291.121 436.798 278.625 449.294C266.129 461.789 245.871 461.789 233.375 449.294L105.375 321.294C104.009 319.928 102.817 318.45 101.75 316.919C100.439 315.037 99.3037 313.024 98.4167 310.877C97.532 308.732 96.8982 306.509 96.5 304.252C96.1806 302.439 96.0001 300.575 96 298.669C96 296.736 96.1716 294.841 96.5 293.002C96.8881 290.834 97.4956 288.694 98.3333 286.627L98.5 286.211C98.9941 285.042 99.6675 283.97 100.292 282.877C101.676 280.452 103.305 278.114 105.375 276.044L233.375 148.044Z" fill="black"/>
</svg>
