<svg width="1024" height="1024" viewBox="0 0 1024 1024" fill="none" xmlns="http://www.w3.org/2000/svg">
<path d="M617.375 276.047C629.871 263.55 650.128 263.551 662.625 276.047L833.292 446.713C845.788 459.21 845.788 479.467 833.292 491.963L662.625 662.63C650.128 675.126 629.871 675.126 617.375 662.63C604.88 650.134 604.88 629.876 617.375 617.38L733.417 501.338H341.333C304.558 501.339 269.296 515.959 243.292 541.963C217.287 567.968 202.667 603.229 202.667 640.005C202.667 676.781 217.288 712.042 243.292 738.047C269.296 764.051 304.558 778.671 341.333 778.672H384C401.673 778.672 416 792.999 416 810.672C416 828.345 401.673 842.672 384 842.672H341.333C287.584 842.671 236.048 821.303 198.042 783.297C160.035 745.289 138.667 693.755 138.667 640.005C138.667 586.255 160.035 534.721 198.042 496.713C236.048 458.707 287.584 437.339 341.333 437.338H733.417L617.375 321.297C604.88 308.8 604.88 288.543 617.375 276.047Z" fill="black"/>
</svg>
