<svg width="1024" height="1024" viewBox="0 0 1024 1024" fill="none" xmlns="http://www.w3.org/2000/svg">
<path d="M853.333 693.333C871.006 693.333 885.333 707.66 885.333 725.333V810.667C885.333 841.785 872.963 871.621 850.958 893.625C828.954 915.629 799.119 928 768 928H256C224.881 928 195.046 915.629 173.042 893.625C151.037 871.621 138.667 841.785 138.667 810.667V725.333C138.667 707.66 152.994 693.333 170.667 693.333C188.34 693.333 202.667 707.66 202.667 725.333V810.667L202.917 815.958C204.133 828.16 209.545 839.628 218.292 848.375C228.294 858.377 241.855 864 256 864H768C782.145 864 795.706 858.377 805.708 848.375C815.71 838.373 821.333 824.811 821.333 810.667V725.333C821.333 707.66 835.66 693.333 853.333 693.333Z" fill="black"/>
<path d="M512 138.667C529.673 138.667 544 152.994 544 170.667V605.417L702.708 446.708C715.205 434.211 735.462 434.211 747.958 446.708C760.455 459.205 760.455 479.461 747.958 491.958L534.625 705.292C532.551 707.365 530.18 708.948 527.75 710.333C526.59 710.995 525.453 711.693 524.208 712.208C522.84 712.773 521.42 713.133 520 713.5C519.44 713.645 518.905 713.885 518.333 714C518.098 714.047 517.861 714.083 517.625 714.125C515.796 714.45 513.922 714.667 512 714.667C510.064 714.667 508.175 714.454 506.333 714.125C506.097 714.083 505.86 714.048 505.625 714C505.054 713.884 504.518 713.645 503.958 713.5C502.54 713.131 501.117 712.774 499.75 712.208C498.507 711.692 497.367 710.996 496.208 710.333C493.79 708.951 491.44 707.356 489.375 705.292L276.042 491.958C263.545 479.461 263.545 459.205 276.042 446.708C288.538 434.211 308.795 434.211 321.292 446.708L480 605.417V170.667C480 152.994 494.327 138.667 512 138.667Z" fill="black"/>
</svg>
