<svg width="1024" height="1024" viewBox="0 0 1024 1024" fill="none" xmlns="http://www.w3.org/2000/svg">
<path d="M617.375 404.042C629.872 391.545 650.128 391.545 662.625 404.042C675.122 416.538 675.122 436.795 662.625 449.292L599.917 512L662.625 574.708C675.122 587.205 675.122 607.462 662.625 619.958C650.128 632.455 629.872 632.455 617.375 619.958L532.042 534.625C519.545 522.128 519.545 501.872 532.042 489.375L617.375 404.042Z" fill="black"/>
<path fill-rule="evenodd" clip-rule="evenodd" d="M768 138.667C799.119 138.667 828.954 151.037 850.958 173.042C872.963 195.046 885.333 224.881 885.333 256V768C885.333 799.119 872.963 828.954 850.958 850.958C828.954 872.963 799.119 885.333 768 885.333H256C224.881 885.333 195.046 872.963 173.042 850.958C151.037 828.954 138.667 799.119 138.667 768V256C138.667 224.881 151.037 195.046 173.042 173.042C195.046 151.037 224.881 138.667 256 138.667H768ZM256 202.667C241.855 202.667 228.294 208.29 218.292 218.292C208.29 228.294 202.667 241.855 202.667 256V768L202.917 773.292C204.133 785.494 209.545 796.961 218.292 805.708C228.294 815.71 241.855 821.333 256 821.333H352V202.667H256ZM416 821.333H768C782.145 821.333 795.706 815.71 805.708 805.708C815.71 795.706 821.333 782.145 821.333 768V256C821.333 241.855 815.71 228.294 805.708 218.292C796.961 209.545 785.494 204.133 773.292 202.917L768 202.667H416V821.333Z" fill="black"/>
</svg>
