<svg width="1024" height="1024" viewBox="0 0 1024 1024" fill="none" xmlns="http://www.w3.org/2000/svg">
<path d="M617.375 489.376C629.872 476.879 650.128 476.879 662.625 489.376C675.119 501.873 675.121 522.13 662.625 534.626L546.583 650.668H896C913.673 650.668 928 664.995 928 682.668C927.999 700.34 913.672 714.668 896 714.668H546.583L662.625 830.71C675.119 843.206 675.121 863.464 662.625 875.96C650.129 888.453 629.871 888.453 617.375 875.96L446.708 705.293C445.343 703.928 444.15 702.448 443.083 700.918C441.772 699.036 440.637 697.023 439.75 694.876C438.865 692.731 438.232 690.508 437.833 688.251C437.514 686.437 437.333 684.573 437.333 682.668C437.333 680.735 437.505 678.84 437.833 677.001C438.221 674.832 438.829 672.693 439.667 670.626L439.833 670.21C440.327 669.041 441.001 667.969 441.625 666.876C442.487 665.365 443.372 663.843 444.5 662.46L446.708 660.043L617.375 489.376Z" fill="black"/>
<path d="M361.375 148.043C373.872 135.546 394.128 135.546 406.625 148.043L577.292 318.71L579.5 321.126C580.624 322.504 581.473 324.038 582.333 325.543C582.996 326.701 583.692 327.841 584.208 329.085C585.092 331.218 585.723 333.424 586.125 335.668C586.454 337.509 586.667 339.399 586.667 341.335C586.667 343.186 586.427 344.986 586.125 346.751C586.085 346.983 586.128 347.229 586.083 347.46C585.693 349.471 585.112 351.455 584.333 353.376C584.296 353.467 584.204 353.535 584.167 353.626C583.307 355.686 582.209 357.603 580.958 359.418C580.474 360.121 580.047 360.872 579.5 361.543C578.818 362.379 578.071 363.18 577.292 363.96L406.625 534.626C394.129 547.12 373.871 547.12 361.375 534.626C348.879 522.13 348.881 501.873 361.375 489.376L477.417 373.335H128C110.328 373.335 96.0013 359.007 96 341.335C96 323.661 110.327 309.335 128 309.335H477.417L361.375 193.293C348.879 180.797 348.881 160.54 361.375 148.043Z" fill="black"/>
</svg>
