<svg width="1024" height="1024" viewBox="0 0 1024 1024" fill="none" xmlns="http://www.w3.org/2000/svg">
<path d="M446.708 233.377C459.205 220.881 479.462 220.881 491.958 233.377C504.454 245.874 504.455 266.131 491.958 278.627L290.583 480.002H810.667C828.34 480.002 842.667 494.329 842.667 512.002C842.665 529.674 828.339 544.002 810.667 544.002H290.583L491.958 745.377C504.454 757.874 504.455 778.131 491.958 790.627C479.462 803.123 459.205 803.123 446.708 790.627L190.708 534.627C189.342 533.262 188.151 531.783 187.083 530.252C185.772 528.371 184.637 526.358 183.75 524.211C182.865 522.065 182.232 519.842 181.833 517.586C181.514 515.772 181.333 513.908 181.333 512.002C181.333 510.07 181.505 508.174 181.833 506.336C182.221 504.167 182.829 502.027 183.667 499.961L183.833 499.544C184.327 498.375 185.001 497.304 185.625 496.211C186.487 494.7 187.371 493.178 188.5 491.794L190.708 489.377L446.708 233.377Z" fill="black"/>
</svg>
