<svg width="1024" height="1024" viewBox="0 0 1024 1024" fill="none" xmlns="http://www.w3.org/2000/svg">
<path fill-rule="evenodd" clip-rule="evenodd" d="M768 608C810.435 608 851.119 624.869 881.125 654.875C911.131 684.881 928 725.565 928 768L927.792 775.917C926.367 804.699 917.145 832.369 901.417 856.167L961.292 916.042C973.779 928.539 973.785 948.798 961.292 961.292C948.798 973.784 928.539 973.779 916.042 961.292L856.167 901.417C832.369 917.145 804.699 926.367 775.917 927.792L768 928C725.565 928 684.881 911.131 654.875 881.125C624.869 851.119 608 810.435 608 768C608 725.565 624.869 684.881 654.875 654.875C684.881 624.869 725.565 608 768 608ZM768 672C742.539 672 718.128 682.121 700.125 700.125C682.121 718.128 672 742.539 672 768C672 793.461 682.121 817.871 700.125 835.875C718.128 853.878 742.539 864 768 864L777.5 863.542C799.473 861.358 820.124 851.626 835.875 835.875C853.878 817.871 864 793.461 864 768L863.542 758.5C861.358 736.527 851.626 715.876 835.875 700.125C817.871 682.121 793.461 672 768 672Z" fill="black"/>
<path d="M490.667 608C508.34 608 522.667 622.327 522.667 640C522.667 657.673 508.34 672 490.667 672H426.667C389.89 672 354.63 686.62 328.625 712.625C302.62 738.63 288 773.89 288 810.667V896C288 913.673 273.673 928 256 928C238.327 928 224 913.673 224 896V810.667C224 756.916 245.368 705.382 283.375 667.375C321.382 629.368 372.916 608 426.667 608H490.667Z" fill="black"/>
<path fill-rule="evenodd" clip-rule="evenodd" d="M512 96C565.751 96 617.284 117.368 655.292 155.375C693.299 193.382 714.667 244.916 714.667 298.667L714.417 308.708C711.933 358.803 690.925 406.325 655.292 441.958C619.658 477.592 572.136 498.6 522.042 501.083L512 501.333C458.249 501.333 406.716 479.966 368.708 441.958C333.075 406.325 312.067 358.803 309.583 308.708L309.333 298.667C309.333 244.916 330.701 193.382 368.708 155.375C406.716 117.368 458.249 96 512 96ZM512 160C475.223 160 439.963 174.62 413.958 200.625C387.953 226.63 373.333 261.89 373.333 298.667L373.5 305.542C375.2 339.815 389.578 372.328 413.958 396.708C439.963 422.713 475.223 437.333 512 437.333L518.875 437.167C553.149 435.467 585.662 421.088 610.042 396.708C636.047 370.703 650.667 335.443 650.667 298.667L650.5 291.792C648.8 257.518 634.422 225.005 610.042 200.625C585.662 176.245 553.149 161.867 518.875 160.167L512 160Z" fill="black"/>
</svg>
