<svg width="1024" height="1024" viewBox="0 0 1024 1024" fill="none" xmlns="http://www.w3.org/2000/svg">
<path d="M512 394.667C513.92 394.667 515.798 394.843 517.625 395.167C517.861 395.209 518.098 395.244 518.333 395.292C518.904 395.406 519.441 395.647 520 395.792C521.418 396.158 522.842 396.52 524.208 397.083C525.452 397.597 526.591 398.298 527.75 398.958C530.187 400.346 532.546 401.963 534.625 404.042L705.292 574.708C717.788 587.205 717.788 607.462 705.292 619.958C692.795 632.455 672.538 632.455 660.042 619.958L544 503.917V853.333C544 871.006 529.673 885.333 512 885.333C494.327 885.333 480 871.006 480 853.333V503.917L363.958 619.958C351.462 632.455 331.205 632.455 318.708 619.958C306.212 607.462 306.212 587.205 318.708 574.708L489.375 404.042C491.445 401.972 493.783 400.343 496.208 398.958C497.301 398.334 498.373 397.661 499.542 397.167L499.958 397C501.258 396.473 502.613 396.141 503.958 395.792C504.517 395.647 505.055 395.407 505.625 395.292C505.86 395.244 506.098 395.209 506.333 395.167C508.173 394.838 510.066 394.667 512 394.667Z" fill="black"/>
<path d="M853.333 138.667C871.006 138.667 885.333 152.994 885.333 170.667C885.333 188.34 871.006 202.667 853.333 202.667H170.667C152.994 202.667 138.667 188.34 138.667 170.667C138.667 152.994 152.994 138.667 170.667 138.667H853.333Z" fill="black"/>
</svg>
