<svg width="1024" height="1024" viewBox="0 0 1024 1024" fill="none" xmlns="http://www.w3.org/2000/svg">
<path fill-rule="evenodd" clip-rule="evenodd" d="M512 266.667C529.673 266.667 544 280.994 544 298.667V309.333H554.667C575.559 308.822 596.218 313.89 614.5 324.042C633.1 334.376 648.581 349.607 659.208 368.042C668.015 383.349 662.761 402.928 647.458 411.75C632.153 420.571 612.58 415.298 603.75 400C598.922 391.626 591.907 384.697 583.458 380C575.005 375.304 565.415 373.009 555.75 373.333H544V480H554.667C585.784 480 615.621 492.373 637.625 514.375C659.626 536.377 671.998 566.218 672 597.333C671.999 628.449 659.626 658.289 637.625 680.292C615.621 702.294 585.784 714.667 554.667 714.667H544V725.333C544 743.006 529.673 757.333 512 757.333C494.327 757.333 480 743.006 480 725.333V714.667H462.458C443.929 714.034 425.774 708.996 409.5 699.958C390.9 689.625 375.419 674.433 364.792 656C355.968 640.693 361.241 621.122 376.542 612.292C391.853 603.465 411.423 608.731 420.25 624.042C425.077 632.409 432.1 639.305 440.542 644C448.994 648.695 458.586 651.032 468.25 650.708C468.609 650.696 468.974 650.667 469.333 650.667H480V544H469.333C438.216 544 408.379 531.628 386.375 509.625C364.374 487.622 352.001 457.782 352 426.667C352.002 395.552 364.374 365.711 386.375 343.708C408.379 321.706 438.216 309.333 469.333 309.333H480V298.667C480 280.994 494.327 266.667 512 266.667ZM544 650.667H554.667C568.81 650.667 582.373 645.042 592.375 635.042C602.374 625.041 607.999 611.475 608 597.333C607.998 583.192 602.374 569.625 592.375 559.625C582.373 549.625 568.81 544 554.667 544H544V650.667ZM469.333 373.333C455.19 373.333 441.627 378.958 431.625 388.958C421.626 398.958 416.002 412.525 416 426.667C416.001 440.808 421.626 454.375 431.625 464.375C441.627 474.375 455.19 480 469.333 480H480V373.333H469.333Z" fill="black"/>
<path fill-rule="evenodd" clip-rule="evenodd" d="M512 96C566.63 96 620.737 106.761 671.208 127.667C721.676 148.573 767.54 179.207 806.167 217.833C844.793 256.46 875.427 302.324 896.333 352.792C917.239 403.263 928 457.37 928 512L927.5 532.458C925.154 580.099 914.626 627.047 896.333 671.208C875.427 721.676 844.793 767.54 806.167 806.167C767.54 844.793 721.676 875.427 671.208 896.333C627.047 914.626 580.099 925.154 532.458 927.5L512 928C457.37 928 403.263 917.239 352.792 896.333C302.324 875.427 256.46 844.793 217.833 806.167C179.207 767.54 148.573 721.676 127.667 671.208C109.374 627.047 98.8457 580.099 96.5 532.458L96 512C96 457.37 106.761 403.263 127.667 352.792C148.573 302.324 179.207 256.46 217.833 217.833C256.46 179.207 302.324 148.573 352.792 127.667C403.263 106.761 457.37 96 512 96ZM512 160C465.775 160 419.998 169.102 377.292 186.792C334.586 204.481 295.769 230.398 263.083 263.083C230.398 295.769 204.481 334.586 186.792 377.292C169.102 419.998 160 465.775 160 512L160.417 529.292C162.4 569.61 171.311 609.335 186.792 646.708C204.481 689.414 230.398 728.231 263.083 760.917C295.769 793.602 334.586 819.519 377.292 837.208C419.998 854.898 465.775 864 512 864L529.292 863.583C569.61 861.6 609.335 852.689 646.708 837.208C689.414 819.519 728.231 793.602 760.917 760.917C793.602 728.231 819.519 689.414 837.208 646.708C854.898 604.002 864 558.225 864 512L863.583 494.708C861.6 454.39 852.689 414.665 837.208 377.292C819.519 334.586 793.602 295.769 760.917 263.083C728.231 230.398 689.414 204.481 646.708 186.792C604.002 169.102 558.225 160 512 160Z" fill="black"/>
</svg>
