<svg width="1024" height="1024" viewBox="0 0 1024 1024" fill="none" xmlns="http://www.w3.org/2000/svg">
<path d="M566.125 266.708C590.48 266.708 613.77 275.563 632.333 291.333C650.845 307.062 663.579 328.668 669.042 352.458C674.503 376.238 672.362 401.344 662.875 423.792C660.891 428.486 658.534 432.985 655.958 437.333H682.667C700.34 437.333 714.667 451.66 714.667 469.333C714.667 487.006 700.34 501.333 682.667 501.333H570.417L531.208 522.667H682.667C700.34 522.667 714.667 536.994 714.667 554.667C714.667 572.34 700.34 586.667 682.667 586.667H428.875C426.564 590.06 424.47 593.705 422.708 597.625C416.397 611.671 414.429 627.796 417.292 643.375C420.021 658.205 427.3 671.038 437.292 679.958C447.23 688.824 459.244 693.331 471.208 693.333H552.125C560.74 693.333 569.49 690.226 576.917 683.917C584.399 677.557 590.134 668.238 592.667 657.208C596.626 639.993 613.781 629.258 631 633.208C648.224 637.163 658.996 654.317 655.042 671.542C649.579 695.332 636.844 716.938 618.333 732.667C599.762 748.444 576.449 757.341 552.083 757.333H471.208C442.92 757.331 415.903 746.652 394.708 727.75C373.567 708.892 359.503 683.045 354.333 654.917C350.147 632.124 351.716 608.614 358.625 586.667H341.333C323.66 586.667 309.333 572.34 309.333 554.667C309.333 536.994 323.66 522.667 341.333 522.667H401.667C407.502 517.947 413.732 513.699 420.375 510.083L436.458 501.333H341.333C323.66 501.333 309.333 487.006 309.333 469.333C309.333 451.66 323.66 437.333 341.333 437.333H554.042L584.917 420.542C592.838 416.23 599.772 408.78 603.958 398.875C608.149 388.95 609.143 377.579 606.667 366.792C604.134 355.761 598.4 346.443 590.917 340.083C583.49 333.774 574.741 330.666 566.125 330.667H471.542C462.926 330.667 454.176 333.774 446.75 340.083C439.268 346.443 433.533 355.762 431 366.792C427.04 384.007 409.885 394.741 392.667 390.792C375.442 386.837 364.671 369.683 368.625 352.458C374.087 328.668 386.822 307.062 405.333 291.333C423.905 275.556 447.217 266.659 471.583 266.667L566.125 266.708Z" fill="black"/>
<path fill-rule="evenodd" clip-rule="evenodd" d="M512 96C566.63 96 620.737 106.761 671.208 127.667C721.676 148.573 767.54 179.207 806.167 217.833C844.793 256.46 875.427 302.324 896.333 352.792C917.239 403.263 928 457.37 928 512L927.5 532.458C925.154 580.099 914.626 627.047 896.333 671.208C875.427 721.676 844.793 767.54 806.167 806.167C767.54 844.793 721.676 875.427 671.208 896.333C627.047 914.626 580.099 925.154 532.458 927.5L512 928C457.37 928 403.263 917.239 352.792 896.333C302.324 875.427 256.46 844.793 217.833 806.167C179.207 767.54 148.573 721.676 127.667 671.208C109.374 627.047 98.8457 580.099 96.5 532.458L96 512C96 457.37 106.761 403.263 127.667 352.792C148.573 302.324 179.207 256.46 217.833 217.833C256.46 179.207 302.324 148.573 352.792 127.667C403.263 106.761 457.37 96 512 96ZM512 160C465.775 160 419.998 169.102 377.292 186.792C334.586 204.481 295.769 230.398 263.083 263.083C230.398 295.769 204.481 334.586 186.792 377.292C169.102 419.998 160 465.775 160 512L160.417 529.292C162.4 569.61 171.311 609.335 186.792 646.708C204.481 689.414 230.398 728.231 263.083 760.917C295.769 793.602 334.586 819.519 377.292 837.208C419.998 854.898 465.775 864 512 864L529.292 863.583C569.61 861.6 609.335 852.689 646.708 837.208C689.414 819.519 728.231 793.602 760.917 760.917C793.602 728.231 819.519 689.414 837.208 646.708C854.898 604.002 864 558.225 864 512L863.583 494.708C861.6 454.39 852.689 414.665 837.208 377.292C819.519 334.586 793.602 295.769 760.917 263.083C728.231 230.398 689.414 204.481 646.708 186.792C604.002 169.102 558.225 160 512 160Z" fill="black"/>
</svg>
