<svg width="1024" height="1024" viewBox="0 0 1024 1024" fill="none" xmlns="http://www.w3.org/2000/svg">
<path d="M571.351 96C600.451 96.002 626.287 110.748 643.934 133.208C661.436 155.483 670.393 184.381 670.393 213.333V341.333C670.393 359.006 656.066 373.333 638.393 373.333C620.72 373.333 606.393 359.006 606.393 341.333V213.333C606.393 197.022 601.247 182.481 593.601 172.75C586.105 163.212 577.811 160.002 571.351 160H236.101C229.641 160.002 221.347 163.212 213.851 172.75C206.205 182.481 201.059 197.022 201.059 213.333V864H510.393C528.066 864 542.393 878.327 542.393 896C542.393 913.673 528.066 928 510.393 928H83.7261C66.053 928 51.7261 913.673 51.7261 896C51.7261 878.327 66.053 864 83.7261 864H137.059V213.333C137.059 184.382 146.016 155.483 163.518 133.208C181.165 110.748 207.002 96.002 236.101 96H571.351Z" fill="black"/>
<path fill-rule="evenodd" clip-rule="evenodd" d="M760.143 437.542C768.499 438.486 776.201 442.694 781.518 449.333L876.976 568.625H887.809C910.224 568.625 931.752 577.526 947.601 593.375C963.443 609.223 972.351 630.716 972.351 653.125V758.167C972.343 775.83 958.015 790.161 940.351 790.167H913.518C909.312 800.451 903.103 809.911 895.101 817.917C879.254 833.763 857.72 842.664 835.309 842.667C812.904 842.663 791.405 833.758 775.559 817.917C767.551 809.907 761.309 800.458 757.101 790.167H650.976C646.768 800.458 640.526 809.907 632.518 817.917C616.669 833.766 595.14 842.667 572.726 842.667C550.324 842.661 528.819 833.755 512.976 817.917C504.974 809.911 498.766 800.451 494.559 790.167H467.726C450.058 790.167 435.734 775.833 435.726 758.167V600.625C435.726 596.56 436.51 592.525 438.018 588.75L490.518 457.458C495.376 445.313 507.146 437.339 520.226 437.333H756.559L760.143 437.542ZM572.726 737.625C567.295 737.631 562.067 739.786 558.226 743.625C554.386 747.465 552.234 752.695 552.226 758.125C552.226 763.553 554.395 768.781 558.226 772.625C562.068 776.467 567.294 778.661 572.726 778.667C578.166 778.667 583.379 776.472 587.226 772.625C591.071 768.779 593.268 763.563 593.268 758.125C593.26 752.695 591.066 747.465 587.226 743.625C583.382 739.794 578.154 737.625 572.726 737.625ZM835.309 737.625C829.88 737.628 824.652 739.789 820.809 743.625C816.969 747.465 814.817 752.695 814.809 758.125C814.809 763.557 816.973 768.78 820.809 772.625C824.653 776.469 829.874 778.663 835.309 778.667C840.746 778.664 845.965 776.469 849.809 772.625C853.593 768.835 855.748 763.724 855.809 758.375V757.833C855.725 752.509 853.58 747.396 849.809 743.625C845.966 739.791 840.739 737.627 835.309 737.625ZM499.726 715.75C503.368 709.477 507.759 703.593 512.976 698.375C528.82 682.534 550.322 673.631 572.726 673.625C595.134 673.625 616.67 682.534 632.518 698.375C640.531 706.39 646.767 715.873 650.976 726.167H757.101C761.31 715.873 767.544 706.39 775.559 698.375C791.404 682.537 812.906 673.628 835.309 673.625C857.718 673.627 879.254 682.531 895.101 698.375C900.317 703.592 904.709 709.476 908.351 715.75V653.125C908.351 647.69 906.191 642.471 902.351 638.625C898.504 634.778 893.25 632.625 887.809 632.625H499.726V715.75ZM514.976 568.625H672.018V501.333H541.893L514.976 568.625ZM736.018 568.625H795.018L741.143 501.333H736.018V568.625Z" fill="black"/>
<path d="M339.726 650.667C357.399 650.667 371.726 664.994 371.726 682.667C371.726 700.34 357.399 714.667 339.726 714.667H297.059C279.386 714.667 265.059 700.34 265.059 682.667C265.059 664.994 279.386 650.667 297.059 650.667H339.726Z" fill="black"/>
<path d="M339.726 480C357.399 480 371.726 494.327 371.726 512C371.726 529.673 357.399 544 339.726 544H297.059C279.386 544 265.059 529.673 265.059 512C265.059 494.327 279.386 480 297.059 480H339.726Z" fill="black"/>
<path d="M339.726 309.333C357.399 309.333 371.726 323.66 371.726 341.333C371.726 359.006 357.399 373.333 339.726 373.333H297.059C279.386 373.333 265.059 359.006 265.059 341.333C265.059 323.66 279.386 309.333 297.059 309.333H339.726Z" fill="black"/>
<path d="M510.393 309.333C528.066 309.333 542.393 323.66 542.393 341.333C542.393 359.006 528.066 373.333 510.393 373.333H467.726C450.053 373.333 435.726 359.006 435.726 341.333C435.726 323.66 450.053 309.333 467.726 309.333H510.393Z" fill="black"/>
</svg>
