<svg width="1024" height="1024" viewBox="0 0 1024 1024" fill="none" xmlns="http://www.w3.org/2000/svg">
<path d="M789.013 298.647C789.008 259.14 773.319 221.254 745.388 193.314C717.444 165.37 679.531 149.651 640.013 149.647C600.49 149.647 562.584 165.367 534.638 193.314L257.304 470.647C212.392 515.563 187.143 576.463 187.138 639.981C187.138 703.506 212.386 764.436 257.304 809.356C302.225 854.276 363.152 879.522 426.679 879.522C490.202 879.519 551.137 854.273 596.054 809.356L873.388 532.022C885.885 519.543 906.146 519.534 918.638 532.022C931.134 544.519 931.134 564.817 918.638 577.314L641.304 854.647C584.385 911.564 507.173 943.519 426.679 943.522C346.187 943.522 268.975 911.559 212.054 854.647C155.132 797.725 123.138 720.482 123.138 639.981C123.143 559.487 155.136 482.274 212.054 425.356L489.388 148.022C529.335 108.083 583.524 85.6473 640.013 85.6473C696.503 85.6507 750.692 108.079 790.638 148.022C830.582 187.967 853.008 242.158 853.013 298.647C853.013 355.144 830.587 409.365 790.638 449.314L513.304 726.647C490.333 749.616 459.164 762.519 426.679 762.522C394.196 762.522 363.028 749.611 340.054 726.647C317.079 703.672 304.138 672.472 304.138 639.981C304.143 607.496 317.084 576.326 340.054 553.356L617.388 276.022C629.885 263.543 650.146 263.534 662.638 276.022C675.134 288.519 675.134 308.817 662.638 321.314L385.304 598.647C374.339 609.615 368.143 624.472 368.138 639.981C368.138 655.497 374.334 670.383 385.304 681.356C396.277 692.328 411.162 698.522 426.679 698.522C442.193 698.519 457.085 692.325 468.054 681.356L745.388 404.022C773.324 376.077 789.013 338.162 789.013 298.647Z" fill="black"/>
</svg>
