<svg width="1024" height="1024" viewBox="0 0 1024 1024" fill="none" xmlns="http://www.w3.org/2000/svg">
<path d="M640 138.667C657.673 138.667 672 152.994 672 170.667C672 188.34 657.673 202.667 640 202.667H256C241.855 202.667 228.294 208.29 218.292 218.292C208.29 228.294 202.667 241.855 202.667 256V768L202.917 773.292C204.133 785.494 209.545 796.961 218.292 805.708C228.294 815.71 241.855 821.333 256 821.333H768C782.145 821.333 795.706 815.71 805.708 805.708C815.71 795.706 821.333 782.145 821.333 768V512C821.333 494.327 835.66 480 853.333 480C871.006 480 885.333 494.327 885.333 512V768C885.333 799.119 872.963 828.954 850.958 850.958C828.954 872.963 799.119 885.333 768 885.333H256C224.881 885.333 195.046 872.963 173.042 850.958C151.037 828.954 138.667 799.119 138.667 768V256C138.667 224.881 151.037 195.046 173.042 173.042C195.046 151.037 224.881 138.667 256 138.667H640Z" fill="black"/>
<path d="M830.708 233.375C843.205 220.878 863.462 220.878 875.958 233.375C888.454 245.872 888.455 266.129 875.958 278.625L534.625 619.958C522.129 632.453 501.871 632.454 489.375 619.958L361.375 491.958C348.879 479.462 348.88 459.205 361.375 446.708C373.872 434.212 394.128 434.212 406.625 446.708L512 552.083L830.708 233.375Z" fill="black"/>
</svg>
