<svg width="1024" height="1024" viewBox="0 0 1024 1024" fill="none" xmlns="http://www.w3.org/2000/svg">
<path fill-rule="evenodd" clip-rule="evenodd" d="M660.042 318.708C672.538 306.212 692.795 306.212 705.292 318.708C717.788 331.205 717.788 351.462 705.292 363.958L645.458 423.75C651.09 432.25 655.912 441.285 659.833 450.75C667.874 470.162 672 490.989 672 512C672 533.011 667.874 553.838 659.833 573.25C655.916 582.704 651.081 591.717 645.458 600.208L705.292 660.042C717.788 672.538 717.788 692.795 705.292 705.292C692.795 717.788 672.538 717.788 660.042 705.292L600.208 645.458C591.717 651.081 582.704 655.916 573.25 659.833C553.838 667.874 533.011 672 512 672C490.989 672 470.162 667.874 450.75 659.833C441.285 655.912 432.25 651.09 423.75 645.458L363.958 705.292C351.462 717.788 331.205 717.788 318.708 705.292C306.212 692.795 306.212 672.538 318.708 660.042L378.5 600.208C372.883 591.723 368.081 582.697 364.167 573.25C356.126 553.838 352 533.012 352 512C352 490.989 356.126 470.162 364.167 450.75C368.085 441.293 372.874 432.244 378.5 423.75L318.708 363.958C306.212 351.462 306.212 331.205 318.708 318.708C331.205 306.212 351.462 306.212 363.958 318.708L423.75 378.5C432.244 372.874 441.293 368.085 450.75 364.167C470.162 356.126 490.989 352 512 352C533.012 352 553.838 356.126 573.25 364.167C582.697 368.081 591.723 372.883 600.208 378.5L660.042 318.708ZM512 416C499.393 416 486.897 418.467 475.25 423.292C463.605 428.116 453.038 435.212 444.125 444.125C435.212 453.038 428.116 463.605 423.292 475.25C418.467 486.897 416 499.393 416 512C416 524.607 418.467 537.103 423.292 548.75C428.116 560.395 435.212 570.962 444.125 579.875C453.038 588.788 463.605 595.884 475.25 600.708C486.897 605.533 499.393 608 512 608C524.607 608 537.103 605.533 548.75 600.708C560.395 595.884 570.962 588.788 579.875 579.875C588.788 570.962 595.884 560.395 600.708 548.75C605.533 537.103 608 524.607 608 512C608 499.393 605.533 486.897 600.708 475.25C595.884 463.605 588.788 453.038 579.875 444.125C570.962 435.212 560.395 428.116 548.75 423.292C537.103 418.467 524.607 416 512 416Z" fill="black"/>
<path fill-rule="evenodd" clip-rule="evenodd" d="M512 96C566.63 96 620.737 106.761 671.208 127.667C721.676 148.573 767.54 179.207 806.167 217.833C844.793 256.46 875.427 302.324 896.333 352.792C917.239 403.263 928 457.37 928 512L927.5 532.458C925.154 580.099 914.626 627.047 896.333 671.208C875.427 721.676 844.793 767.54 806.167 806.167C767.54 844.793 721.676 875.427 671.208 896.333C627.047 914.626 580.099 925.154 532.458 927.5L512 928C457.37 928 403.263 917.239 352.792 896.333C302.324 875.427 256.46 844.793 217.833 806.167C179.207 767.54 148.573 721.676 127.667 671.208C109.374 627.047 98.8457 580.099 96.5 532.458L96 512C96 457.37 106.761 403.263 127.667 352.792C148.573 302.324 179.207 256.46 217.833 217.833C256.46 179.207 302.324 148.573 352.792 127.667C403.263 106.761 457.37 96 512 96ZM512 160C465.775 160 419.998 169.102 377.292 186.792C334.586 204.481 295.769 230.398 263.083 263.083C230.398 295.769 204.481 334.586 186.792 377.292C169.102 419.998 160 465.775 160 512L160.417 529.292C162.4 569.61 171.311 609.335 186.792 646.708C204.481 689.414 230.398 728.231 263.083 760.917C295.769 793.602 334.586 819.519 377.292 837.208C419.998 854.898 465.775 864 512 864L529.292 863.583C569.61 861.6 609.335 852.689 646.708 837.208C689.414 819.519 728.231 793.602 760.917 760.917C793.602 728.231 819.519 689.414 837.208 646.708C854.898 604.002 864 558.225 864 512L863.583 494.708C861.6 454.39 852.689 414.665 837.208 377.292C819.519 334.586 793.602 295.769 760.917 263.083C728.231 230.398 689.414 204.481 646.708 186.792C604.002 169.102 558.225 160 512 160Z" fill="black"/>
</svg>
