<svg width="1024" height="1024" viewBox="0 0 1024 1024" fill="none" xmlns="http://www.w3.org/2000/svg">
<path d="M512 266.667C559.668 266.667 602.704 286.435 636.333 318C649.218 330.095 649.887 350.365 637.792 363.25C625.696 376.135 605.427 376.761 592.542 364.667C569.084 342.646 541.214 330.667 512 330.667C465.519 330.667 419.922 363.08 394.333 416H469.333C487.006 416 501.333 430.327 501.333 448C501.333 465.673 487.006 480 469.333 480H375.458C374.082 490.288 373.333 500.968 373.333 512C373.333 523.033 374.082 533.712 375.458 544H469.333C487.006 544 501.333 558.327 501.333 576C501.333 593.673 487.006 608 469.333 608H394.333C419.922 660.92 465.519 693.333 512 693.333C541.167 693.333 569.038 681.358 592.5 659.333C605.385 647.239 625.655 647.865 637.75 660.75C649.845 673.635 649.177 693.905 636.292 706C602.667 737.562 559.631 757.333 512 757.333C424.493 757.333 355.58 693.317 325.625 608H298.667C280.994 608 266.667 593.673 266.667 576C266.667 558.327 280.994 544 298.667 544H311.125C309.968 533.454 309.333 522.77 309.333 512C309.333 501.23 309.968 490.546 311.125 480H298.667C280.994 480 266.667 465.673 266.667 448C266.667 430.327 280.994 416 298.667 416H325.625C355.58 330.683 424.493 266.667 512 266.667Z" fill="black"/>
<path fill-rule="evenodd" clip-rule="evenodd" d="M512 96C566.63 96 620.737 106.761 671.208 127.667C721.676 148.573 767.54 179.207 806.167 217.833C844.793 256.46 875.427 302.324 896.333 352.792C917.239 403.263 928 457.37 928 512L927.5 532.458C925.154 580.099 914.626 627.047 896.333 671.208C875.427 721.676 844.793 767.54 806.167 806.167C767.54 844.793 721.676 875.427 671.208 896.333C627.047 914.626 580.099 925.154 532.458 927.5L512 928C457.37 928 403.263 917.239 352.792 896.333C302.324 875.427 256.46 844.793 217.833 806.167C179.207 767.54 148.573 721.676 127.667 671.208C109.374 627.047 98.8457 580.099 96.5 532.458L96 512C96 457.37 106.761 403.263 127.667 352.792C148.573 302.324 179.207 256.46 217.833 217.833C256.46 179.207 302.324 148.573 352.792 127.667C403.263 106.761 457.37 96 512 96ZM512 160C465.775 160 419.998 169.102 377.292 186.792C334.586 204.481 295.769 230.398 263.083 263.083C230.398 295.769 204.481 334.586 186.792 377.292C169.102 419.998 160 465.775 160 512L160.417 529.292C162.4 569.61 171.311 609.335 186.792 646.708C204.481 689.414 230.398 728.231 263.083 760.917C295.769 793.602 334.586 819.519 377.292 837.208C419.998 854.898 465.775 864 512 864L529.292 863.583C569.61 861.6 609.335 852.689 646.708 837.208C689.414 819.519 728.231 793.602 760.917 760.917C793.602 728.231 819.519 689.414 837.208 646.708C854.898 604.002 864 558.225 864 512L863.583 494.708C861.6 454.39 852.689 414.665 837.208 377.292C819.519 334.586 793.602 295.769 760.917 263.083C728.231 230.398 689.414 204.481 646.708 186.792C604.002 169.102 558.225 160 512 160Z" fill="black"/>
</svg>
