<svg width="1024" height="1024" viewBox="0 0 1024 1024" fill="none" xmlns="http://www.w3.org/2000/svg">
<path fill-rule="evenodd" clip-rule="evenodd" d="M818.583 650.875C858.135 652.833 895.657 669.407 923.792 697.542C953.798 727.547 970.667 768.232 970.667 810.667L970.458 818.583C968.5 858.135 951.926 895.657 923.792 923.792C895.657 951.926 858.135 968.5 818.583 970.458L810.667 970.667C768.232 970.667 727.548 953.797 697.542 923.792C669.407 895.657 652.833 858.135 650.875 818.583L650.667 810.667C650.667 768.232 667.536 727.547 697.542 697.542C727.548 667.536 768.232 650.667 810.667 650.667L818.583 650.875ZM769.375 897.167C782.169 903.277 796.218 906.667 810.667 906.667L820.167 906.208C842.139 904.024 862.791 894.292 878.542 878.542C896.545 860.538 906.667 836.127 906.667 810.667L906.208 801.167C905.103 790.042 902.027 779.274 897.25 769.292L769.375 897.167ZM810.667 714.667C785.206 714.667 760.795 724.788 742.792 742.792C724.788 760.795 714.667 785.206 714.667 810.667L715.125 820.167C716.229 831.272 719.279 842.032 724.042 852L852 724.042C842.032 719.279 831.272 716.229 820.167 715.125L810.667 714.667Z" fill="black"/>
<path d="M384 138.667C392.487 138.667 400.624 142.04 406.625 148.042L525.25 266.667H810.667C841.785 266.667 871.621 279.037 893.625 301.042C915.629 323.046 928 352.881 928 384V512C928 529.673 913.673 544 896 544C878.327 544 864 529.673 864 512V384C864 369.855 858.377 356.294 848.375 346.292C839.628 337.544 828.16 332.133 815.958 330.917L810.667 330.667H512C503.513 330.667 495.376 327.293 489.375 321.292L370.75 202.667H213.333C199.188 202.667 185.627 208.29 175.625 218.292C165.623 228.294 160 241.855 160 256V725.333C160 739.478 165.623 753.04 175.625 763.042C185.627 773.044 199.188 778.667 213.333 778.667H512C529.673 778.667 544 792.994 544 810.667C544 828.34 529.673 842.667 512 842.667H213.333C182.215 842.667 152.379 830.296 130.375 808.292C108.371 786.287 96 756.452 96 725.333V256C96 224.881 108.371 195.046 130.375 173.042C152.379 151.037 182.215 138.667 213.333 138.667H384Z" fill="black"/>
</svg>
