<svg width="1024" height="1024" viewBox="0 0 1024 1024" fill="none" xmlns="http://www.w3.org/2000/svg">
<path d="M341.333 450.615L382.875 383.99H458.917L376.125 511.157L469.333 639.99H391.042L341.333 569.074L291.625 639.99H213.333L306.542 511.157L223.75 383.99H299.792L341.333 450.615Z" fill="black"/>
<path d="M725.333 608.199C743.001 608.199 757.325 622.532 757.333 640.199C757.333 657.872 743.006 672.199 725.333 672.199H682.667C664.994 672.199 650.667 657.872 650.667 640.199C650.675 622.532 664.998 608.199 682.667 608.199H725.333Z" fill="black"/>
<path d="M725.333 480.199C743.001 480.199 757.325 494.532 757.333 512.199C757.333 529.872 743.006 544.199 725.333 544.199H682.667C664.994 544.199 650.667 529.872 650.667 512.199C650.675 494.532 664.998 480.199 682.667 480.199H725.333Z" fill="black"/>
<path d="M725.333 352.199C743.001 352.199 757.325 366.532 757.333 384.199C757.333 401.872 743.006 416.199 725.333 416.199H682.667C664.994 416.199 650.667 401.872 650.667 384.199C650.675 366.532 664.999 352.199 682.667 352.199H725.333Z" fill="black"/>
<path fill-rule="evenodd" clip-rule="evenodd" d="M545.458 97.3236C555.141 94.4197 565.637 96.2938 573.75 102.324C581.863 108.36 586.664 117.879 586.667 127.99V181.324H853.333L856.625 181.49C872.748 183.138 885.328 196.766 885.333 213.324V767.99C885.333 785.663 871.006 799.99 853.333 799.99H586.667V895.99C586.667 905.575 582.369 914.662 574.958 920.74C567.544 926.818 557.776 929.245 548.375 927.365L121.708 842.032C106.76 839.034 96 825.905 96 810.657V255.99C96.0043 241.865 105.263 229.386 118.792 225.324L545.458 97.3236ZM160 279.782V784.407L522.667 856.949V170.99L160 279.782ZM586.667 735.99H821.333V245.324H586.667V735.99Z" fill="black"/>
</svg>
