<svg width="1024" height="1024" viewBox="0 0 1024 1024" fill="none" xmlns="http://www.w3.org/2000/svg">
<path fill-rule="evenodd" clip-rule="evenodd" d="M105.377 105.377C117.874 92.8806 138.131 92.8806 150.627 105.377L849.044 803.794C849.713 804.36 850.371 804.956 851.002 805.586C851.621 806.202 852.195 806.85 852.752 807.502L918.627 873.377C931.122 885.874 931.123 906.131 918.627 918.627C906.131 931.123 885.874 931.122 873.377 918.627L825.127 870.377C821.194 872.576 817.18 874.642 813.002 876.377C802.312 880.816 791.021 883.616 779.544 884.752L768.002 885.336H256.002C224.885 885.336 195.048 872.963 173.044 850.961C151.04 828.957 138.67 799.12 138.669 768.002V256.002C138.669 235.243 144.075 215.717 153.544 198.794L105.377 150.627C92.8807 138.131 92.8807 117.874 105.377 105.377ZM203.252 248.502C202.908 250.954 202.669 253.454 202.669 256.002V768.002L202.919 773.294C204.136 785.495 209.548 796.964 218.294 805.711C228.296 815.711 241.859 821.336 256.002 821.336H768.002L773.252 821.086C773.984 821.013 774.692 820.772 775.419 820.669L554.669 599.919L491.961 662.627C479.465 675.123 459.208 675.122 446.711 662.627L318.711 534.627C306.214 522.131 306.214 501.874 318.711 489.377C331.208 476.881 351.464 476.881 363.961 489.377L469.336 594.752L509.419 554.669L203.252 248.502Z" fill="black"/>
<path d="M768.002 138.669C799.12 138.67 828.957 151.04 850.961 173.044C872.963 195.048 885.336 224.885 885.336 256.002V682.669C885.334 700.34 871.007 714.668 853.336 714.669C835.663 714.669 821.337 700.341 821.336 682.669V256.002C821.336 241.859 815.711 228.296 805.711 218.294C796.964 209.548 785.495 204.136 773.294 202.919L768.002 202.669H341.336C323.663 202.669 309.337 188.341 309.336 170.669C309.336 152.996 323.663 138.669 341.336 138.669H768.002Z" fill="black"/>
<path d="M702.711 361.377C715.208 348.881 735.464 348.881 747.961 361.377C760.455 373.874 760.457 394.131 747.961 406.627L662.627 491.961C650.131 504.457 629.874 504.455 617.377 491.961C604.881 479.464 604.881 459.208 617.377 446.711L702.711 361.377Z" fill="black"/>
</svg>
