<svg width="1024" height="1024" viewBox="0 0 1024 1024" fill="none" xmlns="http://www.w3.org/2000/svg">
<path fill-rule="evenodd" clip-rule="evenodd" d="M170.667 96C188.34 96 202.667 110.327 202.667 128V224.75C206.211 224.29 209.772 224 213.333 224H512C530.107 224 548.402 229.946 562.667 241.833C577.094 253.859 586.662 271.555 586.667 291.542V433.792C586.666 434.983 586.526 436.159 586.458 437.333H853.333C873.136 437.333 892.122 445.206 906.125 459.208C920.128 473.211 928 492.197 928 512V682.667C928 702.469 920.128 721.456 906.125 735.458C892.902 748.682 875.228 756.303 856.625 757.125C855.541 757.236 854.446 757.333 853.333 757.333H213.333C209.737 757.333 206.184 756.967 202.667 756.458V853.333C202.667 871.006 188.34 885.333 170.667 885.333C152.994 885.333 138.667 871.006 138.667 853.333V128C138.667 110.327 152.994 96 170.667 96ZM211.25 501.542C209.197 501.951 207.294 502.956 205.792 504.458C203.791 506.459 202.667 509.171 202.667 512V682.667C202.667 685.496 203.791 688.208 205.792 690.208C207.792 692.209 210.504 693.333 213.333 693.333H693.333V501.333H213.333L211.25 501.542ZM330.667 437.333H512C516.517 437.333 519.925 435.78 521.667 434.333C522.293 433.811 522.557 433.386 522.667 433.208V292.125C522.557 291.947 522.293 291.522 521.667 291C519.925 289.553 516.517 288 512 288H330.667V437.333Z" fill="black"/>
</svg>
