<svg width="1024" height="1024" viewBox="0 0 1024 1024" fill="none" xmlns="http://www.w3.org/2000/svg">
<path fill-rule="evenodd" clip-rule="evenodd" d="M768 128C813.264 128 856.66 145.994 888.667 178C920.673 210.006 938.667 253.403 938.667 298.667V640C938.667 685.264 920.673 728.66 888.667 760.667C856.66 792.673 813.264 810.667 768 810.667H566.458L363.25 932.583C357.138 936.247 350.203 938.329 343.083 938.625C335.955 938.92 328.859 937.403 322.458 934.25C316.057 931.096 310.527 926.375 306.417 920.542C302.315 914.715 299.734 907.953 298.917 900.875L298.667 896V810.667H256C212.215 810.667 170.101 793.843 138.375 763.667C106.651 733.491 87.7329 692.27 85.5417 648.542L85.3333 640V298.667C85.3333 253.403 103.327 210.006 135.333 178C167.34 145.994 210.736 128 256 128H768ZM341.333 512C330.017 512 319.168 516.498 311.167 524.5C303.165 532.502 298.667 543.351 298.667 554.667C298.667 565.983 303.165 576.832 311.167 584.833C319.168 592.835 330.017 597.333 341.333 597.333H597.333C608.649 597.333 619.498 592.835 627.5 584.833C635.502 576.832 640 565.983 640 554.667C640 543.351 635.502 532.502 627.5 524.5C619.498 516.498 608.649 512 597.333 512H341.333ZM341.333 341.333C330.017 341.333 319.168 345.832 311.167 353.833C303.165 361.835 298.667 372.684 298.667 384C298.667 395.316 303.165 406.165 311.167 414.167C319.168 422.168 330.017 426.667 341.333 426.667H682.667C693.983 426.667 704.832 422.168 712.833 414.167C720.835 406.165 725.333 395.316 725.333 384C725.333 372.684 720.835 361.835 712.833 353.833C704.832 345.832 693.983 341.333 682.667 341.333H341.333Z" fill="black"/>
</svg>
