<svg width="1024" height="1024" viewBox="0 0 1024 1024" fill="none" xmlns="http://www.w3.org/2000/svg">
<path fill-rule="evenodd" clip-rule="evenodd" d="M745.375 318.708C757.872 306.212 778.128 306.212 790.625 318.708L918.625 446.708C931.122 459.205 931.122 479.462 918.625 491.958C906.128 504.455 885.872 504.455 873.375 491.958L800 418.583V768C800 785.673 785.673 800 768 800H384C380.565 800 377.31 799.293 374.208 798.292L449.292 873.375C461.788 885.872 461.788 906.128 449.292 918.625C436.795 931.122 416.538 931.122 404.042 918.625L276.042 790.625C263.545 778.128 263.545 757.872 276.042 745.375L404.042 617.375C416.538 604.878 436.795 604.878 449.292 617.375C461.788 629.872 461.788 650.128 449.292 662.625L374.208 737.667C377.306 736.667 380.57 736 384 736H736V418.583L662.625 491.958C650.128 504.455 629.872 504.455 617.375 491.958C604.878 479.462 604.878 459.205 617.375 446.708L745.375 318.708ZM343.917 768L353.667 777.75C352.675 774.663 352 771.416 352 768C352 764.57 352.667 761.306 353.667 758.208L343.917 768Z" fill="black"/>
<path d="M170.667 266.667C188.34 266.667 202.667 280.994 202.667 298.667V768C202.667 785.673 188.34 800 170.667 800C152.994 800 138.667 785.673 138.667 768V298.667C138.667 280.994 152.994 266.667 170.667 266.667Z" fill="black"/>
<path d="M170.667 138.667C188.34 138.667 202.667 152.994 202.667 170.667C202.667 188.34 188.34 202.667 170.667 202.667C152.994 202.667 138.667 188.34 138.667 170.667C138.667 152.994 152.994 138.667 170.667 138.667Z" fill="black"/>
<path d="M768 138.667C785.673 138.667 800 152.994 800 170.667C800 188.34 785.673 202.667 768 202.667H298.667C280.994 202.667 266.667 188.34 266.667 170.667C266.667 152.994 280.994 138.667 298.667 138.667H768Z" fill="black"/>
</svg>
