<svg width="1024" height="1024" viewBox="0 0 1024 1024" fill="none" xmlns="http://www.w3.org/2000/svg">
<path fill-rule="evenodd" clip-rule="evenodd" d="M512 138.667C530.107 138.667 548.402 144.613 562.667 156.5C577.094 168.526 586.662 186.222 586.667 206.208V348.458C586.666 349.649 586.526 350.826 586.458 352H853.333C871.441 352 889.736 357.946 904 369.833C918.427 381.859 927.996 399.555 928 419.542V561.792C927.996 581.778 918.427 599.474 904 611.5C889.736 623.387 871.441 629.333 853.333 629.333H757.125C757.192 630.507 757.333 631.684 757.333 632.875V775.125C757.329 795.111 747.76 812.807 733.333 824.833C719.069 836.72 700.774 842.667 682.667 842.667H256C237.893 842.667 219.598 836.72 205.333 824.833C190.906 812.807 181.338 795.111 181.333 775.125V206.208C181.338 186.222 190.906 168.526 205.333 156.5C219.598 144.613 237.893 138.667 256 138.667H512ZM256 629.333C251.483 629.333 248.075 630.887 246.333 632.333C245.707 632.856 245.443 633.281 245.333 633.458V774.542C245.443 774.72 245.707 775.145 246.333 775.667C248.075 777.114 251.483 778.667 256 778.667H682.667C687.184 778.667 690.592 777.114 692.333 775.667C692.96 775.145 693.223 774.72 693.333 774.542V633.458C693.223 633.281 692.96 632.855 692.333 632.333C690.592 630.887 687.184 629.333 682.667 629.333H256ZM256 416C251.483 416 248.075 417.553 246.333 419C245.707 419.522 245.443 419.947 245.333 420.125V561.208C245.443 561.386 245.707 561.811 246.333 562.333C248.075 563.78 251.483 565.333 256 565.333H853.333C857.85 565.333 861.259 563.78 863 562.333C863.627 561.811 863.89 561.386 864 561.208V420.125C863.89 419.947 863.627 419.522 863 419C861.259 417.553 857.85 416 853.333 416H256ZM252.833 202.917C249.881 203.418 247.641 204.581 246.333 205.667C245.707 206.189 245.443 206.614 245.333 206.792V347.875C245.443 348.053 245.707 348.478 246.333 349C248.075 350.447 251.483 352 256 352H512C516.517 352 519.925 350.447 521.667 349C522.293 348.478 522.557 348.053 522.667 347.875V206.792C522.557 206.614 522.293 206.189 521.667 205.667C519.925 204.22 516.517 202.667 512 202.667H256L252.833 202.917Z" fill="black"/>
</svg>
