<svg width="1024" height="1024" viewBox="0 0 1024 1024" fill="none" xmlns="http://www.w3.org/2000/svg">
<path fill-rule="evenodd" clip-rule="evenodd" d="M422.94 104.765C432.185 103.681 441.574 104.412 450.523 106.973C459.478 109.539 467.874 113.862 475.148 119.681C482.421 125.501 488.472 132.716 492.94 140.89C497.407 149.06 500.216 158.046 501.19 167.306C501.305 168.406 501.356 169.534 501.357 170.64V469.306C501.357 483.451 506.98 497.054 516.982 507.056C526.982 517.046 540.554 522.639 554.69 522.639H844.815C864.609 522.643 883.608 530.52 897.607 544.514C911.602 558.511 919.475 577.514 919.482 597.306C919.482 599.736 919.197 602.189 918.648 604.556C901.887 676.856 866.063 743.379 814.94 797.181C763.82 850.971 699.238 890.13 627.898 910.556C556.546 930.981 480.999 931.945 409.149 913.348C337.295 894.748 271.715 857.247 219.232 804.765C166.751 752.282 129.29 686.7 110.69 614.848C92.0926 542.999 93.0592 467.491 113.482 396.14C133.909 324.786 173.055 260.182 226.857 209.056C280.657 157.937 347.144 122.109 419.44 105.348L422.94 104.765ZM431.148 168.348C371.043 182.792 315.779 212.83 270.94 255.431C225.418 298.689 192.267 353.351 174.982 413.723C157.699 474.099 156.912 538.009 172.649 598.806C188.387 659.604 220.075 715.106 264.482 759.515C308.89 803.922 364.391 835.651 425.19 851.39C485.986 867.124 549.9 866.297 610.273 849.015C670.642 831.731 725.308 798.616 768.565 753.098C810.717 708.737 840.486 654.129 855.107 594.765C854.643 592.902 853.736 591.145 852.357 589.765C850.361 587.773 847.635 586.643 844.815 586.64H554.69C523.572 586.64 493.694 574.309 471.69 552.306C449.688 530.302 437.357 500.423 437.357 469.306V173.473C437.232 172.825 437.091 172.179 436.773 171.598C436.369 170.858 435.806 170.209 435.148 169.681C434.489 169.154 433.71 168.748 432.898 168.515C432.331 168.353 431.736 168.347 431.148 168.348Z" fill="black"/>
<path fill-rule="evenodd" clip-rule="evenodd" d="M621.482 123.223C629.951 117.226 640.818 115.739 650.607 119.181C709.294 139.846 762.611 173.394 806.607 217.39C850.603 261.386 884.15 314.701 904.815 373.39C908.26 383.179 906.771 394.044 900.773 402.515C894.773 410.975 885.022 416.015 874.648 416.015H682.648C662.852 416.01 643.855 408.138 629.857 394.14C615.859 380.14 607.986 361.145 607.982 341.348V149.348C607.982 138.975 613.022 129.223 621.482 123.223ZM671.982 341.348C671.986 344.171 673.111 346.893 675.107 348.89C677.103 350.886 679.826 352.01 682.648 352.015H826.107C809.366 319.102 787.603 288.886 761.357 262.64C735.111 236.394 704.894 214.629 671.982 197.89V341.348Z" fill="black"/>
</svg>
