<svg width="1024" height="1024" viewBox="0 0 1024 1024" fill="none" xmlns="http://www.w3.org/2000/svg">
<path d="M853.333 778.661C871.004 778.661 885.33 792.99 885.333 810.661C885.333 828.334 871.006 842.661 853.333 842.661H170.667C152.994 842.661 138.667 828.334 138.667 810.661C138.67 792.99 152.996 778.661 170.667 778.661H853.333Z" fill="black"/>
<path fill-rule="evenodd" clip-rule="evenodd" d="M680.917 224.036C689.996 223.538 698.861 226.939 705.292 233.369L875.958 404.036C881.958 410.035 885.332 418.176 885.333 426.661V639.994C885.333 657.667 871.006 671.994 853.333 671.994H170.667C158.865 671.994 148.027 665.482 142.458 655.077C136.898 644.675 137.499 632.058 144.042 622.244L314.708 366.244L318.458 361.619C328.008 351.845 343.004 349.069 355.625 355.369L503.125 429.119L657.667 235.994L659.917 233.452C665.466 227.852 672.965 224.476 680.917 224.036ZM537 489.327C527.578 501.105 511.201 504.689 497.708 497.952L352.292 425.244L230.458 607.994H821.333V439.911L685.333 303.911L537 489.327Z" fill="black"/>
</svg>
