<svg width="1024" height="1024" viewBox="0 0 1024 1024" fill="none" xmlns="http://www.w3.org/2000/svg">
<path d="M184.712 156.376C192.613 140.574 211.825 134.152 227.629 142.043C243.428 149.945 249.852 169.156 241.962 184.959C140.15 388.584 139.145 592.08 242.879 841.043C249.663 857.351 241.935 876.08 225.629 882.876C209.32 889.662 190.592 881.933 183.796 865.626C74.2057 602.601 73.2021 379.408 184.712 156.376Z" fill="black"/>
<path d="M796.379 142.043C812.183 134.154 831.395 140.575 839.296 156.376C950.805 379.407 949.802 602.603 840.212 865.626C833.418 881.933 814.688 889.659 798.379 882.876C782.07 876.081 774.343 857.353 781.129 841.043C884.863 592.081 883.857 388.583 782.046 184.959C774.155 169.155 780.577 149.943 796.379 142.043Z" fill="black"/>
<path d="M426.671 352.001C443.346 352.002 459.183 356.447 472.754 368.001C484.987 378.419 492.734 392.462 498.671 405.793C504.692 419.314 510.562 436.227 517.129 454.834C518.329 458.233 519.592 461.726 520.879 465.334C534.925 446.854 550.35 428.405 566.712 412.043C597.202 381.553 637.178 352.001 682.671 352.001C700.342 352.003 714.671 366.329 714.671 384.001C714.67 401.672 700.342 415.999 682.671 416.001C664.164 416.001 640.139 429.117 611.962 457.293C588.838 480.417 567.058 509.561 548.004 537.334C555.994 558.157 562.47 576.236 567.837 591.626C574.594 610.996 579.375 624.73 584.004 635.168C588.71 645.775 591.643 649.051 592.712 649.959C592.963 650.172 593.024 650.203 593.171 650.251C593.471 650.349 594.673 650.668 597.337 650.668H640.004C657.675 650.67 672.004 664.996 672.004 682.668C672.003 700.338 657.675 714.665 640.004 714.668H597.337C580.679 714.668 564.842 710.245 551.296 698.751C539.059 688.363 531.374 674.359 525.504 661.126C519.556 647.715 513.8 630.999 507.421 612.709C506.106 608.94 504.672 605.069 503.254 601.043C489.158 619.605 473.731 638.191 457.296 654.626C426.807 685.115 386.829 714.666 341.337 714.668C323.665 714.668 309.338 700.34 309.337 682.668C309.337 664.994 323.664 650.668 341.337 650.668C359.844 650.666 383.871 637.551 412.046 609.376C435.29 586.132 457.131 556.778 476.254 528.876C468.474 508.708 462.101 491.157 456.796 476.126C449.841 456.419 444.899 442.453 440.171 431.834C435.362 421.037 432.374 417.664 431.254 416.709C430.994 416.489 430.934 416.463 430.796 416.418C430.504 416.322 429.327 416.001 426.671 416.001H384.004C366.332 416.001 352.005 401.673 352.004 384.001C352.004 366.328 366.331 352.001 384.004 352.001H426.671Z" fill="black"/>
</svg>
