<svg width="1024" height="1024" viewBox="0 0 1024 1024" fill="none" xmlns="http://www.w3.org/2000/svg">
<path d="M810.667 650.667C828.34 650.667 842.667 664.994 842.667 682.667V778.667H938.667C956.34 778.667 970.667 792.994 970.667 810.667C970.667 828.34 956.34 842.667 938.667 842.667H842.667V938.667C842.667 956.34 828.34 970.667 810.667 970.667C792.994 970.667 778.667 956.34 778.667 938.667V842.667H682.667C664.994 842.667 650.667 828.34 650.667 810.667C650.667 792.994 664.994 778.667 682.667 778.667H778.667V682.667C778.667 664.994 792.994 650.667 810.667 650.667Z" fill="black"/>
<path d="M768 138.667C810.435 138.667 851.119 155.536 881.125 185.542C911.131 215.548 928 256.232 928 298.667V533.333C928 551.007 913.673 565.333 896 565.333C878.327 565.333 864 551.007 864 533.333V298.667C864 273.206 853.879 248.795 835.875 230.792C817.872 212.788 793.461 202.667 768 202.667H256C230.539 202.667 206.128 212.788 188.125 230.792C170.122 248.795 160 273.206 160 298.667V640C160 665.461 170.122 689.872 188.125 707.875C206.128 725.879 230.539 736 256 736H341.333C359.006 736 373.333 750.327 373.333 768V839.458L495.958 765.917C511.113 756.824 530.782 761.721 539.875 776.875C548.968 792.03 544.03 811.699 528.875 820.792L357.792 923.458C347.91 929.381 335.61 929.507 325.583 923.833C315.551 918.153 309.333 907.529 309.333 896V800H256C213.565 800 172.881 783.131 142.875 753.125C112.869 723.119 96 682.435 96 640V298.667C96 256.232 112.869 215.548 142.875 185.542C172.881 155.536 213.565 138.667 256 138.667H768Z" fill="black"/>
<path d="M597.333 522.667C615.006 522.667 629.333 536.994 629.333 554.667C629.333 572.34 615.006 586.667 597.333 586.667H341.333C323.66 586.667 309.333 572.34 309.333 554.667C309.333 536.994 323.66 522.667 341.333 522.667H597.333Z" fill="black"/>
<path d="M682.667 352C700.34 352 714.667 366.327 714.667 384C714.667 401.673 700.34 416 682.667 416H341.333C323.66 416 309.333 401.673 309.333 384C309.333 366.327 323.66 352 341.333 352H682.667Z" fill="black"/>
</svg>
