<svg width="1024" height="1024" viewBox="0 0 1024 1024" fill="none" xmlns="http://www.w3.org/2000/svg">
<path d="M256.002 181.333C273.674 181.335 288.002 195.661 288.002 213.333C288.002 231.006 273.674 245.332 256.002 245.333C241.858 245.333 228.296 250.957 218.294 260.958C208.292 270.96 202.669 284.522 202.669 298.667V469.333C202.669 477.82 199.294 485.957 193.294 491.958L173.252 512L193.294 532.042C199.294 538.043 202.669 546.18 202.669 554.667V725.333L202.919 730.625C204.135 742.827 209.547 754.295 218.294 763.042C228.296 773.043 241.858 778.667 256.002 778.667C273.674 778.668 288.002 792.994 288.002 810.667C288.002 828.339 273.674 842.665 256.002 842.667C224.884 842.667 195.048 830.295 173.044 808.292C151.04 786.287 138.669 756.452 138.669 725.333V567.917L105.377 534.625C92.8806 522.128 92.8806 501.872 105.377 489.375L138.669 456.083V298.667C138.669 267.548 151.04 237.713 173.044 215.708C195.048 193.705 224.884 181.333 256.002 181.333Z" fill="black"/>
<path d="M768.002 181.333C799.12 181.334 828.957 193.705 850.961 215.708C872.964 237.712 885.336 267.548 885.336 298.667V456.083L918.627 489.375C931.123 501.871 931.123 522.129 918.627 534.625L885.336 567.917V725.333C885.336 756.451 872.964 786.287 850.961 808.292C828.957 830.295 799.12 842.666 768.002 842.667C750.329 842.667 736.002 828.34 736.002 810.667C736.002 792.994 750.329 778.667 768.002 778.667C782.146 778.666 795.709 773.043 805.711 763.042C815.712 753.04 821.336 739.478 821.336 725.333V554.667C821.336 546.18 824.71 538.043 830.711 532.042L850.752 512L830.711 491.958C824.71 485.957 821.336 477.82 821.336 469.333V298.667C821.336 284.522 815.712 270.96 805.711 260.958C795.709 250.957 782.146 245.334 768.002 245.333C750.329 245.333 736.002 231.006 736.002 213.333C736.002 195.66 750.329 181.333 768.002 181.333Z" fill="black"/>
<path d="M384.419 480C402.091 480.001 416.419 494.328 416.419 512C416.419 529.672 402.091 543.999 384.419 544H384.002C366.329 544 352.002 529.673 352.002 512C352.002 494.327 366.329 480 384.002 480H384.419Z" fill="black"/>
<path d="M512.419 480C530.091 480.001 544.419 494.328 544.419 512C544.419 529.672 530.091 543.999 512.419 544H512.002C494.329 544 480.002 529.673 480.002 512C480.002 494.327 494.329 480 512.002 480H512.419Z" fill="black"/>
<path d="M640.419 480C658.091 480.001 672.419 494.328 672.419 512C672.419 529.672 658.091 543.999 640.419 544H640.002C622.329 544 608.002 529.673 608.002 512C608.002 494.327 622.329 480 640.002 480H640.419Z" fill="black"/>
</svg>
