<svg width="1024" height="1024" viewBox="0 0 1024 1024" fill="none" xmlns="http://www.w3.org/2000/svg">
<path d="M853.33 778.661C871.002 778.661 885.327 792.99 885.33 810.661C885.33 828.334 871.004 842.661 853.33 842.661H170.664C152.992 842.659 138.664 828.333 138.664 810.661C138.667 792.991 152.994 778.662 170.664 778.661H853.33Z" fill="black"/>
<path d="M680.914 224.036C689.993 223.538 698.858 226.94 705.289 233.369L875.955 404.036C888.452 416.532 888.451 436.789 875.955 449.286C863.459 461.782 843.202 461.782 830.705 449.286L685.33 303.911L536.997 489.327C527.575 501.105 511.198 504.689 497.705 497.952L352.289 425.244L197.289 657.744C187.486 672.449 167.619 676.422 152.914 666.619C138.213 656.814 134.237 636.947 144.039 622.244L314.705 366.244L318.455 361.619C328.004 351.845 343.001 349.07 355.622 355.369L503.122 429.119L657.664 235.994L659.914 233.452C665.463 227.852 672.963 224.476 680.914 224.036Z" fill="black"/>
</svg>
