<svg width="1024" height="1024" viewBox="0 0 1024 1024" fill="none" xmlns="http://www.w3.org/2000/svg">
<path fill-rule="evenodd" clip-rule="evenodd" d="M680.923 394.717C690.002 394.221 698.868 397.62 705.298 404.05L875.965 574.717C881.961 580.717 885.34 588.859 885.34 597.342V810.675C885.335 828.342 871.007 842.672 853.34 842.675H170.673C158.875 842.675 148.035 836.158 142.465 825.759C136.903 815.357 137.506 802.741 144.048 792.925L314.715 536.925L318.465 532.3C328.015 522.524 343.009 519.748 355.631 526.05L503.131 599.8L657.673 406.675L659.923 404.134C665.473 398.532 672.97 395.157 680.923 394.717ZM537.006 660.009C527.586 671.782 511.205 675.364 497.715 668.634L352.298 595.925L230.465 778.675H821.34V610.592L685.34 474.592L537.006 660.009Z" fill="black"/>
<path d="M681.215 138.717C690.194 138.311 698.942 141.694 705.298 148.05L875.965 318.717C888.454 331.214 888.459 351.473 875.965 363.967C863.47 376.46 843.212 376.456 830.715 363.967L684.798 218.05L493.923 447.175C484.421 458.568 468.321 461.922 455.048 455.3L308.215 381.884L196.256 531.217C185.651 545.339 165.597 548.185 151.465 537.592C137.339 526.986 134.491 506.934 145.09 492.8L273.09 322.134L276.881 317.884C286.498 308.94 300.868 306.677 312.965 312.717L460.965 386.717L658.09 150.175L660.381 147.717C665.963 142.297 673.365 139.075 681.215 138.717Z" fill="black"/>
</svg>
