<svg width="1024" height="1024" viewBox="0 0 1024 1024" fill="none" xmlns="http://www.w3.org/2000/svg">
<path fill-rule="evenodd" clip-rule="evenodd" d="M597.333 96C651.084 96 702.618 117.368 740.625 155.375C778.632 193.382 800 244.916 800 298.667V896C800 907.801 793.488 918.64 783.083 924.208C772.68 929.771 760.066 929.169 750.25 922.625L512 763.792L273.75 922.625C263.934 929.169 251.32 929.771 240.917 924.208C230.512 918.64 224 907.801 224 896V298.667C224 244.916 245.368 193.382 283.375 155.375C321.382 117.368 372.916 96 426.667 96H597.333ZM426.667 160C389.89 160 354.63 174.62 328.625 200.625C302.62 226.63 288 261.89 288 298.667V836.208L494.25 698.708L498.417 696.375C508.447 691.667 520.342 692.436 529.75 698.708L736 836.208V298.667C736 261.89 721.38 226.63 695.375 200.625C669.37 174.62 634.11 160 597.333 160H426.667Z" fill="black"/>
</svg>
