<svg width="1024" height="1024" viewBox="0 0 1024 1024" fill="none" xmlns="http://www.w3.org/2000/svg">
<path d="M788.042 660.042C800.538 647.545 820.795 647.545 833.292 660.042L961.292 788.042L963.5 790.458C963.85 790.887 964.093 791.391 964.417 791.833C964.903 792.497 965.357 793.174 965.792 793.875C966.401 794.858 966.966 795.845 967.458 796.875C967.824 797.638 968.152 798.413 968.458 799.208C968.93 800.437 969.269 801.69 969.583 802.958C969.796 803.815 970.066 804.659 970.208 805.542C970.284 806.014 970.362 806.484 970.417 806.958C970.557 808.176 970.667 809.411 970.667 810.667C970.667 811.03 970.595 811.39 970.583 811.75C970.574 812.029 970.558 812.305 970.542 812.583C970.444 814.232 970.255 815.844 969.917 817.417C969.607 818.855 969.093 820.232 968.583 821.625C968.388 822.158 968.306 822.731 968.083 823.25C966.524 826.896 964.267 830.317 961.292 833.292L833.292 961.292C820.795 973.788 800.538 973.788 788.042 961.292C775.545 948.795 775.545 928.538 788.042 916.042L861.417 842.667H682.667C664.994 842.667 650.667 828.34 650.667 810.667C650.667 792.994 664.994 778.667 682.667 778.667H861.417L788.042 705.292C775.545 692.795 775.545 672.538 788.042 660.042Z" fill="black"/>
<path d="M768 138.667C810.435 138.667 851.119 155.536 881.125 185.542C911.131 215.547 928 256.232 928 298.667V533.333C928 551.006 913.673 565.333 896 565.333C878.327 565.333 864 551.006 864 533.333V298.667C864 273.206 853.879 248.795 835.875 230.792C817.872 212.788 793.461 202.667 768 202.667H256C230.539 202.667 206.128 212.788 188.125 230.792C170.122 248.795 160 273.206 160 298.667V640C160 665.461 170.122 689.871 188.125 707.875C206.128 725.878 230.539 736 256 736H341.333C359.006 736 373.333 750.327 373.333 768V839.458L495.125 766.417C510.272 757.337 529.905 762.239 539 777.375C548.092 792.528 543.192 812.198 528.042 821.292L357.792 923.458C347.91 929.381 335.61 929.507 325.583 923.833C315.551 918.153 309.333 907.529 309.333 896V800H256C213.565 800 172.881 783.131 142.875 753.125C112.869 723.119 96 682.435 96 640V298.667C96 256.232 112.869 215.547 142.875 185.542C172.881 155.536 213.565 138.667 256 138.667H768Z" fill="black"/>
<path d="M597.333 522.667C615.006 522.667 629.333 536.994 629.333 554.667C629.333 572.34 615.006 586.667 597.333 586.667H341.333C323.66 586.667 309.333 572.34 309.333 554.667C309.333 536.994 323.66 522.667 341.333 522.667H597.333Z" fill="black"/>
<path d="M682.667 352C700.34 352 714.667 366.327 714.667 384C714.667 401.673 700.34 416 682.667 416H341.333C323.66 416 309.333 401.673 309.333 384C309.333 366.327 323.66 352 341.333 352H682.667Z" fill="black"/>
</svg>
