<svg width="1024" height="1024" viewBox="0 0 1024 1024" fill="none" xmlns="http://www.w3.org/2000/svg">
<path fill-rule="evenodd" clip-rule="evenodd" d="M256 138.667C275.802 138.667 294.789 146.541 308.792 160.542C313.969 165.719 318.296 171.586 321.708 177.917C350.725 152.693 387.97 138.667 426.667 138.667H735.625C760.104 140.144 782.44 151.65 800.125 169.333C818.055 187.264 831.019 211.14 838.792 237.333L841.833 248.708L842.042 249.708L884.708 463.042C885.121 465.106 885.333 467.228 885.333 469.333C885.333 500.45 872.96 530.288 850.958 552.292C828.954 574.295 799.118 586.667 768 586.667H672V768C671.999 799.116 659.627 828.955 637.625 850.958C615.621 872.962 585.785 885.333 554.667 885.333C523.549 885.333 493.712 872.962 471.708 850.958C449.706 828.955 437.334 799.116 437.333 768V725.333C437.332 688.559 422.711 653.295 396.708 627.292C372.329 602.913 339.814 588.533 305.542 586.833L298.667 586.667H170.667C150.865 586.667 131.878 578.793 117.875 564.792C103.875 550.79 96.0008 531.801 96 512V213.333C96.0014 193.533 103.874 174.543 117.875 160.542C131.877 146.541 150.865 138.667 170.667 138.667H256ZM728.042 202.542C727.141 202.618 726.237 202.667 725.333 202.667H426.667C401.207 202.667 376.795 212.79 358.792 230.792C340.79 248.794 330.668 273.208 330.667 298.667V525.208C372.559 531.907 411.578 551.663 441.958 582.042C479.964 620.048 501.332 671.585 501.333 725.333V768C501.334 782.143 506.959 795.707 516.958 805.708C526.96 815.709 540.523 821.333 554.667 821.333C568.811 821.333 582.373 815.709 592.375 805.708C602.375 795.707 607.999 782.143 608 768V554.667C608.003 536.996 622.329 522.667 640 522.667H768C782.144 522.667 795.706 517.043 805.708 507.042C815.107 497.642 820.577 485.091 821.208 471.875L779.5 263.292C774.404 241.566 765.158 224.867 754.875 214.583C744.866 204.576 735.434 201.913 728.042 202.542ZM170.667 202.667C167.839 202.667 165.125 203.793 163.125 205.792C161.127 207.791 160.001 210.507 160 213.333V512C160.001 514.827 161.127 517.542 163.125 519.542C165.125 521.541 167.838 522.667 170.667 522.667H266.667V213.333C266.665 210.507 265.54 207.791 263.542 205.792C262.04 204.291 260.135 203.284 258.083 202.875L256 202.667H170.667Z" fill="black"/>
</svg>
