<svg width="1024" height="1028" viewBox="0 0 1024 1028" fill="none" xmlns="http://www.w3.org/2000/svg">
<path fill-rule="evenodd" clip-rule="evenodd" d="M191.295 243.356C244.594 215.966 306.256 208.963 364.559 223.958C410.525 235.781 459.286 229.12 500.389 205.389C541.492 181.658 571.641 142.76 584.385 97.0418C587.846 84.6418 598.432 75.5316 611.203 73.9085C623.98 72.2914 636.504 78.4954 642.949 89.6438L834.949 422.198C839.237 429.633 840.364 438.494 838.066 446.763C821.903 504.759 785.008 554.65 734.635 587.116L724.389 593.368C668.776 625.477 602.778 634.513 540.587 618.513C494.626 606.697 445.855 613.355 404.757 637.083C367.403 658.649 339.145 692.777 324.727 733.133L466.977 979.517C475.813 994.822 470.569 1014.39 455.264 1023.23C439.958 1032.07 420.387 1026.82 411.551 1011.52L70.2176 420.31C65.9275 412.87 64.7758 403.983 67.0795 395.708C84.3215 333.855 125.147 281.21 180.757 249.103L191.295 243.356Z" fill="black"/>
</svg>
