<svg width="1024" height="1024" viewBox="0 0 1024 1024" fill="none" xmlns="http://www.w3.org/2000/svg">
<path d="M288.625 693.083C306.298 693.083 320.625 707.41 320.625 725.083C320.625 742.756 306.298 757.083 288.625 757.083H288.417C270.748 757.078 256.417 742.753 256.417 725.083C256.417 707.414 270.748 693.089 288.417 693.083H288.625Z" fill="black"/>
<path d="M416.625 693.083C434.298 693.083 448.625 707.41 448.625 725.083C448.625 742.756 434.298 757.083 416.625 757.083H416.417C398.748 757.078 384.417 742.753 384.417 725.083C384.417 707.414 398.748 693.089 416.417 693.083H416.625Z" fill="black"/>
<path d="M544.833 693.083C562.506 693.083 576.833 707.41 576.833 725.083C576.833 742.756 562.506 757.083 544.833 757.083H544.625C526.959 757.075 512.625 742.751 512.625 725.083C512.625 707.415 526.959 693.092 544.625 693.083H544.833Z" fill="black"/>
<path d="M288.542 565.083C306.215 565.083 320.542 579.41 320.542 597.083C320.542 614.756 306.215 629.083 288.542 629.083H288C270.327 629.083 256 614.756 256 597.083C256 579.41 270.327 565.083 288 565.083H288.542Z" fill="black"/>
<path d="M416.625 565.083C434.298 565.083 448.625 579.41 448.625 597.083C448.625 614.756 434.298 629.083 416.625 629.083H416.417C398.748 629.078 384.417 614.753 384.417 597.083C384.417 579.414 398.748 565.089 416.417 565.083H416.625Z" fill="black"/>
<path d="M544.625 565.083C562.298 565.083 576.625 579.41 576.625 597.083C576.625 614.756 562.298 629.083 544.625 629.083H544.417C526.748 629.078 512.417 614.753 512.417 597.083C512.417 579.414 526.748 565.089 544.417 565.083H544.625Z" fill="black"/>
<path d="M672.833 565.083C690.506 565.083 704.833 579.41 704.833 597.083C704.833 614.756 690.506 629.083 672.833 629.083H672.625C654.959 629.075 640.625 614.751 640.625 597.083C640.625 579.415 654.959 565.092 672.625 565.083H672.833Z" fill="black"/>
<path fill-rule="evenodd" clip-rule="evenodd" d="M672 95.75C689.673 95.75 704 110.077 704 127.75V181.083H757.333C788.452 181.083 818.287 193.454 840.292 215.458C862.296 237.463 874.667 267.298 874.667 298.417V810.417C874.667 841.535 862.296 871.371 840.292 893.375C818.287 915.379 788.452 927.75 757.333 927.75H245.333C214.215 927.75 184.379 915.379 162.375 893.375C140.371 871.371 128 841.535 128 810.417V298.417C128 267.298 140.371 237.463 162.375 215.458C184.379 193.454 214.215 181.083 245.333 181.083H298.667V127.75C298.667 110.077 312.994 95.75 330.667 95.75C348.34 95.75 362.667 110.077 362.667 127.75V181.083H640V127.75C640 110.077 654.327 95.75 672 95.75ZM192 810.417L192.25 815.708C193.466 827.91 198.878 839.378 207.625 848.125C217.627 858.127 231.188 863.75 245.333 863.75H757.333C771.478 863.75 785.04 858.127 795.042 848.125C805.044 838.123 810.667 824.562 810.667 810.417V501.083H192V810.417ZM245.333 245.083C231.188 245.083 217.627 250.706 207.625 260.708C197.623 270.71 192 284.272 192 298.417V437.083H810.667V298.417C810.667 284.272 805.044 270.71 795.042 260.708C786.295 251.961 774.827 246.549 762.625 245.333L757.333 245.083H704V298.417C704 316.09 689.673 330.417 672 330.417C654.327 330.417 640 316.09 640 298.417V245.083H362.667V298.417C362.667 316.09 348.34 330.417 330.667 330.417C312.994 330.417 298.667 316.09 298.667 298.417V245.083H245.333Z" fill="black"/>
</svg>
