<svg width="1024" height="1024" viewBox="0 0 1024 1024" fill="none" xmlns="http://www.w3.org/2000/svg">
<path d="M512 565.333C529.673 565.333 544 579.66 544 597.333V597.75C544 615.423 529.673 629.75 512 629.75C494.327 629.75 480 615.423 480 597.75V597.333C480 579.66 494.327 565.333 512 565.333Z" fill="black"/>
<path d="M512 309.333C529.673 309.333 544 323.66 544 341.333V469.333C544 487.006 529.673 501.333 512 501.333C494.327 501.333 480 487.006 480 469.333V341.333C480 323.66 494.327 309.333 512 309.333Z" fill="black"/>
<path fill-rule="evenodd" clip-rule="evenodd" d="M768 138.667C810.435 138.667 851.119 155.536 881.125 185.542C911.131 215.547 928 256.232 928 298.667V640C928 682.435 911.131 723.119 881.125 753.125C851.119 783.131 810.435 800 768 800H563.542L357.792 923.458C347.91 929.381 335.61 929.507 325.583 923.833C315.551 918.153 309.333 907.529 309.333 896V800H256C213.565 800 172.881 783.131 142.875 753.125C112.869 723.119 96 682.435 96 640V298.667C96 256.232 112.869 215.547 142.875 185.542C172.881 155.536 213.565 138.667 256 138.667H768ZM256 202.667C230.539 202.667 206.128 212.788 188.125 230.792C170.122 248.795 160 273.206 160 298.667V640C160 665.461 170.122 689.871 188.125 707.875C206.128 725.878 230.539 736 256 736H341.333C359.006 736 373.333 750.327 373.333 768V839.458L538.208 740.542L542.042 738.583C546.015 736.878 550.313 736 554.667 736H768L777.5 735.542C799.473 733.358 820.124 723.626 835.875 707.875C851.626 692.124 861.358 671.473 863.542 649.5L864 640V298.667C864 273.206 853.879 248.795 835.875 230.792C817.872 212.788 793.461 202.667 768 202.667H256Z" fill="black"/>
</svg>
