<svg width="1024" height="1024" viewBox="0 0 1024 1024" fill="none" xmlns="http://www.w3.org/2000/svg">
<path fill-rule="evenodd" clip-rule="evenodd" d="M566.25 139.25C593.115 141.914 618.368 153.785 637.625 173.042C659.629 195.046 672 224.881 672 256V437.333H768C799.119 437.333 828.954 449.704 850.958 471.708C872.963 493.713 885.333 523.548 885.333 554.667C885.333 556.774 885.122 558.892 884.708 560.958L842.042 774.292C841.975 774.625 841.911 774.96 841.833 775.292C834.656 805.907 820.62 834.171 800.125 854.667C782.44 872.351 760.105 883.856 735.625 885.333H426.667C387.961 885.333 350.728 871.277 321.708 846.042C318.293 852.386 313.979 858.271 308.792 863.458C294.789 877.461 275.803 885.333 256 885.333H170.667C150.864 885.333 131.878 877.461 117.875 863.458C103.872 849.456 96 830.469 96 810.667V512C96 492.197 103.872 473.211 117.875 459.208C131.878 445.206 150.864 437.333 170.667 437.333H298.667L305.542 437.167C339.815 435.467 372.328 421.088 396.708 396.708C421.088 372.328 435.467 339.815 437.167 305.542L437.333 298.667V256C437.333 224.881 449.704 195.046 471.708 173.042C493.713 151.037 523.548 138.667 554.667 138.667L566.25 139.25ZM554.667 202.667C540.522 202.667 526.96 208.29 516.958 218.292C506.956 228.294 501.333 241.855 501.333 256V298.667C501.333 352.417 479.966 403.951 441.958 441.958C411.579 472.337 372.558 492.05 330.667 498.75V725.333C330.667 750.794 340.788 775.205 358.792 793.208C376.795 811.212 401.206 821.333 426.667 821.333H725.333C726.238 821.333 727.141 821.382 728.042 821.458C735.435 822.087 744.865 819.427 754.875 809.417C765.159 799.133 774.404 782.436 779.5 760.708L821.208 552.083C820.568 538.88 815.099 526.349 805.708 516.958C795.706 506.956 782.145 501.333 768 501.333H640C622.327 501.333 608 487.006 608 469.333V256C608 241.855 602.377 228.294 592.375 218.292C583.628 209.544 572.16 204.133 559.958 202.917L554.667 202.667ZM170.667 501.333C167.838 501.333 165.125 502.458 163.125 504.458C161.125 506.459 160 509.171 160 512V810.667L160.208 812.75C160.617 814.803 161.623 816.706 163.125 818.208C165.125 820.209 167.838 821.333 170.667 821.333H256C258.829 821.333 261.541 820.209 263.542 818.208C265.542 816.208 266.667 813.496 266.667 810.667V501.333H170.667Z" fill="black"/>
</svg>
