<svg width="1024" height="1024" viewBox="0 0 1024 1024" fill="none" xmlns="http://www.w3.org/2000/svg">
<path fill-rule="evenodd" clip-rule="evenodd" d="M768.125 102.4C810.56 102.4 851.244 119.269 881.25 149.275C911.256 179.281 928.125 219.965 928.125 262.4V603.733C928.125 646.168 911.256 686.853 881.25 716.858C851.244 746.864 810.56 763.733 768.125 763.733H563.667L357.917 887.192C348.035 893.115 335.735 893.241 325.708 887.567C315.676 881.887 309.458 871.262 309.458 859.733V763.733H256.125C213.69 763.733 173.006 746.864 143 716.858C112.994 686.853 96.125 646.168 96.125 603.733V262.4C96.125 219.965 112.994 179.281 143 149.275C173.006 119.269 213.69 102.4 256.125 102.4H768.125ZM256.125 166.4C230.664 166.4 206.253 176.522 188.25 194.525C170.246 212.529 160.125 236.939 160.125 262.4V603.733C160.125 629.194 170.247 653.605 188.25 671.608C206.253 689.612 230.664 699.733 256.125 699.733H341.458C359.131 699.733 373.458 714.06 373.458 731.733V803.192L538.333 704.275L542.167 702.317C546.14 700.611 550.438 699.733 554.792 699.733H768.125L777.625 699.275C799.598 697.091 820.249 687.359 836 671.608C851.751 655.858 861.483 635.206 863.667 613.233L864.125 603.733V262.4C864.125 236.939 854.004 212.529 836 194.525C817.997 176.522 793.586 166.4 768.125 166.4H256.125Z" fill="black"/>
</svg>
