<svg width="1024" height="1024" viewBox="0 0 1024 1024" fill="none" xmlns="http://www.w3.org/2000/svg">
<path d="M341.333 565.333C359.006 565.333 373.333 579.66 373.333 597.333V768C373.333 785.673 359.006 800 341.333 800C323.66 800 309.333 785.673 309.333 768V597.333C309.333 579.66 323.66 565.333 341.333 565.333Z" fill="black"/>
<path d="M512 565.333C529.673 565.333 544 579.66 544 597.333V768C544 785.673 529.673 800 512 800C494.327 800 480 785.673 480 768V597.333C480 579.66 494.327 565.333 512 565.333Z" fill="black"/>
<path d="M682.667 565.333C700.34 565.333 714.667 579.66 714.667 597.333V768C714.667 785.673 700.34 800 682.667 800C664.994 800 650.667 785.673 650.667 768V597.333C650.667 579.66 664.994 565.333 682.667 565.333Z" fill="black"/>
<path fill-rule="evenodd" clip-rule="evenodd" d="M682.667 96C700.34 96 714.667 110.327 714.667 128V181.333H768C799.119 181.333 828.954 193.704 850.958 215.708C872.963 237.713 885.333 267.548 885.333 298.667V810.667C885.333 841.785 872.963 871.621 850.958 893.625C828.954 915.629 799.119 928 768 928H256C224.881 928 195.046 915.629 173.042 893.625C151.037 871.621 138.667 841.785 138.667 810.667V298.667C138.667 267.548 151.037 237.713 173.042 215.708C195.046 193.704 224.881 181.333 256 181.333H309.333V128C309.333 110.327 323.66 96 341.333 96C359.006 96 373.333 110.327 373.333 128V181.333H650.667V128C650.667 110.327 664.994 96 682.667 96ZM202.667 810.667L202.917 815.958C204.133 828.16 209.545 839.628 218.292 848.375C228.294 858.377 241.855 864 256 864H768C782.145 864 795.706 858.377 805.708 848.375C815.71 838.373 821.333 824.812 821.333 810.667V501.333H202.667V810.667ZM256 245.333C241.855 245.333 228.294 250.956 218.292 260.958C208.29 270.96 202.667 284.522 202.667 298.667V437.333H821.333V298.667C821.333 284.522 815.71 270.96 805.708 260.958C796.961 252.211 785.494 246.799 773.292 245.583L768 245.333H714.667V298.667C714.667 316.34 700.34 330.667 682.667 330.667C664.994 330.667 650.667 316.34 650.667 298.667V245.333H373.333V298.667C373.333 316.34 359.006 330.667 341.333 330.667C323.66 330.667 309.333 316.34 309.333 298.667V245.333H256Z" fill="black"/>
</svg>
