<svg width="1024" height="1024" viewBox="0 0 1024 1024" fill="none" xmlns="http://www.w3.org/2000/svg">
<path fill-rule="evenodd" clip-rule="evenodd" d="M682.667 96C700.34 96 714.667 110.327 714.667 128V181.333H768C799.119 181.333 828.954 193.704 850.958 215.708C872.963 237.713 885.333 267.548 885.333 298.667V554.667C885.333 572.34 871.006 586.667 853.333 586.667C835.66 586.667 821.333 572.34 821.333 554.667V501.333H202.667V810.667L202.917 815.958C204.133 828.16 209.545 839.628 218.292 848.375C228.294 858.377 241.855 864 256 864H490.667C508.34 864 522.667 878.327 522.667 896C522.667 913.673 508.34 928 490.667 928H256C224.881 928 195.046 915.629 173.042 893.625C151.037 871.621 138.667 841.785 138.667 810.667V298.667C138.667 267.548 151.037 237.713 173.042 215.708C195.046 193.704 224.881 181.333 256 181.333H309.333V128C309.333 110.327 323.66 96 341.333 96C359.006 96 373.333 110.327 373.333 128V181.333H650.667V128C650.667 110.327 664.994 96 682.667 96ZM256 245.333C241.855 245.333 228.294 250.956 218.292 260.958C208.29 270.96 202.667 284.522 202.667 298.667V437.333H821.333V298.667C821.333 284.522 815.71 270.96 805.708 260.958C796.961 252.211 785.494 246.799 773.292 245.583L768 245.333H714.667V298.667C714.667 316.34 700.34 330.667 682.667 330.667C664.994 330.667 650.667 316.34 650.667 298.667V245.333H373.333V298.667C373.333 316.34 359.006 330.667 341.333 330.667C323.66 330.667 309.333 316.34 309.333 298.667V245.333H256Z" fill="black"/>
<path d="M873.375 702.708C885.872 690.212 906.128 690.212 918.625 702.708C931.122 715.205 931.122 735.462 918.625 747.958L747.958 918.625C735.462 931.122 715.205 931.122 702.708 918.625L617.375 833.292C604.878 820.795 604.878 800.538 617.375 788.042C629.872 775.545 650.128 775.545 662.625 788.042L725.333 850.75L873.375 702.708Z" fill="black"/>
</svg>
