<svg width="1024" height="1024" viewBox="0 0 1024 1024" fill="none" xmlns="http://www.w3.org/2000/svg">
<path fill-rule="evenodd" clip-rule="evenodd" d="M374.667 120.625C434.52 123.554 491.422 148.32 534.417 190.458C568.312 223.68 613.872 242.292 661.333 242.292C708.795 242.292 754.354 223.68 788.25 190.458C797.447 181.45 811.17 178.853 823.042 183.833C834.915 188.821 842.659 200.456 842.667 213.333V597.333C842.662 605.916 839.208 614.154 833.083 620.167C790.088 662.31 733.19 687.071 673.333 690L661.333 690.292C597.117 690.292 535.443 665.118 489.583 620.167C455.689 586.953 410.122 568.333 362.667 568.333C319.534 568.333 277.998 583.76 245.333 611.5V896C245.333 913.673 231.006 928 213.333 928C195.66 928 181.333 913.673 181.333 896V213.333C181.338 204.745 184.785 196.472 190.917 190.458C236.776 145.512 298.454 120.333 362.667 120.333L374.667 120.625Z" fill="black"/>
</svg>
