<svg width="1024" height="1024" viewBox="0 0 1024 1024" fill="none" xmlns="http://www.w3.org/2000/svg">
<path fill-rule="evenodd" clip-rule="evenodd" d="M704 167.333C724.047 167.333 743.895 171.288 762.417 178.958C780.936 186.63 797.783 197.868 811.958 212.042C826.132 226.216 837.37 243.064 845.042 261.583C852.711 280.101 856.665 299.958 856.667 320C856.665 340.047 852.713 359.938 845.042 378.458C837.37 396.968 826.125 413.79 811.958 427.958L363.958 875.958C357.958 881.956 349.818 885.333 341.333 885.333H170.667C152.997 885.333 138.672 871.002 138.667 853.333V682.667C138.67 674.187 142.047 666.039 148.042 660.042L596.042 212.042C610.217 197.868 627.064 186.63 645.583 178.958C664.105 171.288 683.953 167.333 704 167.333ZM202.667 695.917V821.333H328.083L701.417 448L576 322.583L202.667 695.917ZM704 231.333C692.361 231.333 680.838 233.631 670.083 238.083C659.328 242.539 649.524 249.061 641.292 257.292L621.25 277.333L746.667 402.75L766.708 382.708C774.935 374.48 781.462 364.706 785.917 353.958C790.372 343.203 792.665 331.642 792.667 320C792.665 308.362 790.369 296.836 785.917 286.083C781.461 275.327 774.941 265.525 766.708 257.292C758.476 249.061 748.672 242.539 737.917 238.083C727.162 233.631 715.64 231.333 704 231.333Z" fill="black"/>
</svg>
