<svg width="1024" height="1024" viewBox="0 0 1024 1024" fill="none" xmlns="http://www.w3.org/2000/svg">
<path d="M532.042 278.625L746.667 493.25L363.958 875.958C357.958 881.955 349.817 885.333 341.333 885.333H170.667C152.998 885.333 138.674 871 138.667 853.333V682.667C138.67 674.187 142.048 666.039 148.042 660.042L530.792 277.25C531.202 277.71 531.601 278.184 532.042 278.625Z" fill="black"/>
<path d="M704 167.333C724.047 167.333 743.895 171.288 762.417 178.958C780.936 186.63 797.783 197.868 811.958 212.042C826.131 226.216 837.37 243.065 845.042 261.583C852.71 280.1 856.665 299.958 856.667 320C856.665 340.046 852.713 359.938 845.042 378.458C837.37 396.967 826.125 413.79 811.958 427.958L791.917 448L577.292 233.375C576.851 232.934 576.376 232.535 575.917 232.125L596.042 212.042C610.217 197.868 627.064 186.63 645.583 178.958C664.105 171.288 683.953 167.333 704 167.333Z" fill="black"/>
</svg>
