<svg width="1024" height="1024" viewBox="0 0 1024 1024" fill="none" xmlns="http://www.w3.org/2000/svg">
<path d="M428.375 183.667C522.027 155.21 625.298 174.143 699.75 233.875C758.874 281.149 793.103 348.479 795.833 419.042L795.958 428.083L799.833 428.208C897.96 432.776 976.595 511.866 981.167 610.375L981.333 619.375C981.333 722.072 900.909 805.929 799.792 810.625L790.833 810.833H284.042L274.542 810.5C149.116 805.798 47.7047 708.142 42.875 585.958L42.6667 576.708C42.6754 459.511 131.427 362.948 246.792 345.583L251.667 344.917L254.625 337.208C282.913 268.089 342.353 213.196 418 187.083L428.375 183.667Z" fill="black"/>
</svg>
