<svg width="1024" height="1024" viewBox="0 0 1024 1024" fill="none" xmlns="http://www.w3.org/2000/svg">
<path d="M256 565.333C273.673 565.333 288 579.66 288 597.333V597.75C288 615.423 273.673 629.75 256 629.75C238.327 629.75 224 615.423 224 597.75V597.333C224 579.66 238.327 565.333 256 565.333Z" fill="black"/>
<path d="M597.417 565.75C615.086 565.796 629.374 580.164 629.333 597.833C629.289 615.506 614.923 629.794 597.25 629.75L426.583 629.333C408.912 629.287 394.622 614.922 394.667 597.25C394.713 579.578 409.078 565.289 426.75 565.333L597.417 565.75Z" fill="black"/>
<path d="M768 565.333C785.673 565.333 800 579.66 800 597.333V597.75C800 615.423 785.673 629.75 768 629.75C750.327 629.75 736 615.423 736 597.75V597.333C736 579.66 750.327 565.333 768 565.333Z" fill="black"/>
<path d="M256 394.667C273.673 394.667 288 408.994 288 426.667V427.083C288 444.756 273.673 459.083 256 459.083C238.327 459.083 224 444.756 224 427.083V426.667C224 408.994 238.327 394.667 256 394.667Z" fill="black"/>
<path d="M426.667 394.667C444.34 394.667 458.667 408.994 458.667 426.667V427.083C458.667 444.756 444.34 459.083 426.667 459.083C408.994 459.083 394.667 444.756 394.667 427.083V426.667C394.667 408.994 408.994 394.667 426.667 394.667Z" fill="black"/>
<path d="M597.333 394.667C615.006 394.667 629.333 408.994 629.333 426.667V427.083C629.333 444.756 615.006 459.083 597.333 459.083C579.66 459.083 565.333 444.756 565.333 427.083V426.667C565.333 408.994 579.66 394.667 597.333 394.667Z" fill="black"/>
<path d="M768 394.667C785.673 394.667 800 408.994 800 426.667V427.083C800 444.756 785.673 459.083 768 459.083C750.327 459.083 736 444.756 736 427.083V426.667C736 408.994 750.327 394.667 768 394.667Z" fill="black"/>
<path fill-rule="evenodd" clip-rule="evenodd" d="M853.333 224C884.452 224 914.287 236.371 936.292 258.375C958.296 280.379 970.667 310.215 970.667 341.333V682.667C970.667 713.785 958.296 743.621 936.292 765.625C914.287 787.629 884.452 800 853.333 800H170.667C139.548 800 109.713 787.629 87.7083 765.625C65.704 743.621 53.3333 713.785 53.3333 682.667V341.333C53.3333 310.215 65.704 280.379 87.7083 258.375C109.713 236.371 139.548 224 170.667 224H853.333ZM170.667 288C156.522 288 142.96 293.623 132.958 303.625C122.956 313.627 117.333 327.188 117.333 341.333V682.667C117.333 696.812 122.956 710.373 132.958 720.375C142.96 730.377 156.522 736 170.667 736H853.333C867.478 736 881.04 730.377 891.042 720.375C901.044 710.373 906.667 696.812 906.667 682.667V341.333C906.667 327.188 901.044 313.627 891.042 303.625C881.04 293.623 867.478 288 853.333 288H170.667Z" fill="black"/>
</svg>
