<svg width="1024" height="1024" viewBox="0 0 1024 1024" fill="none" xmlns="http://www.w3.org/2000/svg">
<path fill-rule="evenodd" clip-rule="evenodd" d="M782.208 266.667C801.352 266.667 820.313 270.425 838 277.75C855.688 285.077 871.754 295.837 885.292 309.375C898.83 322.913 909.59 338.978 916.917 356.667C924.242 374.353 928 393.315 928 412.458V782.208C928 801.352 924.242 820.313 916.917 838C909.59 855.688 898.83 871.754 885.292 885.292C871.754 898.83 855.688 909.59 838 916.917C820.313 924.242 801.352 928 782.208 928H412.458C393.315 928 374.353 924.242 356.667 916.917C338.978 909.59 322.913 898.83 309.375 885.292C295.837 871.754 285.077 855.688 277.75 838C270.425 820.313 266.667 801.352 266.667 782.208V412.458C266.667 373.792 282.034 336.716 309.375 309.375C336.716 282.034 373.792 266.667 412.458 266.667H782.208ZM412.458 330.667C390.766 330.667 369.964 339.286 354.625 354.625C339.286 369.964 330.667 390.766 330.667 412.458V782.208C330.667 792.944 332.768 803.58 336.875 813.5C340.985 823.423 347.03 832.447 354.625 840.042C362.22 847.637 371.243 853.681 381.167 857.792C391.086 861.898 401.722 864 412.458 864H782.208C792.945 864 803.581 861.898 813.5 857.792C823.423 853.681 832.447 847.637 840.042 840.042C847.637 832.447 853.681 823.423 857.792 813.5C861.898 803.581 864 792.945 864 782.208V412.458C864 401.722 861.898 391.086 857.792 381.167C853.681 371.243 847.637 362.22 840.042 354.625C832.447 347.03 823.423 340.985 813.5 336.875C803.58 332.768 792.944 330.667 782.208 330.667H412.458Z" fill="black"/>
<path d="M640 96C661.996 96 681.111 101.808 697.333 113.583C712.863 124.856 723.59 140.076 731.958 155.125C740.544 170.57 734.986 190.037 719.542 198.625C704.097 207.211 684.63 201.652 676.042 186.208C669.822 175.024 664.57 168.876 659.75 165.375C655.621 162.378 650.003 160 640 160H213.333C184.073 160 160 184.073 160 213.333V639.917L160.5 646.958C161.44 653.915 163.735 660.645 167.292 666.75C172.037 674.893 178.854 681.624 187.042 686.292C202.393 695.045 207.711 714.606 198.958 729.958C190.204 745.305 170.684 750.665 155.333 741.917C137.356 731.668 122.418 716.839 112 698.958C101.583 681.079 96.051 660.776 96 640.083V213.333C96 148.727 148.727 96 213.333 96H640Z" fill="black"/>
</svg>
