<svg width="1024" height="1024" viewBox="0 0 1024 1024" fill="none" xmlns="http://www.w3.org/2000/svg">
<path d="M617.375 233.377C629.872 220.881 650.128 220.881 662.625 233.377L833.292 404.044C835.135 405.888 836.617 407.954 837.917 410.086C838.766 411.479 839.577 412.897 840.208 414.419C841.092 416.552 841.723 418.758 842.125 421.002C842.454 422.843 842.667 424.734 842.667 426.669C842.667 428.577 842.445 430.436 842.125 432.252C841.726 434.512 841.095 436.73 840.208 438.877C839.319 441.026 838.189 443.036 836.875 444.919C835.811 446.443 834.652 447.934 833.292 449.294L662.625 619.961C650.129 632.456 629.871 632.456 617.375 619.961C604.879 607.464 604.879 587.208 617.375 574.711L733.417 458.669H341.333C304.557 458.669 269.297 473.289 243.292 499.294C217.287 525.299 202.667 560.56 202.667 597.336L202.833 604.211C204.534 638.484 218.912 670.998 243.292 695.377C269.297 721.382 304.557 736.002 341.333 736.002H384C401.673 736.002 416 750.329 416 768.002C415.999 785.674 401.672 800.002 384 800.002H341.333C287.583 800.002 236.049 778.634 198.042 740.627C160.035 702.621 138.667 651.086 138.667 597.336C138.667 543.586 160.035 492.051 198.042 454.044C236.049 416.037 287.583 394.669 341.333 394.669H733.417L617.375 278.627C604.879 266.131 604.879 245.874 617.375 233.377Z" fill="black"/>
</svg>
