<svg width="1024" height="1024" viewBox="0 0 1024 1024" fill="none" xmlns="http://www.w3.org/2000/svg">
<path fill-rule="evenodd" clip-rule="evenodd" d="M431.5 193.865C521.387 166.517 621.025 184.414 693.083 242.156C754.762 291.482 788.397 363.914 784.917 438.656H790.875C890.343 438.659 970.652 519.716 970.667 619.365C970.667 719.068 890.353 800.153 790.833 800.156H284.042C282.717 800.156 281.408 800.021 280.125 799.865C155.633 797.85 53.3333 699.865 53.3333 576.698C53.3478 460.426 144.589 366.519 259.583 354.74C285.411 278.45 349.758 218.769 431.5 193.865ZM653.083 292.115C598.178 248.106 520.668 233.672 450.167 255.115C379.739 276.569 329.25 329.708 315.25 392.448C311.985 407.071 299.024 417.485 284.042 417.49C190.821 417.49 117.349 489.926 117.333 576.698C117.333 663.53 190.816 735.99 284.042 735.99C285.138 735.99 286.223 736.048 287.292 736.156H790.833C854.636 736.153 906.667 684.094 906.667 619.365C906.652 554.69 854.626 502.659 790.875 502.656H748.625C738.919 502.655 729.739 498.228 723.667 490.656C717.602 483.087 715.272 473.166 717.375 463.698C731.261 401.254 707.733 335.829 653.125 292.156L653.083 292.115Z" fill="black"/>
</svg>
