<svg width="1024" height="1024" viewBox="0 0 1024 1024" fill="none" xmlns="http://www.w3.org/2000/svg">
<path fill-rule="evenodd" clip-rule="evenodd" d="M512 96C605.189 96 696.024 109.833 764.583 135.542C798.814 148.378 827.829 164.276 848.833 183.292C869.825 202.297 885.333 226.895 885.333 256V768C885.333 797.105 869.825 821.703 848.833 840.708C827.829 859.724 798.814 875.622 764.583 888.458C700.313 912.559 616.468 926.22 529.458 927.833L512 928C418.811 928 327.976 914.167 259.417 888.458C225.186 875.622 196.171 859.724 175.167 840.708C154.175 821.703 138.667 797.105 138.667 768V256C138.667 226.895 154.175 202.297 175.167 183.292C196.171 164.276 225.186 148.378 259.417 135.542C327.976 109.833 418.811 96 512 96ZM821.333 605.125C804.834 615.397 785.716 624.533 764.583 632.458C696.024 658.167 605.189 672 512 672C418.811 672 327.976 658.167 259.417 632.458C238.284 624.533 219.166 615.397 202.667 605.125V768L203.25 772.333C204.552 777.362 208.384 784.43 218.125 793.25C231.104 805 252.095 817.374 281.875 828.542C341.34 850.841 424.137 864 512 864L544.667 863.375C620.192 860.553 690.092 848.054 742.125 828.542C771.905 817.374 792.896 805 805.875 793.25C815.616 784.43 819.448 777.362 820.75 772.333L821.333 768V605.125ZM821.333 349.125C804.834 359.397 785.716 368.533 764.583 376.458C696.024 402.167 605.189 416 512 416C418.811 416 327.976 402.167 259.417 376.458C238.284 368.533 219.166 359.397 202.667 349.125V512L203.25 516.333C204.552 521.362 208.384 528.43 218.125 537.25C231.104 549 252.095 561.374 281.875 572.542C341.34 594.841 424.137 608 512 608C599.863 608 682.66 594.841 742.125 572.542C771.905 561.374 792.896 549 805.875 537.25C815.616 528.43 819.448 521.362 820.75 516.333L821.333 512V349.125ZM512 160C424.137 160 341.34 173.159 281.875 195.458C252.095 206.626 231.104 219 218.125 230.75C205.139 242.508 202.667 251.159 202.667 256L203.25 260.333C204.552 265.362 208.384 272.43 218.125 281.25C231.104 293 252.095 305.374 281.875 316.542C341.34 338.841 424.137 352 512 352C599.863 352 682.66 338.841 742.125 316.542C771.905 305.374 792.896 293 805.875 281.25C818.861 269.492 821.333 260.841 821.333 256L820.75 251.667C819.448 246.638 815.616 239.57 805.875 230.75C792.896 219 771.905 206.626 742.125 195.458C682.66 173.159 599.863 160 512 160Z" fill="black"/>
</svg>
