<svg width="1024" height="1024" viewBox="0 0 1024 1024" fill="none" xmlns="http://www.w3.org/2000/svg">
<path d="M213.333 736C231.006 736 245.333 750.327 245.333 768V768.417C245.333 786.09 231.006 800.417 213.333 800.417C195.66 800.417 181.333 786.09 181.333 768.417V768C181.333 750.327 195.66 736 213.333 736Z" fill="black"/>
<path d="M853.333 736C871.006 736 885.333 750.327 885.333 768C885.333 785.673 871.006 800 853.333 800H384C366.327 800 352 785.673 352 768C352 750.327 366.327 736 384 736H853.333Z" fill="black"/>
<path d="M213.333 480C231.006 480 245.333 494.327 245.333 512V512.417C245.333 530.09 231.006 544.417 213.333 544.417C195.66 544.417 181.333 530.09 181.333 512.417V512C181.333 494.327 195.66 480 213.333 480Z" fill="black"/>
<path d="M853.333 480C871.006 480 885.333 494.327 885.333 512C885.333 529.673 871.006 544 853.333 544H384C366.327 544 352 529.673 352 512C352 494.327 366.327 480 384 480H853.333Z" fill="black"/>
<path d="M213.333 224C231.006 224 245.333 238.327 245.333 256V256.417C245.333 274.09 231.006 288.417 213.333 288.417C195.66 288.417 181.333 274.09 181.333 256.417V256C181.333 238.327 195.66 224 213.333 224Z" fill="black"/>
<path d="M853.333 224C871.006 224 885.333 238.327 885.333 256C885.333 273.673 871.006 288 853.333 288H384C366.327 288 352 273.673 352 256C352 238.327 366.327 224 384 224H853.333Z" fill="black"/>
</svg>
