<svg width="1024" height="1024" viewBox="0 0 1024 1024" fill="none" xmlns="http://www.w3.org/2000/svg">
<path fill-rule="evenodd" clip-rule="evenodd" d="M384 650.667C403.803 650.667 422.789 658.539 436.792 672.542C450.794 686.544 458.667 705.53 458.667 725.333V810.667C458.667 830.469 450.794 849.456 436.792 863.458C422.789 877.461 403.803 885.333 384 885.333H213.333C193.531 885.333 174.544 877.461 160.542 863.458C146.539 849.456 138.667 830.469 138.667 810.667V725.333C138.667 705.53 146.539 686.544 160.542 672.542C174.544 658.539 193.531 650.667 213.333 650.667H384ZM213.333 714.667C210.504 714.667 207.792 715.791 205.792 717.792C203.791 719.792 202.667 722.504 202.667 725.333V810.667C202.667 813.496 203.791 816.208 205.792 818.208C207.792 820.209 210.504 821.333 213.333 821.333H384C386.829 821.333 389.541 820.209 391.542 818.208C393.542 816.208 394.667 813.496 394.667 810.667V725.333C394.667 722.504 393.542 719.792 391.542 717.792C389.541 715.791 386.829 714.667 384 714.667H213.333Z" fill="black"/>
<path fill-rule="evenodd" clip-rule="evenodd" d="M810.667 480C830.47 480 849.456 487.872 863.458 501.875C877.461 515.878 885.333 534.864 885.333 554.667V810.667C885.333 830.469 877.461 849.456 863.458 863.458C849.456 877.461 830.469 885.333 810.667 885.333H640C620.197 885.333 601.211 877.461 587.208 863.458C573.206 849.456 565.333 830.469 565.333 810.667V554.667C565.333 534.864 573.206 515.878 587.208 501.875C601.211 487.872 620.197 480 640 480H810.667ZM640 544C637.171 544 634.459 545.125 632.458 547.125C630.458 549.125 629.333 551.838 629.333 554.667V810.667C629.333 813.496 630.458 816.208 632.458 818.208C634.459 820.209 637.171 821.333 640 821.333H810.667C813.496 821.333 816.208 820.209 818.208 818.208C820.209 816.208 821.333 813.496 821.333 810.667V554.667C821.333 551.838 820.209 549.125 818.208 547.125C816.208 545.125 813.496 544 810.667 544H640Z" fill="black"/>
<path fill-rule="evenodd" clip-rule="evenodd" d="M384 138.667C403.803 138.667 422.789 146.539 436.792 160.542C450.794 174.544 458.667 193.53 458.667 213.333V469.333C458.667 489.136 450.794 508.122 436.792 522.125C422.789 536.128 403.803 544 384 544H213.333C193.53 544 174.544 536.128 160.542 522.125C146.539 508.122 138.667 489.136 138.667 469.333V213.333C138.667 193.53 146.539 174.544 160.542 160.542C174.544 146.539 193.53 138.667 213.333 138.667H384ZM213.333 202.667C210.504 202.667 207.792 203.791 205.792 205.792C203.791 207.792 202.667 210.504 202.667 213.333V469.333C202.667 472.162 203.791 474.875 205.792 476.875C207.792 478.875 210.504 480 213.333 480H384C386.829 480 389.541 478.875 391.542 476.875C393.542 474.875 394.667 472.162 394.667 469.333V213.333C394.667 210.504 393.542 207.792 391.542 205.792C389.541 203.791 386.829 202.667 384 202.667H213.333Z" fill="black"/>
<path fill-rule="evenodd" clip-rule="evenodd" d="M810.667 138.667C830.47 138.667 849.456 146.539 863.458 160.542C877.461 174.544 885.333 193.531 885.333 213.333V298.667C885.333 318.469 877.461 337.456 863.458 351.458C849.456 365.461 830.47 373.333 810.667 373.333H640C620.197 373.333 601.211 365.461 587.208 351.458C573.206 337.456 565.333 318.469 565.333 298.667V213.333C565.333 193.53 573.206 174.544 587.208 160.542C601.211 146.539 620.197 138.667 640 138.667H810.667ZM640 202.667C637.171 202.667 634.459 203.791 632.458 205.792C630.458 207.792 629.333 210.504 629.333 213.333V298.667C629.333 301.496 630.458 304.208 632.458 306.208C634.459 308.209 637.171 309.333 640 309.333H810.667C813.496 309.333 816.208 308.209 818.208 306.208C820.209 304.208 821.333 301.496 821.333 298.667V213.333C821.333 210.504 820.209 207.792 818.208 205.792C816.208 203.791 813.496 202.667 810.667 202.667H640Z" fill="black"/>
</svg>
