<svg width="1024" height="1024" viewBox="0 0 1024 1024" fill="none" xmlns="http://www.w3.org/2000/svg">
<path fill-rule="evenodd" clip-rule="evenodd" d="M743.208 150.471C754.379 136.776 774.555 134.717 788.25 145.888C801.918 157.056 803.979 177.2 792.833 190.888L553.292 484.513L639.583 590.304C665.025 574.142 694.715 565.346 725.333 565.346C767.768 565.346 808.453 582.215 838.458 612.221C868.46 642.226 885.333 682.914 885.333 725.346L885.125 733.263C883.164 772.81 866.59 810.339 838.458 838.471C810.325 866.601 772.799 883.18 733.25 885.138L725.333 885.346C682.902 885.346 642.214 868.473 612.208 838.471C582.205 808.468 565.337 767.776 565.333 725.346C565.333 692.849 575.223 661.363 593.333 634.929L511.958 535.138L430.625 634.888C436.899 644.023 442.238 653.808 446.5 664.096C454.538 683.505 458.667 704.338 458.667 725.346L458.458 733.221C457.554 751.538 453.533 769.617 446.5 786.596C438.459 805.999 426.643 823.62 411.792 838.471C396.939 853.322 379.321 865.14 359.917 873.179C340.506 881.219 319.677 885.346 298.667 885.346C277.657 885.346 256.828 881.219 237.417 873.179C218.013 865.14 200.394 853.322 185.542 838.471C170.69 823.62 158.874 805.999 150.833 786.596C143.8 769.617 139.779 751.538 138.875 733.221L138.667 725.346C138.667 704.338 142.796 683.505 150.833 664.096C158.873 644.692 170.691 627.074 185.542 612.221C200.395 597.368 218.012 585.553 237.417 577.513C256.829 569.472 277.655 565.346 298.667 565.346L306.542 565.554C324.862 566.457 342.934 570.478 359.917 577.513C368.466 581.055 376.646 585.36 384.417 590.304L470.667 484.513L231.208 190.888C220.047 177.195 222.105 157.057 235.792 145.888C249.487 134.724 269.623 136.778 280.792 150.471L512 433.888L743.208 150.471ZM298.667 629.346C286.06 629.346 273.564 631.813 261.917 636.638C250.273 641.462 239.704 648.559 230.792 657.471C221.881 666.383 214.782 676.953 209.958 688.596C205.137 700.24 202.667 712.743 202.667 725.346L203.125 734.763C204.05 744.135 206.341 753.363 209.958 762.096C214.783 773.737 221.881 784.31 230.792 793.221C239.704 802.131 250.274 809.231 261.917 814.054C273.563 818.877 286.061 821.346 298.667 821.346C311.272 821.346 323.771 818.877 335.417 814.054C347.059 809.231 357.63 802.131 366.542 793.221C375.452 784.31 382.551 773.737 387.375 762.096C392.198 750.452 394.665 737.949 394.667 725.346L394.208 715.929C393.285 706.556 390.991 697.33 387.375 688.596C382.552 676.953 375.452 666.383 366.542 657.471C357.63 648.559 347.06 641.462 335.417 636.638C326.68 633.019 317.46 630.729 308.083 629.804L298.667 629.346ZM725.333 629.346C699.873 629.346 675.462 639.467 657.458 657.471C639.459 675.474 629.333 699.888 629.333 725.346C629.337 750.802 639.458 775.22 657.458 793.221C675.461 811.22 699.876 821.346 725.333 821.346L734.833 820.888C756.803 818.704 777.459 808.968 793.208 793.221C811.209 775.22 821.33 750.802 821.333 725.346L820.875 715.846C818.691 693.876 808.955 673.221 793.208 657.471C775.205 639.467 750.794 629.346 725.333 629.346Z" fill="black"/>
</svg>
