<svg width="1024" height="1024" viewBox="0 0 1024 1024" fill="none" xmlns="http://www.w3.org/2000/svg">
<path d="M745.378 233.378C757.875 220.881 778.131 220.881 790.628 233.378C803.122 245.875 803.124 266.132 790.628 278.628L557.253 512.003L790.628 745.378C803.122 757.875 803.124 778.132 790.628 790.628C778.132 803.124 757.875 803.122 745.378 790.628L512.003 557.253L278.628 790.628C266.132 803.124 245.875 803.122 233.378 790.628C220.881 778.131 220.881 757.875 233.378 745.378L466.753 512.003L233.378 278.628C220.881 266.131 220.881 245.875 233.378 233.378C245.875 220.881 266.131 220.881 278.628 233.378L512.003 466.753L745.378 233.378Z" fill="black"/>
</svg>
