<svg width="1024" height="1024" viewBox="0 0 1024 1024" fill="none" xmlns="http://www.w3.org/2000/svg">
<path d="M361.375 233.377C373.872 220.881 394.128 220.881 406.625 233.377C419.121 245.874 419.121 266.131 406.625 278.627L290.583 394.669H682.667C736.417 394.669 787.951 416.037 825.958 454.044C863.965 492.051 885.333 543.586 885.333 597.336C885.333 651.086 863.965 702.621 825.958 740.627C787.951 778.634 736.417 800.002 682.667 800.002H640C622.328 800.002 608.001 785.674 608 768.002C608 750.329 622.327 736.002 640 736.002H682.667C719.443 736.002 754.703 721.382 780.708 695.377C806.713 669.373 821.333 634.112 821.333 597.336C821.333 560.56 806.713 525.299 780.708 499.294C756.328 474.914 723.815 460.536 689.542 458.836L682.667 458.669H290.583L406.625 574.711C419.121 587.208 419.121 607.464 406.625 619.961C394.129 632.456 373.871 632.456 361.375 619.961L190.708 449.294C189.342 447.928 188.151 446.45 187.083 444.919C185.772 443.037 184.637 441.024 183.75 438.877C182.865 436.732 182.232 434.509 181.833 432.252C181.514 430.439 181.333 428.575 181.333 426.669C181.333 424.736 181.505 422.841 181.833 421.002C182.221 418.834 182.829 416.694 183.667 414.627L183.833 414.211C184.448 412.758 185.27 411.42 186.083 410.086C187.383 407.954 188.865 405.888 190.708 404.044L361.375 233.377Z" fill="black"/>
</svg>
