<svg width="1024" height="1024" viewBox="0 0 1024 1024" fill="none" xmlns="http://www.w3.org/2000/svg">
<path fill-rule="evenodd" clip-rule="evenodd" d="M725.333 138.667C745.136 138.667 764.122 146.539 778.125 160.542C792.128 174.544 800 193.531 800 213.333V309.333H853.333L860.708 309.708C877.803 311.405 893.872 318.955 906.125 331.208C920.128 345.211 928 364.197 928 384V810.667C928 830.469 920.128 849.456 906.125 863.458C892.122 877.461 873.136 885.333 853.333 885.333H597.333C577.531 885.333 558.544 877.461 544.542 863.458C530.539 849.456 522.667 830.469 522.667 810.667V800H170.667C150.864 800 131.878 792.128 117.875 778.125C103.872 764.122 96 745.136 96 725.333V213.333C96 193.53 103.872 174.544 117.875 160.542C131.878 146.539 150.864 138.667 170.667 138.667H725.333ZM597.333 373.333C594.504 373.333 591.792 374.458 589.792 376.458C587.791 378.459 586.667 381.171 586.667 384V810.667C586.667 813.496 587.791 816.208 589.792 818.208C591.792 820.209 594.504 821.333 597.333 821.333H853.333C856.162 821.333 858.875 820.209 860.875 818.208C862.875 816.208 864 813.496 864 810.667V384C864 381.171 862.875 378.459 860.875 376.458C858.875 374.458 856.162 373.333 853.333 373.333H798.042C799.231 376.682 800 380.244 800 384C800 401.673 785.673 416 768 416H682.667C664.994 416 650.667 401.673 650.667 384C650.667 380.244 651.436 376.682 652.625 373.333H597.333ZM170.667 202.667C167.838 202.667 165.125 203.791 163.125 205.792C161.125 207.792 160 210.504 160 213.333V725.333L160.208 727.417C160.617 729.47 161.623 731.373 163.125 732.875C165.125 734.875 167.838 736 170.667 736H522.667V384C522.667 364.197 530.539 345.211 544.542 331.208C558.544 317.206 577.53 309.333 597.333 309.333H736V213.333C736 210.504 734.875 207.792 732.875 205.792C731.373 204.29 729.47 203.284 727.417 202.875L725.333 202.667H170.667Z" fill="black"/>
</svg>
