<svg width="1024" height="1024" viewBox="0 0 1024 1024" fill="none" xmlns="http://www.w3.org/2000/svg">
<path d="M512 96C529.673 96 544 110.327 544 128C544 145.673 529.673 160 512 160C486.539 160 462.129 170.122 444.125 188.125C426.122 206.128 416 230.539 416 256V768C416 793.461 426.122 817.872 444.125 835.875C462.128 853.879 486.539 864 512 864C529.673 864 544 878.327 544 896C544 913.673 529.673 928 512 928C469.565 928 428.881 911.131 398.875 881.125C393.467 875.717 388.533 869.925 384 863.875C379.467 869.925 374.533 875.717 369.125 881.125C339.119 911.131 298.435 928 256 928C238.327 928 224 913.673 224 896C224 878.327 238.327 864 256 864C281.461 864 305.872 853.879 323.875 835.875C341.878 817.872 352 793.461 352 768V256C352 230.539 341.878 206.128 323.875 188.125C305.872 170.122 281.461 160 256 160C238.327 160 224 145.673 224 128C224 110.327 238.327 96 256 96C298.435 96 339.119 112.869 369.125 142.875C374.526 148.276 379.472 154.043 384 160.083C388.528 154.043 393.474 148.276 398.875 142.875C428.881 112.869 469.565 96 512 96Z" fill="black"/>
<path d="M213.333 266.667C231.006 266.667 245.333 280.994 245.333 298.667C245.333 316.34 231.006 330.667 213.333 330.667H170.667C167.838 330.667 165.125 331.791 163.125 333.792C161.125 335.792 160 338.504 160 341.333V682.667L160.208 684.75C160.617 686.803 161.623 688.706 163.125 690.208C165.125 692.209 167.838 693.333 170.667 693.333H213.333C231.006 693.333 245.333 707.66 245.333 725.333C245.333 743.006 231.006 757.333 213.333 757.333H170.667C150.864 757.333 131.878 749.461 117.875 735.458C103.872 721.456 96 702.469 96 682.667V341.333C96 321.531 103.872 302.544 117.875 288.542C131.878 274.539 150.864 266.667 170.667 266.667H213.333Z" fill="black"/>
<path d="M853.333 266.667C873.136 266.667 892.122 274.539 906.125 288.542C920.128 302.544 928 321.531 928 341.333V682.667C928 702.469 920.128 721.456 906.125 735.458C892.122 749.461 873.136 757.333 853.333 757.333H554.667C536.994 757.333 522.667 743.006 522.667 725.333C522.667 707.66 536.994 693.333 554.667 693.333H853.333C856.162 693.333 858.875 692.209 860.875 690.208C862.875 688.208 864 685.496 864 682.667V341.333C864 338.504 862.875 335.792 860.875 333.792C858.875 331.791 856.162 330.667 853.333 330.667H554.667C536.994 330.667 522.667 316.34 522.667 298.667C522.667 280.994 536.994 266.667 554.667 266.667H853.333Z" fill="black"/>
<path d="M555.083 480C572.756 480 587.083 494.327 587.083 512C587.083 529.673 572.756 544 555.083 544H554.667C536.994 544 522.667 529.673 522.667 512C522.667 494.327 536.994 480 554.667 480H555.083Z" fill="black"/>
<path d="M725.75 480C743.423 480 757.75 494.327 757.75 512C757.75 529.673 743.423 544 725.75 544H725.333C707.66 544 693.333 529.673 693.333 512C693.333 494.327 707.66 480 725.333 480H725.75Z" fill="black"/>
</svg>
