<svg width="1024" height="1024" viewBox="0 0 1024 1024" fill="none" xmlns="http://www.w3.org/2000/svg">
<path d="M234.833 445.333C248.076 433.653 268.304 434.892 280 448.125C291.698 461.368 290.448 481.632 277.208 493.333L255.667 512.292C238.944 528.948 225.679 548.757 216.583 570.542C207.407 592.522 202.669 616.098 202.667 639.917C202.667 663.743 207.404 687.347 216.583 709.333C225.764 731.32 239.224 751.289 256.167 768.042C290.654 802.136 337.212 821.25 385.708 821.25C433.478 821.244 479.304 802.646 513.625 769.5L529 748.917C539.544 734.737 559.568 731.792 573.75 742.333C587.929 752.878 590.874 772.902 580.333 787.083L563.417 809.875C562.453 811.171 561.398 812.406 560.25 813.542C513.785 859.489 451.055 885.244 385.708 885.25C320.361 885.25 257.636 859.486 211.167 813.542C188.205 790.837 169.942 763.798 157.5 734C145.059 704.202 138.667 672.207 138.667 639.917C138.669 607.633 145.063 575.666 157.5 545.875C169.942 516.076 188.205 489.038 211.167 466.333L212.458 465.125L234.833 445.333Z" fill="black"/>
<path d="M617.375 361.375C629.872 348.878 650.128 348.878 662.625 361.375C675.122 373.872 675.122 394.128 662.625 406.625L406.625 662.625C394.128 675.122 373.872 675.122 361.375 662.625C348.878 650.128 348.878 629.872 361.375 617.375L617.375 361.375Z" fill="black"/>
<path d="M639.958 138.667C705.023 138.673 767.41 164.533 813.417 210.542C859.42 256.555 885.296 318.975 885.292 384.042C885.28 449.098 859.419 511.499 813.417 557.5C812.894 558.022 812.349 558.557 811.792 559.042L789 578.833C775.662 590.415 755.424 588.996 743.833 575.667C732.254 562.334 733.683 542.135 747 530.542L768.875 511.458C802.407 477.533 821.28 431.77 821.292 384.042C821.295 335.949 802.168 289.802 768.167 255.792C734.163 221.785 688.049 202.673 639.958 202.667C592.043 202.663 546.058 221.608 512.083 255.375L493.542 276.917C481.993 290.276 461.788 291.783 448.417 280.25C435.045 268.7 433.581 248.458 445.125 235.083L464.875 212.208C465.379 211.626 465.914 211.045 466.458 210.5C512.472 164.495 574.891 138.662 639.958 138.667Z" fill="black"/>
</svg>
