<svg width="1024" height="1024" viewBox="0 0 1024 1024" fill="none" xmlns="http://www.w3.org/2000/svg">
<path fill-rule="evenodd" clip-rule="evenodd" d="M384 138.667C392.487 138.667 400.624 142.04 406.625 148.042L525.25 266.667H810.667C841.785 266.667 871.621 279.037 893.625 301.042C915.629 323.046 928 352.881 928 384V725.333C928 756.452 915.629 786.287 893.625 808.292C871.621 830.296 841.785 842.667 810.667 842.667H213.333C182.215 842.667 152.379 830.296 130.375 808.292C108.371 786.287 96 756.452 96 725.333V256C96 224.881 108.371 195.046 130.375 173.042C152.379 151.037 182.215 138.667 213.333 138.667H384ZM213.333 202.667C199.188 202.667 185.627 208.29 175.625 218.292C165.623 228.294 160 241.855 160 256V725.333C160 739.478 165.623 753.04 175.625 763.042C185.627 773.044 199.188 778.667 213.333 778.667H810.667C824.812 778.667 838.373 773.044 848.375 763.042C858.377 753.04 864 739.478 864 725.333V384C864 369.855 858.377 356.294 848.375 346.292C839.628 337.544 828.16 332.133 815.958 330.917L810.667 330.667H512C503.513 330.667 495.376 327.293 489.375 321.292L370.75 202.667H213.333Z" fill="black"/>
</svg>
