<svg width="1024" height="1024" viewBox="0 0 1024 1024" fill="none" xmlns="http://www.w3.org/2000/svg">
<path d="M183.209 3.70733C192.59 2.29578 202.168 3.01215 211.251 5.749L215.751 7.249L219.209 8.749L914.751 348.624C929.381 355.781 938.66 370.67 938.667 386.957C938.658 403.249 929.39 418.179 914.751 425.332L219.209 765.207C218.09 765.754 216.913 766.219 215.751 766.666C203.893 771.222 190.931 772.185 178.542 769.374C166.162 766.56 154.892 760.096 146.167 750.874L146.209 750.832C137.808 741.955 131.949 730.957 129.417 718.999C126.93 707.226 127.744 694.99 131.667 683.624L207.042 461.374C207.101 461.22 210.683 451.756 212.417 445.499C213.675 440.959 215.31 437.612 220.501 433.624C224.776 430.34 227.906 429.723 231.876 429.624H512.001C535.562 429.623 554.664 410.518 554.667 386.957C554.667 363.393 535.564 344.291 512.001 344.291H234.667C230.658 344.291 224.847 345.142 219.501 341.291C214.192 337.466 213.754 332.358 212.417 328.416C211.079 324.472 207.001 312.541 207.001 312.541L131.626 90.3323L131.667 90.2907C127.751 78.9361 126.937 66.7175 129.417 54.9573L131.917 46.1657C135.01 37.5863 139.892 29.7084 146.209 23.0407C154.931 13.8318 166.173 7.3934 178.542 4.58233L183.209 3.70733Z" fill="black"/>
</svg>
