<svg width="1024" height="1024" viewBox="0 0 1024 1024" fill="none" xmlns="http://www.w3.org/2000/svg">
<path fill-rule="evenodd" clip-rule="evenodd" d="M204.375 139.972L211.916 142.222L214.5 143.347L910.041 483.222C913.109 484.722 915.831 486.712 918.208 489.014C918.54 489.335 918.848 489.678 919.166 490.014C920.135 491.037 921.01 492.127 921.833 493.264C922.137 493.682 922.466 494.08 922.75 494.514C923.719 495.999 924.579 497.552 925.291 499.181C925.515 499.691 925.635 500.24 925.833 500.764C926.299 502.003 926.688 503.259 927 504.556C927.188 505.343 927.412 506.122 927.541 506.931C927.588 507.221 927.627 507.513 927.666 507.806C927.846 509.18 928 510.59 928 512.014C927.999 513.415 927.841 514.786 927.666 516.139C927.624 516.459 927.593 516.779 927.541 517.097C927.43 517.791 927.238 518.461 927.083 519.139C926.764 520.52 926.369 521.864 925.875 523.181C925.65 523.78 925.467 524.39 925.208 524.972C924.543 526.465 923.757 527.893 922.875 529.264C922.508 529.834 922.067 530.345 921.666 530.889C920.974 531.829 920.251 532.736 919.458 533.597C918.944 534.155 918.427 534.702 917.875 535.222C915.571 537.391 912.973 539.288 910.041 540.722L214.5 880.639C213.665 881.046 212.783 881.431 211.916 881.764C202.034 885.557 191.239 886.315 180.916 883.972C170.594 881.628 161.233 876.243 153.958 868.556C146.892 861.097 141.999 851.858 139.875 841.806C137.75 831.749 138.426 821.28 141.875 811.597L243.541 511.972L141.916 212.347C138.472 202.668 137.751 192.233 139.875 182.181L141.958 174.806C144.553 167.608 148.616 160.983 153.916 155.389L153.958 155.431C161.232 147.745 170.596 142.358 180.916 140.014L188.75 138.847C193.984 138.454 199.251 138.831 204.375 139.972ZM300.25 544.014L209.333 811.889L757.541 544.014H300.25ZM300.25 480.014H757.708L209.333 212.056L300.25 480.014Z" fill="black"/>
</svg>
