<svg width="1024" height="1024" viewBox="0 0 1024 1024" fill="none" xmlns="http://www.w3.org/2000/svg">
<path d="M640.417 309.333C658.09 309.333 672.417 323.66 672.417 341.333C672.417 359.006 658.09 373.333 640.417 373.333H640C622.327 373.333 608 359.006 608 341.333C608 323.66 622.327 309.333 640 309.333H640.417Z" fill="black"/>
<path fill-rule="evenodd" clip-rule="evenodd" d="M768 96C810.435 96 851.119 112.869 881.125 142.875C911.131 172.881 928 213.565 928 256V768C928 810.435 911.131 851.119 881.125 881.125C851.119 911.131 810.435 928 768 928H256C213.565 928 172.881 911.131 142.875 881.125C112.869 851.119 96 810.435 96 768V256C96 213.565 112.869 172.881 142.875 142.875C172.881 112.869 213.565 96 256 96H768ZM405.333 472.75C392.989 472.75 378.528 477.962 363.542 492.375L160 695.917V768C160 793.461 170.122 817.872 188.125 835.875C206.128 853.879 230.539 864 256 864H768L777.5 863.542C799.473 861.358 820.124 851.626 835.875 835.875C851.626 820.124 861.358 799.473 863.542 777.5L864 768V695.917L745.792 577.708C730.806 563.295 716.344 558.083 704 558.083C691.656 558.083 677.194 563.295 662.208 577.708L642.583 597.333L705.292 660.042C717.783 672.537 717.783 692.796 705.292 705.292C692.796 717.784 672.538 717.784 660.042 705.292L447.125 492.375C432.139 477.962 417.678 472.75 405.333 472.75ZM256 160C230.539 160 206.128 170.122 188.125 188.125C170.122 206.128 160 230.539 160 256V605.417L318.708 446.708L319.125 446.25C343.726 422.578 373.482 408.75 405.333 408.75C433.202 408.75 459.435 419.369 482.042 437.875L491.542 446.25L491.958 446.708L597.333 552.083L617.375 532.042L617.792 531.583C642.393 507.911 672.149 494.083 704 494.083C731.868 494.083 758.102 504.703 780.708 523.208L790.208 531.583L790.625 532.042L864 605.417V256C864 230.539 853.879 206.128 835.875 188.125C817.872 170.122 793.461 160 768 160H256Z" fill="black"/>
</svg>
