<svg width="1024" height="1024" viewBox="0 0 1024 1024" fill="none" xmlns="http://www.w3.org/2000/svg">
<path d="M469.333 938.684H298.667C264.723 938.684 232.17 925.183 208.167 901.184C184.166 877.183 170.671 844.625 170.667 810.684V640.017C170.667 628.701 175.165 617.81 183.167 609.809C191.167 601.814 202.023 597.35 213.333 597.35H469.333V938.684Z" fill="black"/>
<path d="M810.667 597.35C821.977 597.35 832.833 601.815 840.833 609.809C848.835 617.81 853.333 628.701 853.333 640.017V810.684C853.329 844.625 839.834 877.183 815.833 901.184C791.829 925.183 759.277 938.684 725.333 938.684H554.667V597.35H810.667Z" fill="black"/>
<path fill-rule="evenodd" clip-rule="evenodd" d="M704 85.3503C729.192 85.3451 753.972 91.7017 776.042 103.85C798.113 116.002 816.78 133.558 830.25 154.85C843.711 176.138 851.559 200.502 853.083 225.642C854.606 250.786 849.754 275.924 838.958 298.684H853.333C875.96 298.684 897.665 307.646 913.667 323.642C929.67 339.645 938.667 361.385 938.667 384.017V426.684C938.662 449.309 929.665 471.018 913.667 487.017C897.664 503.014 875.961 512.017 853.333 512.017H554.667V298.684H469.333V512.017H170.667C148.039 512.017 126.336 503.014 110.333 487.017C94.3345 471.018 85.3381 449.309 85.3333 426.684V384.017C85.3333 361.385 94.3302 339.645 110.333 323.642C126.335 307.646 148.04 298.684 170.667 298.684H185.042C175.548 278.692 170.64 256.815 170.667 234.684C170.667 152.209 237.542 85.3503 319.292 85.3503C394.165 84.0777 460.601 131.931 506.208 210.517L512 220.892C556.075 139.228 621.227 88.0363 695.083 85.4336L704 85.3503ZM320 170.684C303.032 170.684 286.751 177.397 274.75 189.392C262.748 201.394 256 217.71 256 234.684C256.005 251.651 262.752 267.935 274.75 279.934C286.751 291.93 303.03 298.684 320 298.684H454.083C422.467 217.404 370.944 169.83 320 170.684ZM703.292 170.684C652.945 169.83 601.533 217.446 569.917 298.684H704C720.973 298.587 737.232 291.753 749.167 279.684C761.1 267.615 767.72 251.28 767.625 234.309C767.529 217.335 760.695 201.076 748.625 189.142C736.56 177.219 720.254 170.592 703.292 170.684Z" fill="black"/>
</svg>
