<svg width="1024" height="1024" viewBox="0 0 1024 1024" fill="none" xmlns="http://www.w3.org/2000/svg">
<path fill-rule="evenodd" clip-rule="evenodd" d="M512 96C520.487 96 528.624 99.3738 534.625 105.375L610.583 181.333H810.667C841.785 181.333 871.621 193.704 893.625 215.708C915.629 237.713 928 267.548 928 298.667V597.333C928 628.452 915.629 658.287 893.625 680.292C871.621 702.296 841.785 714.667 810.667 714.667H757.333V768C757.333 799.119 744.963 828.954 722.958 850.958C700.954 872.963 671.119 885.333 640 885.333H213.333C182.215 885.333 152.379 872.963 130.375 850.958C108.371 828.954 96 799.119 96 768V384C96 352.881 108.371 323.046 130.375 301.042C152.379 279.037 182.215 266.667 213.333 266.667H266.667V213.333C266.667 182.215 279.037 152.379 301.042 130.375C323.046 108.371 352.881 96 384 96H512ZM213.333 330.667C199.188 330.667 185.627 336.29 175.625 346.292C165.623 356.294 160 369.855 160 384V768C160 782.145 165.623 795.706 175.625 805.708C185.627 815.71 199.188 821.333 213.333 821.333H640C654.145 821.333 667.706 815.71 677.708 805.708C687.71 795.706 693.333 782.145 693.333 768V714.667H384C352.881 714.667 323.046 702.296 301.042 680.292C279.037 658.287 266.667 628.452 266.667 597.333V330.667H213.333ZM384 160C369.855 160 356.294 165.623 346.292 175.625C336.29 185.627 330.667 199.188 330.667 213.333V597.333L330.917 602.625C332.133 614.827 337.545 626.294 346.292 635.042C356.294 645.044 369.855 650.667 384 650.667H810.667C824.812 650.667 838.373 645.044 848.375 635.042C858.377 625.04 864 611.478 864 597.333V298.667C864 284.522 858.377 270.96 848.375 260.958C839.628 252.211 828.16 246.799 815.958 245.583L810.667 245.333H597.333C588.846 245.333 580.71 241.959 574.708 235.958L498.75 160H384Z" fill="black"/>
</svg>
