<svg width="1024" height="1024" viewBox="0 0 1024 1024" fill="none" xmlns="http://www.w3.org/2000/svg">
<path d="M384 128C393.378 127.999 402.512 131.091 409.958 136.792L414.208 140.5L529.667 256H810.667C843.316 255.998 874.745 268.477 898.5 290.875C922.249 313.272 936.543 343.912 938.458 376.5L938.667 384V725.333C938.668 757.982 926.19 789.412 903.792 813.167C881.394 836.915 850.755 851.21 818.167 853.125L810.667 853.333H213.333C180.684 853.335 149.254 840.857 125.5 818.458C101.751 796.061 87.4568 765.422 85.5417 732.833L85.3333 725.333V256C85.3315 223.351 97.8101 191.921 120.208 168.167C142.606 144.418 173.245 130.123 205.833 128.208L213.333 128H384Z" fill="black"/>
</svg>
