<svg width="1024" height="1024" viewBox="0 0 1024 1024" fill="none" xmlns="http://www.w3.org/2000/svg">
<path fill-rule="evenodd" clip-rule="evenodd" d="M704 96C740.772 96 776.038 110.626 802.042 136.625C828.037 162.625 842.662 197.901 842.667 234.667C842.663 261.326 834.97 287.205 820.833 309.333H853.333L860.708 309.708C877.803 311.405 893.872 318.955 906.125 331.208C920.128 345.211 928 364.197 928 384V469.333C928 489.136 920.128 508.122 906.125 522.125C892.122 536.128 873.136 544 853.333 544H842.667V810.667C842.667 841.785 830.296 871.621 808.292 893.625C786.287 915.629 756.452 928 725.333 928H298.667C267.548 928 237.713 915.629 215.708 893.625C193.704 871.621 181.333 841.785 181.333 810.667V544H170.667C150.864 544 131.878 536.128 117.875 522.125C103.872 508.122 96 489.136 96 469.333V384C96 364.197 103.872 345.211 117.875 331.208C131.878 317.206 150.864 309.333 170.667 309.333H203.167C189.03 287.205 181.337 261.326 181.333 234.667C181.338 197.901 195.963 162.625 221.958 136.625C247.962 110.626 283.228 96 320 96V96.0833C372.403 95.3567 420.866 120.944 459.542 163.917C479.963 186.61 497.523 213.99 512 244.667C526.477 213.99 544.037 186.61 564.458 163.917C603.134 120.944 651.597 95.3567 704 96.0833V96ZM245.333 810.667L245.583 815.958C246.799 828.16 252.211 839.628 260.958 848.375C270.96 858.377 284.522 864 298.667 864H480V544H245.333V810.667ZM544 864H725.333C739.478 864 753.04 858.377 763.042 848.375C773.044 838.373 778.667 824.812 778.667 810.667V544H544V864ZM170.667 373.333C167.838 373.333 165.125 374.458 163.125 376.458C161.125 378.459 160 381.171 160 384V469.333L160.208 471.417C160.617 473.47 161.623 475.373 163.125 476.875C165.125 478.875 167.838 480 170.667 480H480V373.333H170.667ZM544 480H853.333C856.162 480 858.875 478.875 860.875 476.875C862.875 474.875 864 472.162 864 469.333V384C864 381.171 862.875 378.459 860.875 376.458C858.875 374.458 856.162 373.333 853.333 373.333H544V480ZM320 160.042C300.202 160.042 281.21 167.878 267.208 181.875C253.216 195.872 245.338 214.875 245.333 234.667C245.338 254.463 253.21 273.502 267.208 287.5C281.209 301.49 300.207 309.333 320 309.333H469.25C454.702 267.29 434.923 232.273 411.958 206.75C382.273 173.766 350.245 159.482 320.542 160L320 160.042ZM703.458 160C673.755 159.482 641.727 173.766 612.042 206.75C589.077 232.273 569.298 267.29 554.75 309.333H704C723.793 309.333 742.791 301.49 756.792 287.5C770.79 273.502 778.662 254.463 778.667 234.667C778.662 214.875 770.784 195.872 756.792 181.875C742.79 167.878 723.798 160 704 160H703.458Z" fill="black"/>
</svg>
