<svg width="1024" height="1024" viewBox="0 0 1024 1024" fill="none" xmlns="http://www.w3.org/2000/svg">
<path d="M298.667 650.667C316.34 650.667 330.667 664.994 330.667 682.667V683.083C330.667 700.756 316.34 715.083 298.667 715.083C280.994 715.083 266.667 700.756 266.667 683.083V682.667C266.667 664.994 280.994 650.667 298.667 650.667Z" fill="black"/>
<path d="M725.333 650.667C743.006 650.667 757.333 664.994 757.333 682.667C757.333 700.34 743.006 714.667 725.333 714.667H469.333C451.66 714.667 437.333 700.34 437.333 682.667C437.333 664.994 451.66 650.667 469.333 650.667H725.333Z" fill="black"/>
<path d="M298.667 309.333C316.34 309.333 330.667 323.66 330.667 341.333V341.75C330.667 359.423 316.34 373.75 298.667 373.75C280.994 373.75 266.667 359.423 266.667 341.75V341.333C266.667 323.66 280.994 309.333 298.667 309.333Z" fill="black"/>
<path d="M725.333 309.333C743.006 309.333 757.333 323.66 757.333 341.333C757.333 359.006 743.006 373.333 725.333 373.333H469.333C451.66 373.333 437.333 359.006 437.333 341.333C437.333 323.66 451.66 309.333 469.333 309.333H725.333Z" fill="black"/>
<path fill-rule="evenodd" clip-rule="evenodd" d="M768 138.667C810.435 138.667 851.119 155.536 881.125 185.542C911.131 215.547 928 256.232 928 298.667V384C928 426.435 911.131 467.119 881.125 497.125C875.717 502.533 869.925 507.467 863.875 512C869.925 516.533 875.717 521.467 881.125 526.875C911.131 556.881 928 597.565 928 640V725.333C928 767.768 911.131 808.452 881.125 838.458C851.119 868.464 810.435 885.333 768 885.333H256C213.565 885.333 172.881 868.464 142.875 838.458C112.869 808.452 96 767.768 96 725.333V640C96 597.565 112.869 556.881 142.875 526.875C148.276 521.474 154.043 516.528 160.083 512C154.043 507.472 148.276 502.525 142.875 497.125C112.869 467.119 96 426.435 96 384V298.667C96 256.232 112.869 215.547 142.875 185.542C172.881 155.536 213.565 138.667 256 138.667H768ZM256 544C230.539 544 206.128 554.121 188.125 572.125C170.122 590.128 160 614.539 160 640V725.333L160.458 734.833C162.642 756.806 172.374 777.458 188.125 793.208C206.128 811.212 230.539 821.333 256 821.333H768L777.5 820.875C799.473 818.691 820.124 808.959 835.875 793.208C851.626 777.458 861.358 756.806 863.542 734.833L864 725.333V640C864 614.539 853.879 590.128 835.875 572.125C817.872 554.121 793.461 544 768 544H256ZM256 202.667C230.539 202.667 206.128 212.788 188.125 230.792C170.122 248.795 160 273.206 160 298.667V384L160.458 393.5C162.642 415.473 172.374 436.124 188.125 451.875C206.128 469.878 230.539 480 256 480H768C793.461 480 817.872 469.878 835.875 451.875C851.626 436.124 861.358 415.473 863.542 393.5L864 384V298.667C864 273.206 853.879 248.795 835.875 230.792C817.872 212.788 793.461 202.667 768 202.667H256Z" fill="black"/>
</svg>
