<svg width="1024" height="1024" viewBox="0 0 1024 1024" fill="none" xmlns="http://www.w3.org/2000/svg">
<path d="M682.667 650.667C700.34 650.667 714.667 664.994 714.667 682.667C714.667 700.34 700.34 714.667 682.667 714.667H426.667C408.994 714.667 394.667 700.34 394.667 682.667C394.667 664.994 408.994 650.667 426.667 650.667H682.667Z" fill="black"/>
<path fill-rule="evenodd" clip-rule="evenodd" d="M554.667 352C585.785 352 615.621 364.371 637.625 386.375C659.629 408.379 672 438.215 672 469.333C672 500.452 659.629 530.287 637.625 552.292C615.621 574.296 585.785 586.667 554.667 586.667C523.548 586.667 493.713 574.296 471.708 552.292C449.704 530.287 437.333 500.452 437.333 469.333C437.333 438.215 449.704 408.379 471.708 386.375C493.713 364.371 523.548 352 554.667 352ZM554.667 416C540.522 416 526.96 421.623 516.958 431.625C506.956 441.627 501.333 455.188 501.333 469.333C501.333 483.478 506.956 497.04 516.958 507.042C526.96 517.044 540.522 522.667 554.667 522.667C568.812 522.667 582.373 517.044 592.375 507.042C602.377 497.04 608 483.478 608 469.333C608 455.188 602.377 441.627 592.375 431.625C582.373 421.623 568.812 416 554.667 416Z" fill="black"/>
<path fill-rule="evenodd" clip-rule="evenodd" d="M768 138.667C799.119 138.667 828.954 151.037 850.958 173.042C872.963 195.046 885.333 224.881 885.333 256V768C885.333 799.119 872.963 828.954 850.958 850.958C828.954 872.963 799.119 885.333 768 885.333H341.333C310.215 885.333 280.379 872.963 258.375 850.958C236.371 828.954 224 799.119 224 768V714.667H170.667C152.994 714.667 138.667 700.34 138.667 682.667C138.667 664.994 152.994 650.667 170.667 650.667H224V544H170.667C152.994 544 138.667 529.673 138.667 512C138.667 494.327 152.994 480 170.667 480H224V373.333H170.667C152.994 373.333 138.667 359.006 138.667 341.333C138.667 323.66 152.994 309.333 170.667 309.333H224V256C224 224.881 236.371 195.046 258.375 173.042C280.379 151.037 310.215 138.667 341.333 138.667H768ZM341.333 202.667C327.188 202.667 313.627 208.29 303.625 218.292C293.623 228.294 288 241.855 288 256V309.333H298.667C316.34 309.333 330.667 323.66 330.667 341.333C330.667 359.006 316.34 373.333 298.667 373.333H288V480H298.667C316.34 480 330.667 494.327 330.667 512C330.667 529.673 316.34 544 298.667 544H288V650.667H298.667C316.34 650.667 330.667 664.994 330.667 682.667C330.667 700.34 316.34 714.667 298.667 714.667H288V768L288.25 773.292C289.466 785.494 294.878 796.961 303.625 805.708C313.627 815.71 327.188 821.333 341.333 821.333H768C782.145 821.333 795.706 815.71 805.708 805.708C815.71 795.706 821.333 782.145 821.333 768V256C821.333 241.855 815.71 228.294 805.708 218.292C796.961 209.544 785.494 204.133 773.292 202.917L768 202.667H341.333Z" fill="black"/>
</svg>
