<svg width="1024" height="1024" viewBox="0 0 1024 1024" fill="none" xmlns="http://www.w3.org/2000/svg">
<path d="M938.667 298.667V725.333C938.667 759.281 925.171 791.829 901.167 815.833C877.162 839.838 844.614 853.333 810.667 853.333H213.333C179.386 853.333 146.838 839.838 122.833 815.833C98.8287 791.829 85.3333 759.281 85.3333 725.333V298.667C85.3333 297.483 85.4673 296.305 85.5 295.125L493.667 580.875C504.681 588.58 519.319 588.58 530.333 580.875L938.458 295.125C938.491 296.305 938.667 297.483 938.667 298.667Z" fill="black"/>
<path d="M810.667 170.667C844.614 170.667 877.162 184.162 901.167 208.167C908.015 215.015 913.89 222.634 918.958 230.708L512 515.625L105 230.708C110.071 222.627 115.979 215.021 122.833 208.167C146.838 184.162 179.386 170.667 213.333 170.667H810.667Z" fill="black"/>
</svg>
