<svg width="1024" height="1024" viewBox="0 0 1024 1024" fill="none" xmlns="http://www.w3.org/2000/svg">
<path fill-rule="evenodd" clip-rule="evenodd" d="M810.667 181.333C841.785 181.333 871.621 193.704 893.625 215.708C915.629 237.713 928 267.548 928 298.667V725.333C928 756.452 915.629 786.287 893.625 808.292C871.621 830.296 841.785 842.667 810.667 842.667H213.333C182.215 842.667 152.379 830.296 130.375 808.292C108.371 786.287 96 756.452 96 725.333V298.667C96 267.548 108.371 237.713 130.375 215.708C152.379 193.704 182.215 181.333 213.333 181.333H810.667ZM529.75 581.292C519.001 588.458 504.999 588.458 494.25 581.292L160 358.458V725.333C160 739.478 165.623 753.04 175.625 763.042C185.627 773.044 199.188 778.667 213.333 778.667H810.667C824.812 778.667 838.373 773.044 848.375 763.042C858.377 753.04 864 739.478 864 725.333V358.458L529.75 581.292ZM213.333 245.333C199.188 245.333 185.627 250.956 175.625 260.958C169.39 267.194 164.822 274.802 162.292 283.083L512 516.208L861.667 283.083C859.136 274.807 854.608 267.191 848.375 260.958C839.628 252.211 828.16 246.799 815.958 245.583L810.667 245.333H213.333Z" fill="black"/>
</svg>
