<svg width="1024" height="1024" viewBox="0 0 1024 1024" fill="none" xmlns="http://www.w3.org/2000/svg">
<path d="M454.958 523.292C487.565 526.203 518.662 539.195 542.75 560.875C570.394 585.756 586.667 620.286 586.667 657.083V682.667C586.667 700.339 572.339 714.665 554.667 714.667C536.994 714.667 522.667 700.34 522.667 682.667V657.083C522.667 639.566 514.945 621.984 499.917 608.458C486.671 596.539 468.808 588.79 449.333 587.042L440.875 586.667H327.125C304.414 586.667 283.223 594.835 268.083 608.458C253.054 621.984 245.333 639.565 245.333 657.083V682.667C245.333 700.339 231.005 714.665 213.333 714.667C195.66 714.667 181.333 700.34 181.333 682.667V657.083C181.333 620.286 197.605 585.756 225.25 560.875C252.784 536.095 289.488 522.667 327.125 522.667H440.875L454.958 523.292Z" fill="black"/>
<path d="M800 650.667C817.673 650.667 832 664.994 832 682.667C832 700.339 817.673 714.666 800 714.667H682.667C664.993 714.667 650.667 700.34 650.667 682.667C650.667 664.994 664.994 650.667 682.667 650.667H800Z" fill="black"/>
<path d="M800 480C817.673 480 832 494.327 832 512C832 529.673 817.673 543.999 800 544H682.667C664.993 544 650.667 529.673 650.667 512C650.667 494.327 664.994 480 682.667 480H800Z" fill="black"/>
<path fill-rule="evenodd" clip-rule="evenodd" d="M384 266.667C415.118 266.667 444.955 279.038 466.958 301.042C488.962 323.046 501.333 352.882 501.333 384C501.333 415.118 488.962 444.954 466.958 466.958C444.955 488.962 415.118 501.333 384 501.333C352.882 501.333 323.046 488.962 301.042 466.958C279.037 444.954 266.667 415.119 266.667 384C266.667 352.881 279.037 323.046 301.042 301.042C323.046 279.038 352.882 266.667 384 266.667ZM384 330.667C369.856 330.667 356.293 336.291 346.292 346.292C336.29 356.294 330.667 369.855 330.667 384C330.667 398.145 336.29 411.706 346.292 421.708C356.293 431.709 369.856 437.333 384 437.333C398.144 437.333 411.707 431.71 421.708 421.708C431.709 411.706 437.333 398.144 437.333 384C437.333 369.856 431.709 356.293 421.708 346.292C411.707 336.29 398.144 330.667 384 330.667Z" fill="black"/>
<path d="M800 309.333C817.673 309.334 832 323.66 832 341.333C832 359.006 817.673 373.333 800 373.333H682.667C664.994 373.333 650.667 359.006 650.667 341.333C650.667 323.66 664.993 309.333 682.667 309.333H800Z" fill="black"/>
<path fill-rule="evenodd" clip-rule="evenodd" d="M796.458 138.667C841.635 138.67 885.551 154.796 918.417 184.375C951.396 214.057 970.667 255.079 970.667 298.667V725.333C970.667 768.921 951.396 809.943 918.417 839.625C885.551 869.204 841.635 885.33 796.458 885.333H227.542C182.364 885.33 138.449 869.204 105.583 839.625C72.6038 809.943 53.3333 768.921 53.3333 725.333V298.667C53.3333 255.079 72.6038 214.057 105.583 184.375C138.449 154.796 182.364 138.67 227.542 138.667H796.458ZM227.542 202.667C197.291 202.67 168.888 213.536 148.417 231.958C128.053 250.285 117.333 274.359 117.333 298.667V725.333L117.833 734.417C120.157 755.566 130.596 776.003 148.417 792.042C168.888 810.464 197.291 821.33 227.542 821.333H796.458C826.709 821.33 855.112 810.464 875.583 792.042C893.404 776.003 903.843 755.566 906.167 734.417L906.667 725.333V298.667C906.667 274.359 895.947 250.285 875.583 231.958C855.112 213.536 826.709 202.67 796.458 202.667H227.542Z" fill="black"/>
</svg>
