<svg width="1024" height="1024" viewBox="0 0 1024 1024" fill="none" xmlns="http://www.w3.org/2000/svg">
<path fill-rule="evenodd" clip-rule="evenodd" d="M810.667 85.3334C844.614 85.3334 877.162 98.8287 901.167 122.833C925.171 146.838 938.667 179.386 938.667 213.333V810.667C938.667 844.614 925.171 877.162 901.167 901.167C877.162 925.171 844.614 938.667 810.667 938.667H213.333C179.386 938.667 146.838 925.171 122.833 901.167C98.8287 877.162 85.3333 844.614 85.3333 810.667V213.333C85.3333 179.386 98.8287 146.838 122.833 122.833C146.838 98.8287 179.386 85.3334 213.333 85.3334H810.667ZM662.625 361.375C650.128 348.88 629.871 348.879 617.375 361.375L512 466.75L406.625 361.375C394.128 348.88 373.871 348.879 361.375 361.375C348.88 373.871 348.88 394.129 361.375 406.625L466.75 512L361.375 617.375C348.88 629.871 348.88 650.129 361.375 662.625C373.872 675.119 394.129 675.12 406.625 662.625L512 557.25L617.375 662.625C629.872 675.119 650.129 675.12 662.625 662.625C675.121 650.129 675.119 629.872 662.625 617.375L557.25 512L662.625 406.625C675.121 394.129 675.119 373.872 662.625 361.375Z" fill="black"/>
</svg>
