<svg width="1024" height="1024" viewBox="0 0 1024 1024" fill="none" xmlns="http://www.w3.org/2000/svg">
<path d="M512 352C529.673 352 544 366.327 544 384V480H640C657.673 480 672 494.327 672 512C672 529.673 657.673 544 640 544H544V640C544 657.673 529.673 672 512 672C494.327 672 480 657.673 480 640V544H384C366.327 544 352 529.673 352 512C352 494.327 366.327 480 384 480H480V384C480 366.327 494.327 352 512 352Z" fill="black"/>
<path fill-rule="evenodd" clip-rule="evenodd" d="M512 96C622.33 96 728.152 139.818 806.167 217.833C884.182 295.848 928 401.67 928 512C928 566.63 917.239 620.737 896.333 671.208C875.427 721.676 844.793 767.54 806.167 806.167C767.54 844.793 721.676 875.427 671.208 896.333C627.047 914.626 580.099 925.154 532.458 927.5L512 928C457.37 928 403.263 917.239 352.792 896.333C302.324 875.427 256.46 844.793 217.833 806.167C179.207 767.54 148.573 721.676 127.667 671.208C106.761 620.737 96 566.63 96 512C96 401.67 139.818 295.848 217.833 217.833C295.848 139.818 401.67 96 512 96ZM512 160C418.644 160 329.096 197.071 263.083 263.083C197.071 329.096 160 418.644 160 512C160 558.225 169.102 604.002 186.792 646.708C204.481 689.414 230.398 728.231 263.083 760.917C295.769 793.602 334.586 819.519 377.292 837.208C419.998 854.898 465.775 864 512 864L529.292 863.583C569.61 861.6 609.335 852.689 646.708 837.208C689.414 819.519 728.231 793.602 760.917 760.917C793.602 728.231 819.519 689.414 837.208 646.708C854.898 604.002 864 558.225 864 512C864 418.644 826.929 329.096 760.917 263.083C694.904 197.071 605.356 160 512 160Z" fill="black"/>
</svg>
