<svg width="1024" height="1024" viewBox="0 0 1024 1024" fill="none" xmlns="http://www.w3.org/2000/svg">
<path fill-rule="evenodd" clip-rule="evenodd" d="M515.338 96H528.755C541.907 96 553.732 104.053 558.546 116.292C563.353 128.535 560.183 142.504 550.546 151.458C501.223 197.295 469.496 258.965 460.921 325.75C452.35 392.539 467.479 460.232 503.63 517.042C539.782 573.849 594.706 616.187 658.838 636.708C722.969 657.225 792.26 654.643 854.671 629.375C866.63 624.533 880.339 627.337 889.421 636.5C898.501 645.666 901.164 659.419 896.213 671.333C867.311 740.861 820.07 801.248 759.546 846.042C699.017 890.835 627.45 918.39 552.505 925.708C477.561 933.023 402.013 919.864 333.963 887.625C265.914 855.384 207.895 805.254 166.088 742.625C124.281 679.993 100.263 607.172 96.588 531.958C92.9155 456.752 109.717 381.945 145.213 315.542C180.719 249.133 233.626 193.595 298.213 154.875C362.801 116.158 436.701 95.6857 512.005 95.6667C513.128 95.667 514.231 95.883 515.338 96ZM455.713 164.25C411.838 171.371 369.504 186.721 331.088 209.75C276.442 242.513 231.713 289.52 201.671 345.708C171.633 401.898 157.397 465.194 160.505 528.833C163.614 592.476 183.963 654.087 219.338 707.083C254.714 760.078 303.797 802.511 361.38 829.792C418.962 857.07 482.881 868.191 546.296 862C609.713 855.807 670.286 832.529 721.505 794.625C753.366 771.045 780.835 742.311 802.963 709.833C748.573 718.658 692.474 714.682 639.296 697.667C560.924 672.584 493.812 620.838 449.63 551.417C405.448 481.987 386.99 399.251 397.463 317.625C404.57 262.265 424.701 209.772 455.713 164.25Z" fill="black"/>
</svg>
