<svg width="1024" height="1024" viewBox="0 0 1024 1024" fill="none" xmlns="http://www.w3.org/2000/svg">
<path d="M501.333 181.083C519.006 181.083 533.333 195.41 533.333 213.083V479.75H800C817.673 479.75 832 494.077 832 511.75C832 529.423 817.673 543.75 800 543.75H533.333V810.417C533.333 828.09 519.006 842.417 501.333 842.417C483.66 842.417 469.333 828.09 469.333 810.417V543.75H202.667C184.994 543.75 170.667 529.423 170.667 511.75C170.667 494.077 184.994 479.75 202.667 479.75H469.333V213.083C469.333 195.41 483.66 181.083 501.333 181.083Z" fill="black"/>
</svg>
