<svg width="1024" height="1024" viewBox="0 0 1024 1024" fill="none" xmlns="http://www.w3.org/2000/svg">
<path fill-rule="evenodd" clip-rule="evenodd" d="M640 96C671.119 96 700.954 108.371 722.958 130.375C744.963 152.379 757.333 182.215 757.333 213.333V352H810.667C841.785 352 871.621 364.371 893.625 386.375C915.629 408.379 928 438.215 928 469.333V640C928 671.119 915.629 700.954 893.625 722.958C871.621 744.963 841.785 757.333 810.667 757.333H757.333V810.667C757.333 841.785 744.963 871.621 722.958 893.625C700.954 915.629 671.119 928 640 928H384C352.881 928 323.046 915.629 301.042 893.625C279.037 871.621 266.667 841.785 266.667 810.667V757.333H213.333C182.215 757.333 152.379 744.963 130.375 722.958C108.371 700.954 96 671.119 96 640V469.333C96 438.215 108.371 408.379 130.375 386.375C152.379 364.371 182.215 352 213.333 352H266.667V213.333C266.667 182.215 279.037 152.379 301.042 130.375C323.046 108.371 352.881 96 384 96H640ZM384 586.667C369.855 586.667 356.294 592.29 346.292 602.292C336.29 612.294 330.667 625.855 330.667 640V810.667L330.917 815.958C332.133 828.16 337.545 839.628 346.292 848.375C356.294 858.377 369.855 864 384 864H640C654.145 864 667.706 858.377 677.708 848.375C687.71 838.373 693.333 824.812 693.333 810.667V640C693.333 625.855 687.71 612.294 677.708 602.292C667.706 592.29 654.145 586.667 640 586.667H384ZM213.333 416C199.188 416 185.627 421.623 175.625 431.625C165.623 441.627 160 455.188 160 469.333V640L160.25 645.292C161.466 657.494 166.878 668.961 175.625 677.708C185.627 687.71 199.188 693.333 213.333 693.333H266.667V640C266.667 608.881 279.037 579.046 301.042 557.042C323.046 535.037 352.881 522.667 384 522.667H640C671.119 522.667 700.954 535.037 722.958 557.042C744.963 579.046 757.333 608.881 757.333 640V693.333H810.667C824.812 693.333 838.373 687.71 848.375 677.708C858.377 667.706 864 654.145 864 640V469.333C864 455.188 858.377 441.627 848.375 431.625C838.373 421.623 824.812 416 810.667 416H213.333ZM384 160C369.855 160 356.294 165.623 346.292 175.625C336.29 185.627 330.667 199.188 330.667 213.333V352H693.333V213.333C693.333 199.188 687.71 185.627 677.708 175.625C668.961 166.878 657.494 161.466 645.292 160.25L640 160H384Z" fill="black"/>
</svg>
