<svg width="1024" height="1024" viewBox="0 0 1024 1024" fill="none" xmlns="http://www.w3.org/2000/svg">
<path d="M617.375 404.042C629.872 391.545 650.128 391.545 662.625 404.042C675.122 416.538 675.122 436.795 662.625 449.292L491.958 619.958C479.462 632.455 459.205 632.455 446.708 619.958L361.375 534.625C348.878 522.128 348.878 501.872 361.375 489.375C373.872 476.878 394.128 476.878 406.625 489.375L469.333 552.083L617.375 404.042Z" fill="black"/>
<path fill-rule="evenodd" clip-rule="evenodd" d="M810.667 96C841.785 96 871.621 108.371 893.625 130.375C915.629 152.379 928 182.215 928 213.333V810.667C928 841.785 915.629 871.621 893.625 893.625C871.621 915.629 841.785 928 810.667 928H213.333C182.215 928 152.379 915.629 130.375 893.625C108.371 871.621 96 841.785 96 810.667V213.333C96 182.215 108.371 152.379 130.375 130.375C152.379 108.371 182.215 96 213.333 96H810.667ZM213.333 160C199.188 160 185.627 165.623 175.625 175.625C165.623 185.627 160 199.188 160 213.333V810.667C160 824.812 165.623 838.373 175.625 848.375C185.627 858.377 199.188 864 213.333 864H810.667C824.812 864 838.373 858.377 848.375 848.375C858.377 838.373 864 824.812 864 810.667V213.333C864 199.188 858.377 185.627 848.375 175.625C838.373 165.623 824.812 160 810.667 160H213.333Z" fill="black"/>
</svg>
