<svg width="1024" height="1024" viewBox="0 0 1024 1024" fill="none" xmlns="http://www.w3.org/2000/svg">
<path d="M299.542 127.991C307.132 128.15 314.576 130.346 321.042 134.324L875.708 475.658C881.907 479.471 887.028 484.807 890.583 491.158C894.141 497.519 895.999 504.702 896 511.991C896 519.282 894.142 526.46 890.583 532.824C887.026 539.184 881.917 544.55 875.708 548.366L321.042 889.699C314.576 893.677 307.132 895.832 299.542 895.991C291.957 896.147 284.455 894.276 277.833 890.574C271.214 886.87 265.712 881.451 261.875 874.908C258.038 868.361 255.998 860.913 256 853.324V170.658C255.999 163.069 258.036 155.621 261.875 149.074C265.714 142.53 271.212 137.112 277.833 133.408C284.455 129.706 291.957 127.835 299.542 127.991Z" fill="black"/>
</svg>
