<svg width="1024" height="1024" viewBox="0 0 1024 1024" fill="none" xmlns="http://www.w3.org/2000/svg">
<path d="M512 778.667C529.673 778.667 544 792.994 544 810.667V896C544 913.673 529.673 928 512 928C494.327 928 480 913.673 480 896V810.667C480 792.994 494.327 778.667 512 778.667Z" fill="black"/>
<path d="M276.042 702.708C288.536 690.223 308.797 690.223 321.292 702.708C333.777 715.203 333.777 735.464 321.292 747.958L261.542 807.708C249.046 820.186 228.784 820.191 216.292 807.708C203.809 795.216 203.814 774.954 216.292 762.458L276.042 702.708Z" fill="black"/>
<path d="M702.708 702.708C715.205 690.212 735.462 690.212 747.958 702.708L807.708 762.458C820.188 774.956 820.2 795.217 807.708 807.708C795.217 820.2 774.956 820.188 762.458 807.708L702.708 747.958C690.212 735.462 690.212 715.205 702.708 702.708Z" fill="black"/>
<path fill-rule="evenodd" clip-rule="evenodd" d="M512 352C554.435 352 595.119 368.869 625.125 398.875C655.131 428.881 672 469.565 672 512C672 554.435 655.131 595.119 625.125 625.125C595.119 655.131 554.435 672 512 672C469.565 672 428.881 655.131 398.875 625.125C368.869 595.119 352 554.435 352 512C352 469.565 368.869 428.881 398.875 398.875C428.881 368.869 469.565 352 512 352ZM512 416C486.539 416 462.128 426.122 444.125 444.125C426.122 462.128 416 486.539 416 512C416 537.461 426.122 561.872 444.125 579.875C462.128 597.878 486.539 608 512 608C537.461 608 561.871 597.878 579.875 579.875C597.878 561.872 608 537.461 608 512C608 486.539 597.878 462.128 579.875 444.125C561.871 426.122 537.461 416 512 416Z" fill="black"/>
<path d="M256 480C273.673 480 288 494.327 288 512C288 529.673 273.673 544 256 544H170.667C152.994 544 138.667 529.673 138.667 512C138.667 494.327 152.994 480 170.667 480H256Z" fill="black"/>
<path d="M896 480C913.673 480 928 494.327 928 512C928 529.673 913.673 544 896 544H810.667C792.994 544 778.667 529.673 778.667 512C778.667 494.327 792.994 480 810.667 480H896Z" fill="black"/>
<path d="M216.292 216.292C228.783 203.8 249.044 203.811 261.542 216.292L321.292 276.042C333.772 288.54 333.783 308.8 321.292 321.292C308.8 333.782 288.54 333.772 276.042 321.292L216.292 261.542C203.811 249.044 203.801 228.783 216.292 216.292Z" fill="black"/>
<path d="M762.458 216.292C774.954 203.814 795.216 203.808 807.708 216.292C820.191 228.784 820.186 249.046 807.708 261.542L747.958 321.292C735.464 333.777 715.203 333.777 702.708 321.292C690.222 308.797 690.222 288.537 702.708 276.042L762.458 216.292Z" fill="black"/>
<path d="M512 96C529.673 96 544 110.327 544 128V213.333C544 231.006 529.673 245.333 512 245.333C494.327 245.333 480 231.006 480 213.333V128C480 110.327 494.327 96 512 96Z" fill="black"/>
</svg>
