<svg width="1024" height="1024" viewBox="0 0 1024 1024" fill="none" xmlns="http://www.w3.org/2000/svg">
<path fill-rule="evenodd" clip-rule="evenodd" d="M810.667 96C841.785 96 871.621 108.371 893.625 130.375C915.629 152.379 928 182.215 928 213.333V810.667C928 841.785 915.629 871.621 893.625 893.625C871.621 915.629 841.785 928 810.667 928H213.333C182.215 928 152.379 915.629 130.375 893.625C108.371 871.621 96 841.785 96 810.667V213.333C96 182.215 108.371 152.379 130.375 130.375C152.379 108.371 182.215 96 213.333 96H810.667ZM512 352C494.327 352 480 366.327 480 384V480H384C366.327 480 352 494.327 352 512C352 529.673 366.327 544 384 544H480V640C480 657.673 494.327 672 512 672C529.673 672 544 657.673 544 640V544H640C657.673 544 672 529.673 672 512C672 494.327 657.673 480 640 480H544V384C544 366.327 529.673 352 512 352Z" fill="black"/>
</svg>
