<svg width="1024" height="1024" viewBox="0 0 1024 1024" fill="none" xmlns="http://www.w3.org/2000/svg">
<path fill-rule="evenodd" clip-rule="evenodd" d="M512 96C577.066 96 639.449 121.866 685.458 167.875C731.467 213.884 757.333 276.267 757.333 341.333C757.333 406.4 731.467 468.783 685.458 514.792C674.24 526.009 662.008 535.968 649.042 544.708C649.088 544.85 649.164 544.982 649.208 545.125L755.875 886.458C759.674 898.617 755.885 911.875 746.25 920.208C736.617 928.532 722.979 930.34 711.5 924.833L512 829.083L312.5 924.833C301.021 930.34 287.383 928.532 277.75 920.208C268.115 911.875 264.326 898.617 268.125 886.458L374.792 545.125C374.835 544.986 374.872 544.846 374.917 544.708C361.961 535.973 349.751 526.001 338.542 514.792C292.533 468.783 266.667 406.4 266.667 341.333C266.667 276.267 292.533 213.884 338.542 167.875C384.551 121.866 446.934 96 512 96ZM591 573.5C565.787 582.085 539.141 586.667 512 586.667C484.846 586.667 458.183 582.094 432.958 573.5L351.125 835.292L498.167 764.75L501.5 763.375C509.429 760.62 518.178 761.079 525.833 764.75L672.833 835.292L591 573.5ZM512 160C463.907 160 417.798 179.118 383.792 213.125C349.785 247.132 330.667 293.241 330.667 341.333C330.667 389.426 349.785 435.535 383.792 469.542C417.798 503.548 463.907 522.667 512 522.667C560.093 522.667 606.202 503.548 640.208 469.542C674.215 435.535 693.333 389.426 693.333 341.333C693.333 293.241 674.215 247.132 640.208 213.125C606.202 179.118 560.093 160 512 160Z" fill="black"/>
</svg>
