<svg width="1024" height="1024" viewBox="0 0 1024 1024" fill="none" xmlns="http://www.w3.org/2000/svg">
<path d="M640.417 352C658.09 352 672.417 366.327 672.417 384C672.417 401.673 658.09 416 640.417 416H640C622.327 416 608 401.673 608 384C608 366.327 622.327 352 640 352H640.417Z" fill="black"/>
<path fill-rule="evenodd" clip-rule="evenodd" d="M619.542 96C639.86 96 659.978 100.017 678.75 107.792C697.521 115.568 714.591 126.968 728.958 141.333L882.667 295C897.033 309.365 908.43 326.44 916.208 345.208C923.986 363.982 927.999 384.138 928 404.458C927.999 424.774 923.981 444.897 916.208 463.667C908.433 482.437 897.032 499.508 882.667 513.875L769.875 626.667C755.509 641.03 738.434 652.433 719.667 660.208C700.895 667.982 680.776 672 660.458 672C640.141 672 620.022 667.982 601.25 660.208C586.743 654.198 573.259 645.993 561.25 635.958L303.625 893.625C284.136 913.109 258.41 925.125 230.958 927.542C230.512 927.581 230.031 927.605 229.583 927.625L222.125 927.958C221.641 927.98 221.151 928 220.667 928H170.667C152.378 927.998 134.708 921.278 121.042 909.125C107.382 896.973 98.6391 880.199 96.5 862.042C96.4305 861.443 96.411 860.81 96.375 860.208L96.0417 855.25C96.0043 854.62 96.0002 853.965 96 853.333V803.292L96.4583 793.042C98.5614 769.195 107.937 746.475 123.417 728L124.333 726.917L129.417 721.375L130.375 720.375L148.042 702.708L152.917 698.708C158.135 695.23 164.303 693.333 170.667 693.333H224V640C224.006 622.332 238.33 608 256 608H309.333V554.667C309.336 546.185 312.712 538.04 318.708 532.042L387.958 462.708C377.947 450.714 369.791 437.233 363.792 422.75C356.019 403.98 352.001 383.857 352 363.542C352.001 343.221 356.015 323.065 363.792 304.292C371.57 285.523 382.967 268.448 397.333 254.083L510.125 141.333L515.625 136.083C528.772 124.17 543.907 114.596 560.333 107.792C579.106 100.018 599.223 96 619.542 96ZM619.542 160C607.624 160 595.802 162.356 584.792 166.917C573.792 171.476 563.796 178.164 555.375 186.583L442.583 299.375C434.166 307.795 427.476 317.793 422.917 328.792C418.356 339.8 416.001 351.626 416 363.542C416.001 375.45 418.362 387.248 422.917 398.25C427.476 409.257 434.16 419.283 442.583 427.708L455.458 440.542C467.943 453.031 467.93 473.294 455.458 485.792L373.333 567.917V640C373.329 657.669 359.004 672 341.333 672H288V725.333C287.996 743.003 273.67 757.333 256 757.333H183.917L176.125 765.083L172.25 769.333C164.34 778.889 160.005 790.922 160 803.333V852.125L160.125 854.917C160.496 857.375 161.722 859.633 163.583 861.292C165.535 863.027 168.056 863.999 170.667 864H220.042L226 863.667C238.227 862.437 249.674 857.071 258.375 848.375L538.167 568.542C550.662 556.052 570.963 556.052 583.458 568.542L596.292 581.417C604.712 589.835 614.709 596.524 625.708 601.083C636.72 605.645 648.54 608 660.458 608C672.377 608 684.197 605.645 695.208 601.083C706.208 596.524 716.205 589.835 724.625 581.417L837.417 468.625C845.84 460.2 852.524 450.173 857.083 439.167C861.638 428.164 863.999 416.366 864 404.458C863.999 392.543 861.644 380.717 857.083 369.708C852.524 358.71 845.834 348.712 837.417 340.292L683.708 186.583C675.288 178.164 665.291 171.476 654.292 166.917C643.281 162.356 631.459 160 619.542 160Z" fill="black"/>
</svg>
