<svg width="1024" height="1024" viewBox="0 0 1024 1024" fill="none" xmlns="http://www.w3.org/2000/svg">
<path fill-rule="evenodd" clip-rule="evenodd" d="M512 608C531.803 608 550.789 615.872 564.792 629.875C578.794 643.878 586.667 662.864 586.667 682.667C586.667 702.469 578.794 721.456 564.792 735.458C550.789 749.461 531.803 757.333 512 757.333C492.197 757.333 473.211 749.461 459.208 735.458C445.206 721.456 437.333 702.469 437.333 682.667C437.333 662.864 445.206 643.878 459.208 629.875C473.211 615.872 492.197 608 512 608ZM512 672C509.171 672 506.459 673.125 504.458 675.125C502.458 677.125 501.333 679.838 501.333 682.667C501.333 685.496 502.458 688.208 504.458 690.208C506.459 692.209 509.171 693.333 512 693.333C514.829 693.333 517.541 692.209 519.542 690.208C521.542 688.208 522.667 685.496 522.667 682.667C522.667 679.838 521.542 677.125 519.542 675.125C517.541 673.125 514.829 672 512 672Z" fill="black"/>
<path fill-rule="evenodd" clip-rule="evenodd" d="M522.042 96.25C572.136 98.7332 619.658 119.741 655.292 155.375C693.299 193.382 714.667 244.916 714.667 298.667V437.333H725.333C756.452 437.333 786.287 449.704 808.292 471.708C830.296 493.713 842.667 523.548 842.667 554.667V810.667C842.667 841.785 830.296 871.621 808.292 893.625C786.287 915.629 756.452 928 725.333 928H298.667C267.548 928 237.713 915.629 215.708 893.625C193.704 871.621 181.333 841.785 181.333 810.667V554.667C181.333 523.548 193.704 493.713 215.708 471.708C237.713 449.704 267.548 437.333 298.667 437.333H309.333V298.667C309.333 244.916 330.701 193.382 368.708 155.375C406.716 117.368 458.249 96 512 96L522.042 96.25ZM298.667 501.333C284.522 501.333 270.96 506.956 260.958 516.958C250.956 526.96 245.333 540.522 245.333 554.667V810.667L245.583 815.958C246.799 828.16 252.211 839.628 260.958 848.375C270.96 858.377 284.522 864 298.667 864H725.333C739.478 864 753.04 858.377 763.042 848.375C773.044 838.373 778.667 824.812 778.667 810.667V554.667C778.667 540.522 773.044 526.96 763.042 516.958C753.04 506.956 739.478 501.333 725.333 501.333H298.667ZM512 160C475.223 160 439.963 174.62 413.958 200.625C387.953 226.63 373.333 261.89 373.333 298.667V437.333H650.667V298.667C650.667 261.89 636.047 226.63 610.042 200.625C585.662 176.245 553.149 161.867 518.875 160.167L512 160Z" fill="black"/>
</svg>
