<svg width="1024" height="1024" viewBox="0 0 1024 1024" fill="none" xmlns="http://www.w3.org/2000/svg">
<path d="M916.042 702.708C928.538 690.212 948.795 690.212 961.292 702.708C973.788 715.205 973.788 735.462 961.292 747.958L877.25 832L961.292 916.042C973.788 928.538 973.788 948.795 961.292 961.292C948.795 973.788 928.538 973.788 916.042 961.292L832 877.25L747.958 961.292C735.462 973.788 715.205 973.788 702.708 961.292C690.212 948.795 690.212 928.538 702.708 916.042L786.75 832L702.708 747.958C690.212 735.462 690.212 715.205 702.708 702.708C715.205 690.212 735.462 690.212 747.958 702.708L832 786.75L916.042 702.708Z" fill="black"/>
<path fill-rule="evenodd" clip-rule="evenodd" d="M682.667 138.667C691.154 138.667 699.291 142.04 705.292 148.042L875.958 318.708C881.96 324.709 885.333 332.846 885.333 341.333V688.167L832 741.5L770.583 680.083C745.59 655.09 705.077 655.09 680.083 680.083C655.09 705.077 655.09 745.59 680.083 770.583L741.5 832L688.167 885.333H256C224.881 885.333 195.046 872.963 173.042 850.958C151.037 828.954 138.667 799.119 138.667 768V256C138.667 224.881 151.037 195.046 173.042 173.042C195.046 151.037 224.881 138.667 256 138.667H682.667ZM512 469.333C478.052 469.333 445.505 482.829 421.5 506.833C397.495 530.838 384 563.386 384 597.333C384 631.281 397.495 663.829 421.5 687.833C445.505 711.838 478.052 725.333 512 725.333C545.948 725.333 578.495 711.838 602.5 687.833C626.505 663.829 640 631.281 640 597.333C640 563.386 626.505 530.838 602.5 506.833C578.495 482.829 545.948 469.333 512 469.333ZM341.333 213.333C317.769 213.333 298.667 226.082 298.667 241.792V355.542C298.667 371.251 317.769 384 341.333 384H597.333C620.898 384 640 371.251 640 355.542V241.792C640 226.082 620.898 213.333 597.333 213.333H341.333Z" fill="black"/>
</svg>
