<svg width="1024" height="1024" viewBox="0 0 1024 1024" fill="none" xmlns="http://www.w3.org/2000/svg">
<path fill-rule="evenodd" clip-rule="evenodd" d="M516.933 85.625L519.474 85.9584L522.058 86.5417L526.808 87.9584C530.076 89.1632 533.182 90.7846 536.058 92.75L540.516 96.25L551.391 105.542C637.46 177.03 746.226 215.423 858.099 213.792L872.724 213.375C882.255 212.945 891.665 215.71 899.432 221.25C907.205 226.795 912.906 234.798 915.599 243.958C936.565 315.279 942.948 390.109 934.432 463.958C925.915 537.802 902.662 609.203 866.016 673.875C829.368 738.546 780.07 795.205 721.099 840.458C662.133 885.705 594.668 918.627 522.724 937.292C515.705 939.112 508.327 939.109 501.308 937.292C429.353 918.632 361.867 885.707 302.891 840.458C243.915 795.206 194.627 738.548 157.974 673.875C121.322 609.199 98.035 537.808 89.5158 463.958C80.9972 390.107 87.4252 315.282 108.391 243.958C111.085 234.802 116.746 226.794 124.516 221.25C132.29 215.704 141.726 212.94 151.266 213.375C268.058 218.711 382.623 180.246 472.558 105.542L483.808 95.9584L487.891 92.75C490.767 90.7835 493.872 89.1639 497.141 87.9584L501.933 86.5417C503.605 86.1378 505.306 85.8179 507.016 85.625L511.933 85.3334L516.933 85.625ZM512.016 384C490.487 383.993 469.718 392.112 453.933 406.75C438.153 421.384 428.509 441.457 426.891 462.917L426.683 469.333L426.891 475.75C427.945 489.593 432.371 502.958 439.766 514.708C447.164 526.464 457.317 536.269 469.349 543.208V618.667L469.641 623.667C470.927 634.457 476.269 644.356 484.599 651.333C492.939 658.313 503.66 661.846 514.516 661.208C525.362 660.568 535.555 655.815 543.016 647.917C550.481 640.009 554.67 629.542 554.683 618.667L554.724 543.25C570.993 533.855 583.704 519.316 590.891 501.958C598.071 484.605 599.34 465.348 594.474 447.208C589.607 429.072 578.874 413.054 563.974 401.625C549.069 390.196 530.798 383.995 512.016 384Z" fill="black"/>
</svg>
