<svg width="1024" height="1024" viewBox="0 0 1024 1024" fill="none" xmlns="http://www.w3.org/2000/svg">
<path fill-rule="evenodd" clip-rule="evenodd" d="M853.333 138.667C871.006 138.667 885.333 152.994 885.333 170.667V263.333L884.75 274.958C882.075 301.807 870.206 327.047 850.958 346.292L672 525.25V810.667C672 824.441 663.192 836.686 650.125 841.042L394.125 926.375C384.367 929.628 373.636 927.972 365.292 921.958C356.947 915.944 352 906.286 352 896V545.667L169.167 344.583C149.55 322.996 138.675 294.878 138.667 265.708V170.667C138.667 152.994 152.994 138.667 170.667 138.667H853.333ZM202.667 265.667L202.917 270.625C203.986 282.093 208.735 292.953 216.542 301.542L407.667 511.792C413.022 517.682 416 525.373 416 533.333V851.583L608 787.583V512C608 503.513 611.374 495.376 617.375 489.375L805.708 301.042L809.25 297.125C815.92 288.987 820.046 279.054 821.083 268.583L821.333 263.333V202.667H202.667V265.667Z" fill="black"/>
</svg>
