<svg width="1024" height="1024" viewBox="0 0 1024 1024" fill="none" xmlns="http://www.w3.org/2000/svg">
<path fill-rule="evenodd" clip-rule="evenodd" d="M735.375 96.25C785.47 98.7332 832.991 119.741 868.625 155.375C906.632 193.382 928 244.916 928 298.667V469.333C928 487.006 913.673 501.333 896 501.333C878.327 501.333 864 487.006 864 469.333V298.667C864 261.89 849.38 226.63 823.375 200.625C798.995 176.245 766.482 161.867 732.208 160.167L725.333 160C688.557 160 653.297 174.62 627.292 200.625C601.287 226.63 586.667 261.89 586.667 298.667V437.333H640C671.119 437.333 700.954 449.704 722.958 471.708C744.963 493.713 757.333 523.548 757.333 554.667V810.667C757.333 841.785 744.963 871.621 722.958 893.625C700.954 915.629 671.119 928 640 928H213.333C182.215 928 152.379 915.629 130.375 893.625C108.371 871.621 96 841.785 96 810.667V554.667C96 523.548 108.371 493.713 130.375 471.708C152.379 449.704 182.215 437.333 213.333 437.333H522.667V298.667C522.667 244.916 544.034 193.382 582.042 155.375C620.049 117.368 671.583 96 725.333 96L735.375 96.25ZM426.667 597.333C404.035 597.333 382.336 606.33 366.333 622.333C350.33 638.336 341.333 660.035 341.333 682.667C341.333 705.298 350.33 726.997 366.333 743C382.336 759.003 404.035 768 426.667 768C449.298 768 470.997 759.003 487 743C503.003 726.997 512 705.298 512 682.667C512 660.035 503.003 638.336 487 622.333C470.997 606.33 449.299 597.333 426.667 597.333Z" fill="black"/>
</svg>
