<svg width="1024" height="1024" viewBox="0 0 1024 1024" fill="none" xmlns="http://www.w3.org/2000/svg">
<path fill-rule="evenodd" clip-rule="evenodd" d="M442.917 96.4167C480.789 98.2801 518.102 106.625 553.208 121.167C593.327 137.784 629.795 162.128 660.5 192.833C691.205 223.539 715.549 260.007 732.167 300.125C748.784 340.243 757.333 383.243 757.333 426.667L756.917 442.917C755.053 480.789 746.708 518.102 732.167 553.208C719.646 583.437 702.71 611.57 682 636.75L918.625 873.375C931.122 885.872 931.122 906.128 918.625 918.625C906.128 931.122 885.872 931.122 873.375 918.625L636.75 682C611.57 702.71 583.437 719.646 553.208 732.167C513.09 748.784 470.09 757.333 426.667 757.333C383.243 757.333 340.243 748.784 300.125 732.167C260.007 715.549 223.539 691.205 192.833 660.5C162.128 629.795 137.784 593.327 121.167 553.208C106.625 518.102 98.2801 480.789 96.4167 442.917L96 426.667C96 383.243 104.549 340.243 121.167 300.125C137.784 260.007 162.128 223.539 192.833 192.833C223.539 162.128 260.007 137.784 300.125 121.167C340.243 104.549 383.243 96 426.667 96L442.917 96.4167ZM426.667 160C391.651 160 356.976 166.893 324.625 180.292C292.272 193.693 262.887 213.363 238.125 238.125C213.363 262.887 193.693 292.272 180.292 324.625C166.893 356.976 160 391.651 160 426.667L160.333 439.792C161.838 470.324 168.569 500.406 180.292 528.708C193.693 561.062 213.363 590.446 238.125 615.208C262.887 639.971 292.272 659.64 324.625 673.042C356.976 686.441 391.651 693.333 426.667 693.333C461.683 693.333 496.357 686.441 528.708 673.042C561.062 659.64 590.446 639.971 615.208 615.208C639.971 590.446 659.64 561.062 673.042 528.708C686.441 496.357 693.333 461.683 693.333 426.667L693 413.542C691.495 383.01 684.764 352.928 673.042 324.625C659.64 292.272 639.971 262.887 615.208 238.125C590.446 213.363 561.062 193.693 528.708 180.292C500.406 168.569 470.324 161.838 439.792 160.333L426.667 160Z" fill="black"/>
</svg>
