<svg width="1024" height="1024" viewBox="0 0 1024 1024" fill="none" xmlns="http://www.w3.org/2000/svg">
<path fill-rule="evenodd" clip-rule="evenodd" d="M426.667 608C446.47 608 465.456 615.872 479.458 629.875C493.461 643.878 501.333 662.864 501.333 682.667C501.333 702.469 493.461 721.456 479.458 735.458C465.456 749.461 446.469 757.333 426.667 757.333C406.864 757.333 387.878 749.461 373.875 735.458C359.872 721.456 352 702.469 352 682.667C352 662.864 359.872 643.878 373.875 629.875C387.878 615.872 406.864 608 426.667 608ZM426.667 672C423.838 672 421.125 673.125 419.125 675.125C417.125 677.125 416 679.838 416 682.667C416 685.496 417.125 688.208 419.125 690.208C421.125 692.209 423.838 693.333 426.667 693.333C429.496 693.333 432.208 692.209 434.208 690.208C436.209 688.208 437.333 685.496 437.333 682.667C437.333 679.838 436.209 677.125 434.208 675.125C432.208 673.125 429.496 672 426.667 672Z" fill="black"/>
<path fill-rule="evenodd" clip-rule="evenodd" d="M735.375 96.25C785.47 98.7332 832.991 119.741 868.625 155.375C906.632 193.382 928 244.916 928 298.667V469.333C928 487.006 913.673 501.333 896 501.333C878.327 501.333 864 487.006 864 469.333V298.667C864 261.89 849.38 226.63 823.375 200.625C798.995 176.245 766.482 161.867 732.208 160.167L725.333 160C688.557 160 653.297 174.62 627.292 200.625C601.287 226.63 586.667 261.89 586.667 298.667V437.333H640C671.119 437.333 700.954 449.704 722.958 471.708C744.963 493.713 757.333 523.548 757.333 554.667V810.667C757.333 841.785 744.963 871.621 722.958 893.625C700.954 915.629 671.119 928 640 928H213.333C182.215 928 152.379 915.629 130.375 893.625C108.371 871.621 96 841.785 96 810.667V554.667C96 523.548 108.371 493.713 130.375 471.708C152.379 449.704 182.215 437.333 213.333 437.333H522.667V298.667C522.667 244.916 544.034 193.382 582.042 155.375C620.049 117.368 671.583 96 725.333 96L735.375 96.25ZM213.333 501.333C199.188 501.333 185.627 506.956 175.625 516.958C165.623 526.96 160 540.522 160 554.667V810.667L160.25 815.958C161.466 828.16 166.878 839.628 175.625 848.375C185.627 858.377 199.188 864 213.333 864H640C654.145 864 667.706 858.377 677.708 848.375C687.71 838.373 693.333 824.812 693.333 810.667V554.667C693.333 540.522 687.71 526.96 677.708 516.958C667.706 506.956 654.145 501.333 640 501.333H213.333Z" fill="black"/>
</svg>
