<svg width="1024" height="1024" viewBox="0 0 1024 1024" fill="none" xmlns="http://www.w3.org/2000/svg">
<path fill-rule="evenodd" clip-rule="evenodd" d="M512 480C543.119 480 572.954 492.371 594.958 514.375C616.963 536.379 629.333 566.215 629.333 597.333C629.333 628.452 616.963 658.287 594.958 680.292C572.954 702.296 543.119 714.667 512 714.667C480.881 714.667 451.046 702.296 429.042 680.292C407.037 658.287 394.667 628.452 394.667 597.333C394.667 566.215 407.037 536.379 429.042 514.375C451.046 492.371 480.881 480 512 480ZM512 544C497.855 544 484.294 549.623 474.292 559.625C464.29 569.627 458.667 583.188 458.667 597.333C458.667 611.478 464.29 625.04 474.292 635.042C484.294 645.044 497.855 650.667 512 650.667C526.145 650.667 539.706 645.044 549.708 635.042C559.71 625.04 565.333 611.478 565.333 597.333C565.333 583.188 559.71 569.627 549.708 559.625C539.706 549.623 526.145 544 512 544Z" fill="black"/>
<path fill-rule="evenodd" clip-rule="evenodd" d="M682.667 138.667C691.154 138.667 699.291 142.04 705.292 148.042L875.958 318.708C881.96 324.709 885.333 332.846 885.333 341.333V768C885.333 799.119 872.963 828.954 850.958 850.958C828.954 872.963 799.119 885.333 768 885.333H256C224.881 885.333 195.046 872.963 173.042 850.958C151.037 828.954 138.667 799.119 138.667 768V256C138.667 224.881 151.037 195.046 173.042 173.042C195.046 151.037 224.881 138.667 256 138.667H682.667ZM256 202.667C241.855 202.667 228.294 208.29 218.292 218.292C208.29 228.294 202.667 241.855 202.667 256V768L202.917 773.292C204.133 785.494 209.545 796.961 218.292 805.708C228.294 815.71 241.855 821.333 256 821.333H768C782.145 821.333 795.706 815.71 805.708 805.708C815.71 795.706 821.333 782.145 821.333 768V354.583L669.417 202.667H629.333V341.333C629.333 359.006 615.006 373.333 597.333 373.333H341.333C323.66 373.333 309.333 359.006 309.333 341.333V202.667H256ZM373.333 309.333H565.333V202.667H373.333V309.333Z" fill="black"/>
</svg>
