<svg width="1024" height="1024" viewBox="0 0 1024 1024" fill="none" xmlns="http://www.w3.org/2000/svg">
<path fill-rule="evenodd" clip-rule="evenodd" d="M512 85.3334C568.58 85.3334 622.826 107.826 662.833 147.833C702.841 187.841 725.333 242.087 725.333 298.667V426.667C759.281 426.667 791.829 440.162 815.833 464.167C839.838 488.171 853.333 520.719 853.333 554.667V810.667C853.333 844.614 839.838 877.162 815.833 901.167C791.829 925.171 759.281 938.667 725.333 938.667H298.667C264.719 938.667 232.171 925.171 208.167 901.167C184.162 877.162 170.667 844.614 170.667 810.667V554.667C170.667 520.719 184.162 488.171 208.167 464.167C232.171 440.162 264.719 426.667 298.667 426.667V298.667C298.667 242.087 321.159 187.841 361.167 147.833C401.174 107.826 455.42 85.3334 512 85.3334ZM512 597.333C490.476 597.327 469.743 605.451 453.958 620.083C438.176 634.718 428.493 654.788 426.875 676.25L426.667 682.667C426.667 699.544 431.665 716.05 441.042 730.083C450.416 744.112 463.746 755.041 479.333 761.5C494.926 767.959 512.114 769.668 528.667 766.375C545.214 763.08 560.403 754.93 572.333 743C584.264 731.07 592.414 715.88 595.708 699.333C599.001 682.78 597.292 665.593 590.833 650C584.374 634.413 573.445 621.083 559.417 611.708C545.384 602.332 528.877 597.333 512 597.333ZM512 170.667C478.052 170.667 445.505 184.162 421.5 208.167C397.495 232.171 384 264.719 384 298.667V426.667H640V298.667C640 264.719 626.505 232.171 602.5 208.167C578.495 184.162 545.948 170.667 512 170.667Z" fill="black"/>
</svg>
