<svg width="1024" height="1024" viewBox="0 0 1024 1024" fill="none" xmlns="http://www.w3.org/2000/svg">
<path fill-rule="evenodd" clip-rule="evenodd" d="M399.075 174.117C427.796 55.7269 596.191 55.723 624.95 174.117C626.095 178.841 628.332 183.256 631.492 186.95C634.647 190.634 638.637 193.506 643.117 195.367C647.606 197.229 652.479 198.03 657.325 197.658C662.172 197.286 666.881 195.769 671.033 193.242C775.095 129.894 894.181 248.931 830.825 352.992C828.299 357.14 826.784 361.816 826.408 366.658C826.033 371.503 826.8 376.377 828.658 380.867C830.515 385.349 833.393 389.333 837.075 392.492C840.762 395.652 845.148 397.924 849.867 399.075C968.267 427.79 968.267 596.193 849.867 624.95C845.147 626.096 840.766 628.334 837.075 631.492C833.383 634.65 830.479 638.629 828.617 643.117C826.754 647.606 825.995 652.479 826.367 657.325C826.739 662.172 828.256 666.881 830.783 671.033C894.112 775.086 775.086 894.154 671.033 830.825C666.883 828.298 662.169 826.784 657.325 826.408C652.489 826.035 647.641 826.805 643.158 828.658C638.67 830.516 634.654 833.387 631.492 837.075C628.332 840.761 626.101 845.151 624.95 849.867C596.235 968.267 427.832 968.267 399.075 849.867C397.931 845.15 395.686 840.765 392.533 837.075C389.373 833.381 385.357 830.479 380.867 828.617C376.379 826.756 371.502 825.994 366.658 826.367C361.816 826.741 357.14 828.259 352.992 830.783C248.931 894.14 129.851 775.095 193.2 671.033C195.727 666.883 197.241 662.169 197.617 657.325C197.989 652.492 197.217 647.638 195.367 643.158C193.508 638.669 190.597 634.654 186.908 631.492C183.221 628.333 178.834 626.099 174.117 624.95C55.7226 596.234 55.7264 427.838 174.117 399.075C178.832 397.933 183.219 395.684 186.908 392.533C190.602 389.373 193.504 385.357 195.367 380.867C197.229 376.377 198.031 371.504 197.658 366.658C197.284 361.82 195.763 357.139 193.242 352.992C129.882 248.928 248.928 129.84 352.992 193.2C357.133 195.741 361.815 197.273 366.658 197.658C371.503 198.043 376.375 197.264 380.867 195.408C385.362 193.548 389.374 190.65 392.533 186.95C395.692 183.25 397.942 178.847 399.075 174.117ZM511.992 383.992C478.047 383.994 445.494 397.489 421.492 421.492C397.489 445.494 383.994 478.047 383.992 511.992C383.992 545.935 397.492 578.488 421.492 602.492C445.494 626.494 478.047 639.989 511.992 639.992C545.939 639.992 578.487 626.496 602.492 602.492C626.496 578.487 639.992 545.939 639.992 511.992C639.989 478.047 626.494 445.494 602.492 421.492C578.488 397.492 545.935 383.992 511.992 383.992Z" fill="black"/>
</svg>
