<svg width="1024" height="1024" viewBox="0 0 1024 1024" fill="none" xmlns="http://www.w3.org/2000/svg">
<path fill-rule="evenodd" clip-rule="evenodd" d="M105.362 105.376C117.858 92.8803 138.115 92.8832 150.612 105.376L732.487 687.251C734.064 688.609 735.63 690.017 736.946 691.709L918.612 873.376C931.109 885.872 931.109 906.129 918.612 918.626C906.115 931.115 885.857 931.12 873.362 918.626L706.237 751.501C646.696 783.62 579.914 800.371 511.987 799.959H511.904L511.779 800.001C343.701 799.918 206.713 705.432 100.529 528.459C94.4622 518.334 94.4629 505.668 100.529 495.542C148.18 416.123 202.097 353.167 262.612 307.876L105.362 150.626C92.8723 138.131 92.8739 117.871 105.362 105.376ZM308.362 353.626C257.176 390.137 209.431 442.523 165.571 511.959C262.128 664.888 377.693 735.997 511.987 736.001H512.196C562.946 736.335 612.919 725.212 658.571 703.834L569.154 614.417C551.831 624.086 532.217 629.366 512.029 629.376C480.916 629.381 451.036 617.035 429.029 595.042C407.021 573.041 394.66 543.162 394.654 512.042C394.654 491.831 399.889 472.175 409.571 454.834L308.362 353.626ZM459.196 504.459C458.836 506.957 458.654 509.489 458.654 512.042C458.657 526.185 464.279 539.751 474.279 549.751C484.28 559.745 497.849 565.375 511.987 565.376C514.516 565.374 517.013 565.104 519.487 564.751L459.196 504.459Z" fill="black"/>
<path d="M511.987 224.042C680.164 224.042 817.216 318.494 923.446 495.542C929.517 505.67 929.516 518.331 923.446 528.459C894.04 577.468 862.239 620.222 828.029 656.417C815.888 669.254 795.62 669.847 782.779 657.709C769.946 645.57 769.399 625.3 781.529 612.459C808.332 584.1 833.954 550.638 858.362 512.001C761.809 359.104 646.271 288.001 511.987 288.001H511.904C487.995 287.94 464.13 290.299 440.696 295.042C423.383 298.541 406.5 287.352 402.987 270.042C399.482 252.724 410.672 235.846 427.987 232.334C455.633 226.737 483.782 223.976 511.987 224.042Z" fill="black"/>
</svg>
