<svg width="1024" height="1024" viewBox="0 0 1024 1024" fill="none" xmlns="http://www.w3.org/2000/svg">
<path fill-rule="evenodd" clip-rule="evenodd" d="M213.333 736C233.136 736 252.122 743.872 266.125 757.875C280.128 771.878 288 790.864 288 810.667C288 830.469 280.128 849.456 266.125 863.458C252.122 877.461 233.136 885.333 213.333 885.333C193.531 885.333 174.544 877.461 160.542 863.458C146.539 849.456 138.667 830.469 138.667 810.667C138.667 790.864 146.539 771.878 160.542 757.875C174.544 743.872 193.531 736 213.333 736ZM213.333 800C210.504 800 207.792 801.125 205.792 803.125C203.791 805.125 202.667 807.838 202.667 810.667C202.667 813.496 203.791 816.208 205.792 818.208C207.792 820.209 210.504 821.333 213.333 821.333C216.162 821.333 218.875 820.209 220.875 818.208C222.875 816.208 224 813.496 224 810.667C224 807.838 222.875 805.125 220.875 803.125C218.875 801.125 216.162 800 213.333 800Z" fill="black"/>
<path fill-rule="evenodd" clip-rule="evenodd" d="M512 736C531.803 736 550.789 743.872 564.792 757.875C578.794 771.878 586.667 790.864 586.667 810.667C586.667 830.469 578.794 849.456 564.792 863.458C550.789 877.461 531.803 885.333 512 885.333C492.197 885.333 473.211 877.461 459.208 863.458C445.206 849.456 437.333 830.469 437.333 810.667C437.333 790.864 445.206 771.878 459.208 757.875C473.211 743.872 492.197 736 512 736ZM512 800C509.171 800 506.459 801.125 504.458 803.125C502.458 805.125 501.333 807.838 501.333 810.667C501.333 813.496 502.458 816.208 504.458 818.208C506.459 820.209 509.171 821.333 512 821.333C514.829 821.333 517.541 820.209 519.542 818.208C521.542 816.208 522.667 813.496 522.667 810.667C522.667 807.838 521.542 805.125 519.542 803.125C517.541 801.125 514.829 800 512 800Z" fill="black"/>
<path fill-rule="evenodd" clip-rule="evenodd" d="M810.667 736C830.469 736 849.456 743.872 863.458 757.875C877.461 771.878 885.333 790.864 885.333 810.667C885.333 830.469 877.461 849.456 863.458 863.458C849.456 877.461 830.469 885.333 810.667 885.333C790.864 885.333 771.878 877.461 757.875 863.458C743.872 849.456 736 830.469 736 810.667C736 790.864 743.872 771.878 757.875 757.875C771.878 743.872 790.864 736 810.667 736ZM810.667 800C807.838 800 805.125 801.125 803.125 803.125C801.125 805.125 800 807.838 800 810.667C800 813.496 801.125 816.208 803.125 818.208C805.125 820.209 807.838 821.333 810.667 821.333C813.496 821.333 816.208 820.209 818.208 818.208C820.209 816.208 821.333 813.496 821.333 810.667C821.333 807.838 820.209 805.125 818.208 803.125C816.208 801.125 813.496 800 810.667 800Z" fill="black"/>
<path fill-rule="evenodd" clip-rule="evenodd" d="M213.333 437.333C233.136 437.333 252.122 445.206 266.125 459.208C280.128 473.211 288 492.197 288 512C288 531.803 280.128 550.789 266.125 564.792C252.122 578.794 233.136 586.667 213.333 586.667C193.53 586.667 174.544 578.794 160.542 564.792C146.539 550.789 138.667 531.803 138.667 512C138.667 492.197 146.539 473.211 160.542 459.208C174.544 445.206 193.53 437.333 213.333 437.333ZM213.333 501.333C210.504 501.333 207.792 502.458 205.792 504.458C203.791 506.459 202.667 509.171 202.667 512C202.667 514.829 203.791 517.541 205.792 519.542C207.792 521.542 210.504 522.667 213.333 522.667C216.162 522.667 218.875 521.542 220.875 519.542C222.875 517.541 224 514.829 224 512C224 509.171 222.875 506.459 220.875 504.458C218.875 502.458 216.162 501.333 213.333 501.333Z" fill="black"/>
<path fill-rule="evenodd" clip-rule="evenodd" d="M512 437.333C531.803 437.333 550.789 445.206 564.792 459.208C578.794 473.211 586.667 492.197 586.667 512C586.667 531.803 578.794 550.789 564.792 564.792C550.789 578.794 531.803 586.667 512 586.667C492.197 586.667 473.211 578.794 459.208 564.792C445.206 550.789 437.333 531.803 437.333 512C437.333 492.197 445.206 473.211 459.208 459.208C473.211 445.206 492.197 437.333 512 437.333ZM512 501.333C509.171 501.333 506.459 502.458 504.458 504.458C502.458 506.459 501.333 509.171 501.333 512C501.333 514.829 502.458 517.541 504.458 519.542C506.459 521.542 509.171 522.667 512 522.667C514.829 522.667 517.541 521.542 519.542 519.542C521.542 517.541 522.667 514.829 522.667 512C522.667 509.171 521.542 506.459 519.542 504.458C517.541 502.458 514.829 501.333 512 501.333Z" fill="black"/>
<path fill-rule="evenodd" clip-rule="evenodd" d="M810.667 437.333C830.47 437.333 849.456 445.206 863.458 459.208C877.461 473.211 885.333 492.197 885.333 512C885.333 531.803 877.461 550.789 863.458 564.792C849.456 578.794 830.47 586.667 810.667 586.667C790.864 586.667 771.878 578.794 757.875 564.792C743.872 550.789 736 531.803 736 512C736 492.197 743.872 473.211 757.875 459.208C771.878 445.206 790.864 437.333 810.667 437.333ZM810.667 501.333C807.838 501.333 805.125 502.458 803.125 504.458C801.125 506.459 800 509.171 800 512C800 514.829 801.125 517.541 803.125 519.542C805.125 521.542 807.838 522.667 810.667 522.667C813.496 522.667 816.208 521.542 818.208 519.542C820.209 517.541 821.333 514.829 821.333 512C821.333 509.171 820.209 506.459 818.208 504.458C816.208 502.458 813.496 501.333 810.667 501.333Z" fill="black"/>
<path fill-rule="evenodd" clip-rule="evenodd" d="M220.708 139.042C237.803 140.738 253.872 148.288 266.125 160.542C280.128 174.544 288 193.53 288 213.333C288 233.136 280.128 252.122 266.125 266.125C252.122 280.128 233.136 288 213.333 288C193.53 288 174.544 280.128 160.542 266.125C146.539 252.122 138.667 233.136 138.667 213.333C138.667 193.53 146.539 174.544 160.542 160.542C174.544 146.539 193.53 138.667 213.333 138.667L220.708 139.042ZM213.333 202.667C210.504 202.667 207.792 203.791 205.792 205.792C203.791 207.792 202.667 210.504 202.667 213.333C202.667 216.162 203.791 218.875 205.792 220.875C207.792 222.875 210.504 224 213.333 224C216.162 224 218.875 222.875 220.875 220.875C222.875 218.875 224 216.162 224 213.333C224 210.504 222.875 207.792 220.875 205.792C219.373 204.29 217.47 203.284 215.417 202.875L213.333 202.667Z" fill="black"/>
<path fill-rule="evenodd" clip-rule="evenodd" d="M519.375 139.042C536.469 140.738 552.538 148.288 564.792 160.542C578.794 174.544 586.667 193.53 586.667 213.333C586.667 233.136 578.794 252.122 564.792 266.125C550.789 280.128 531.803 288 512 288C492.197 288 473.211 280.128 459.208 266.125C445.206 252.122 437.333 233.136 437.333 213.333C437.333 193.53 445.206 174.544 459.208 160.542C473.211 146.539 492.197 138.667 512 138.667L519.375 139.042ZM512 202.667C509.171 202.667 506.459 203.791 504.458 205.792C502.458 207.792 501.333 210.504 501.333 213.333C501.333 216.162 502.458 218.875 504.458 220.875C506.459 222.875 509.171 224 512 224C514.829 224 517.541 222.875 519.542 220.875C521.542 218.875 522.667 216.162 522.667 213.333C522.667 210.504 521.542 207.792 519.542 205.792C518.04 204.29 516.136 203.284 514.083 202.875L512 202.667Z" fill="black"/>
<path fill-rule="evenodd" clip-rule="evenodd" d="M818.042 139.042C835.136 140.738 851.205 148.288 863.458 160.542C877.461 174.544 885.333 193.531 885.333 213.333C885.333 233.136 877.461 252.122 863.458 266.125C849.456 280.128 830.47 288 810.667 288C790.864 288 771.878 280.128 757.875 266.125C743.872 252.122 736 233.136 736 213.333C736 193.531 743.872 174.544 757.875 160.542C771.878 146.539 790.864 138.667 810.667 138.667L818.042 139.042ZM810.667 202.667C807.838 202.667 805.125 203.791 803.125 205.792C801.125 207.792 800 210.504 800 213.333C800 216.162 801.125 218.875 803.125 220.875C805.125 222.875 807.838 224 810.667 224C813.496 224 816.208 222.875 818.208 220.875C820.209 218.875 821.333 216.162 821.333 213.333C821.333 210.504 820.209 207.792 818.208 205.792C816.706 204.29 814.803 203.284 812.75 202.875L810.667 202.667Z" fill="black"/>
</svg>
