<svg width="1024" height="1024" viewBox="0 0 1024 1024" fill="none" xmlns="http://www.w3.org/2000/svg">
<path fill-rule="evenodd" clip-rule="evenodd" d="M263.559 120.476C317.3 94.8117 377.696 86.447 436.393 96.5178C495.072 106.593 549.207 134.588 591.309 176.684C633.414 218.794 661.446 272.952 671.518 331.643C680.285 382.758 675.005 435.139 656.559 483.309L897.31 724.059C920.274 747.033 933.185 778.201 933.185 810.685C933.18 843.17 920.28 874.339 897.31 897.31C874.339 920.28 843.17 933.18 810.685 933.185C778.201 933.185 747.033 920.274 724.059 897.31L483.309 656.559C435.139 675.005 382.758 680.285 331.643 671.518C272.952 661.446 218.794 633.414 176.684 591.309C134.588 549.207 106.593 495.072 96.5178 436.393C86.447 377.696 94.8117 317.3 120.476 263.559L122.351 260.184C127.165 252.611 134.974 247.347 143.934 245.809C154.17 244.056 164.633 247.383 171.976 254.726L311.934 394.684H394.684V311.934L254.726 171.976C247.383 164.633 244.056 154.17 245.809 143.934C247.566 133.696 254.185 124.953 263.559 120.476ZM425.559 159.559C395.572 154.414 365.008 155.496 335.726 162.476L449.309 276.059C455.3 282.059 458.684 290.206 458.684 298.684V426.684C458.675 444.344 444.344 458.675 426.684 458.684H298.684C290.206 458.684 282.059 455.3 276.059 449.309L162.476 335.726C155.496 365.008 154.414 395.572 159.559 425.559C167.395 471.207 189.226 513.309 221.976 546.059C254.728 578.804 296.829 600.603 342.476 608.434C388.126 616.264 435.098 609.771 476.893 589.809L481.559 588.018C492.684 584.708 504.917 587.667 513.309 596.059L769.309 852.06C780.281 863.021 795.175 869.185 810.685 869.185C826.196 869.18 841.091 863.028 852.06 852.06C863.028 841.091 869.18 826.196 869.185 810.685C869.185 795.175 863.021 780.281 852.06 769.309L596.059 513.309C586.472 503.722 583.969 489.129 589.809 476.893C609.771 435.098 616.264 388.126 608.434 342.476C600.603 296.829 578.804 254.728 546.059 221.976C513.309 189.226 471.207 167.395 425.559 159.559Z" fill="black"/>
</svg>
