<svg width="1024" height="1024" viewBox="0 0 1024 1024" fill="none" xmlns="http://www.w3.org/2000/svg">
<path fill-rule="evenodd" clip-rule="evenodd" d="M476.667 85.3334C510.61 85.3406 543.168 98.8287 567.167 122.833L896.125 451.792C923.404 479.076 938.75 516.084 938.75 554.667C938.75 593.249 923.404 630.257 896.125 657.542L657.542 896.125C630.257 923.404 593.249 938.75 554.667 938.75C516.084 938.75 479.076 923.404 451.792 896.125L122.833 567.167C98.8287 543.168 85.3406 510.61 85.3333 476.667V256C85.3333 210.736 103.327 167.34 135.333 135.333C167.34 103.327 210.736 85.3334 256 85.3334H476.667ZM320 234.667C298.476 234.66 277.743 242.784 261.958 257.417C246.176 272.052 236.493 292.122 234.875 313.583L234.667 320C234.667 336.877 239.665 353.384 249.042 367.417C258.416 381.445 271.746 392.375 287.333 398.833C302.926 405.292 320.114 407.001 336.667 403.708C353.214 400.414 368.403 392.264 380.333 380.333C392.264 368.403 400.414 353.214 403.708 336.667C407.001 320.114 405.292 302.926 398.833 287.333C392.374 271.746 381.445 258.416 367.417 249.042C353.384 239.665 336.877 234.667 320 234.667Z" fill="black"/>
</svg>
