<svg width="1024" height="1024" viewBox="0 0 1024 1024" fill="none" xmlns="http://www.w3.org/2000/svg">
<path fill-rule="evenodd" clip-rule="evenodd" d="M512.019 352.001C554.447 352.006 595.143 368.874 625.144 398.876C655.144 428.881 672.019 469.571 672.019 512.001C672.019 554.431 655.144 595.121 625.144 625.126C595.143 655.127 554.447 671.996 512.019 672.001C469.589 672.001 428.899 655.125 398.894 625.126C368.888 595.12 352.019 554.435 352.019 512.001C352.019 469.566 368.888 428.882 398.894 398.876C428.899 368.876 469.589 352.001 512.019 352.001ZM512.019 416.001C486.562 416.001 462.147 426.128 444.144 444.126C426.14 462.129 416.019 486.54 416.019 512.001C416.019 537.461 426.141 561.873 444.144 579.876C462.146 597.873 486.563 608.001 512.019 608.001C537.473 607.996 561.895 597.875 579.894 579.876C597.892 561.873 608.019 537.457 608.019 512.001C608.019 486.545 597.891 462.128 579.894 444.126C561.895 426.127 537.473 416.006 512.019 416.001Z" fill="black"/>
<path fill-rule="evenodd" clip-rule="evenodd" d="M412.269 166.876C443.933 72.3819 580.108 72.3786 611.769 166.876L614.602 176.667L616.019 181.334C617.716 185.902 620.211 190.153 623.394 193.876C627.644 198.839 633.024 202.748 639.061 205.251C645.101 207.75 651.668 208.798 658.186 208.292C664.702 207.784 671.021 205.737 676.602 202.334C771.073 144.799 879.237 252.905 821.727 347.417C818.332 352.994 816.276 359.325 815.769 365.834C815.264 372.353 816.309 378.918 818.811 384.959C821.312 390.997 825.222 396.374 830.186 400.626C835.125 404.852 840.997 407.869 847.311 409.417C954.817 435.515 954.859 588.487 847.352 614.584C841.008 616.123 835.106 619.135 830.144 623.376C825.178 627.626 821.273 633.005 818.769 639.042C816.265 645.087 815.221 651.644 815.727 658.167C816.233 664.69 818.28 670.998 821.686 676.584C879.225 771.053 771.114 879.211 676.602 821.709C671.031 818.317 664.688 816.26 658.186 815.751C651.673 815.247 645.097 816.296 639.061 818.792C633.023 821.292 627.647 825.206 623.394 830.167C619.155 835.119 616.149 841.002 614.602 847.334C588.516 954.863 435.526 954.859 409.436 847.334C407.896 840.99 404.885 835.088 400.644 830.126C396.396 825.162 391.011 821.256 384.977 818.751C378.938 816.249 372.369 815.207 365.852 815.709C359.334 816.214 353.019 818.266 347.436 821.667C252.959 879.223 144.788 771.102 202.311 676.584C205.703 671.009 207.762 664.674 208.269 658.167C208.773 651.651 207.726 645.081 205.227 639.042C202.728 633.006 198.812 627.628 193.852 623.376C188.902 619.138 183.016 616.09 176.686 614.542C69.1553 588.456 69.1553 435.504 176.686 409.417L181.352 408.001C185.917 406.304 190.174 403.807 193.894 400.626C198.857 396.376 202.766 390.995 205.269 384.959C207.771 378.917 208.816 372.355 208.311 365.834C207.805 359.314 205.755 353.002 202.352 347.417C144.797 252.941 252.917 144.77 347.436 202.292L352.061 204.709C375.411 215.268 403.177 202.301 409.436 176.667L412.269 166.876ZM551.269 187.876C538.8 150.714 485.241 150.717 472.769 187.876L471.644 191.751C455.279 259.049 380.254 292.048 319.977 260.251L314.186 256.959C276.959 234.295 234.386 276.9 257.019 314.084L260.102 319.501C266.902 332.296 271.019 346.385 272.144 360.876C273.428 377.442 270.753 394.108 264.394 409.459C258.034 424.803 248.136 438.45 235.519 449.251C222.905 460.045 207.902 467.71 191.769 471.626C150.783 481.569 149.484 538.364 187.894 551.251L191.769 552.376L197.769 554.001C211.615 558.247 224.487 565.341 235.519 574.792C248.115 585.591 258.002 599.214 264.352 614.542C270.703 629.884 273.341 646.53 272.061 663.084C270.779 679.635 265.609 695.655 256.977 709.834C234.313 747.061 276.918 789.634 314.102 767.001L319.519 763.917C332.313 757.12 346.405 753 360.894 751.876C377.457 750.595 394.129 753.267 409.477 759.626C424.818 765.987 438.47 775.883 449.269 788.501C460.062 801.118 467.73 816.115 471.644 832.251C481.913 874.561 542.129 874.564 552.394 832.251L554.019 826.251C558.265 812.4 565.356 799.536 574.811 788.501C585.609 775.903 599.231 766.018 614.561 759.667C629.9 753.319 646.551 750.678 663.102 751.959C679.649 753.243 695.677 758.411 709.852 767.042C745.912 788.979 786.975 749.695 768.936 713.417L767.019 709.917C758.369 695.731 753.18 679.692 751.894 663.126C750.609 646.556 753.283 629.896 759.644 614.542C766.005 599.197 775.898 585.552 788.519 574.751C801.136 563.958 816.133 556.289 832.269 552.376L836.144 551.251C873.285 538.773 873.285 485.229 836.144 472.751L832.269 471.626C816.136 467.703 801.129 460.009 788.519 449.209C775.919 438.411 766.037 424.789 759.686 409.459C753.332 394.116 750.696 377.475 751.977 360.917C753.259 344.364 758.426 328.348 767.061 314.167C789.004 278.109 749.713 237.052 713.436 255.084L709.936 257.001C695.754 265.648 679.704 270.838 663.144 272.126C646.58 273.41 629.91 270.732 614.561 264.376C599.217 258.016 585.57 248.119 574.769 235.501C563.972 222.883 556.309 207.889 552.394 191.751L551.269 187.876Z" fill="black"/>
</svg>
