<svg width="1024" height="1024" viewBox="0 0 1024 1024" fill="none" xmlns="http://www.w3.org/2000/svg">
<path fill-rule="evenodd" clip-rule="evenodd" d="M320 245.333C339.803 245.333 358.789 253.206 372.792 267.208C386.794 281.211 394.667 300.197 394.667 320C394.667 339.803 386.794 358.789 372.792 372.792C358.789 386.794 339.803 394.667 320 394.667C300.197 394.667 281.211 386.794 267.208 372.792C253.206 358.789 245.333 339.803 245.333 320C245.333 300.197 253.206 281.211 267.208 267.208C281.211 253.206 300.197 245.333 320 245.333ZM320 309.333C317.171 309.333 314.459 310.458 312.458 312.458C310.458 314.459 309.333 317.171 309.333 320C309.333 322.829 310.458 325.541 312.458 327.542C314.459 329.542 317.171 330.667 320 330.667C322.829 330.667 325.541 329.542 327.542 327.542C329.542 325.541 330.667 322.829 330.667 320C330.667 317.171 329.542 314.459 327.542 312.458C325.541 310.458 322.829 309.333 320 309.333Z" fill="black"/>
<path fill-rule="evenodd" clip-rule="evenodd" d="M476.667 96C507.78 96.0066 537.626 108.373 559.625 130.375L888.583 459.333C913.864 484.618 928.083 518.912 928.083 554.667C928.083 590.421 913.864 624.716 888.583 650L650 888.583C624.716 913.864 590.421 928.083 554.667 928.083C518.912 928.083 484.618 913.864 459.333 888.583L130.375 559.625C108.373 537.626 96.0066 507.78 96 476.667V256C96 213.565 112.869 172.881 142.875 142.875C172.881 112.869 213.565 96 256 96H476.667ZM256 160C230.539 160 206.128 170.122 188.125 188.125C170.122 206.128 160 230.539 160 256V476.667L160.25 481.917C161.461 494.132 166.868 505.62 175.625 514.375L504.583 843.333C517.866 856.614 535.884 864.083 554.667 864.083C573.449 864.083 591.468 856.614 604.75 843.333L843.333 604.75C856.614 591.468 864.083 573.449 864.083 554.667C864.083 535.884 856.614 517.866 843.333 504.583L514.375 175.625C505.62 166.868 494.132 161.461 481.917 160.25L476.667 160H256Z" fill="black"/>
</svg>
