<svg width="1024" height="1024" viewBox="0 0 1024 1024" fill="none" xmlns="http://www.w3.org/2000/svg">
<path d="M341.333 533.333C359.006 533.333 373.333 547.66 373.333 565.333V693.333C373.333 711.007 359.006 725.333 341.333 725.333C323.66 725.333 309.333 711.007 309.333 693.333V565.333C309.333 547.66 323.66 533.333 341.333 533.333Z" fill="black"/>
<path d="M512 533.333C529.673 533.333 544 547.66 544 565.333V693.333C544 711.007 529.673 725.333 512 725.333C494.327 725.333 480 711.007 480 693.333V565.333C480 547.66 494.327 533.333 512 533.333Z" fill="black"/>
<path d="M682.667 533.333C700.34 533.333 714.667 547.66 714.667 565.333V693.333C714.667 711.007 700.34 725.333 682.667 725.333C664.994 725.333 650.667 711.007 650.667 693.333V565.333C650.667 547.66 664.994 533.333 682.667 533.333Z" fill="black"/>
<path fill-rule="evenodd" clip-rule="evenodd" d="M896 362.667C913.673 362.667 928 376.994 928 394.667C928 412.34 913.673 426.667 896 426.667H885.333V832H896C913.673 832 928 846.327 928 864C928 881.673 913.673 896 896 896H128C110.327 896 96 881.673 96 864C96 846.327 110.327 832 128 832H138.667V426.667H128C110.327 426.667 96 412.34 96 394.667C96 376.994 110.327 362.667 128 362.667H896ZM202.667 832H821.333V426.667H202.667V832Z" fill="black"/>
<path d="M502.458 129.458C509.705 127.194 517.581 127.565 524.625 130.583L823.292 258.583C839.525 265.55 847.043 284.386 840.083 300.625C833.116 316.859 814.281 324.376 798.042 317.417L512 194.792L225.958 317.417C209.719 324.376 190.884 316.859 183.917 300.625C176.957 284.386 184.475 265.55 200.708 258.583L499.375 130.583L502.458 129.458Z" fill="black"/>
</svg>
