<svg width="1024" height="1024" viewBox="0 0 1024 1024" fill="none" xmlns="http://www.w3.org/2000/svg">
<path d="M597.333 608C651.084 608 702.618 629.368 740.625 667.375C778.632 705.382 800 756.916 800 810.667V896C800 913.673 785.673 928 768 928C750.327 928 736 913.673 736 896V810.667C736 773.89 721.38 738.63 695.375 712.625C670.995 688.245 638.482 673.867 604.208 672.167L597.333 672H426.667C389.89 672 354.63 686.62 328.625 712.625C302.62 738.63 288 773.89 288 810.667V896C288 913.673 273.673 928 256 928C238.327 928 224 913.673 224 896V810.667C224 756.916 245.368 705.382 283.375 667.375C321.382 629.368 372.916 608 426.667 608H597.333Z" fill="black"/>
<path fill-rule="evenodd" clip-rule="evenodd" d="M512 96C565.751 96 617.284 117.368 655.292 155.375C693.299 193.382 714.667 244.916 714.667 298.667L714.417 308.708C711.933 358.803 690.925 406.325 655.292 441.958C619.658 477.592 572.136 498.6 522.042 501.083L512 501.333C458.249 501.333 406.716 479.966 368.708 441.958C333.075 406.325 312.067 358.803 309.583 308.708L309.333 298.667C309.333 244.916 330.701 193.382 368.708 155.375C406.716 117.368 458.249 96 512 96ZM512 160C475.223 160 439.963 174.62 413.958 200.625C387.953 226.63 373.333 261.89 373.333 298.667L373.5 305.542C375.2 339.815 389.578 372.328 413.958 396.708C439.963 422.713 475.223 437.333 512 437.333L518.875 437.167C553.149 435.467 585.662 421.088 610.042 396.708C636.047 370.703 650.667 335.443 650.667 298.667L650.5 291.792C648.8 257.518 634.422 225.005 610.042 200.625C585.662 176.245 553.149 161.867 518.875 160.167L512 160Z" fill="black"/>
</svg>
