<svg width="1024" height="1024" viewBox="0 0 1024 1024" fill="none" xmlns="http://www.w3.org/2000/svg">
<path d="M341.333 352C359.006 352 373.333 366.327 373.333 384C373.333 401.673 359.006 416 341.333 416H298.667C284.522 416 270.96 421.623 260.958 431.625C250.956 441.627 245.333 455.188 245.333 469.333V810.667L245.583 815.958C246.799 828.16 252.211 839.628 260.958 848.375C270.96 858.377 284.522 864 298.667 864H725.333C739.478 864 753.04 858.377 763.042 848.375C773.044 838.373 778.667 824.812 778.667 810.667V469.333C778.667 455.188 773.044 441.627 763.042 431.625C753.04 421.623 739.478 416 725.333 416H682.667C664.994 416 650.667 401.673 650.667 384C650.667 366.327 664.994 352 682.667 352H725.333C756.452 352 786.287 364.371 808.292 386.375C830.296 408.379 842.667 438.215 842.667 469.333V810.667C842.667 841.785 830.296 871.621 808.292 893.625C786.287 915.629 756.452 928 725.333 928H298.667C267.548 928 237.713 915.629 215.708 893.625C193.704 871.621 181.333 841.785 181.333 810.667V469.333C181.333 438.215 193.704 408.379 215.708 386.375C237.713 364.371 267.548 352 298.667 352H341.333Z" fill="black"/>
<path d="M513.083 96.0417C513.361 96.0512 513.639 96.0666 513.917 96.0833C515.58 96.1817 517.206 96.407 518.792 96.75C520.211 97.0579 521.583 97.539 522.958 98.0417C523.491 98.2366 524.064 98.3197 524.583 98.5417C525.398 98.8895 526.128 99.4149 526.917 99.8333C527.932 100.372 528.97 100.859 529.917 101.5C531.574 102.623 533.157 103.907 534.625 105.375L662.625 233.375C675.122 245.872 675.122 266.128 662.625 278.625C650.128 291.122 629.872 291.122 617.375 278.625L544 205.25V597.333C544 615.006 529.673 629.333 512 629.333C494.327 629.333 480 615.006 480 597.333V205.25L406.625 278.625C394.128 291.122 373.872 291.122 361.375 278.625C348.878 266.128 348.878 245.872 361.375 233.375L489.375 105.375L491.792 103.167C492.227 102.812 492.718 102.537 493.167 102.208C493.83 101.723 494.508 101.267 495.208 100.833C496.228 100.202 497.264 99.6308 498.333 99.125C499.109 98.7573 499.9 98.4306 500.708 98.125C501.885 97.6817 503.08 97.3414 504.292 97.0417C505.148 96.8292 505.993 96.5586 506.875 96.4167C507.347 96.3408 507.818 96.263 508.292 96.2083C509.508 96.068 510.746 96 512 96C512.363 96 512.723 96.0297 513.083 96.0417Z" fill="black"/>
</svg>
