<svg width="1024" height="1024" viewBox="0 0 1024 1024" fill="none" xmlns="http://www.w3.org/2000/svg">
<path d="M426.667 437.333C444.34 437.333 458.667 451.66 458.667 469.333V725.333C458.667 743.006 444.34 757.333 426.667 757.333C408.994 757.333 394.667 743.006 394.667 725.333V469.333C394.667 451.66 408.994 437.333 426.667 437.333Z" fill="black"/>
<path d="M597.333 437.333C615.006 437.333 629.333 451.66 629.333 469.333V725.333C629.333 743.006 615.006 757.333 597.333 757.333C579.66 757.333 565.333 743.006 565.333 725.333V469.333C565.333 451.66 579.66 437.333 597.333 437.333Z" fill="black"/>
<path fill-rule="evenodd" clip-rule="evenodd" d="M597.333 96C617.136 96 636.122 103.872 650.125 117.875C664.128 131.878 672 150.864 672 170.667V266.667H853.333C871.006 266.667 885.333 280.994 885.333 298.667C885.333 316.34 871.006 330.667 853.333 330.667H840.083L799.875 813.333C799.19 843.485 786.999 872.251 765.625 893.625C743.621 915.629 713.785 928 682.667 928H341.333C310.215 928 280.379 915.629 258.375 893.625C237.001 872.251 224.81 843.485 224.125 813.333L183.917 330.667H170.667C152.994 330.667 138.667 316.34 138.667 298.667C138.667 280.994 152.994 266.667 170.667 266.667H352V170.667C352 150.864 359.872 131.878 373.875 117.875C387.878 103.872 406.864 96 426.667 96H597.333ZM287.875 808C287.949 808.884 288 809.78 288 810.667C288 824.812 293.623 838.373 303.625 848.375C313.627 858.377 327.188 864 341.333 864H682.667C696.812 864 710.373 858.377 720.375 848.375C730.377 838.373 736 824.812 736 810.667C736 809.78 736.051 808.884 736.125 808L775.917 330.667H248.083L287.875 808ZM426.667 160C423.838 160 421.125 161.125 419.125 163.125C417.125 165.125 416 167.838 416 170.667V266.667H608V170.667C608 167.838 606.875 165.125 604.875 163.125C603.373 161.623 601.47 160.617 599.417 160.208L597.333 160H426.667Z" fill="black"/>
</svg>
