<svg width="1024" height="1024" viewBox="0 0 1024 1024" fill="none" xmlns="http://www.w3.org/2000/svg">
<path d="M213.333 725.333C235.965 725.333 257.664 734.33 273.667 750.333C289.67 766.336 298.667 788.035 298.667 810.667C298.667 833.298 289.67 854.997 273.667 871C257.664 887.003 235.965 896 213.333 896C190.702 896 169.003 887.003 153 871C136.997 854.997 128 833.298 128 810.667C128 788.035 136.997 766.336 153 750.333C169.003 734.33 190.702 725.333 213.333 725.333Z" fill="black"/>
<path d="M512 725.333C534.632 725.333 556.33 734.33 572.333 750.333C588.336 766.336 597.333 788.035 597.333 810.667C597.333 833.298 588.336 854.997 572.333 871C556.33 887.003 534.632 896 512 896C489.368 896 467.67 887.003 451.667 871C435.664 854.997 426.667 833.298 426.667 810.667C426.667 788.035 435.664 766.336 451.667 750.333C467.67 734.33 489.368 725.333 512 725.333Z" fill="black"/>
<path d="M810.667 725.333C833.298 725.333 854.997 734.33 871 750.333C887.003 766.337 896 788.035 896 810.667C896 833.298 887.003 854.997 871 871C854.997 887.003 833.298 896 810.667 896C788.035 896 766.337 887.003 750.333 871C734.33 854.997 725.333 833.298 725.333 810.667C725.333 788.035 734.33 766.337 750.333 750.333C766.337 734.33 788.035 725.333 810.667 725.333Z" fill="black"/>
<path d="M213.333 426.667C235.965 426.667 257.664 435.664 273.667 451.667C289.67 467.67 298.667 489.368 298.667 512C298.667 534.632 289.67 556.33 273.667 572.333C257.664 588.336 235.965 597.333 213.333 597.333C190.701 597.333 169.003 588.336 153 572.333C136.997 556.33 128 534.632 128 512C128 489.368 136.997 467.67 153 451.667C169.003 435.664 190.701 426.667 213.333 426.667Z" fill="black"/>
<path d="M512 426.667C534.632 426.667 556.33 435.664 572.333 451.667C588.336 467.67 597.333 489.368 597.333 512C597.333 534.632 588.336 556.33 572.333 572.333C556.33 588.336 534.632 597.333 512 597.333C489.368 597.333 467.67 588.336 451.667 572.333C435.664 556.33 426.667 534.632 426.667 512C426.667 489.368 435.664 467.67 451.667 451.667C467.67 435.664 489.368 426.667 512 426.667Z" fill="black"/>
<path d="M810.667 426.667C833.298 426.667 854.997 435.664 871 451.667C887.003 467.67 896 489.368 896 512C896 534.632 887.003 556.33 871 572.333C854.997 588.336 833.298 597.333 810.667 597.333C788.035 597.333 766.336 588.336 750.333 572.333C734.33 556.33 725.333 534.632 725.333 512C725.333 489.368 734.33 467.67 750.333 451.667C766.336 435.664 788.035 426.667 810.667 426.667Z" fill="black"/>
<path d="M221.75 128.417C241.291 130.353 259.66 138.993 273.667 153C289.67 169.003 298.667 190.701 298.667 213.333C298.667 235.965 289.67 257.664 273.667 273.667C257.664 289.67 235.965 298.667 213.333 298.667C190.701 298.667 169.003 289.67 153 273.667C136.997 257.664 128 235.965 128 213.333C128 190.701 136.997 169.003 153 153C169.003 136.997 190.701 128 213.333 128L221.75 128.417Z" fill="black"/>
<path d="M520.417 128.417C539.958 130.353 558.326 138.993 572.333 153C588.336 169.003 597.333 190.701 597.333 213.333C597.333 235.965 588.336 257.664 572.333 273.667C556.33 289.67 534.632 298.667 512 298.667C489.368 298.667 467.67 289.67 451.667 273.667C435.664 257.664 426.667 235.965 426.667 213.333C426.667 190.701 435.664 169.003 451.667 153C467.67 136.997 489.368 128 512 128L520.417 128.417Z" fill="black"/>
<path d="M819.083 128.417C838.625 130.353 856.993 138.993 871 153C887.003 169.003 896 190.702 896 213.333C896 235.965 887.003 257.664 871 273.667C854.997 289.67 833.298 298.667 810.667 298.667C788.035 298.667 766.336 289.67 750.333 273.667C734.33 257.664 725.333 235.965 725.333 213.333C725.333 190.702 734.33 169.003 750.333 153C766.336 136.997 788.035 128 810.667 128L819.083 128.417Z" fill="black"/>
</svg>
