<svg width="1024" height="1024" viewBox="0 0 1024 1024" fill="none" xmlns="http://www.w3.org/2000/svg">
<path d="M589.5 754.292C607.172 754.293 621.5 768.619 621.5 786.292C621.496 803.96 607.17 818.29 589.5 818.292H589.208C571.538 818.292 557.212 803.961 557.208 786.292C557.208 768.618 571.535 754.292 589.208 754.292H589.5Z" fill="black"/>
<path d="M767 754.292C784.666 754.3 799 768.624 799 786.292C798.996 803.956 784.664 818.283 767 818.292H703C685.329 818.292 671.004 803.961 671 786.292C671 768.618 685.327 754.292 703 754.292H767Z" fill="black"/>
<path fill-rule="evenodd" clip-rule="evenodd" d="M860.458 522.667C889.019 522.67 916.818 533.253 937.625 552.708C958.501 572.231 970.662 599.194 970.667 627.792V822.875C970.662 851.472 958.501 878.436 937.625 897.958C916.818 917.414 889.019 927.996 860.458 928H547.542C518.981 927.996 491.182 917.414 470.375 897.958C449.499 878.436 437.338 851.472 437.333 822.875V627.792C437.338 599.194 449.499 572.231 470.375 552.708C491.182 533.253 518.981 522.67 547.542 522.667H860.458ZM501.333 822.875C501.338 833.059 505.636 843.306 514.083 851.208C522.609 859.18 534.621 863.996 547.542 864H860.458C873.379 863.996 885.391 859.18 893.917 851.208C902.364 843.307 906.662 833.059 906.667 822.875V714.667H512C508.244 714.667 504.682 713.897 501.333 712.708V822.875ZM547.542 586.667C534.621 586.67 522.609 591.486 514.083 599.458C505.636 607.36 501.338 617.608 501.333 627.792V652.583C504.678 651.397 508.249 650.667 512 650.667H906.667V627.792C906.662 617.608 902.364 607.36 893.917 599.458C885.391 591.486 873.379 586.67 860.458 586.667H547.542Z" fill="black"/>
<path d="M896 352C913.673 352 928 366.327 928 384C928 401.673 913.673 416 896 416H885.333V469.333C885.333 487.006 871.006 501.333 853.333 501.333C835.66 501.333 821.333 487.006 821.333 469.333V416H202.667V821.333H384C401.673 821.333 416 835.66 416 853.333C416 871.006 401.673 885.333 384 885.333H128C110.327 885.333 96 871.006 96 853.333C96 835.66 110.327 821.333 128 821.333H138.667V416H128C110.327 416 96 401.673 96 384C96 366.327 110.327 352 128 352H896Z" fill="black"/>
<path d="M341.333 522.667C359.006 522.667 373.333 536.994 373.333 554.667V682.667C373.333 700.34 359.006 714.667 341.333 714.667C323.66 714.667 309.333 700.34 309.333 682.667V554.667C309.333 536.994 323.66 522.667 341.333 522.667Z" fill="black"/>
<path d="M502.458 97.4582C509.705 95.1939 517.581 95.5645 524.625 98.5832L823.292 226.583C839.525 233.55 847.043 252.386 840.083 268.625C833.116 284.859 814.281 292.376 798.042 285.417L512 162.792L225.958 285.417C209.719 292.376 190.884 284.859 183.917 268.625C176.957 252.386 184.475 233.55 200.708 226.583L499.375 98.5832L502.458 97.4582Z" fill="black"/>
</svg>
