<svg width="1024" height="1024" viewBox="0 0 1024 1024" fill="none" xmlns="http://www.w3.org/2000/svg">
<path fill-rule="evenodd" clip-rule="evenodd" d="M511.989 394.667C543.105 394.667 572.943 407.041 594.947 429.042C616.951 451.046 629.322 480.881 629.322 512C629.322 543.119 616.951 572.954 594.947 594.958C572.943 616.959 543.105 629.333 511.989 629.333C480.874 629.33 451.032 616.96 429.03 594.958C407.03 572.955 394.655 543.116 394.655 512C394.655 480.884 407.03 451.045 429.03 429.042C451.032 407.04 480.874 394.67 511.989 394.667ZM511.989 458.667C497.848 458.67 484.28 464.292 474.28 474.292C464.282 484.293 458.655 497.858 458.655 512C458.655 526.142 464.282 539.707 474.28 549.708C484.28 559.708 497.848 565.33 511.989 565.333C526.131 565.333 539.696 559.707 549.697 549.708C559.699 539.706 565.322 526.145 565.322 512C565.322 497.855 559.699 484.294 549.697 474.292C539.696 464.293 526.131 458.667 511.989 458.667Z" fill="black"/>
<path fill-rule="evenodd" clip-rule="evenodd" d="M511.989 224C680.165 224 817.218 318.495 923.447 495.542C929.518 505.669 929.518 518.331 923.447 528.458C817.218 705.505 680.165 800 511.989 800C343.816 799.996 206.758 705.504 100.53 528.458C94.4639 518.333 94.4639 505.667 100.53 495.542C206.758 318.496 343.816 224.004 511.989 224ZM511.989 288C377.703 288.004 262.126 359.092 165.572 512C262.126 664.908 377.703 735.996 511.989 736C646.272 736 761.811 664.896 858.364 512C761.811 359.104 646.272 288 511.989 288Z" fill="black"/>
</svg>
