<svg width="1024" height="1024" viewBox="0 0 1024 1024" fill="none" xmlns="http://www.w3.org/2000/svg">
<path d="M469.333 608C523.084 608 574.618 629.368 612.625 667.375C650.632 705.382 672 756.916 672 810.667V896C672 913.673 657.673 928 640 928C622.327 928 608 913.673 608 896V810.667C608 773.89 593.38 738.63 567.375 712.625C542.995 688.245 510.482 673.867 476.208 672.167L469.333 672H298.667C261.89 672 226.63 686.62 200.625 712.625C174.62 738.63 160 773.89 160 810.667V896C160 913.673 145.673 928 128 928C110.327 928 96 913.673 96 896V810.667C96 756.916 117.368 705.382 155.375 667.375C193.382 629.368 244.916 608 298.667 608H469.333Z" fill="black"/>
<path d="M737 638.417C741.418 621.306 758.889 611.001 776 615.417C819.308 626.599 857.715 651.802 885.208 687.083C912.698 722.366 927.743 765.774 928 810.5V896C927.992 913.666 913.668 928 896 928C878.332 928 864.008 913.666 864 896V810.875L863.458 799.458C861.115 772.941 851.167 747.543 834.708 726.417C815.899 702.284 789.625 685.067 760 677.417C742.894 673 732.594 655.523 737 638.417Z" fill="black"/>
<path fill-rule="evenodd" clip-rule="evenodd" d="M384 96C437.751 96 489.284 117.368 527.292 155.375C565.299 193.382 586.667 244.916 586.667 298.667L586.417 308.708C583.933 358.803 562.925 406.325 527.292 441.958C491.658 477.592 444.136 498.6 394.042 501.083L384 501.333C330.249 501.333 278.716 479.966 240.708 441.958C205.075 406.325 184.067 358.803 181.583 308.708L181.333 298.667C181.333 244.916 202.701 193.382 240.708 155.375C278.716 117.368 330.249 96 384 96ZM384 160C347.223 160 311.963 174.62 285.958 200.625C259.953 226.63 245.333 261.89 245.333 298.667L245.5 305.542C247.2 339.815 261.578 372.328 285.958 396.708C311.963 422.713 347.223 437.333 384 437.333L390.875 437.167C425.149 435.467 457.662 421.088 482.042 396.708C508.047 370.703 522.667 335.443 522.667 298.667L522.5 291.792C520.8 257.518 506.422 225.005 482.042 200.625C457.662 176.245 425.149 161.867 390.875 160.167L384 160Z" fill="black"/>
<path d="M651.667 125.625C656.051 108.514 673.471 98.172 690.583 102.542C734.176 113.703 772.824 139.079 800.417 174.625C828.006 210.171 842.999 253.878 843 298.875L842.833 307.292C841.088 349.303 826.282 389.799 800.417 423.125C772.824 458.673 734.177 484.046 690.583 495.208C673.469 499.579 656.049 489.239 651.667 472.125C647.299 455.012 657.637 437.59 674.75 433.208C704.566 425.569 731 408.229 749.875 383.917C766.393 362.636 776.322 337.058 778.542 310.375L779 298.875C778.999 268.087 768.753 238.154 749.875 213.833C731 189.523 704.565 172.18 674.75 164.542C657.636 160.159 647.296 142.739 651.667 125.625Z" fill="black"/>
</svg>
