<?xml version="1.0" encoding="UTF-8" standalone="no"?>
<svg width="1024" height="1024" viewBox="0 0 1024 1024" fill="none" xmlns="http://www.w3.org/2000/svg">
<path d="M298.667 224C316.34 224 330.667 238.327 330.667 256V768C330.667 785.673 316.34 800 298.667 800C280.994 800 266.667 785.673 266.667 768V256C266.667 238.327 280.994 224 298.667 224Z" fill="black"/>
<path d="M745.375 233.375C757.872 220.878 778.128 220.878 790.625 233.375C803.122 245.872 803.122 266.128 790.625 278.625L557.25 512L790.625 745.375C803.122 757.872 803.122 778.128 790.625 790.625C778.128 803.122 757.872 803.122 745.375 790.625L489.375 534.625C476.878 522.128 476.878 501.872 489.375 489.375L745.375 233.375Z" fill="black"/>
</svg>