<?xml version="1.0" encoding="UTF-8" standalone="no"?>
<svg width="1024" height="1024" viewBox="0 0 1024 1024" fill="none" xmlns="http://www.w3.org/2000/svg">
<path d="M170.667 650.667C188.34 650.667 202.667 664.994 202.667 682.667V768L202.917 773.292C204.133 785.494 209.545 796.961 218.292 805.708C228.294 815.71 241.855 821.333 256 821.333H341.333C359.006 821.333 373.333 835.66 373.333 853.333C373.333 871.006 359.006 885.333 341.333 885.333H256C224.881 885.333 195.046 872.963 173.042 850.958C151.037 828.954 138.667 799.119 138.667 768V682.667C138.667 664.994 152.994 650.667 170.667 650.667Z" fill="black"/>
<path d="M853.333 650.667C871.006 650.667 885.333 664.994 885.333 682.667V768C885.333 799.119 872.963 828.954 850.958 850.958C828.954 872.963 799.119 885.333 768 885.333H682.667C664.994 885.333 650.667 871.006 650.667 853.333C650.667 835.66 664.994 821.333 682.667 821.333H768C782.145 821.333 795.706 815.71 805.708 805.708C815.71 795.706 821.333 782.145 821.333 768V682.667C821.333 664.994 835.66 650.667 853.333 650.667Z" fill="black"/>
<path d="M597.333 565.333C628.452 565.333 658.287 577.704 680.292 599.708C702.296 621.713 714.667 651.548 714.667 682.667C714.667 700.34 700.34 714.667 682.667 714.667C664.994 714.667 650.667 700.34 650.667 682.667C650.667 668.522 645.044 654.96 635.042 644.958C625.04 634.956 611.478 629.333 597.333 629.333H426.667C412.522 629.333 398.96 634.956 388.958 644.958C378.956 654.96 373.333 668.522 373.333 682.667C373.333 700.34 359.006 714.667 341.333 714.667C323.66 714.667 309.333 700.34 309.333 682.667C309.333 651.548 321.704 621.713 343.708 599.708C365.713 577.704 395.548 565.333 426.667 565.333H597.333Z" fill="black"/>
<path fill-rule="evenodd" clip-rule="evenodd" d="M523.583 267.25C550.448 269.915 575.702 281.785 594.958 301.042C616.963 323.046 629.333 352.881 629.333 384C629.333 415.119 616.963 444.954 594.958 466.958C572.954 488.963 543.119 501.333 512 501.333C480.881 501.333 451.046 488.963 429.042 466.958C407.037 444.954 394.667 415.119 394.667 384C394.667 352.881 407.037 323.046 429.042 301.042C451.046 279.037 480.881 266.667 512 266.667L523.583 267.25ZM512 330.667C497.855 330.667 484.294 336.29 474.292 346.292C464.29 356.294 458.667 369.855 458.667 384C458.667 398.145 464.29 411.706 474.292 421.708C484.294 431.71 497.855 437.333 512 437.333C526.145 437.333 539.706 431.71 549.708 421.708C559.71 411.706 565.333 398.145 565.333 384C565.333 369.855 559.71 356.294 549.708 346.292C540.961 337.545 529.494 332.133 517.292 330.917L512 330.667Z" fill="black"/>
<path d="M341.333 138.667C359.006 138.667 373.333 152.994 373.333 170.667C373.333 188.34 359.006 202.667 341.333 202.667H256C241.855 202.667 228.294 208.29 218.292 218.292C208.29 228.294 202.667 241.855 202.667 256V341.333C202.667 359.006 188.34 373.333 170.667 373.333C152.994 373.333 138.667 359.006 138.667 341.333V256C138.667 224.881 151.037 195.046 173.042 173.042C195.046 151.037 224.881 138.667 256 138.667H341.333Z" fill="black"/>
<path d="M768 138.667C799.119 138.667 828.954 151.037 850.958 173.042C872.963 195.046 885.333 224.881 885.333 256V341.333C885.333 359.006 871.006 373.333 853.333 373.333C835.66 373.333 821.333 359.006 821.333 341.333V256C821.333 241.855 815.71 228.294 805.708 218.292C796.961 209.545 785.494 204.133 773.292 202.917L768 202.667H682.667C664.994 202.667 650.667 188.34 650.667 170.667C650.667 152.994 664.994 138.667 682.667 138.667H768Z" fill="black"/>
</svg>