<svg width="1024" height="1024" viewBox="0 0 1024 1024" fill="none" xmlns="http://www.w3.org/2000/svg">
<path fill-rule="evenodd" clip-rule="evenodd" d="M512 394.667C554.435 394.667 595.119 411.536 625.125 441.542C655.131 471.547 672 512.232 672 554.667C672 597.101 655.131 637.786 625.125 667.792C595.119 697.797 554.435 714.667 512 714.667C469.565 714.667 428.881 697.797 398.875 667.792C368.869 637.786 352 597.101 352 554.667C352 512.232 368.869 471.547 398.875 441.542C428.881 411.536 469.565 394.667 512 394.667ZM512 458.667C486.539 458.667 462.128 468.788 444.125 486.792C426.122 504.795 416 529.206 416 554.667C416 580.127 426.122 604.538 444.125 622.542C462.128 640.545 486.539 650.667 512 650.667C537.461 650.667 561.872 640.545 579.875 622.542C597.878 604.538 608 580.127 608 554.667C608 529.206 597.878 504.795 579.875 486.792C561.872 468.788 537.461 458.667 512 458.667Z" fill="black"/>
<path fill-rule="evenodd" clip-rule="evenodd" d="M640 138.667C659.803 138.667 678.789 146.539 692.792 160.542C706.794 174.544 714.667 193.53 714.667 213.333C714.667 227.478 720.29 241.04 730.292 251.042C740.294 261.044 753.855 266.667 768 266.667H810.667C841.785 266.667 871.621 279.037 893.625 301.042C915.629 323.046 928 352.881 928 384V768C928 799.119 915.629 828.954 893.625 850.958C871.621 872.963 841.785 885.333 810.667 885.333H213.333C182.215 885.333 152.379 872.963 130.375 850.958C108.371 828.954 96 799.119 96 768V384C96 352.881 108.371 323.046 130.375 301.042C152.379 279.037 182.215 266.667 213.333 266.667H256L261.292 266.417C273.494 265.201 284.961 259.789 293.708 251.042C302.455 242.294 307.867 230.827 309.083 218.625L309.333 213.333C309.333 193.53 317.206 174.544 331.208 160.542C345.211 146.539 364.197 138.667 384 138.667H640ZM384 202.667C381.171 202.667 378.459 203.791 376.458 205.792C374.458 207.792 373.333 210.504 373.333 213.333L372.75 224.917C370.085 251.782 358.215 277.035 338.958 296.292C316.954 318.296 287.119 330.667 256 330.667H213.333C199.188 330.667 185.627 336.29 175.625 346.292C165.623 356.294 160 369.855 160 384V768C160 782.145 165.623 795.706 175.625 805.708C185.627 815.71 199.188 821.333 213.333 821.333H810.667C824.812 821.333 838.373 815.71 848.375 805.708C858.377 795.706 864 782.145 864 768V384C864 369.855 858.377 356.294 848.375 346.292C839.628 337.544 828.16 332.133 815.958 330.917L810.667 330.667H768C736.881 330.667 707.046 318.296 685.042 296.292C663.037 274.287 650.667 244.452 650.667 213.333C650.667 210.504 649.542 207.792 647.542 205.792C645.541 203.791 642.829 202.667 640 202.667H384Z" fill="black"/>
</svg>
