<?xml version="1.0" encoding="UTF-8" standalone="no"?>
<svg width="1024" height="1024" viewBox="0 0 1024 1024" fill="none" xmlns="http://www.w3.org/2000/svg">
<path d="M276.044 276.044C288.541 263.547 308.798 263.547 321.294 276.044L534.628 489.377C547.117 501.875 547.122 522.133 534.628 534.627L321.294 747.961C308.8 760.454 288.542 760.449 276.044 747.961C263.548 735.464 263.548 715.207 276.044 702.711L466.753 512.002L276.044 321.294C263.548 308.798 263.549 288.541 276.044 276.044Z" fill="black"/>
<path d="M532.044 276.044C544.541 263.547 564.798 263.547 577.294 276.044L790.628 489.377C803.117 501.875 803.122 522.133 790.628 534.627L577.294 747.961C564.8 760.454 544.542 760.45 532.044 747.961C519.548 735.464 519.548 715.207 532.044 702.711L722.753 512.002L532.044 321.294C519.548 308.798 519.549 288.541 532.044 276.044Z" fill="black"/>
</svg>