<?xml version="1.0" encoding="UTF-8" standalone="no"?>
<svg width="1024" height="1024" viewBox="0 0 1024 1024" fill="none" xmlns="http://www.w3.org/2000/svg">
<path d="M446.711 276.044C459.208 263.547 479.465 263.547 491.961 276.044C504.45 288.542 504.455 308.8 491.961 321.294L301.253 512.002L491.961 702.711L494.17 705.127C504.416 717.696 503.675 736.247 491.961 747.961C480.247 759.674 461.696 760.415 449.128 750.169L446.711 747.961L233.378 534.627C220.881 522.131 220.882 501.874 233.378 489.377L446.711 276.044Z" fill="black"/>
<path d="M702.711 276.044C715.208 263.547 735.464 263.547 747.961 276.044C760.45 288.542 760.455 308.8 747.961 321.294L557.253 512.002L747.961 702.711L750.17 705.127C760.416 717.696 759.675 736.247 747.961 747.961C736.247 759.674 717.696 760.415 705.128 750.169L702.711 747.961L489.378 534.627C476.882 522.131 476.882 501.874 489.378 489.377L702.711 276.044Z" fill="black"/>
</svg>