<?xml version="1.0" encoding="UTF-8" standalone="no"?>
<svg width="1024" height="1024" viewBox="0 0 1024 1024" fill="none" xmlns="http://www.w3.org/2000/svg">
<path d="M739.542 96C776.609 96 813.032 108.389 840.625 131.667C868.382 155.087 885.333 188.128 885.333 224V341.333C885.333 359.006 871.006 373.333 853.333 373.333C835.66 373.333 821.333 359.006 821.333 341.333V224C821.333 208.952 814.289 193.17 799.375 180.583C784.294 167.859 762.822 160 739.542 160H284.458C261.178 160 239.706 167.859 224.625 180.583C209.711 193.17 202.667 208.952 202.667 224V800L203 805.667C204.551 818.942 211.574 832.403 224.625 843.417C239.706 856.141 261.178 864 284.458 864H433.208C450.881 864 465.208 878.327 465.208 896C465.208 913.673 450.881 928 433.208 928H284.458C247.391 928 210.968 915.611 183.375 892.333C155.618 868.913 138.667 835.872 138.667 800V224C138.667 188.128 155.618 155.087 183.375 131.667C210.968 108.389 247.391 96 284.458 96H739.542Z" fill="black"/>
<path d="M810.667 693.333C851.961 693.333 892.201 707.894 922.417 734.75C952.756 761.718 970.667 799.165 970.667 839.125V896C970.667 913.673 956.34 928 938.667 928C920.994 928 906.667 913.673 906.667 896V839.125C906.667 818.736 897.584 798.289 879.917 782.583C864.346 768.743 843.365 759.769 820.542 757.75L810.667 757.333H682.667C656.069 757.333 631.209 766.768 613.417 782.583C595.749 798.289 586.667 818.736 586.667 839.125V896L586.5 899.292C584.852 915.418 571.228 928 554.667 928C538.105 928 524.481 915.418 522.833 899.292L522.667 896V839.125C522.667 799.165 540.577 761.718 570.917 734.75C601.133 707.894 641.372 693.333 682.667 693.333H810.667Z" fill="black"/>
<path d="M487.417 512.833C498.732 499.264 518.926 497.439 532.5 508.75C546.069 520.065 547.895 540.259 536.583 553.833L429.917 681.833C423.837 689.124 414.827 693.333 405.333 693.333C395.84 693.333 386.83 689.124 380.75 681.833L316.75 605C305.45 591.427 307.272 571.271 320.833 559.958C334.409 548.646 354.602 550.468 365.917 564.042L405.292 611.333L487.417 512.833Z" fill="black"/>
<path fill-rule="evenodd" clip-rule="evenodd" d="M753.542 394.833C787.815 396.533 820.328 410.912 844.708 435.292C870.713 461.297 885.333 496.557 885.333 533.333L885.167 540.208C883.467 574.482 869.088 606.995 844.708 631.375C820.328 655.755 787.815 670.133 753.542 671.833L746.667 672C709.89 672 674.63 657.38 648.625 631.375C624.245 606.995 609.867 574.482 608.167 540.208L608 533.333C608 496.557 622.62 461.297 648.625 435.292C674.63 409.287 709.89 394.667 746.667 394.667L753.542 394.833ZM746.667 458.667C726.864 458.667 707.878 466.539 693.875 480.542C679.872 494.544 672 513.531 672 533.333L672.375 540.708C674.071 557.803 681.622 573.872 693.875 586.125C707.878 600.128 726.864 608 746.667 608L754.042 607.625C771.136 605.929 787.205 598.378 799.458 586.125C813.461 572.122 821.333 553.136 821.333 533.333L820.958 525.958C819.262 508.864 811.712 492.795 799.458 480.542C787.205 468.288 771.136 460.738 754.042 459.042L746.667 458.667Z" fill="black"/>
<path d="M487.417 256.833C498.732 243.264 518.926 241.439 532.5 252.75C546.069 264.065 547.895 284.259 536.583 297.833L429.917 425.833C423.837 433.124 414.827 437.333 405.333 437.333C395.84 437.333 386.83 433.124 380.75 425.833L316.75 349C305.45 335.427 307.272 315.271 320.833 303.958C334.409 292.646 354.602 294.468 365.917 308.042L405.292 355.333L487.417 256.833Z" fill="black"/>
</svg>