<?xml version="1.0" encoding="UTF-8" standalone="no"?>
<svg width="1024" height="1024" viewBox="0 0 1024 1024" fill="none" xmlns="http://www.w3.org/2000/svg">
<path d="M682.667 128C693.54 128.012 704.01 132.162 711.917 139.625C719.824 147.09 724.571 157.31 725.208 168.167C725.846 179.021 722.311 189.703 715.333 198.042C708.355 206.379 698.463 211.756 687.667 213.042L682.667 213.333V416.583L763.458 578.25C765.689 582.672 767.158 587.458 767.75 592.375L768 597.333V682.667C767.999 693.116 764.151 703.191 757.208 711C750.266 718.808 740.709 723.818 730.333 725.042L725.333 725.333H544V896C544 913.673 529.673 928 512 928C494.327 928 480 913.673 480 896V725.333H298.667C288.217 725.332 278.142 721.484 270.333 714.542C262.526 707.599 257.516 698.043 256.292 687.667L256 682.667V597.333C256.006 592.39 256.857 587.48 258.542 582.833L260.542 578.25L341.333 416.5V213.333C330.46 213.321 319.991 209.171 312.083 201.708C304.176 194.243 299.429 184.023 298.792 173.167C298.155 162.312 301.689 151.63 308.667 143.292C315.645 134.954 325.537 129.578 336.333 128.292L341.333 128H682.667Z" fill="black"/>
</svg>