<?xml version="1.0" encoding="UTF-8" standalone="no"?>
<svg width="1024" height="1024" viewBox="0 0 1024 1024" fill="none" xmlns="http://www.w3.org/2000/svg">
<path d="M233.377 233.375C245.874 220.879 266.131 220.879 278.627 233.375L534.627 489.375C547.123 501.871 547.123 522.129 534.627 534.625L278.627 790.625C266.131 803.121 245.874 803.121 233.377 790.625C220.881 778.128 220.881 757.872 233.377 745.375L466.752 512L233.377 278.625C220.881 266.128 220.881 245.872 233.377 233.375Z" fill="black"/>
<path d="M725.336 181.333C743.008 181.335 757.336 195.661 757.336 213.333V768C757.336 785.672 743.008 799.999 725.336 800C707.663 800 693.336 785.673 693.336 768V213.333C693.336 195.66 707.663 181.333 725.336 181.333Z" fill="black"/>
</svg>