<?xml version="1.0" encoding="UTF-8" standalone="no"?>
<svg width="1024" height="1024" viewBox="0 0 1024 1024" fill="none" xmlns="http://www.w3.org/2000/svg">
<path fill-rule="evenodd" clip-rule="evenodd" d="M213.333 650.667C233.136 650.667 252.122 658.539 266.125 672.542C280.128 686.544 288 705.53 288 725.333C288 745.136 280.128 764.122 266.125 778.125C252.122 792.128 233.136 800 213.333 800C193.53 800 174.544 792.128 160.542 778.125C146.539 764.122 138.667 745.136 138.667 725.333C138.667 705.53 146.539 686.544 160.542 672.542C174.544 658.539 193.53 650.667 213.333 650.667Z" fill="black"/>
<path fill-rule="evenodd" clip-rule="evenodd" d="M512 650.667C531.803 650.667 550.789 658.539 564.792 672.542C578.794 686.544 586.667 705.53 586.667 725.333C586.667 745.136 578.794 764.122 564.792 778.125C550.789 792.128 531.803 800 512 800C492.197 800 473.211 792.128 459.208 778.125C445.206 764.122 437.333 745.136 437.333 725.333C437.333 705.53 445.206 686.544 459.208 672.542C473.211 658.539 492.197 650.667 512 650.667Z" fill="black"/>
<path fill-rule="evenodd" clip-rule="evenodd" d="M810.667 650.667C830.47 650.667 849.456 658.539 863.458 672.542C877.461 686.544 885.333 705.531 885.333 725.333C885.333 745.136 877.461 764.122 863.458 778.125C849.456 792.128 830.47 800 810.667 800C790.864 800 771.878 792.128 757.875 778.125C743.872 764.122 736 745.136 736 725.333C736 705.531 743.872 686.544 757.875 672.542C771.878 658.539 790.864 650.667 810.667 650.667Z" fill="black"/>
</svg>