<?xml version="1.0" encoding="UTF-8" standalone="no"?>
<svg width="1024" height="1024" viewBox="0 0 1024 1024" fill="none" xmlns="http://www.w3.org/2000/svg">
<path fill-rule="evenodd" clip-rule="evenodd" d="M596.045 148.045C608.542 135.549 628.799 135.549 641.295 148.045L875.962 382.712C888.455 395.209 888.458 415.467 875.962 427.962C863.893 440.031 844.61 440.412 832.045 429.17L688.837 572.379L627.295 736.587C625.691 740.858 623.188 744.736 619.962 747.962L555.962 811.962C543.466 824.458 523.209 824.455 510.712 811.962L384.004 685.254L214.629 854.629C202.133 867.124 181.876 867.122 169.379 854.629C156.882 842.132 156.882 821.876 169.379 809.379L338.754 640.004L212.045 513.295C199.549 500.799 199.549 480.542 212.045 468.045L276.045 404.045L278.587 401.754C281.238 399.617 284.22 397.914 287.42 396.712L451.587 335.129L594.795 191.92C583.588 179.355 583.989 160.102 596.045 148.045ZM491.962 385.295C488.736 388.522 484.858 391.025 480.587 392.629L316.379 454.17L279.92 490.67L533.337 744.087L569.795 707.587L631.379 543.42L632.754 540.295C634.285 537.252 636.293 534.465 638.712 532.045L786.754 384.004L640.004 237.254L491.962 385.295Z" fill="black"/>
</svg>