<?xml version="1.0" encoding="utf-8"?>
<!DOCTYPE svg PUBLIC "-//W3C//DTD SVG 1.1//EN" "http://www.w3.org/Graphics/SVG/1.1/DTD/svg11.dtd">
<svg width="1024" height="1024" viewBox="0 0 1024 1024" fill="none" xmlns="http://www.w3.org/2000/svg">
<path d="M511.69 42.75C519.656 42.75 527.468 45.001 534.232 49.2083C540.99 53.4131 546.461 59.4032 549.982 66.5417L671.649 313.167L943.857 352.667C951.318 353.747 958.368 356.813 964.274 361.5C970.177 366.187 974.737 372.355 977.482 379.375C980.227 386.4 981.061 394.048 979.899 401.5C978.735 408.939 975.642 415.944 970.899 421.792L967.565 425.417L770.274 617.417L816.815 888.583C818.097 896.039 817.387 903.708 814.732 910.792C812.075 917.879 807.562 924.14 801.69 928.917C795.824 933.689 788.788 936.796 781.315 937.958C773.835 939.118 766.15 938.274 759.107 935.5L754.857 933.542L511.94 805.542L268.482 933.542C261.793 937.059 254.282 938.75 246.732 938.417C239.19 938.081 231.87 935.754 225.524 931.667C219.168 927.569 213.986 921.827 210.565 915.083C207.153 908.35 205.581 900.827 206.024 893.292L206.607 888.583L253.107 617.417L55.8986 425.458C50.4834 420.199 46.5539 413.604 44.5236 406.333C42.4943 399.065 42.4096 391.385 44.3153 384.083C46.2242 376.777 50.0694 370.1 55.3986 364.75C60.7223 359.408 67.3601 355.563 74.6486 353.625L79.4819 352.625L351.69 313.167L473.44 66.5417C476.958 59.4123 482.4 53.4111 489.149 49.2083C495.909 45.003 503.729 42.7521 511.69 42.75Z" fill="black"/>
</svg>
