<?xml version="1.0" encoding="UTF-8" standalone="no"?>
<svg width="1024" height="1024" viewBox="0 0 1024 1024" fill="none" xmlns="http://www.w3.org/2000/svg">
<path fill-rule="evenodd" clip-rule="evenodd" d="M682.667 138.667C700.34 138.667 714.667 152.994 714.667 170.667C714.667 188.34 700.34 202.667 682.667 202.667H672V419.125L753.958 583.042C756.175 587.481 757.333 592.372 757.333 597.333V682.667C757.333 700.34 743.006 714.667 725.333 714.667H544V896C544 913.673 529.673 928 512 928C494.327 928 480 913.673 480 896V714.667H298.667C280.994 714.667 266.667 700.34 266.667 682.667V597.333C266.667 592.372 267.825 587.481 270.042 583.042L352 419.125V202.667H341.333C323.66 202.667 309.333 188.34 309.333 170.667C309.333 152.994 323.66 138.667 341.333 138.667H682.667ZM416 202.667V426.667C416 431.628 414.841 436.519 412.625 440.958L330.667 604.875V650.667H693.333V604.875L611.375 440.958C609.159 436.519 608 431.628 608 426.667V202.667H416Z" fill="black"/>
</svg>