<?xml version="1.0" encoding="UTF-8" standalone="no"?>
<svg width="1024" height="1024" viewBox="0 0 1024 1024" fill="none" xmlns="http://www.w3.org/2000/svg">
<path d="M617.798 127.91C627.573 127.732 637.132 130.936 644.84 136.951L648.84 140.493L883.506 375.16C890.698 382.39 895.052 391.989 895.798 402.16C896.538 412.323 893.604 422.422 887.548 430.618C881.488 438.814 872.693 444.595 862.756 446.868C852.819 449.138 842.401 447.742 833.381 442.993L698.048 578.285L637.256 740.326C635.659 744.587 633.402 748.574 630.548 752.118L627.548 755.535L563.548 819.535C556.197 826.873 546.415 831.306 536.048 831.951C525.68 832.595 515.419 829.407 507.215 823.035L503.173 819.493L376.423 692.785L214.631 854.618C202.135 867.114 181.878 867.114 169.381 854.618C156.887 842.121 156.885 821.864 169.381 809.368L331.173 647.535L204.506 520.826C197.162 513.48 192.742 503.694 192.09 493.326C191.442 482.963 194.6 472.698 200.965 464.493L204.506 460.493L268.506 396.493C271.721 393.268 275.442 390.586 279.506 388.535L283.715 386.743L445.673 325.951L580.965 190.66C576.355 182.036 574.826 172.096 576.673 162.493C578.521 152.892 583.61 144.207 591.09 137.91C598.573 131.612 608.019 128.091 617.798 127.91Z" fill="black"/>
</svg>