<?xml version="1.0" encoding="UTF-8" standalone="no"?>
<svg width="1024" height="1024" viewBox="0 0 1024 1024" fill="none" xmlns="http://www.w3.org/2000/svg">
<path fill-rule="evenodd" clip-rule="evenodd" d="M596.044 148.044C608.541 135.547 628.797 135.547 641.294 148.044L875.961 382.711C888.455 395.208 888.457 415.465 875.961 427.961C863.892 440.03 844.609 440.412 832.044 429.169L688.836 572.377L627.294 736.586C625.69 740.857 623.187 744.734 619.961 747.961L555.961 811.961C543.465 824.457 523.208 824.455 510.711 811.961L384.002 685.252L214.627 854.627C202.131 867.123 181.874 867.122 169.377 854.627C156.881 842.131 156.881 821.874 169.377 809.377L338.752 640.002L212.044 513.294C199.547 500.797 199.547 480.541 212.044 468.044L276.044 404.044L278.586 401.752C281.236 399.616 284.218 397.913 287.419 396.711L451.586 335.127L594.794 191.919C583.587 179.354 583.988 160.101 596.044 148.044ZM491.961 385.294C488.734 388.52 484.857 391.023 480.586 392.627L316.377 454.169L279.919 490.669L533.336 744.086L569.794 707.586L631.377 543.419L632.752 540.294C634.283 537.25 636.291 534.464 638.711 532.044L786.752 384.002L640.002 237.252L491.961 385.294Z" fill="black"/>
</svg>