<?xml version="1.0" encoding="utf-8"?>
<!DOCTYPE svg PUBLIC "-//W3C//DTD SVG 1.1//EN" "http://www.w3.org/Graphics/SVG/1.1/DTD/svg11.dtd">
<svg width="1024" height="1024" viewBox="0 0 1024 1024" fill="none" xmlns="http://www.w3.org/2000/svg">
<path fill-rule="evenodd" clip-rule="evenodd" d="M511.724 53.4166C523.892 53.4254 535.002 60.3397 540.391 71.25L664.599 322.917L942.349 363.208C954.406 364.959 964.461 373.412 968.224 385C971.981 396.582 968.82 409.294 960.099 417.792L758.807 613.708L806.307 890.375C808.364 902.376 803.405 914.507 793.557 921.667C783.7 928.821 770.627 929.755 759.849 924.083L512.016 793.458L263.557 924.125C252.78 929.786 239.7 928.82 229.849 921.667C220.002 914.506 215.082 902.376 217.141 890.375L264.557 613.708L63.3074 417.792C54.5861 409.291 51.4622 396.584 55.2241 385C58.9889 373.411 68.9978 364.956 81.0574 363.208L358.766 322.917L483.016 71.25L485.307 67.3333C491.216 58.7056 501.075 53.4166 511.724 53.4166ZM408.724 366.375C404.063 375.814 395.058 382.359 384.641 383.875L154.474 417.208L321.307 579.625C328.846 586.976 332.296 597.58 330.516 607.958L291.182 837.25L497.099 729C506.43 724.097 517.607 724.128 526.932 729.042L732.224 837.167L692.891 607.958C691.109 597.57 694.589 586.977 702.141 579.625L868.932 417.208L638.807 383.875C628.382 382.364 619.346 375.821 614.682 366.375L511.682 157.708L408.724 366.375Z" fill="black"/>
</svg>
