<?xml version="1.0" encoding="UTF-8" standalone="no"?>
<svg width="1024" height="1024" viewBox="0 0 1024 1024" fill="none" xmlns="http://www.w3.org/2000/svg">
<path d="M617.797 127.91C627.573 127.732 637.131 130.936 644.839 136.951L648.839 140.493L883.506 375.16C890.697 382.39 895.052 391.989 895.797 402.16C896.537 412.324 893.604 422.421 887.547 430.618C881.487 438.814 872.692 444.595 862.756 446.868C852.818 449.138 842.4 447.742 833.381 442.993L698.047 578.285L637.256 740.326C635.658 744.587 633.401 748.574 630.547 752.118L627.547 755.535L563.547 819.535C556.196 826.874 546.415 831.306 536.047 831.951C525.679 832.595 515.418 829.407 507.214 823.035L503.172 819.493L376.422 692.785L214.631 854.618C202.134 867.114 181.878 867.114 169.381 854.618C156.886 842.121 156.885 821.864 169.381 809.368L331.172 647.535L204.506 520.826C197.161 513.48 192.741 503.694 192.089 493.326C191.441 482.963 194.599 472.698 200.964 464.493L204.506 460.493L268.506 396.493C271.721 393.268 275.44 390.587 279.506 388.535L283.714 386.743L445.672 325.951L580.964 190.66C576.354 182.036 574.825 172.096 576.672 162.493C578.52 152.891 583.609 144.207 591.089 137.91C598.573 131.612 608.018 128.091 617.797 127.91Z" fill="black"/>
</svg>