<?xml version="1.0" encoding="UTF-8" standalone="no"?>
<svg width="1024" height="1024" viewBox="0 0 1024 1024" fill="none" xmlns="http://www.w3.org/2000/svg">
<path fill-rule="evenodd" clip-rule="evenodd" d="M213.333 437.333C233.136 437.333 252.122 445.206 266.125 459.208C280.128 473.211 288 492.197 288 512C288 531.803 280.128 550.789 266.125 564.792C252.122 578.794 233.136 586.667 213.333 586.667C193.53 586.667 174.544 578.794 160.542 564.792C146.539 550.789 138.667 531.803 138.667 512C138.667 492.197 146.539 473.211 160.542 459.208C174.544 445.206 193.53 437.333 213.333 437.333Z" fill="black"/>
<path fill-rule="evenodd" clip-rule="evenodd" d="M512 437.333C531.803 437.333 550.789 445.206 564.792 459.208C578.794 473.211 586.667 492.197 586.667 512C586.667 531.803 578.794 550.789 564.792 564.792C550.789 578.794 531.803 586.667 512 586.667C492.197 586.667 473.211 578.794 459.208 564.792C445.206 550.789 437.333 531.803 437.333 512C437.333 492.197 445.206 473.211 459.208 459.208C473.211 445.206 492.197 437.333 512 437.333Z" fill="black"/>
<path fill-rule="evenodd" clip-rule="evenodd" d="M810.667 437.333C830.47 437.333 849.456 445.206 863.458 459.208C877.461 473.211 885.333 492.197 885.333 512C885.333 531.803 877.461 550.789 863.458 564.792C849.456 578.794 830.47 586.667 810.667 586.667C790.864 586.667 771.878 578.794 757.875 564.792C743.872 550.789 736 531.803 736 512C736 492.197 743.872 473.211 757.875 459.208C771.878 445.206 790.864 437.333 810.667 437.333Z" fill="black"/>
</svg>