<?xml version="1.0" encoding="UTF-8" standalone="no"?>
<svg width="1024" height="1024" viewBox="0 0 1024 1024" fill="none" xmlns="http://www.w3.org/2000/svg">
<path fill-rule="evenodd" clip-rule="evenodd" d="M512 736C531.803 736 550.789 743.872 564.792 757.875C578.794 771.878 586.667 790.864 586.667 810.667C586.667 830.469 578.794 849.456 564.792 863.458C550.789 877.461 531.803 885.333 512 885.333C492.197 885.333 473.211 877.461 459.208 863.458C445.206 849.456 437.333 830.469 437.333 810.667C437.333 790.864 445.206 771.878 459.208 757.875C473.211 743.872 492.197 736 512 736Z" fill="black"/>
<path fill-rule="evenodd" clip-rule="evenodd" d="M512 437.333C531.803 437.333 550.789 445.206 564.792 459.208C578.794 473.211 586.667 492.197 586.667 512C586.667 531.803 578.794 550.789 564.792 564.792C550.789 578.794 531.803 586.667 512 586.667C492.197 586.667 473.211 578.794 459.208 564.792C445.206 550.789 437.333 531.803 437.333 512C437.333 492.197 445.206 473.211 459.208 459.208C473.211 445.206 492.197 437.333 512 437.333Z" fill="black"/>
<path fill-rule="evenodd" clip-rule="evenodd" d="M519.375 139.042C536.469 140.738 552.538 148.288 564.792 160.542C578.794 174.544 586.667 193.53 586.667 213.333C586.667 233.136 578.794 252.122 564.792 266.125C550.789 280.128 531.803 288 512 288C492.197 288 473.211 280.128 459.208 266.125C445.206 252.122 437.333 233.136 437.333 213.333C437.333 193.53 445.206 174.544 459.208 160.542C473.211 146.539 492.197 138.667 512 138.667L519.375 139.042Z" fill="black"/>
</svg>