<?xml version="1.0" encoding="UTF-8" standalone="no"?>
<svg width="1024" height="1024" viewBox="0 0 1024 1024" fill="none" xmlns="http://www.w3.org/2000/svg">
<path d="M597.333 736C628.452 736 658.287 748.371 680.292 770.375C702.296 792.379 714.667 822.215 714.667 853.333V896C714.667 913.673 700.34 928 682.667 928C664.994 928 650.667 913.673 650.667 896V853.333C650.667 839.188 645.044 825.627 635.042 815.625C625.04 805.623 611.478 800 597.333 800H426.667C412.522 800 398.96 805.623 388.958 815.625C378.956 825.627 373.333 839.188 373.333 853.333V896C373.333 913.673 359.006 928 341.333 928C323.66 928 309.333 913.673 309.333 896V853.333C309.333 822.215 321.704 792.379 343.708 770.375C365.713 748.371 395.548 736 426.667 736H597.333Z" fill="black"/>
<path fill-rule="evenodd" clip-rule="evenodd" d="M512 437.333C543.119 437.333 572.954 449.704 594.958 471.708C616.963 493.713 629.333 523.548 629.333 554.667C629.333 585.785 616.963 615.621 594.958 637.625C572.954 659.629 543.119 672 512 672C480.881 672 451.046 659.629 429.042 637.625C407.037 615.621 394.667 585.785 394.667 554.667C394.667 523.548 407.037 493.713 429.042 471.708C451.046 449.704 480.881 437.333 512 437.333ZM512 501.333C497.855 501.333 484.294 506.956 474.292 516.958C464.29 526.96 458.667 540.522 458.667 554.667C458.667 568.812 464.29 582.373 474.292 592.375C484.294 602.377 497.855 608 512 608C526.145 608 539.706 602.377 549.708 592.375C559.71 582.373 565.333 568.812 565.333 554.667C565.333 540.522 559.71 526.96 549.708 516.958C539.706 506.956 526.145 501.333 512 501.333Z" fill="black"/>
<path d="M298.667 394.667C316.34 394.667 330.667 408.994 330.667 426.667C330.667 444.34 316.34 458.667 298.667 458.667H213.333C199.188 458.667 185.627 464.29 175.625 474.292C165.623 484.294 160 497.855 160 512V554.667C160 572.34 145.673 586.667 128 586.667C110.327 586.667 96 572.34 96 554.667V512C96 480.881 108.371 451.046 130.375 429.042C152.379 407.037 182.215 394.667 213.333 394.667H298.667Z" fill="black"/>
<path d="M810.667 394.667C841.785 394.667 871.621 407.037 893.625 429.042C915.629 451.046 928 480.881 928 512V554.667C928 572.34 913.673 586.667 896 586.667C878.327 586.667 864 572.34 864 554.667V512C864 497.855 858.377 484.294 848.375 474.292C838.373 464.29 824.812 458.667 810.667 458.667H725.333C707.66 458.667 693.333 444.34 693.333 426.667C693.333 408.994 707.66 394.667 725.333 394.667H810.667Z" fill="black"/>
<path fill-rule="evenodd" clip-rule="evenodd" d="M310.25 96.5833C337.115 99.2479 362.368 111.118 381.625 130.375C403.629 152.379 416 182.215 416 213.333C416 244.452 403.629 274.287 381.625 296.292C362.368 315.548 337.115 327.419 310.25 330.083L298.667 330.667C267.548 330.667 237.713 318.296 215.708 296.292C196.452 277.035 184.581 251.782 181.917 224.917L181.333 213.333C181.333 182.215 193.704 152.379 215.708 130.375C237.713 108.371 267.548 96 298.667 96L310.25 96.5833ZM298.667 160C284.522 160 270.96 165.623 260.958 175.625C250.956 185.627 245.333 199.188 245.333 213.333L245.583 218.625C246.799 230.827 252.211 242.295 260.958 251.042C270.96 261.044 284.522 266.667 298.667 266.667L303.958 266.417C316.16 265.201 327.628 259.789 336.375 251.042C346.377 241.04 352 227.478 352 213.333C352 199.188 346.377 185.627 336.375 175.625C327.628 166.878 316.16 161.466 303.958 160.25L298.667 160Z" fill="black"/>
<path fill-rule="evenodd" clip-rule="evenodd" d="M736.917 96.5833C763.782 99.2479 789.035 111.118 808.292 130.375C830.296 152.379 842.667 182.215 842.667 213.333C842.667 244.452 830.296 274.287 808.292 296.292C789.035 315.548 763.782 327.419 736.917 330.083L725.333 330.667C694.215 330.667 664.379 318.296 642.375 296.292C620.371 274.287 608 244.452 608 213.333C608 182.215 620.371 152.379 642.375 130.375C664.379 108.371 694.215 96 725.333 96L736.917 96.5833ZM725.333 160C711.188 160 697.627 165.623 687.625 175.625C677.623 185.627 672 199.188 672 213.333C672 227.478 677.623 241.04 687.625 251.042C697.627 261.044 711.188 266.667 725.333 266.667L730.625 266.417C742.827 265.201 754.295 259.789 763.042 251.042C773.044 241.04 778.667 227.478 778.667 213.333C778.667 199.188 773.044 185.627 763.042 175.625C754.295 166.878 742.827 161.466 730.625 160.25L725.333 160Z" fill="black"/>
</svg>