<?xml version="1.0" encoding="UTF-8" standalone="no"?>
<svg width="1024" height="1024" viewBox="0 0 1024 1024" fill="none" xmlns="http://www.w3.org/2000/svg">
<path d="M602.333 213.625L604.875 214L607.125 214.458L611.708 215.792L614.583 216.958L620.208 219.958L624.042 222.708L627.5 225.833L631.042 229.833L633.333 233.125L635.667 237.208L636.375 238.75L637.542 241.625L638.875 246.25L639.333 248.5L639.75 251.042L639.917 253.5L640 256V768C640 804.351 597.929 823.345 570.75 801.417L567.167 798.167L311.167 542.167C303.821 534.82 299.402 525.035 298.75 514.667C298.1 504.301 301.259 494.04 307.625 485.833L311.167 481.833L567.167 225.833L571.167 222.292L574.458 220L578.542 217.667L580.083 216.958L582.958 215.792L587.583 214.458L589.833 214L592.375 213.583L592.333 213.625L594.833 213.417H599.833L602.333 213.625Z" fill="black"/>
</svg>