<?xml version="1.0" encoding="UTF-8" standalone="no"?>
<svg width="1024" height="1024" viewBox="0 0 1024 1024" fill="none" xmlns="http://www.w3.org/2000/svg">
<path d="M429.167 213.335C429.167 213.335 433.657 213.723 436.458 214.377C440.092 215.224 442.109 215.941 445.458 217.585C448.51 219.083 452.833 222.21 452.833 222.21L716.375 485.752C722.741 493.958 725.899 504.22 725.25 514.585C724.598 524.954 720.18 534.738 712.833 542.085L453.25 801.335C426.071 823.266 384 804.271 384 767.918L384.248 256.002C384.248 256.002 384.094 252.923 384.25 250.96C384.548 247.195 385.183 245.099 386.458 241.543C388.234 236.594 389.732 233.903 392.958 229.752C396.471 225.232 398.958 222.944 403.792 219.877C408.484 216.899 411.505 215.64 416.917 214.377C421.592 213.285 429.167 213.335 429.167 213.335Z" fill="black"/>
</svg>