<?xml version="1.0" encoding="UTF-8" standalone="no"?>
<svg width="1024" height="1024" viewBox="0 0 1024 1024" fill="none" xmlns="http://www.w3.org/2000/svg">
<path fill-rule="evenodd" clip-rule="evenodd" d="M523.569 96.5833C550.431 99.2475 575.688 111.122 594.944 130.375C612.028 147.459 623.174 169.287 627.361 192.75C674.546 218.359 714.895 255.095 744.777 299.917C778.064 349.846 797.13 407.892 799.944 467.833C799.968 468.333 799.986 468.833 799.986 469.333V595.083C802.772 616.054 810.286 636.135 822.027 653.75C834.066 671.808 850.186 686.803 869.069 697.5C881.715 704.661 887.98 719.447 884.277 733.5C880.57 747.547 867.848 757.333 853.319 757.333H671.986V768C671.986 810.435 655.117 851.119 625.111 881.125C596.977 909.255 559.451 925.834 519.902 927.792L511.986 928C469.556 927.996 428.863 911.128 398.861 881.125C368.859 851.12 351.986 810.431 351.986 768V757.333H170.652C156.128 757.327 143.399 747.544 139.694 733.5C135.994 719.452 142.264 704.663 154.902 697.5C173.788 686.804 189.904 671.808 201.944 653.75C213.688 636.134 221.199 616.056 223.986 595.083V469.333C223.986 468.833 224.004 468.333 224.027 467.833C226.841 407.894 245.911 349.845 279.194 299.917C309.068 255.105 349.401 218.359 396.569 192.75C400.754 169.286 411.945 147.46 429.027 130.375C451.028 108.374 480.872 96.0038 511.986 96L523.569 96.5833ZM415.986 757.333V768C415.986 793.457 426.112 817.872 444.111 835.875C462.111 853.875 486.53 863.996 511.986 864L521.486 863.542C543.455 861.358 564.111 851.621 579.861 835.875C597.864 817.872 607.986 793.461 607.986 768V757.333H415.986ZM511.986 160C497.846 160.004 484.276 165.626 474.277 175.625C464.28 185.626 458.652 199.192 458.652 213.333L458.319 217.917C456.799 228.432 450.105 237.623 440.319 242.25C396.578 262.937 359.284 295.156 332.444 335.417C305.703 375.53 290.344 422.147 287.986 470.292V597.333C287.986 598.615 287.889 599.894 287.736 601.167C283.923 632.666 272.794 662.85 255.194 689.25C254.267 690.64 253.237 691.968 252.277 693.333H771.694C770.734 691.968 769.704 690.641 768.777 689.25C751.179 662.851 740.048 632.664 736.236 601.167C736.082 599.894 735.986 598.615 735.986 597.333V470.292C733.627 422.144 718.271 375.531 691.527 335.417C664.685 295.156 627.397 262.936 583.652 242.25C572.472 236.958 565.319 225.703 565.319 213.333C565.319 199.188 559.696 185.627 549.694 175.625C539.693 165.627 526.127 160 511.986 160Z" fill="black"/>
</svg>