<?xml version="1.0" encoding="UTF-8" standalone="no"?>
<svg width="1024" height="1024" viewBox="0 0 1024 1024" fill="none" xmlns="http://www.w3.org/2000/svg">
<path fill-rule="evenodd" clip-rule="evenodd" d="M341.333 565.333C361.136 565.333 380.122 573.206 394.125 587.208C408.128 601.211 416 620.197 416 640V810.667C416 830.469 408.128 849.456 394.125 863.458C380.122 877.461 361.136 885.333 341.333 885.333H170.667C150.864 885.333 131.878 877.461 117.875 863.458C103.872 849.456 96 830.469 96 810.667V640C96 620.197 103.872 601.211 117.875 587.208C131.878 573.206 150.864 565.333 170.667 565.333H341.333ZM170.667 629.333C167.838 629.333 165.125 630.458 163.125 632.458C161.125 634.459 160 637.171 160 640V810.667L160.208 812.75C160.617 814.803 161.623 816.706 163.125 818.208C165.125 820.209 167.838 821.333 170.667 821.333H341.333C344.162 821.333 346.875 820.209 348.875 818.208C350.875 816.208 352 813.496 352 810.667V640C352 637.171 350.875 634.459 348.875 632.458C346.875 630.458 344.162 629.333 341.333 629.333H170.667Z" fill="black"/>
<path d="M768 778.667C785.673 778.667 800 792.994 800 810.667C800 828.34 785.673 842.667 768 842.667H554.667C536.994 842.667 522.667 828.34 522.667 810.667C522.667 792.994 536.994 778.667 554.667 778.667H768Z" fill="black"/>
<path d="M896 608C913.673 608 928 622.327 928 640C928 657.673 913.673 672 896 672H554.667C536.994 672 522.667 657.673 522.667 640C522.667 622.327 536.994 608 554.667 608H896Z" fill="black"/>
<path fill-rule="evenodd" clip-rule="evenodd" d="M341.333 138.667C361.136 138.667 380.122 146.539 394.125 160.542C408.128 174.544 416 193.53 416 213.333V384C416 403.803 408.128 422.789 394.125 436.792C380.122 450.794 361.136 458.667 341.333 458.667H170.667C150.864 458.667 131.878 450.794 117.875 436.792C103.872 422.789 96 403.803 96 384V213.333C96 193.53 103.872 174.544 117.875 160.542C131.878 146.539 150.864 138.667 170.667 138.667H341.333ZM170.667 202.667C167.838 202.667 165.125 203.791 163.125 205.792C161.125 207.792 160 210.504 160 213.333V384L160.208 386.083C160.617 388.136 161.623 390.04 163.125 391.542C165.125 393.542 167.838 394.667 170.667 394.667H341.333C344.162 394.667 346.875 393.542 348.875 391.542C350.875 389.541 352 386.829 352 384V213.333C352 210.504 350.875 207.792 348.875 205.792C346.875 203.791 344.162 202.667 341.333 202.667H170.667Z" fill="black"/>
<path d="M768 352C785.673 352 800 366.327 800 384C800 401.673 785.673 416 768 416H554.667C536.994 416 522.667 401.673 522.667 384C522.667 366.327 536.994 352 554.667 352H768Z" fill="black"/>
<path d="M896 181.333C913.673 181.333 928 195.66 928 213.333C928 231.006 913.673 245.333 896 245.333H554.667C536.994 245.333 522.667 231.006 522.667 213.333C522.667 195.66 536.994 181.333 554.667 181.333H896Z" fill="black"/>
</svg>