<?xml version="1.0" encoding="UTF-8" standalone="no"?>
<svg width="1024" height="1024" viewBox="0 0 1024 1024" fill="none" xmlns="http://www.w3.org/2000/svg">
<path fill-rule="evenodd" clip-rule="evenodd" d="M277.336 608C302.796 608.001 327.208 618.122 345.211 636.125C363.214 654.128 373.336 678.54 373.336 704C373.336 729.46 363.213 753.872 345.211 771.875C327.208 789.878 302.796 799.999 277.336 800H245.336V896C245.336 913.672 231.008 927.999 213.336 928C195.663 928 181.336 913.673 181.336 896V640C181.336 622.327 195.663 608 213.336 608H277.336ZM245.336 736H277.336C285.822 735.999 293.96 732.626 299.961 726.625C305.961 720.624 309.336 712.486 309.336 704C309.336 695.514 305.961 687.376 299.961 681.375C295.465 676.88 289.77 673.857 283.627 672.625L277.336 672H245.336V736Z" fill="black"/>
<path fill-rule="evenodd" clip-rule="evenodd" d="M512.002 608C543.12 608.001 572.957 620.371 594.961 642.375C616.964 664.379 629.336 694.215 629.336 725.333V810.667C629.336 841.785 616.964 871.621 594.961 893.625C572.957 915.629 543.12 927.999 512.002 928H469.336C451.663 928 437.336 913.673 437.336 896V640C437.336 622.327 451.663 608 469.336 608H512.002ZM501.336 864H512.002C526.146 863.999 539.709 858.376 549.711 848.375C559.712 838.373 565.336 824.811 565.336 810.667V725.333C565.336 711.189 559.712 697.627 549.711 687.625C539.709 677.624 526.146 672.001 512.002 672H501.336V864Z" fill="black"/>
<path d="M853.336 608C871.008 608.001 885.336 622.328 885.336 640C885.336 657.672 871.008 671.999 853.336 672H757.336V736H810.669C828.341 736.001 842.669 750.328 842.669 768C842.669 785.672 828.341 799.999 810.669 800H757.336V896C757.336 913.672 743.008 927.999 725.336 928C707.663 928 693.336 913.673 693.336 896V640C693.336 622.327 707.663 608 725.336 608H853.336Z" fill="black"/>
<path fill-rule="evenodd" clip-rule="evenodd" d="M600.586 96.1667C601.544 96.2634 602.488 96.4041 603.419 96.5833L603.627 96.625C604.702 96.8393 605.72 97.2228 606.752 97.5417C607.728 97.8435 608.728 98.0652 609.669 98.4583C610.927 98.9843 612.082 99.6989 613.252 100.375C613.872 100.732 614.532 101.018 615.127 101.417C616.667 102.45 618.084 103.639 619.419 104.917C619.589 105.079 619.794 105.208 619.961 105.375L833.294 318.708C839.084 324.499 842.669 332.497 842.669 341.333V512C842.669 529.672 828.341 543.999 810.669 544C792.996 544 778.669 529.673 778.669 512V373.333H640.002C620.2 373.333 601.213 365.46 587.211 351.458C573.208 337.456 565.336 318.47 565.336 298.667V160H298.669C284.525 160 270.963 165.624 260.961 175.625C250.959 185.627 245.336 199.188 245.336 213.333V434.75L297.377 382.708C309.874 370.213 330.131 370.212 342.627 382.708C355.123 395.205 355.123 415.462 342.627 427.958L235.961 534.625C234.601 535.985 233.11 537.144 231.586 538.208C229.703 539.522 227.693 540.653 225.544 541.542C224.176 542.107 222.755 542.466 221.336 542.833C220.776 542.978 220.241 543.218 219.669 543.333C219.42 543.383 219.169 543.414 218.919 543.458C217.103 543.779 215.244 544 213.336 544C211.4 544 209.51 543.788 207.669 543.458C207.433 543.416 207.196 543.381 206.961 543.333C206.39 543.218 205.854 542.979 205.294 542.833C203.876 542.465 202.453 542.108 201.086 541.542C199.842 541.026 198.702 540.329 197.544 539.667C195.126 538.284 192.776 536.69 190.711 534.625L84.0441 427.958C71.5473 415.462 71.5473 395.205 84.0441 382.708C96.541 370.213 116.798 370.212 129.294 382.708L181.336 434.75V213.333C181.336 182.215 193.706 152.379 215.711 130.375C237.715 108.371 267.551 96 298.669 96H597.336L600.586 96.1667ZM629.336 298.667C629.336 301.496 630.46 304.208 632.461 306.208C634.461 308.208 637.174 309.333 640.002 309.333H733.419L629.336 205.25V298.667Z" fill="black"/>
</svg>