<svg width="1024" height="1024" viewBox="0 0 1024 1024" fill="none" xmlns="http://www.w3.org/2000/svg">
<path fill-rule="evenodd" clip-rule="evenodd" d="M481.135 102.917C493.7 92.6666 512.251 93.4179 523.968 105.125L907.968 489.125C917.119 498.277 919.877 512.044 914.926 524C909.973 535.958 898.286 543.75 885.343 543.75H832.01V810.417C832.01 841.536 819.639 871.371 797.635 893.375C775.631 915.377 745.793 927.75 714.676 927.75H288.01C256.896 927.747 227.052 915.377 205.051 893.375C183.053 871.372 170.676 841.531 170.676 810.417V543.75H117.343C104.406 543.745 92.711 535.954 87.7597 524C82.8145 512.048 85.5727 498.274 94.718 489.125L478.718 105.125L481.135 102.917ZM194.593 479.75H202.676C220.348 479.75 234.674 494.08 234.676 511.75V810.417L234.926 815.709C236.142 827.907 241.56 839.379 250.301 848.125C260.3 858.124 273.87 863.747 288.01 863.75H341.343V639.75C341.344 608.636 353.718 578.795 375.718 556.792C397.719 534.791 427.562 522.421 458.676 522.417H544.01C575.124 522.417 604.965 534.794 626.968 556.792C648.971 578.795 661.342 608.634 661.343 639.75V863.75H714.676C728.819 863.75 742.383 858.125 752.385 848.125C762.387 838.124 768.01 824.562 768.01 810.417V511.75C768.012 494.084 782.344 479.758 800.01 479.75H808.093L501.343 173L194.593 479.75ZM458.676 586.417C444.536 586.421 430.967 592.043 420.968 602.042C410.97 612.042 405.344 625.609 405.343 639.75V863.75H597.343V639.75C597.342 625.607 591.719 612.043 581.718 602.042C571.717 592.046 558.15 586.417 544.01 586.417H458.676Z" fill="black"/>
</svg>
