<?xml version="1.0" encoding="UTF-8" standalone="no"?>
<svg width="1024" height="1024" viewBox="0 0 1024 1024" fill="none" xmlns="http://www.w3.org/2000/svg">
<path d="M299.096 778.667C316.763 778.674 331.096 792.998 331.096 810.667C331.096 828.336 316.763 842.66 299.096 842.667H298.679C281.006 842.667 266.679 828.34 266.679 810.667C266.679 792.994 281.006 778.667 298.679 778.667H299.096Z" fill="black"/>
<path d="M298.679 565.333C316.347 565.34 330.679 579.665 330.679 597.333V725.333C330.679 743.002 316.347 757.326 298.679 757.333C281.006 757.333 266.679 743.006 266.679 725.333V597.333C266.679 579.66 281.006 565.333 298.679 565.333Z" fill="black"/>
<path fill-rule="evenodd" clip-rule="evenodd" d="M298.679 394.667C310.38 394.671 321.156 401.064 326.763 411.333L582.763 880.667C588.167 890.579 587.94 902.624 582.179 912.333C576.416 922.038 565.966 927.996 554.679 928H42.6795C31.3901 928 20.9462 922.038 15.1795 912.333C9.41434 902.622 9.18803 890.582 14.5962 880.667L270.596 411.333L272.929 407.667C278.909 399.564 288.439 394.667 298.679 394.667ZM96.5962 864H500.763L298.679 493.458L96.5962 864Z" fill="black"/>
<path fill-rule="evenodd" clip-rule="evenodd" d="M600.596 96.1667C601.512 96.2595 602.413 96.4149 603.304 96.5833C603.428 96.6068 603.557 96.6001 603.679 96.625L603.763 96.6667L609.596 98.4167L609.679 98.4583C610.937 98.9847 612.092 99.6987 613.263 100.375C613.882 100.732 614.543 101.018 615.138 101.417C616.677 102.45 618.095 103.639 619.429 104.917C619.598 105.078 619.806 105.21 619.971 105.375L833.304 318.708C839.092 324.499 842.679 332.5 842.679 341.333V810.667C842.679 841.782 830.305 871.621 808.304 893.625C786.303 915.626 756.46 927.997 725.346 928H661.346C643.673 928 629.346 913.673 629.346 896C629.346 878.327 643.673 864 661.346 864H725.346C739.486 863.997 753.056 858.374 763.054 848.375C773.052 838.374 778.679 824.809 778.679 810.667V373.333H640.013C620.213 373.333 601.223 365.457 587.221 351.458C573.218 337.456 565.346 318.47 565.346 298.667V160H298.679C284.538 160 270.972 165.627 260.971 175.625C250.969 185.627 245.346 199.188 245.346 213.333V384C245.346 401.669 231.013 415.993 213.346 416C195.673 416 181.346 401.673 181.346 384V213.333C181.346 182.215 193.717 152.379 215.721 130.375C237.725 108.375 267.564 96 298.679 96H597.346L600.596 96.1667ZM629.346 298.667C629.346 301.496 630.471 304.208 632.471 306.208C634.471 308.205 637.187 309.333 640.013 309.333H733.429L629.346 205.25V298.667Z" fill="black"/>
</svg>