<?xml version="1.0" encoding="UTF-8" standalone="no"?>
<svg width="1024" height="1024" viewBox="0 0 1024 1024" fill="none" xmlns="http://www.w3.org/2000/svg">
<path fill-rule="evenodd" clip-rule="evenodd" d="M320 565.333C356.777 565.333 392.037 579.953 418.042 605.958C444.047 631.963 458.667 667.223 458.667 704C458.667 740.777 444.047 776.037 418.042 802.042C409.901 810.182 400.842 817.19 391.125 823C416.931 826.776 441.428 837.266 461 854.042C486.065 875.529 501.333 905.819 501.333 938.667V981.333C501.333 999.006 487.006 1013.33 469.333 1013.33C451.66 1013.33 437.333 999.006 437.333 981.333V938.667C437.333 926.254 431.605 913.144 419.333 902.625C406.912 891.982 389.156 885.336 369.792 885.333H270.208C250.844 885.336 233.088 891.982 220.667 902.625C208.395 913.144 202.667 926.253 202.667 938.667V981.333C202.667 999.006 188.34 1013.33 170.667 1013.33C152.994 1013.33 138.667 999.006 138.667 981.333V938.667C138.667 905.819 153.935 875.529 179 854.042C198.562 837.275 223.043 826.782 248.833 823C239.128 817.193 230.091 810.174 221.958 802.042C195.953 776.037 181.333 740.777 181.333 704C181.333 667.223 195.953 631.963 221.958 605.958C247.963 579.953 283.223 565.333 320 565.333ZM320 629.333C300.197 629.333 281.211 637.206 267.208 651.208C253.206 665.211 245.333 684.197 245.333 704C245.333 723.803 253.206 742.789 267.208 756.792C281.211 770.794 300.197 778.667 320 778.667C339.803 778.667 358.789 770.794 372.792 756.792C386.794 742.789 394.667 723.803 394.667 704C394.667 684.197 386.794 665.211 372.792 651.208C358.789 637.206 339.803 629.333 320 629.333Z" fill="black"/>
<path fill-rule="evenodd" clip-rule="evenodd" d="M597.333 96C599.386 96 601.389 96.2142 603.333 96.5833C603.456 96.6069 603.586 96.6 603.708 96.625C604.322 96.7491 604.899 97.008 605.5 97.1667C606.91 97.5405 608.323 97.8972 609.667 98.4583C610.925 98.9843 612.079 99.699 613.25 100.375C613.869 100.732 614.53 101.018 615.125 101.417C616.665 102.45 618.082 103.639 619.417 104.917C619.587 105.08 619.791 105.208 619.958 105.375L833.292 318.708C839.083 324.499 842.667 332.497 842.667 341.333V810.667C842.667 841.785 830.296 871.621 808.292 893.625C786.287 915.629 756.452 928 725.333 928H576C558.327 928 544 913.673 544 896C544 878.327 558.327 864 576 864H725.333C739.478 864 753.04 858.377 763.042 848.375C773.044 838.373 778.667 824.811 778.667 810.667V373.333H640C620.197 373.333 601.211 365.461 587.208 351.458C573.206 337.456 565.333 318.47 565.333 298.667V160H298.667C284.522 160 270.96 165.623 260.958 175.625C250.956 185.627 245.333 199.188 245.333 213.333V512C245.333 529.673 231.006 544 213.333 544C195.66 544 181.333 529.673 181.333 512V213.333C181.333 182.215 193.704 152.379 215.708 130.375C237.713 108.371 267.548 96 298.667 96H597.333ZM629.333 298.667C629.333 301.496 630.458 304.208 632.458 306.208C634.459 308.209 637.171 309.333 640 309.333H733.417L629.333 205.25V298.667Z" fill="black"/>
</svg>