<?xml version="1.0" encoding="UTF-8" standalone="no"?>
<svg width="1024" height="1024" viewBox="0 0 1024 1024" fill="none" xmlns="http://www.w3.org/2000/svg">
<path d="M298.667 565.333C316.34 565.333 330.667 579.66 330.667 597.333C330.667 615.006 316.34 629.333 298.667 629.333H170.667C167.838 629.333 165.125 630.458 163.125 632.458C161.125 634.459 160 637.171 160 640V853.333L160.208 855.417C160.617 857.47 161.623 859.373 163.125 860.875C165.125 862.875 167.838 864 170.667 864H384C386.829 864 389.541 862.875 391.542 860.875C393.542 858.875 394.667 856.162 394.667 853.333V725.333C394.667 707.66 408.994 693.333 426.667 693.333C444.34 693.333 458.667 707.66 458.667 725.333V853.333C458.667 873.136 450.794 892.122 436.792 906.125C422.789 920.128 403.803 928 384 928H170.667C150.864 928 131.878 920.128 117.875 906.125C103.872 892.122 96 873.136 96 853.333V640C96 620.197 103.872 601.211 117.875 587.208C131.878 573.206 150.864 565.333 170.667 565.333H298.667Z" fill="black"/>
<path fill-rule="evenodd" clip-rule="evenodd" d="M597.333 96C599.386 96 601.389 96.2142 603.333 96.5833C603.456 96.6069 603.586 96.6 603.708 96.625C604.322 96.7491 604.899 97.008 605.5 97.1667C606.91 97.5405 608.323 97.8972 609.667 98.4583C610.925 98.9843 612.079 99.699 613.25 100.375C613.869 100.732 614.53 101.018 615.125 101.417C616.665 102.45 618.082 103.639 619.417 104.917C619.587 105.08 619.791 105.208 619.958 105.375L833.292 318.708C839.083 324.499 842.667 332.497 842.667 341.333V810.667C842.667 841.785 830.296 871.621 808.292 893.625C786.287 915.629 756.452 928 725.333 928H533.333C515.66 928 501.333 913.673 501.333 896C501.333 878.327 515.66 864 533.333 864H725.333C739.478 864 753.04 858.377 763.042 848.375C773.044 838.373 778.667 824.812 778.667 810.667V373.333H640C620.197 373.333 601.211 365.461 587.208 351.458C573.206 337.456 565.333 318.47 565.333 298.667V160H298.667C284.522 160 270.96 165.623 260.958 175.625C250.956 185.627 245.333 199.188 245.333 213.333V469.333C245.333 487.006 231.006 501.333 213.333 501.333C195.66 501.333 181.333 487.006 181.333 469.333V213.333C181.333 182.215 193.704 152.379 215.708 130.375C237.713 108.371 267.548 96 298.667 96H597.333ZM629.333 298.667C629.333 301.496 630.458 304.208 632.458 306.208C634.459 308.209 637.171 309.333 640 309.333H733.417L629.333 205.25V298.667Z" fill="black"/>
<path d="M469.333 522.667C471.253 522.667 473.132 522.843 474.958 523.167C475.194 523.209 475.432 523.244 475.667 523.292C476.237 523.406 476.774 523.647 477.333 523.792C478.751 524.158 480.175 524.52 481.542 525.083C482.785 525.597 483.925 526.298 485.083 526.958C487.52 528.346 489.88 529.963 491.958 532.042C494.023 534.106 495.618 536.457 497 538.875C497.663 540.033 498.359 541.173 498.875 542.417C499.759 544.55 500.389 546.756 500.792 549C501.121 550.842 501.333 552.73 501.333 554.667V640C501.333 657.673 487.006 672 469.333 672C451.66 672 437.333 657.673 437.333 640V631.917L278.625 790.625C266.128 803.122 245.872 803.122 233.375 790.625C220.878 778.128 220.878 757.872 233.375 745.375L392.083 586.667H384C366.327 586.667 352 572.34 352 554.667C352 536.994 366.327 522.667 384 522.667H469.333Z" fill="black"/>
</svg>