<?xml version="1.0" encoding="UTF-8" standalone="no"?>
<svg width="1024" height="1024" viewBox="0 0 1024 1024" fill="none" xmlns="http://www.w3.org/2000/svg">
<path fill-rule="evenodd" clip-rule="evenodd" d="M320.002 565.333C356.778 565.334 392.04 579.954 418.044 605.958C444.048 631.963 458.669 667.224 458.669 704C458.669 740.776 444.048 776.037 418.044 802.042C392.04 828.046 356.778 842.666 320.002 842.667C294.081 842.667 268.916 835.394 247.211 822L150.627 918.625C138.131 931.121 117.874 931.121 105.377 918.625C92.8807 906.128 92.8807 885.872 105.377 873.375L201.961 776.75C188.585 755.055 181.336 729.904 181.336 704C181.336 667.223 195.956 631.963 221.961 605.958C247.966 579.954 283.226 565.333 320.002 565.333ZM320.002 629.333C300.2 629.333 281.213 637.206 267.211 651.208C253.208 665.211 245.336 684.197 245.336 704C245.336 723.803 253.208 742.789 267.211 756.792C281.213 770.794 300.2 778.667 320.002 778.667C339.804 778.666 358.792 770.794 372.794 756.792C386.796 742.789 394.669 723.802 394.669 704C394.669 684.198 386.796 665.211 372.794 651.208C358.792 637.206 339.804 629.334 320.002 629.333Z" fill="black"/>
<path fill-rule="evenodd" clip-rule="evenodd" d="M600.586 96.1667C601.544 96.2634 602.488 96.4041 603.419 96.5833L603.627 96.625C604.702 96.8393 605.72 97.2228 606.752 97.5417C607.728 97.8435 608.728 98.0652 609.669 98.4583C610.927 98.9843 612.082 99.6989 613.252 100.375C613.872 100.732 614.532 101.018 615.127 101.417C616.668 102.45 618.084 103.639 619.419 104.917C619.589 105.079 619.794 105.208 619.961 105.375L833.294 318.708C839.084 324.499 842.669 332.497 842.669 341.333V810.667C842.669 841.785 830.298 871.621 808.294 893.625C786.29 915.629 756.454 927.999 725.336 928H490.669C472.996 928 458.669 913.673 458.669 896C458.669 878.327 472.996 864 490.669 864H725.336C739.48 863.999 753.043 858.376 763.044 848.375C773.045 838.373 778.669 824.811 778.669 810.667V373.333H640.002C620.2 373.333 601.213 365.46 587.211 351.458C573.208 337.456 565.336 318.47 565.336 298.667V160H298.669C284.525 160 270.963 165.624 260.961 175.625C250.959 185.627 245.336 199.188 245.336 213.333V512C245.336 529.672 231.008 543.999 213.336 544C195.663 544 181.336 529.673 181.336 512V213.333C181.336 182.215 193.706 152.379 215.711 130.375C237.715 108.371 267.551 96 298.669 96H597.336L600.586 96.1667ZM629.336 298.667C629.336 301.496 630.46 304.208 632.461 306.208C634.461 308.208 637.174 309.333 640.002 309.333H733.419L629.336 205.25V298.667Z" fill="black"/>
</svg>