<?xml version="1.0" encoding="UTF-8" standalone="no"?>
<svg width="1024" height="1024" viewBox="0 0 1024 1024" fill="none" xmlns="http://www.w3.org/2000/svg">
<path fill-rule="evenodd" clip-rule="evenodd" d="M405.333 522.667C413.256 522.667 437.517 521.258 456.208 538.25C474.897 555.242 479.998 582.197 480 612.833C480 641.583 467.085 670.692 447.708 698.875C445.466 702.136 443.055 705.388 440.583 708.708L440.667 708.833C448.1 717.843 454.153 724.236 459.083 728.5C460.653 729.857 462.084 730.788 463.208 731.583C463.669 731.025 464.307 730.441 464.875 729.667L507.542 671.5L510.667 667.833C518.553 659.916 530.149 656.615 541.208 659.417C553.837 662.624 563.269 673.174 565.042 686.083C568.199 709.059 574.002 721.787 579.333 728.25C582.696 732.326 586.566 734.748 592.583 735.583C593.076 735.295 593.676 735.044 594.292 734.667C599.163 731.679 605.255 727.432 612.125 722.542C618.542 717.975 625.914 712.639 631.958 708.625C634.979 706.62 638.443 704.41 641.792 702.625C643.455 701.739 645.683 700.658 648.208 699.708C650.173 698.969 655.084 697.208 661.333 697.208C669.826 697.208 677.535 699.566 683.417 701.917C689.625 704.398 695.957 707.752 702.208 711.542C714.697 719.113 729.244 729.857 745.583 743.208C759.267 754.39 761.303 774.565 750.125 788.25C738.944 801.934 718.768 803.97 705.083 792.792C689.792 780.296 677.841 771.65 669 766.292C667.374 765.306 665.934 764.479 664.667 763.792C660.306 766.782 655.168 770.455 649.25 774.667C642.5 779.471 634.733 784.925 627.75 789.208C624.277 791.339 620.315 793.625 616.292 795.458C613.346 796.801 606.061 800 597.333 800C570.668 800 547.117 789.755 529.958 768.958C527.343 765.787 525.014 762.385 522.792 758.875L516.458 767.542C509.379 777.192 500.222 786.605 488.083 792.292C474.932 798.451 461.058 798.944 448.042 795C436.063 791.369 425.805 784.312 417.25 776.917C410.841 771.375 404.599 764.726 398.292 757.542C387.475 768.628 375.678 780.027 362.875 791.667C349.803 803.551 329.557 802.605 317.667 789.542C305.783 776.469 306.728 756.223 319.792 744.333C335.482 730.069 349.111 716.617 360.833 704.083C358.673 700.252 356.469 696.369 354.417 692.375C342.809 669.783 331.166 640.78 330.667 613.417C329.771 564.201 360.787 522.667 405.333 522.667ZM404 587.083C403.16 587.508 401.91 588.408 400.542 590.083C397.906 593.313 394.446 600.161 394.667 612.25C394.834 621.397 398.216 633.805 404.167 647.833C413.03 632.09 416 620.62 416 612.833C415.999 599.989 414.771 592.312 413.542 588C413.414 587.551 413.199 587.18 413.083 586.833C411.462 586.727 409.131 586.667 405.333 586.667C405.333 586.667 404.836 586.662 404 587.083Z" fill="black"/>
<path fill-rule="evenodd" clip-rule="evenodd" d="M597.333 96C599.385 96 601.389 96.2142 603.333 96.5833C603.456 96.6069 603.586 96.6 603.708 96.625C604.322 96.7491 604.899 97.008 605.5 97.1667C606.91 97.5405 608.323 97.8972 609.667 98.4583C610.925 98.9843 612.079 99.699 613.25 100.375C613.869 100.732 614.529 101.018 615.125 101.417C616.665 102.45 618.082 103.639 619.417 104.917C619.587 105.08 619.791 105.208 619.958 105.375L833.292 318.708C839.082 324.499 842.667 332.497 842.667 341.333V810.667C842.667 841.785 830.296 871.621 808.292 893.625C786.287 915.629 756.452 928 725.333 928H298.667C267.548 928 237.713 915.629 215.708 893.625C193.704 871.621 181.333 841.785 181.333 810.667V213.333C181.333 182.215 193.704 152.379 215.708 130.375C237.713 108.371 267.548 96 298.667 96H597.333ZM298.667 160C284.522 160 270.96 165.623 260.958 175.625C250.956 185.627 245.333 199.188 245.333 213.333V810.667L245.583 815.958C246.799 828.16 252.211 839.628 260.958 848.375C270.96 858.377 284.522 864 298.667 864H725.333C739.478 864 753.04 858.377 763.042 848.375C773.044 838.373 778.667 824.812 778.667 810.667V373.333H640C620.197 373.333 601.211 365.461 587.208 351.458C573.206 337.456 565.333 318.47 565.333 298.667V160H298.667ZM629.333 298.667C629.333 301.496 630.458 304.208 632.458 306.208C634.459 308.209 637.171 309.333 640 309.333H733.417L629.333 205.25V298.667Z" fill="black"/>
</svg>