<?xml version="1.0" encoding="UTF-8" standalone="no"?>
<svg width="1024" height="1024" viewBox="0 0 1024 1024" fill="none" xmlns="http://www.w3.org/2000/svg">
<path d="M337.667 662.667C348.707 648.866 368.866 646.626 382.667 657.667C396.467 668.707 398.707 688.866 387.667 702.667L302.333 809.333C296.647 816.441 288.172 820.788 279.083 821.292C270.002 821.789 261.14 818.39 254.708 811.958L212.042 769.292C199.545 756.795 199.545 736.538 212.042 724.042C224.538 711.545 244.795 711.545 257.292 724.042L274.667 741.417L337.667 662.667Z" fill="black"/>
<path fill-rule="evenodd" clip-rule="evenodd" d="M298.667 522.667C352.417 522.667 403.951 544.034 441.958 582.042C479.966 620.049 501.333 671.583 501.333 725.333C501.333 779.084 479.966 830.618 441.958 868.625C403.951 906.632 352.417 928 298.667 928C244.916 928 193.382 906.632 155.375 868.625C117.368 830.618 96 779.084 96 725.333C96 671.583 117.368 620.049 155.375 582.042C193.382 544.034 244.916 522.667 298.667 522.667ZM298.667 586.667C261.89 586.667 226.63 601.287 200.625 627.292C174.62 653.297 160 688.557 160 725.333C160 762.11 174.62 797.37 200.625 823.375C226.63 849.38 261.89 864 298.667 864C335.443 864 370.703 849.38 396.708 823.375C422.713 797.37 437.333 762.11 437.333 725.333C437.333 688.557 422.713 653.297 396.708 627.292C370.703 601.287 335.443 586.667 298.667 586.667Z" fill="black"/>
<path fill-rule="evenodd" clip-rule="evenodd" d="M597.333 96C599.386 96 601.389 96.2142 603.333 96.5833C603.456 96.6069 603.586 96.6 603.708 96.625C604.322 96.7491 604.899 97.008 605.5 97.1667C606.91 97.5405 608.323 97.8972 609.667 98.4583C610.925 98.9843 612.079 99.699 613.25 100.375C613.869 100.732 614.53 101.018 615.125 101.417C616.665 102.45 618.082 103.639 619.417 104.917C619.587 105.08 619.791 105.208 619.958 105.375L833.292 318.708C839.083 324.499 842.667 332.497 842.667 341.333V810.667C842.667 841.785 830.296 871.621 808.292 893.625C786.287 915.629 756.452 928 725.333 928H533.333C515.66 928 501.333 913.673 501.333 896C501.333 878.327 515.66 864 533.333 864H725.333C739.478 864 753.04 858.377 763.042 848.375C773.044 838.373 778.667 824.812 778.667 810.667V373.333H640C620.197 373.333 601.211 365.461 587.208 351.458C573.206 337.456 565.333 318.47 565.333 298.667V160H298.667C284.522 160 270.96 165.623 260.958 175.625C250.956 185.627 245.333 199.188 245.333 213.333V469.333C245.333 487.006 231.006 501.333 213.333 501.333C195.66 501.333 181.333 487.006 181.333 469.333V213.333C181.333 182.215 193.704 152.379 215.708 130.375C237.713 108.371 267.548 96 298.667 96H597.333ZM629.333 298.667C629.333 301.496 630.458 304.208 632.458 306.208C634.459 308.209 637.171 309.333 640 309.333H733.417L629.333 205.25V298.667Z" fill="black"/>
</svg>