<svg width="1024" height="1024" viewBox="0 0 1024 1024" fill="none" xmlns="http://www.w3.org/2000/svg">
<path d="M617.375 404.042C629.872 391.545 650.128 391.545 662.625 404.042C675.122 416.538 675.122 436.795 662.625 449.292L491.958 619.958C479.462 632.455 459.205 632.455 446.708 619.958L361.375 534.625C348.878 522.128 348.878 501.872 361.375 489.375C373.872 476.878 394.128 476.878 406.625 489.375L469.333 552.083L617.375 404.042Z" fill="black"/>
<path fill-rule="evenodd" clip-rule="evenodd" d="M512.458 96.4584C529.036 96.4625 545.484 99.801 560.792 106.167C576.06 112.523 589.954 121.825 601.625 133.542L631.458 163.375L635.958 167.458C646.937 176.405 660.757 181.332 675 181.333H717.667C751.037 181.339 783.068 194.614 806.667 218.208C830.256 241.808 843.539 273.84 843.542 307.208V349.875C843.547 366.124 849.984 381.807 861.458 393.375L891.292 423.208L899.625 432.375C907.504 441.934 913.976 452.645 918.75 464.125C925.11 479.432 928.375 495.882 928.375 512.458C928.371 529.036 925.115 545.485 918.75 560.792C912.381 576.099 903.048 590.017 891.292 601.708L891.25 601.667L861.458 631.5C849.985 643.076 843.551 658.74 843.542 675.042V717.667C843.536 751.041 830.266 783.067 806.667 806.667C783.067 830.266 751.041 843.537 717.667 843.542H675.042L668.917 843.833C654.823 845.239 641.548 851.468 631.417 861.542L601.667 891.25C589.975 903.007 576.1 912.381 560.792 918.75C545.485 925.116 529.036 928.371 512.458 928.375C495.882 928.375 479.432 925.11 464.125 918.75C448.841 912.394 434.931 903.061 423.25 891.333L393.458 861.542L388.917 857.458C379.51 849.79 368.034 845.039 355.958 843.833L349.875 843.542H307.208C273.84 843.539 241.808 830.256 218.208 806.667C194.614 783.068 181.339 751.037 181.333 717.667V675.042L181.042 668.917C179.638 654.852 173.454 641.581 163.417 631.458L133.542 601.625C121.834 589.959 112.519 576.05 106.167 560.792C99.8012 545.485 96.5043 529.036 96.5 512.458C96.5 495.874 99.8003 479.438 106.167 464.125C112.525 448.836 121.81 434.933 133.542 423.25L163.417 393.375C173.448 383.254 179.639 370.018 181.042 355.958L181.333 349.875V307.208C181.336 273.831 194.607 241.81 218.208 218.208C241.81 194.606 273.83 181.336 307.208 181.333H349.875L355.958 181.042C370.018 179.639 383.254 173.448 393.375 163.417L423.25 133.542C434.934 121.809 448.836 112.525 464.125 106.167C479.439 99.7999 495.874 96.4584 512.458 96.4584ZM512.458 160.5C504.312 160.5 496.231 162.125 488.708 165.25C481.18 168.381 474.333 172.968 468.583 178.75L468.5 178.792L438.583 208.75C415.025 232.172 383.136 245.306 349.917 245.333H307.208C290.804 245.336 275.058 251.859 263.458 263.458C251.859 275.058 245.336 290.805 245.333 307.208V349.917C245.306 383.136 232.172 415.026 208.75 438.583L178.792 468.5L178.75 468.583C172.969 474.333 168.381 481.18 165.25 488.708C162.125 496.23 160.5 504.313 160.5 512.458C160.504 520.601 162.123 528.69 165.25 536.208C167.595 541.837 170.761 547.103 174.625 551.792L178.75 556.333L208.667 586.25L208.75 586.292C232.172 609.856 245.314 641.775 245.333 675V717.667C245.339 734.063 251.867 749.82 263.458 761.417C275.056 773.004 290.814 779.539 307.208 779.542H349.917C378.991 779.566 407.037 789.656 429.375 807.875L438.583 816.167L438.667 816.208L468.583 846.167C474.326 851.933 481.193 856.542 488.708 859.667C496.224 862.785 504.321 864.375 512.458 864.375C520.601 864.371 528.689 862.793 536.208 859.667C543.733 856.536 550.587 851.946 556.333 846.167L556.375 846.083L586.292 816.167C609.858 792.733 641.766 779.561 675 779.542H717.667C734.067 779.537 749.819 773.014 761.417 761.417C773.014 749.819 779.536 734.067 779.542 717.667V675L780.167 662.583C783.023 633.903 795.667 606.907 816.167 586.292L846.083 556.375L846.167 556.333C851.946 550.587 856.536 543.733 859.667 536.208C862.793 528.69 864.371 520.601 864.375 512.458C864.375 504.321 862.785 496.224 859.667 488.708C856.542 481.194 851.933 474.326 846.167 468.583L816.208 438.667L816.167 438.583C792.71 415.011 779.547 383.07 779.542 349.875V307.208C779.539 290.814 773.004 275.056 761.417 263.458C749.82 251.866 734.064 245.339 717.667 245.333H675C641.808 245.332 609.866 232.157 586.292 208.708L556.333 178.75C550.592 172.977 543.724 168.381 536.208 165.25C528.689 162.123 520.601 160.504 512.458 160.5Z" fill="black"/>
</svg>
