<?xml version="1.0" encoding="UTF-8" standalone="no"?>
<svg width="1024" height="1024" viewBox="0 0 1024 1024" fill="none" xmlns="http://www.w3.org/2000/svg">
<path fill-rule="evenodd" clip-rule="evenodd" d="M483.542 480C509.864 480 535.717 489.379 555.25 506.958C574.893 524.638 586.667 549.387 586.667 576V832C586.667 858.613 574.893 883.362 555.25 901.042C535.717 918.621 509.864 928 483.542 928H199.125C172.803 928 146.95 918.621 127.417 901.042C107.773 883.362 96 858.613 96 832V576C96 549.387 107.773 524.638 127.417 506.958C146.95 489.379 172.803 480 199.125 480H483.542ZM277.333 672C278.487 672 274.931 671.254 267.958 680.042L160 821.458V832L160.625 837.542C161.854 843.133 164.975 848.711 170.25 853.458C177.389 859.882 187.729 864 199.125 864H483.542C494.938 864 505.278 859.882 512.417 853.458C517.692 848.711 520.812 843.133 522.042 837.542L522.667 832V821.75L475.042 761.167L472.375 758.375C471.676 759.003 470.788 759.897 469.75 761.167L451.833 783.958C450.938 785.096 449.927 786.101 448.917 787.083L452.083 791.25C462.803 805.295 460.122 825.359 446.083 836.083C432.038 846.803 411.975 844.122 401.25 830.083L286.708 680.042C279.735 671.254 276.179 672 277.333 672ZM199.125 544C187.729 544 177.389 548.118 170.25 554.542C163.222 560.866 160 568.666 160 576V716L217.417 640.75L217.792 640.292C232.134 622.209 252.377 608 277.333 608C299.172 608 317.386 618.876 331.208 633.708L336.875 640.292L337.25 640.75L409 734.792L419.792 721.125L420.167 720.667C432.492 705.584 450.253 693.336 472.375 693.333C493.408 693.333 510.441 704.448 522.667 718.5V576C522.667 568.666 519.444 560.866 512.417 554.542C505.278 548.118 494.938 544 483.542 544H199.125Z" fill="black"/>
<path fill-rule="evenodd" clip-rule="evenodd" d="M597.333 96C599.386 96 601.389 96.2142 603.333 96.5833C603.456 96.6069 603.586 96.6 603.708 96.625C604.322 96.7491 604.899 97.008 605.5 97.1667C606.91 97.5405 608.323 97.8972 609.667 98.4583C610.925 98.9843 612.079 99.699 613.25 100.375C613.869 100.732 614.53 101.018 615.125 101.417C616.665 102.45 618.082 103.639 619.417 104.917C619.587 105.08 619.791 105.208 619.958 105.375L833.292 318.708C839.083 324.499 842.667 332.497 842.667 341.333V810.667C842.667 841.785 830.296 871.621 808.292 893.625C786.287 915.629 756.452 928 725.333 928H661.333C643.66 928 629.333 913.673 629.333 896C629.333 878.327 643.66 864 661.333 864H725.333C739.478 864 753.04 858.377 763.042 848.375C773.044 838.373 778.667 824.812 778.667 810.667V373.333H640C620.197 373.333 601.211 365.461 587.208 351.458C573.206 337.456 565.333 318.47 565.333 298.667V160H298.667C284.522 160 270.96 165.623 260.958 175.625C250.956 185.627 245.333 199.188 245.333 213.333V384C245.333 401.673 231.006 416 213.333 416C195.66 416 181.333 401.673 181.333 384V213.333C181.333 182.215 193.704 152.379 215.708 130.375C237.713 108.371 267.548 96 298.667 96H597.333ZM629.333 298.667C629.333 301.496 630.458 304.208 632.458 306.208C634.459 308.209 637.171 309.333 640 309.333H733.417L629.333 205.25V298.667Z" fill="black"/>
</svg>