<svg width="1024" height="1024" viewBox="0 0 1024 1024" fill="none" xmlns="http://www.w3.org/2000/svg">
<path d="M853.333 736C871.006 736 885.333 750.327 885.333 768C885.333 785.673 871.006 800 853.333 800H170.667C152.994 800 138.667 785.673 138.667 768C138.667 750.327 152.994 736 170.667 736H853.333Z" fill="black"/>
<path d="M853.333 480C871.006 480 885.333 494.327 885.333 512C885.333 529.673 871.006 544 853.333 544H170.667C152.994 544 138.667 529.673 138.667 512C138.667 494.327 152.994 480 170.667 480H853.333Z" fill="black"/>
<path d="M853.333 224C871.006 224 885.333 238.327 885.333 256C885.333 273.673 871.006 288 853.333 288H170.667C152.994 288 138.667 273.673 138.667 256C138.667 238.327 152.994 224 170.667 224H853.333Z" fill="black"/>
</svg>
