<svg width="1024" height="1024" viewBox="0 0 1024 1024" fill="none" xmlns="http://www.w3.org/2000/svg">
<path d="M507.417 92.3064C609.616 91.1438 708.66 127.647 785.667 194.848C862.672 262.053 912.239 355.263 924.917 456.681C937.585 558.092 912.507 660.638 854.417 744.723C796.318 828.808 709.258 888.573 609.917 912.598C510.578 936.615 405.847 923.219 315.75 874.973C252.82 841.27 200.149 792.166 162.125 732.931V853.348C162.114 871.012 147.791 885.348 130.125 885.348C112.462 885.343 98.1358 871.009 98.125 853.348V640.015C98.1266 622.346 112.457 608.019 130.125 608.015H343.458C361.13 608.015 375.457 622.343 375.458 640.015C375.448 657.679 361.125 672.015 343.458 672.015H200.583C233.148 733.97 283.632 785.175 345.958 818.556C422.194 859.38 510.819 870.711 594.875 850.39C678.931 830.061 752.589 779.494 801.75 708.348C850.907 637.196 872.139 550.412 861.417 464.598C850.688 378.784 808.742 299.921 743.583 243.056C678.42 186.191 594.606 155.319 508.125 156.306C421.652 157.297 338.552 190.058 274.708 248.39C210.869 306.728 170.722 386.562 161.958 472.598C160.155 490.167 144.449 502.971 126.875 501.181C109.307 499.384 96.5132 483.667 98.2917 466.098C108.651 364.425 156.1 270.125 231.542 201.181C306.996 132.236 405.214 93.4758 507.417 92.3064Z" fill="black"/>
<path d="M512 309.348C529.673 309.348 544 323.675 544 341.348V498.765L619.958 574.723C632.448 587.22 632.453 607.479 619.958 619.973C607.463 632.46 587.203 632.46 574.708 619.973L489.375 534.64C483.377 528.642 480.004 520.496 480 512.015V341.348C480 323.675 494.327 309.348 512 309.348Z" fill="black"/>
</svg>
