<svg width="1024" height="1024" viewBox="0 0 1024 1024" fill="none" xmlns="http://www.w3.org/2000/svg">
<path d="M426.667 693.333C444.34 693.333 458.667 707.66 458.667 725.333C458.667 743.006 444.34 757.333 426.667 757.333H384C366.327 757.333 352 743.006 352 725.333C352 707.66 366.327 693.333 384 693.333H426.667Z" fill="black"/>
<path d="M640 693.333C657.673 693.333 672 707.66 672 725.333C672 743.006 657.673 757.333 640 757.333H597.333C579.66 757.333 565.333 743.006 565.333 725.333C565.333 707.66 579.66 693.333 597.333 693.333H640Z" fill="black"/>
<path fill-rule="evenodd" clip-rule="evenodd" d="M728.292 96.0416C741.061 96.0399 753.404 100.586 763.083 108.917C772.769 117.252 779.145 128.781 781.042 141.417L842.333 549.917C842.368 550.15 842.346 550.391 842.375 550.625C842.542 551.95 842.667 553.296 842.667 554.667V864H896C913.673 864 928 878.327 928 896C928 913.673 913.673 928 896 928H128C110.327 928 96 913.673 96 896C96 878.327 110.327 864 128 864H181.333V384L181.667 379.458C183.165 369 189.762 359.833 199.458 355.167C210.545 349.838 223.728 351.316 233.333 359L394.667 488.042V384C394.667 371.704 401.713 360.498 412.792 355.167C423.879 349.838 437.061 351.316 446.667 359L573.458 460.417L626.792 140.583L627.75 135.958C630.504 125.326 636.515 115.769 644.958 108.625L648.667 105.75C657.635 99.4271 668.368 96.0363 679.417 96.0416H728.292ZM458.667 554.667C458.667 566.962 451.621 578.169 440.542 583.5C429.455 588.829 416.272 587.351 406.667 579.667L245.333 450.583V864H778.667V586.667H640C632.734 586.667 625.674 584.206 620 579.667L458.667 450.583V554.667ZM630.708 506.25L651.25 522.667H773.5L719.125 160H688.417L630.708 506.25Z" fill="black"/>
</svg>
