<svg width="1024" height="1024" viewBox="0 0 1024 1024" fill="none" xmlns="http://www.w3.org/2000/svg">
<path d="M512 85.3334C747.648 85.3334 938.667 276.352 938.667 512C938.755 624.02 894.786 731.582 816.252 811.462C737.717 891.343 630.918 937.133 518.913 938.948C406.908 940.763 298.681 898.457 217.6 821.163C136.519 743.869 89.0875 637.788 85.5467 525.824L85.3333 512L85.504 500.053C91.8187 269.952 280.32 85.3334 512 85.3334ZM512.427 640L507.008 640.299C496.638 641.532 487.08 646.526 480.146 654.335C473.211 662.143 469.381 672.224 469.381 682.667C469.381 693.11 473.211 703.191 480.146 710.999C487.08 718.807 496.638 723.801 507.008 725.035L512 725.334L517.419 725.035C527.789 723.801 537.346 718.807 544.281 710.999C551.216 703.191 555.046 693.11 555.046 682.667C555.046 672.224 551.216 662.143 544.281 654.335C537.346 646.526 527.789 641.532 517.419 640.299L512.427 640ZM512 298.667C501.55 298.668 491.463 302.505 483.653 309.449C475.844 316.394 470.855 325.963 469.632 336.341L469.333 341.333V512L469.632 516.992C470.866 527.362 475.859 536.92 483.668 543.855C491.476 550.789 501.557 554.619 512 554.619C522.443 554.619 532.524 550.789 540.332 543.855C548.141 536.92 553.135 527.362 554.368 516.992L554.667 512V341.333L554.368 336.341C553.145 325.963 548.156 316.394 540.347 309.449C532.537 302.505 522.451 298.668 512 298.667Z" fill="#F53C31"/>
</svg>
