<svg width="1024" height="1024" viewBox="0 0 1024 1024" fill="none" xmlns="http://www.w3.org/2000/svg">
<path d="M512 650.667C529.673 650.667 544 664.994 544 682.667V683.083C544 700.756 529.673 715.083 512 715.083C494.327 715.083 480 700.756 480 683.083V682.667C480 664.994 494.327 650.667 512 650.667Z" fill="black"/>
<path d="M489.625 354.25C515.403 349.093 542.184 352.809 565.583 364.792L565.542 364.833C589.032 376.812 607.81 396.337 618.833 420.292C629.858 444.256 632.484 471.234 626.292 496.875C620.096 522.514 605.455 545.338 584.708 561.625C563.954 577.911 538.298 586.743 511.917 586.667C494.244 586.614 479.947 572.215 480 554.542C480.069 536.886 494.426 522.621 512.083 522.667C524.071 522.703 535.734 518.689 545.167 511.292C554.599 503.888 561.267 493.489 564.083 481.833C566.892 470.186 565.715 457.928 560.708 447.042C555.695 436.15 547.142 427.235 536.458 421.792C525.916 416.392 513.782 414.677 502.167 417C490.558 419.326 480.068 425.547 472.417 434.583C461 448.061 440.82 449.74 427.333 438.333C413.849 426.914 412.167 406.696 423.583 393.208C440.571 373.149 463.849 359.407 489.625 354.25Z" fill="black"/>
<path fill-rule="evenodd" clip-rule="evenodd" d="M512 96C622.33 96 728.152 139.818 806.167 217.833C884.182 295.848 928 401.67 928 512C928 566.63 917.239 620.737 896.333 671.208C875.427 721.676 844.793 767.54 806.167 806.167C767.54 844.793 721.676 875.427 671.208 896.333C627.047 914.626 580.099 925.154 532.458 927.5L512 928C457.37 928 403.263 917.239 352.792 896.333C302.324 875.427 256.46 844.793 217.833 806.167C179.207 767.54 148.573 721.676 127.667 671.208C106.761 620.737 96 566.63 96 512C96 401.67 139.818 295.848 217.833 217.833C295.848 139.818 401.67 96 512 96ZM512 160C418.644 160 329.096 197.071 263.083 263.083C197.071 329.096 160 418.644 160 512C160 558.225 169.102 604.002 186.792 646.708C204.481 689.414 230.398 728.231 263.083 760.917C295.769 793.602 334.586 819.519 377.292 837.208C419.998 854.898 465.775 864 512 864L529.292 863.583C569.61 861.6 609.335 852.689 646.708 837.208C689.414 819.519 728.231 793.602 760.917 760.917C793.602 728.231 819.519 689.414 837.208 646.708C854.898 604.002 864 558.225 864 512C864 418.644 826.929 329.096 760.917 263.083C694.904 197.071 605.356 160 512 160Z" fill="black"/>
</svg>
