<svg width="1024" height="1024" viewBox="0 0 1024 1024" fill="none" xmlns="http://www.w3.org/2000/svg">
<path d="M166.233 522.976C183.735 520.544 199.921 532.768 202.358 550.268C211.829 618.394 243.444 681.537 292.317 729.935C341.186 778.326 404.608 809.336 472.817 818.143C541.027 826.944 610.261 813.041 669.817 778.643C714.894 752.601 752.537 715.858 779.65 672.018H682.65C664.99 672.009 650.66 657.677 650.65 640.018C650.65 622.35 664.985 608.027 682.65 608.018H853.317L856.608 608.185C872.735 609.832 885.317 623.456 885.317 640.018V810.685C885.307 828.35 870.984 842.685 853.317 842.685C835.657 842.676 821.326 828.344 821.317 810.685V724.893C790.016 769.205 749.396 806.594 701.858 834.06C630.149 875.481 546.783 892.197 464.65 881.601C382.519 871 306.121 833.702 247.275 775.435C188.43 717.161 150.347 641.128 138.942 559.101C136.51 541.606 148.744 525.423 166.233 522.976Z" fill="black"/>
<path d="M322.108 189.935C393.818 148.507 477.181 131.842 559.317 142.435C641.454 153.033 717.842 190.329 776.692 248.601C835.543 306.88 873.624 382.898 885.025 464.935C887.453 482.432 875.228 498.579 857.733 501.018C840.237 503.44 824.043 491.223 821.608 473.726C812.137 405.602 780.522 342.498 731.65 294.101C682.777 245.705 619.364 214.697 551.15 205.893C482.942 197.095 413.703 210.953 354.15 245.351C309.063 271.402 271.387 308.161 244.275 352.018H341.317C358.99 352.018 373.317 366.345 373.317 384.018C373.306 401.682 358.983 416.018 341.317 416.018H170.65C152.991 416.009 138.661 401.676 138.65 384.018V213.351C138.65 195.684 152.985 181.36 170.65 181.351C188.323 181.351 202.65 195.678 202.65 213.351V299.101C233.95 254.79 274.572 217.4 322.108 189.935Z" fill="black"/>
</svg>
