<svg width="1024" height="1024" viewBox="0 0 1024 1024" fill="none" xmlns="http://www.w3.org/2000/svg">
<path d="M515.292 480.167C531.418 481.815 544 495.438 544 512V650.667H554.667C572.34 650.667 586.667 664.994 586.667 682.667C586.667 700.34 572.34 714.667 554.667 714.667H512C494.327 714.667 480 700.34 480 682.667V544H469.333C451.66 544 437.333 529.673 437.333 512C437.333 494.327 451.66 480 469.333 480H512L515.292 480.167Z" fill="black"/>
<path d="M512.417 352C530.09 352 544.417 366.327 544.417 384C544.417 401.673 530.09 416 512.417 416H512C494.327 416 480 401.673 480 384C480 366.327 494.327 352 512 352H512.417Z" fill="black"/>
<path fill-rule="evenodd" clip-rule="evenodd" d="M512 96C622.33 96 728.152 139.818 806.167 217.833C884.182 295.848 928 401.67 928 512C928 566.63 917.239 620.737 896.333 671.208C875.428 721.676 844.793 767.54 806.167 806.167C767.54 844.793 721.676 875.428 671.208 896.333C627.047 914.626 580.099 925.154 532.458 927.5L512 928C457.37 928 403.263 917.239 352.792 896.333C302.324 875.428 256.46 844.793 217.833 806.167C179.207 767.54 148.573 721.676 127.667 671.208C106.761 620.737 96 566.63 96 512C96 401.67 139.818 295.848 217.833 217.833C295.848 139.818 401.67 96 512 96ZM512 160C418.644 160 329.096 197.071 263.083 263.083C197.071 329.096 160 418.644 160 512C160 558.225 169.102 604.002 186.792 646.708C204.481 689.414 230.398 728.231 263.083 760.917C295.769 793.602 334.586 819.519 377.292 837.208C419.998 854.898 465.775 864 512 864L529.292 863.583C569.61 861.6 609.335 852.689 646.708 837.208C689.414 819.519 728.231 793.602 760.917 760.917C793.602 728.231 819.519 689.414 837.208 646.708C854.898 604.002 864 558.225 864 512C864 418.644 826.929 329.096 760.917 263.083C694.904 197.071 605.356 160 512 160Z" fill="black"/>
</svg>
