<svg width="1024" height="1024" viewBox="0 0 1024 1024" fill="none" xmlns="http://www.w3.org/2000/svg">
<path d="M170.667 693.333C188.34 693.333 202.667 707.66 202.667 725.333V768L202.917 773.292C204.133 785.494 209.545 796.961 218.292 805.708C228.294 815.71 241.855 821.333 256 821.333H341.333C359.006 821.333 373.333 835.66 373.333 853.333C373.333 871.006 359.006 885.333 341.333 885.333H256C224.881 885.333 195.046 872.963 173.042 850.958C151.037 828.954 138.667 799.119 138.667 768V725.333C138.667 707.66 152.994 693.333 170.667 693.333Z" fill="black"/>
<path d="M853.333 693.333C871.006 693.333 885.333 707.66 885.333 725.333V768C885.333 799.119 872.963 828.954 850.958 850.958C828.954 872.963 799.119 885.333 768 885.333H682.667C664.994 885.333 650.667 871.006 650.667 853.333C650.667 835.66 664.994 821.333 682.667 821.333H768C782.145 821.333 795.706 815.71 805.708 805.708C815.71 795.706 821.333 782.145 821.333 768V725.333C821.333 707.66 835.66 693.333 853.333 693.333Z" fill="black"/>
<path d="M259.292 437.5C275.418 439.148 288 452.772 288 469.333V554.667L287.833 557.958C286.186 574.085 272.562 586.667 256 586.667H213.333C195.66 586.667 181.333 572.34 181.333 554.667V469.333C181.333 451.66 195.66 437.333 213.333 437.333H256L259.292 437.5Z" fill="black"/>
<path d="M426.667 437.333C444.34 437.333 458.667 451.66 458.667 469.333V554.667C458.667 572.34 444.34 586.667 426.667 586.667C408.994 586.667 394.667 572.34 394.667 554.667V469.333C394.667 451.66 408.994 437.333 426.667 437.333Z" fill="black"/>
<path d="M643.292 437.5C659.418 439.148 672 452.772 672 469.333V554.667L671.833 557.958C670.186 574.085 656.562 586.667 640 586.667H597.333C579.66 586.667 565.333 572.34 565.333 554.667V469.333C565.333 451.66 579.66 437.333 597.333 437.333H640L643.292 437.5Z" fill="black"/>
<path d="M810.667 437.333C828.34 437.333 842.667 451.66 842.667 469.333V554.667C842.667 572.34 828.34 586.667 810.667 586.667C792.994 586.667 778.667 572.34 778.667 554.667V469.333C778.667 451.66 792.994 437.333 810.667 437.333Z" fill="black"/>
<path d="M341.333 138.667C359.006 138.667 373.333 152.994 373.333 170.667C373.333 188.34 359.006 202.667 341.333 202.667H256C241.855 202.667 228.294 208.29 218.292 218.292C208.29 228.294 202.667 241.855 202.667 256V298.667C202.667 316.34 188.34 330.667 170.667 330.667C152.994 330.667 138.667 316.34 138.667 298.667V256C138.667 224.881 151.037 195.046 173.042 173.042C195.046 151.037 224.881 138.667 256 138.667H341.333Z" fill="black"/>
<path d="M768 138.667C799.119 138.667 828.954 151.037 850.958 173.042C872.963 195.046 885.333 224.881 885.333 256V298.667C885.333 316.34 871.006 330.667 853.333 330.667C835.66 330.667 821.333 316.34 821.333 298.667V256C821.333 241.855 815.71 228.294 805.708 218.292C796.961 209.544 785.494 204.133 773.292 202.917L768 202.667H682.667C664.994 202.667 650.667 188.34 650.667 170.667C650.667 152.994 664.994 138.667 682.667 138.667H768Z" fill="black"/>
</svg>
