<svg width="1024" height="1024" viewBox="0 0 1024 1024" fill="none" xmlns="http://www.w3.org/2000/svg">
<path fill-rule="evenodd" clip-rule="evenodd" d="M515.458 85.3609C589.179 85.9604 661.488 105.664 725.333 142.528C789.682 179.684 843.213 232.994 880.625 297.194C918.037 361.397 938.025 434.264 938.625 508.569C939.223 582.872 920.411 656.064 884.042 720.861C847.672 785.65 795.027 839.841 731.292 878.028C667.548 916.218 594.918 937.065 520.625 938.569C446.333 940.073 372.944 922.148 307.708 886.569C242.472 850.989 187.63 799.009 148.667 735.736C109.704 672.461 87.9485 600.089 85.5417 525.819L85.3333 511.986L85.5417 498.194C87.9313 424.509 109.388 352.668 147.792 289.736C186.195 226.811 240.235 174.888 304.667 139.069C369.103 103.248 441.736 84.7618 515.458 85.3609ZM641.292 382.694C628.797 370.21 608.536 370.209 596.042 382.694L512 466.736L427.958 382.694C415.463 370.21 395.202 370.209 382.708 382.694C370.215 395.188 370.222 415.447 382.708 427.944L466.75 511.986L382.708 596.028C370.215 608.521 370.222 628.78 382.708 641.278C395.205 653.772 415.462 653.774 427.958 641.278L512 557.236L596.042 641.278C608.539 653.772 628.796 653.774 641.292 641.278C653.78 628.781 653.783 608.522 641.292 596.028L557.25 511.986L641.292 427.944C653.78 415.448 653.783 395.189 641.292 382.694Z" fill="black"/>
</svg>
