<svg width="1024" height="1024" viewBox="0 0 1024 1024" fill="none" xmlns="http://www.w3.org/2000/svg">
<path fill-rule="evenodd" clip-rule="evenodd" d="M512 85.3334C747.648 85.3334 938.667 276.352 938.667 512C938.755 624.02 894.784 731.578 816.25 811.458C737.717 891.338 630.921 937.143 518.917 938.958C406.911 940.773 298.665 898.461 217.583 821.167C136.508 743.875 89.0847 637.791 85.5417 525.833L85.3333 512L85.5 500.042C91.8207 269.946 280.324 85.3334 512 85.3334ZM512 640C501.551 640.001 491.476 643.849 483.667 650.792C475.859 657.735 470.849 667.291 469.625 677.667L469.333 682.667L469.625 688.083C470.859 698.453 475.858 708.024 483.667 714.958C491.474 721.89 501.559 725.708 512 725.708C522.441 725.708 532.526 721.89 540.333 714.958C548.142 708.024 553.142 698.453 554.375 688.083L554.667 683.083L554.375 677.667C553.151 667.291 548.141 657.735 540.333 650.792C532.524 643.849 522.449 640.001 512 640ZM570.375 355.292C544.835 342.235 515.624 338.195 487.5 343.833C459.381 349.471 433.991 364.447 415.458 386.333C408.392 394.611 404.753 405.297 405.292 416.167C405.832 427.034 410.486 437.296 418.333 444.833C426.181 452.369 436.62 456.607 447.5 456.708C458.376 456.807 468.891 452.761 476.875 445.375L484.167 437.667C490.461 431.889 498.408 428.186 506.875 427.042C515.337 425.902 523.945 427.395 531.542 431.292C539.734 435.44 546.366 442.113 550.458 450.333C554.552 458.556 555.88 467.877 554.25 476.917C552.62 485.954 548.123 494.226 541.417 500.5C534.711 506.772 526.166 510.724 517.042 511.75L507.125 512.25C496.279 513.446 486.304 518.759 479.25 527.083C472.193 535.414 468.602 546.141 469.208 557.042C469.816 567.941 474.563 578.214 482.5 585.708C490.437 593.201 500.96 597.351 511.875 597.333C540.658 597.419 568.648 587.81 591.292 570.042C613.929 552.276 629.904 527.386 636.667 499.417C643.428 471.438 640.572 441.982 628.542 415.833C616.512 389.687 596.018 368.36 570.375 355.292Z" fill="black"/>
</svg>
