<svg width="1024" height="1024" viewBox="0 0 1024 1024" fill="none" xmlns="http://www.w3.org/2000/svg">
<path d="M512.417 650.667C530.09 650.667 544.417 664.994 544.417 682.667C544.417 700.34 530.09 714.667 512.417 714.667H512C494.327 714.667 480 700.34 480 682.667C480 664.994 494.327 650.667 512 650.667H512.417Z" fill="#F53C31"/>
<path d="M512 309.333C529.673 309.333 544 323.66 544 341.333V512C544 529.673 529.673 544 512 544C494.327 544 480 529.673 480 512V341.333C480 323.66 494.327 309.333 512 309.333Z" fill="#F53C31"/>
<path fill-rule="evenodd" clip-rule="evenodd" d="M512 96C622.33 96 728.152 139.818 806.167 217.833C884.182 295.848 928 401.67 928 512C928 566.63 917.239 620.737 896.333 671.208C875.428 721.676 844.793 767.54 806.167 806.167C767.54 844.793 721.676 875.428 671.208 896.333C627.047 914.626 580.099 925.154 532.458 927.5L512 928C457.37 928 403.263 917.239 352.792 896.333C302.324 875.428 256.46 844.793 217.833 806.167C179.207 767.54 148.573 721.676 127.667 671.208C106.761 620.737 96 566.63 96 512C96 401.67 139.818 295.848 217.833 217.833C295.848 139.818 401.67 96 512 96ZM512 160C418.644 160 329.096 197.071 263.083 263.083C197.071 329.096 160 418.644 160 512C160 558.225 169.102 604.002 186.792 646.708C204.481 689.414 230.398 728.231 263.083 760.917C295.769 793.602 334.586 819.519 377.292 837.208C419.998 854.898 465.775 864 512 864L529.292 863.583C569.61 861.6 609.335 852.689 646.708 837.208C689.414 819.519 728.231 793.602 760.917 760.917C793.602 728.231 819.519 689.414 837.208 646.708C854.898 604.002 864 558.225 864 512C864 418.644 826.929 329.096 760.917 263.083C694.904 197.071 605.356 160 512 160Z" fill="#F53C31"/>
</svg>
