<svg width="1024" height="1024" viewBox="0 0 1024 1024" fill="none" xmlns="http://www.w3.org/2000/svg">
<path d="M512 309.333C513.92 309.333 515.798 309.509 517.625 309.833C517.861 309.875 518.098 309.911 518.333 309.958C518.904 310.073 519.441 310.314 520 310.458C521.418 310.824 522.842 311.187 524.208 311.75C525.452 312.264 526.591 312.965 527.75 313.625C530.187 315.012 532.546 316.63 534.625 318.708L705.292 489.375C717.788 501.872 717.788 522.128 705.292 534.625C692.795 547.122 672.538 547.122 660.042 534.625L544 418.583V682.667C544 700.34 529.673 714.667 512 714.667C494.327 714.667 480 700.34 480 682.667V418.583L363.958 534.625C351.462 547.122 331.205 547.122 318.708 534.625C306.212 522.128 306.212 501.872 318.708 489.375L489.375 318.708C491.445 316.639 493.783 315.009 496.208 313.625C497.301 313.001 498.373 312.328 499.542 311.833L499.958 311.667C501.258 311.14 502.613 310.807 503.958 310.458C504.517 310.313 505.055 310.074 505.625 309.958C505.86 309.911 506.098 309.876 506.333 309.833C508.173 309.505 510.066 309.333 512 309.333Z" fill="black"/>
<path fill-rule="evenodd" clip-rule="evenodd" d="M512 96C622.33 96 728.152 139.818 806.167 217.833C884.182 295.848 928 401.67 928 512C928 566.63 917.239 620.737 896.333 671.208C875.427 721.676 844.793 767.54 806.167 806.167C767.54 844.793 721.676 875.427 671.208 896.333C627.047 914.626 580.099 925.154 532.458 927.5L512 928C457.37 928 403.263 917.239 352.792 896.333C302.324 875.427 256.46 844.793 217.833 806.167C179.207 767.54 148.573 721.676 127.667 671.208C106.761 620.737 96 566.63 96 512C96 401.67 139.818 295.848 217.833 217.833C295.848 139.818 401.67 96 512 96ZM512 160C418.644 160 329.096 197.071 263.083 263.083C197.071 329.096 160 418.644 160 512C160 558.225 169.102 604.002 186.792 646.708C204.481 689.414 230.398 728.231 263.083 760.917C295.769 793.602 334.586 819.519 377.292 837.208C419.998 854.898 465.775 864 512 864L529.292 863.583C569.61 861.6 609.335 852.689 646.708 837.208C689.414 819.519 728.231 793.602 760.917 760.917C793.602 728.231 819.519 689.414 837.208 646.708C854.898 604.002 864 558.225 864 512C864 418.644 826.929 329.096 760.917 263.083C694.904 197.071 605.356 160 512 160Z" fill="black"/>
</svg>
