<svg width="1024" height="1024" viewBox="0 0 1024 1024" fill="none" xmlns="http://www.w3.org/2000/svg">
<path fill-rule="evenodd" clip-rule="evenodd" d="M512 181.333C555.424 181.333 598.423 189.883 638.542 206.5C678.66 223.118 715.128 247.461 745.833 278.167C776.538 308.872 800.882 345.34 817.5 385.458C834.117 425.577 842.667 468.576 842.667 512C842.667 599.698 807.845 683.821 745.833 745.833C683.821 807.845 599.698 842.667 512 842.667C424.302 842.667 340.179 807.845 278.167 745.833C216.155 683.821 181.333 599.698 181.333 512C181.333 468.576 189.883 425.576 206.5 385.458C223.118 345.34 247.461 308.872 278.167 278.167C308.872 247.461 345.34 223.118 385.458 206.5C425.576 189.883 468.576 181.333 512 181.333ZM512 245.333C476.984 245.333 442.309 252.226 409.958 265.625C377.605 279.026 348.221 298.696 323.458 323.458C298.696 348.221 279.026 377.605 265.625 409.958C252.226 442.309 245.333 476.984 245.333 512C245.333 582.724 273.449 650.532 323.458 700.542C373.468 750.551 441.276 778.667 512 778.667C582.724 778.667 650.532 750.551 700.542 700.542C750.551 650.532 778.667 582.724 778.667 512C778.667 476.984 771.774 442.309 758.375 409.958C744.974 377.605 725.304 348.221 700.542 323.458C675.779 298.696 646.395 279.026 614.042 265.625C581.691 252.226 547.016 245.333 512 245.333Z" fill="black"/>
</svg>
