<svg width="1024" height="1024" viewBox="0 0 1024 1024" fill="none" xmlns="http://www.w3.org/2000/svg">
<path fill-rule="evenodd" clip-rule="evenodd" d="M519.921 96.2083C559.471 98.1673 596.996 114.742 625.129 142.875C655.134 172.881 672.004 213.566 672.004 256V309.333H753.921C770.825 309.334 787.559 312.986 802.921 320.042C818.287 327.106 831.991 337.415 843.004 350.25C854.013 363.082 862.107 378.161 866.754 394.417C871.4 410.681 872.491 427.782 869.921 444.5L816.379 792.333C810.567 830.108 791.387 864.574 762.379 889.458C733.377 914.328 696.417 928 658.213 928H365.838C327.624 927.998 290.674 914.298 261.671 889.417C232.67 864.533 213.525 830.101 207.713 792.333L154.171 444.5C151.599 427.779 152.649 410.683 157.296 394.417C161.944 378.157 170.075 363.084 181.088 350.25C192.102 337.419 205.764 327.103 221.129 320.042C236.493 312.984 253.222 309.333 270.129 309.333H352.004V256C352.004 213.565 368.873 172.881 398.879 142.875C428.885 112.871 469.571 96 512.004 96L519.921 96.2083ZM270.129 373.333C262.452 373.333 254.856 375.007 247.879 378.208C240.903 381.414 234.674 386.094 229.671 391.917C224.667 397.748 220.951 404.612 218.838 412C216.727 419.387 216.256 427.157 217.421 434.75L270.963 782.583C274.449 805.247 285.935 825.943 303.338 840.875C320.736 855.795 342.917 863.998 365.838 864H658.213C681.133 864 703.312 855.795 720.713 840.875C738.117 825.943 749.644 805.249 753.129 782.583L806.671 434.75C807.834 427.16 807.321 419.384 805.213 412C803.1 404.617 799.42 397.746 794.421 391.917C789.418 386.09 783.189 381.417 776.213 378.208C769.231 375.001 761.604 373.335 753.921 373.333H672.004V469.333C672.004 487.005 657.675 501.331 640.004 501.333C622.331 501.333 608.004 487.006 608.004 469.333V373.333H416.004V469.333C416.004 487.005 401.675 501.331 384.004 501.333C366.331 501.333 352.004 487.006 352.004 469.333V373.333H270.129ZM512.004 160C486.544 160 462.133 170.123 444.129 188.125C426.126 206.128 416.004 230.539 416.004 256V309.333H608.004V256C608.004 230.54 597.881 206.128 579.879 188.125C564.13 172.375 543.475 162.643 521.504 160.458L512.004 160Z" fill="black"/>
</svg>
