<svg width="1024" height="1024" viewBox="0 0 1024 1024" fill="none" xmlns="http://www.w3.org/2000/svg">
<path fill-rule="evenodd" clip-rule="evenodd" d="M511.988 71.25C552.735 71.25 590.735 91.1783 613.988 124.458L618.447 131.292L964.655 709.333C975.176 727.555 980.888 748.171 981.28 769.208C981.668 790.238 976.737 811.03 966.905 829.625C957.072 848.221 942.673 864.022 925.072 875.542C907.47 887.059 887.215 893.934 866.238 895.5L857.905 895.833H165.613C144.615 895.594 124.01 890.017 105.738 879.667C87.4691 869.314 72.1112 854.514 61.1133 836.625C50.1122 818.73 43.8092 798.316 42.8216 777.333C41.8378 756.359 46.1793 735.467 55.4466 716.625L59.6966 708.75L405.738 131.125C416.817 112.857 432.414 97.7349 451.03 87.25C469.639 76.772 490.632 71.2567 511.988 71.25ZM511.988 650.667C494.321 650.673 479.988 664.998 479.988 682.667C479.988 700.336 494.321 714.66 511.988 714.667H512.405C530.078 714.667 544.405 700.34 544.405 682.667C544.405 664.994 530.078 650.667 512.405 650.667H511.988ZM511.988 352C494.321 352.007 479.988 366.331 479.988 384V554.667C479.988 572.336 494.321 586.66 511.988 586.667C529.661 586.667 543.988 572.34 543.988 554.667V384C543.988 366.327 529.661 352 511.988 352Z" fill="black"/>
</svg>
