<svg width="1024" height="1024" viewBox="0 0 1024 1024" fill="none" xmlns="http://www.w3.org/2000/svg">
<path fill-rule="evenodd" clip-rule="evenodd" d="M554.667 181.333C572.34 181.333 586.667 195.66 586.667 213.333V224H768C779.24 224 789.675 229.903 795.458 239.542L923.458 452.875C926.438 457.845 928 463.538 928 469.333V725.333C928 743.006 913.673 757.333 896 757.333H838.125C832.707 776.416 822.569 794.014 808.292 808.292C786.287 830.296 756.452 842.667 725.333 842.667C694.215 842.667 664.379 830.296 642.375 808.292C628.098 794.014 617.96 776.416 612.542 757.333H411.458C406.04 776.416 395.902 794.014 381.625 808.292C359.621 830.296 329.785 842.667 298.667 842.667C267.548 842.667 237.713 830.296 215.708 808.292C201.428 794.011 191.248 776.421 185.833 757.333H128C110.327 757.333 96 743.006 96 725.333V256C96 236.197 103.872 217.211 117.875 203.208C131.878 189.206 150.864 181.333 170.667 181.333H554.667ZM298.667 672C284.522 672 270.96 677.623 260.958 687.625C250.956 697.627 245.333 711.188 245.333 725.333L245.583 730.625C246.799 742.827 252.211 754.294 260.958 763.042C270.96 773.044 284.522 778.667 298.667 778.667C312.812 778.667 326.373 773.044 336.375 763.042C346.377 753.04 352 739.478 352 725.333C352 711.188 346.377 697.627 336.375 687.625C326.373 677.623 312.812 672 298.667 672ZM725.333 672C711.188 672 697.627 677.623 687.625 687.625C677.623 697.627 672 711.188 672 725.333C672 739.478 677.623 753.04 687.625 763.042C697.627 773.044 711.188 778.667 725.333 778.667C739.478 778.667 753.04 773.044 763.042 763.042C773.044 753.04 778.667 739.478 778.667 725.333C778.667 711.188 773.044 697.627 763.042 687.625C753.04 677.623 739.478 672 725.333 672ZM586.667 693.333H612.542C617.96 674.251 628.098 656.652 642.375 642.375C664.379 620.371 694.215 608 725.333 608C756.452 608 786.287 620.371 808.292 642.375C822.569 656.652 832.707 674.251 838.125 693.333H864V501.333H586.667V693.333ZM170.667 245.333C167.838 245.333 165.125 246.458 163.125 248.458C161.125 250.459 160 253.171 160 256V693.333H185.875C191.293 674.251 201.431 656.652 215.708 642.375C237.713 620.371 267.548 608 298.667 608C329.785 608 359.621 620.371 381.625 642.375C395.902 656.652 406.04 674.251 411.458 693.333H522.667V245.333H170.667ZM586.667 437.333H839.458L749.875 288H586.667V437.333Z" fill="black"/>
</svg>
