<svg width="1024" height="1024" viewBox="0 0 1024 1024" fill="none" xmlns="http://www.w3.org/2000/svg">
<path fill-rule="evenodd" clip-rule="evenodd" d="M528.803 109.181C536.954 97.9829 551.38 93.3209 564.553 97.5977C577.727 101.888 586.678 114.159 586.678 128.014V394.681H810.678C822.701 394.685 833.714 401.431 839.178 412.139C844.632 422.862 843.629 435.785 836.553 445.514L495.22 914.848C487.072 926.04 472.638 930.7 459.47 926.431C446.293 922.146 437.35 909.87 437.345 896.014V629.348H213.345C201.323 629.348 190.313 622.593 184.845 611.889C179.384 601.165 180.393 588.248 187.47 578.514L528.803 109.181ZM276.178 565.348H469.345C487.013 565.354 501.345 579.678 501.345 597.348V797.598L747.845 458.681H554.678C537.009 458.681 522.685 444.348 522.678 426.681V226.389L276.178 565.348Z" fill="black"/>
</svg>
