<svg width="1024" height="1024" viewBox="0 0 1024 1024" fill="none" xmlns="http://www.w3.org/2000/svg">
<path d="M725.333 142.507C789.686 179.663 843.219 232.982 880.632 297.186C918.045 361.39 938.042 434.252 938.642 508.559C939.242 582.865 920.425 656.041 884.054 720.84C847.683 785.64 795.018 839.817 731.274 878.008C667.53 916.2 594.917 937.081 520.623 938.584C446.329 940.088 372.93 922.162 307.693 886.581C242.456 851 187.643 798.998 148.679 735.723C109.716 672.448 87.9535 600.094 85.5467 525.824L85.3333 512L85.5467 498.176C87.9361 424.49 109.378 352.681 147.782 289.749C186.186 226.817 240.241 174.91 304.678 139.088C369.115 103.267 441.734 84.7529 515.456 85.352C589.178 85.9511 661.487 105.643 725.333 142.507ZM670.165 396.501C662.818 389.155 653.043 384.742 642.674 384.09C632.305 383.438 622.055 386.592 613.845 392.96L609.835 396.501L469.333 536.96L414.165 481.835L410.155 478.293C401.945 471.93 391.696 468.78 381.329 469.434C370.963 470.088 361.191 474.501 353.846 481.846C346.501 489.191 342.088 498.963 341.434 509.329C340.78 519.696 343.93 529.945 350.293 538.155L353.835 542.165L439.168 627.499L443.179 631.04C450.661 636.846 459.863 639.996 469.333 639.996C478.804 639.996 488.005 636.846 495.488 631.04L499.499 627.499L670.165 456.832L673.707 452.821C680.075 444.612 683.229 434.361 682.577 423.992C681.925 413.623 677.511 403.848 670.165 396.501Z" fill="black"/>
</svg>
