<svg width="1024" height="1024" viewBox="0 0 1024 1024" fill="none" xmlns="http://www.w3.org/2000/svg">
<path fill-rule="evenodd" clip-rule="evenodd" d="M456.792 55.9294C468.572 50.907 482.206 53.3685 491.458 62.221C521.933 91.4199 559.933 157.642 577.833 233.721C593.893 301.99 594.864 383.455 555.292 457.263C569.287 464.413 579.367 464.615 589.333 460.804C609.602 453.047 639.574 426.003 683.958 354.596L686.083 351.554C691.449 344.806 699.356 340.479 708.042 339.638C717.968 338.679 727.796 342.374 734.583 349.679C761.423 378.571 788.066 423.497 807.917 469.596C827.67 515.474 842.666 567.089 842.667 609.888C842.66 786.874 693.309 928.013 512 928.013C330.691 928.013 181.34 786.874 181.333 609.888C181.334 517.549 223.23 414.835 290.458 348.638C353.739 286.462 437.328 214.52 437.333 85.346C437.333 72.5297 445.005 60.9623 456.792 55.9294ZM489.458 174.138C460.021 280.996 382.332 348.085 335.292 394.304C280.521 448.258 245.334 534.398 245.333 609.888C245.34 748.965 363.419 864.013 512 864.013C660.581 864.013 778.659 748.965 778.667 609.888C778.666 579.65 767.39 537.308 749.125 494.888C738.282 469.71 725.599 446.142 712.917 426.596C678.293 475.957 646.138 507.569 612.208 520.554C564.696 538.735 524.745 517.751 492.125 491.888C478.832 481.345 476.065 462.258 485.833 448.388C528.489 387.905 531.144 314.895 515.5 248.388C509.029 220.886 499.563 195.667 489.458 174.138Z" fill="black"/>
</svg>
