<svg width="1024" height="1024" viewBox="0 0 1024 1024" fill="none" xmlns="http://www.w3.org/2000/svg">
<path fill-rule="evenodd" clip-rule="evenodd" d="M384 138.667C397.085 138.667 408.849 146.643 413.708 158.792L499.042 372.125C504.87 386.706 499.257 403.379 485.792 411.458L405.292 459.708C443.517 525.651 498.313 580.433 564.25 618.667L612.542 538.208L615.958 533.542C624.757 523.515 639.111 519.856 651.875 524.958L865.208 610.292C877.357 615.151 885.333 626.915 885.333 640V810.667C885.333 841.785 872.963 871.621 850.958 893.625C828.954 915.629 799.119 928 768 928C767.352 928 766.688 927.998 766.042 927.958C591.815 917.366 427.508 843.341 304.083 719.917C180.659 596.492 106.633 432.185 96.0417 257.958C96.0024 257.312 96 256.647 96 256C96 224.881 108.371 195.046 130.375 173.042C152.379 151.037 182.215 138.667 213.333 138.667H384ZM213.333 202.667C199.188 202.667 185.627 208.29 175.625 218.292C165.82 228.097 160.216 241.323 160 255.167C169.886 413.385 237.22 562.553 349.333 674.667C461.437 786.77 610.589 854.063 768.792 863.958C782.65 863.753 795.893 858.19 805.708 848.375C815.71 838.373 821.333 824.811 821.333 810.667V661.625L653.417 594.458L603.458 677.792C594.89 692.072 576.77 697.408 561.833 690.042C462.869 641.233 382.767 561.13 333.958 462.167C326.592 447.23 331.928 429.11 346.208 420.542L429.5 370.542L362.333 202.667H213.333Z" fill="black"/>
</svg>
