<svg width="1024" height="1024" viewBox="0 0 1024 1024" fill="none" xmlns="http://www.w3.org/2000/svg">
<path fill-rule="evenodd" clip-rule="evenodd" d="M259.292 96.1667C275.418 97.8145 288 111.438 288 128V183.5L855.625 224.083C864.477 224.719 872.678 229.009 878.25 235.917C883.819 242.826 886.255 251.756 885 260.542L842.333 559.208C840.074 574.964 826.586 586.667 810.667 586.667H288V693.333H725.333C756.452 693.333 786.287 705.704 808.292 727.708C830.296 749.713 842.667 779.548 842.667 810.667C842.667 841.785 830.296 871.621 808.292 893.625C786.287 915.629 756.452 928 725.333 928C694.215 928 664.379 915.629 642.375 893.625C620.371 871.621 608 841.785 608 810.667C608 791.936 612.55 773.706 620.917 757.333H360.417C368.783 773.706 373.333 791.936 373.333 810.667L372.75 822.25C370.086 849.115 358.215 874.368 338.958 893.625C316.954 915.629 287.119 928 256 928C224.881 928 195.046 915.629 173.042 893.625C153.785 874.368 141.915 849.115 139.25 822.25L138.667 810.667C138.667 779.548 151.037 749.713 173.042 727.708C187.319 713.431 204.917 703.293 224 697.875V160H170.667C152.994 160 138.667 145.673 138.667 128C138.667 110.327 152.994 96 170.667 96H256L259.292 96.1667ZM256 757.333C241.855 757.333 228.294 762.956 218.292 772.958C208.29 782.96 202.667 796.522 202.667 810.667L202.917 815.958C204.133 828.16 209.545 839.628 218.292 848.375C228.294 858.377 241.855 864 256 864C270.145 864 283.706 858.377 293.708 848.375C303.71 838.373 309.333 824.812 309.333 810.667L309.083 805.375C307.867 793.173 302.456 781.706 293.708 772.958C283.706 762.956 270.145 757.333 256 757.333ZM725.333 757.333C711.189 757.333 697.627 762.956 687.625 772.958C677.623 782.96 672 796.522 672 810.667C672 824.812 677.623 838.373 687.625 848.375C697.627 858.377 711.189 864 725.333 864C739.478 864 753.04 858.377 763.042 848.375C773.044 838.373 778.667 824.812 778.667 810.667C778.667 796.522 773.044 782.96 763.042 772.958C753.04 762.956 739.478 757.333 725.333 757.333ZM288 522.667H782.917L816.792 285.458L288 247.667V522.667Z" fill="black"/>
</svg>
