<svg width="1024" height="1024" viewBox="0 0 1024 1024" fill="none" xmlns="http://www.w3.org/2000/svg">
<path fill-rule="evenodd" clip-rule="evenodd" d="M896 437.333C913.673 437.333 928 451.66 928 469.333V896C928 913.673 913.673 928 896 928H469.333C451.66 928 437.333 913.673 437.333 896V753.792C437.333 736.119 451.66 721.792 469.333 721.792H579.542V611.542C579.549 593.88 593.88 579.549 611.542 579.542H721.792V469.333C721.792 451.66 736.119 437.333 753.792 437.333H896ZM785.792 611.542C785.792 629.21 771.458 643.534 753.792 643.542H643.542V753.792C643.534 771.458 629.21 785.792 611.542 785.792H501.333V864H864V501.333H785.792V611.542Z" fill="black"/>
<path d="M768 96C785.673 96 800 110.327 800 128V318.667C799.999 336.339 785.672 350.667 768 350.667C750.328 350.667 736.001 336.339 736 318.667V160H586.667V341.333C586.667 359.006 572.34 373.333 554.667 373.333H373.333V554.667C373.333 572.34 359.006 586.667 341.333 586.667H160V736H323.208C340.881 736 355.208 750.327 355.208 768C355.208 785.673 340.881 800 323.208 800H128C110.327 800 96 785.673 96 768V554.667C96 536.994 110.327 522.667 128 522.667H309.333V341.333C309.333 323.66 323.66 309.333 341.333 309.333H522.667V128C522.667 110.327 536.994 96 554.667 96H768Z" fill="black"/>
</svg>
