<svg width="1024" height="1024" viewBox="0 0 1024 1024" fill="none" xmlns="http://www.w3.org/2000/svg">
<path d="M640 480C657.673 480 672 494.327 672 512C672 529.673 657.673 544 640 544H554.667C536.994 544 522.667 529.673 522.667 512C522.667 494.327 536.994 480 554.667 480H640Z" fill="black"/>
<path d="M640 309.333C657.673 309.333 672 323.66 672 341.333C672 359.006 657.673 373.333 640 373.333H554.667C536.994 373.333 522.667 359.006 522.667 341.333C522.667 323.66 536.994 309.333 554.667 309.333H640Z" fill="black"/>
<path fill-rule="evenodd" clip-rule="evenodd" d="M725.333 138.667C756.452 138.667 786.287 151.037 808.292 173.042C830.296 195.046 842.667 224.881 842.667 256V768C842.667 799.119 830.296 828.954 808.292 850.958C786.287 872.963 756.452 885.333 725.333 885.333H416V938.667C416 956.34 401.673 970.667 384 970.667C366.327 970.667 352 956.34 352 938.667V885.333H256C236.197 885.333 217.211 877.461 203.208 863.458C189.206 849.456 181.333 830.469 181.333 810.667V213.333C181.333 193.53 189.206 174.544 203.208 160.542C217.211 146.539 236.197 138.667 256 138.667H725.333ZM256 202.667C253.171 202.667 250.459 203.791 248.458 205.792C246.458 207.792 245.333 210.504 245.333 213.333V810.667C245.333 813.496 246.458 816.208 248.458 818.208C250.459 820.209 253.171 821.333 256 821.333H352V202.667H256ZM416 821.333H725.333C739.478 821.333 753.04 815.71 763.042 805.708C773.044 795.706 778.667 782.145 778.667 768V256C778.667 241.855 773.044 228.294 763.042 218.292C754.294 209.544 742.827 204.133 730.625 202.917L725.333 202.667H416V821.333Z" fill="black"/>
</svg>
