<svg width="1024" height="1024" viewBox="0 0 1024 1024" fill="none" xmlns="http://www.w3.org/2000/svg">
<path fill-rule="evenodd" clip-rule="evenodd" d="M774.292 523.292C780.435 524.524 786.129 527.546 790.625 532.042C796.626 538.043 800 546.18 800 554.667V650.667H896L902.292 651.292C908.435 652.524 914.129 655.546 918.625 660.042C924.626 666.043 928 674.18 928 682.667V938.667C928 956.339 913.673 970.666 896 970.667H597.333C588.846 970.667 580.71 967.293 574.708 961.292C568.707 955.29 565.333 947.154 565.333 938.667V842.667H469.333C460.846 842.667 452.71 839.293 446.708 833.292C440.707 827.29 437.333 819.154 437.333 810.667V554.667C437.333 536.994 451.661 522.667 469.333 522.667H768L774.292 523.292ZM800 810.667C800 828.339 785.673 842.666 768 842.667H629.333V906.667H864V714.667H800V810.667ZM629.333 778.667H736V714.667H629.333V778.667ZM501.333 778.667H565.333V682.667C565.333 664.994 579.661 650.667 597.333 650.667H736V586.667H501.333V778.667Z" fill="black"/>
<path d="M384 138.667C392.487 138.667 400.624 142.04 406.625 148.042L525.25 266.667H810.667C841.785 266.667 871.621 279.037 893.625 301.042C915.629 323.046 928 352.881 928 384V554.667C928 572.34 913.673 586.667 896 586.667C878.327 586.667 864 572.34 864 554.667V384C864 369.855 858.377 356.294 848.375 346.292C839.628 337.544 828.16 332.133 815.958 330.917L810.667 330.667H512C503.513 330.667 495.376 327.293 489.375 321.292L370.75 202.667H213.333C199.188 202.667 185.627 208.29 175.625 218.292C165.623 228.294 160 241.855 160 256V725.333C160 739.478 165.623 753.04 175.625 763.042C185.627 773.044 199.188 778.667 213.333 778.667H341.333C359.006 778.667 373.333 792.994 373.333 810.667C373.333 828.34 359.006 842.667 341.333 842.667H213.333C182.215 842.667 152.379 830.296 130.375 808.292C108.371 786.287 96 756.452 96 725.333V256C96 224.881 108.371 195.046 130.375 173.042C152.379 151.037 182.215 138.667 213.333 138.667H384Z" fill="black"/>
</svg>
