<svg width="1024" height="1024" viewBox="0 0 1024 1024" fill="none" xmlns="http://www.w3.org/2000/svg">
<path d="M938.667 181.333C956.34 181.333 970.667 195.66 970.667 213.333C970.667 231.006 956.34 245.333 938.667 245.333H757.333V426.667C757.333 444.34 743.006 458.667 725.333 458.667H544V640C544 657.673 529.673 672 512 672H330.667V853.333C330.667 871.007 316.34 885.333 298.667 885.333H85.3333C67.6602 885.333 53.3333 871.007 53.3333 853.333C53.3333 835.66 67.6602 821.333 85.3333 821.333H266.667V640C266.667 622.327 280.994 608 298.667 608H480V426.667C480 408.994 494.327 394.667 512 394.667H693.333V213.333C693.333 195.66 707.66 181.333 725.333 181.333H938.667Z" fill="black"/>
</svg>
