<svg width="1024" height="1024" viewBox="0 0 1024 1024" fill="none" xmlns="http://www.w3.org/2000/svg">
<path d="M515.458 85.3609C589.18 85.9604 661.488 105.664 725.333 142.528C789.682 179.684 843.213 232.993 880.625 297.194C918.037 361.397 938.025 434.263 938.625 508.569C939.223 582.873 920.411 656.064 884.042 720.861C847.672 785.65 795.027 839.841 731.292 878.028C667.548 916.218 594.918 937.065 520.625 938.569C446.333 940.073 372.944 922.148 307.708 886.569C242.472 850.989 187.63 799.01 148.667 735.736C109.703 672.461 87.9485 600.09 85.5417 525.819L85.3333 511.986L85.5417 498.194C87.9311 424.509 109.388 352.668 147.792 289.736C186.195 226.811 240.235 174.888 304.667 139.069C369.103 103.248 441.736 84.7618 515.458 85.3609Z" fill="black"/>
</svg>
