<svg width="1024" height="1024" viewBox="0 0 1024 1024" fill="none" xmlns="http://www.w3.org/2000/svg">
<path fill-rule="evenodd" clip-rule="evenodd" d="M554.667 437.333C572.34 437.333 586.667 451.66 586.667 469.333V725.333C586.667 743.006 572.34 757.333 554.667 757.333H341.333C323.66 757.333 309.333 743.006 309.333 725.333V469.333C309.333 451.66 323.66 437.333 341.333 437.333H554.667ZM373.333 693.333H522.667V501.333H373.333V693.333Z" fill="black"/>
<path fill-rule="evenodd" clip-rule="evenodd" d="M768 138.667C799.119 138.667 828.954 151.037 850.958 173.042C872.963 195.046 885.333 224.881 885.333 256V768C885.333 799.119 872.963 828.954 850.958 850.958C828.954 872.963 799.119 885.333 768 885.333H256C224.881 885.333 195.046 872.963 173.042 850.958C151.037 828.954 138.667 799.119 138.667 768V256C138.667 224.881 151.037 195.046 173.042 173.042C195.046 151.037 224.881 138.667 256 138.667H768ZM757.333 810.667C757.333 814.423 756.564 817.985 755.375 821.333H768C782.145 821.333 795.706 815.71 805.708 805.708C815.71 795.706 821.333 782.145 821.333 768V373.333H757.333V810.667ZM202.667 768C202.667 782.145 208.29 795.706 218.292 805.708C228.294 815.71 241.855 821.333 256 821.333H695.292C694.103 817.985 693.333 814.423 693.333 810.667V373.333H202.667V768ZM256 202.667C241.855 202.667 228.294 208.29 218.292 218.292C208.29 228.294 202.667 241.855 202.667 256V309.333H821.333V256C821.333 241.855 815.71 228.294 805.708 218.292C795.706 208.29 782.145 202.667 768 202.667H256Z" fill="black"/>
</svg>
