<svg width="1024" height="1024" viewBox="0 0 1024 1024" fill="none" xmlns="http://www.w3.org/2000/svg">
<path d="M682.667 522.667C700.34 522.667 714.667 536.994 714.667 554.667C714.667 572.34 700.34 586.667 682.667 586.667H384C366.327 586.667 352 572.34 352 554.667C352 536.994 366.327 522.667 384 522.667H682.667Z" fill="black"/>
<path fill-rule="evenodd" clip-rule="evenodd" d="M853.333 96C883.805 96 913.404 107.334 935.542 128.083C957.751 148.904 970.667 177.605 970.667 208V688C970.667 718.395 957.751 747.096 935.542 767.917C913.404 788.666 883.805 800 853.333 800H842.667V816C842.667 846.395 829.751 875.096 807.542 895.917C785.404 916.666 755.805 928 725.333 928H213.333C182.862 928 153.263 916.666 131.125 895.917C108.916 875.096 96 846.395 96 816V336C96 305.605 108.916 276.904 131.125 256.083C153.263 235.334 182.862 224 213.333 224H224V208C224 177.605 236.916 148.904 259.125 128.083C281.263 107.334 310.862 96 341.333 96H853.333ZM160 816L160.25 820.5C161.355 830.986 166.307 841.172 174.875 849.208C184.742 858.459 198.546 864 213.333 864H725.333C740.121 864 753.925 858.459 763.792 849.208C773.582 840.025 778.667 828.035 778.667 816V800H341.333C310.862 800 281.263 788.666 259.125 767.917C236.916 747.096 224 718.395 224 688V416H160V816ZM288 688L288.25 692.5C289.355 702.986 294.307 713.172 302.875 721.208C312.742 730.459 326.546 736 341.333 736H778.667V416H288V688ZM831.167 288C838.531 302.79 842.667 319.098 842.667 336V736H853.333C868.121 736 881.925 730.459 891.792 721.208C901.582 712.025 906.667 700.035 906.667 688V288H831.167ZM213.333 288C198.546 288 184.742 293.541 174.875 302.792C165.084 311.975 160 323.965 160 336V352H224V288H213.333ZM288 352H778.667V336C778.667 323.965 773.582 311.975 763.792 302.792C755.159 294.699 743.513 289.435 730.833 288.25L725.333 288H288V352ZM458.667 224H906.667V208C906.667 195.965 901.582 183.975 891.792 174.792C883.159 166.699 871.513 161.435 858.833 160.25L853.333 160H458.667V224ZM341.333 160C326.546 160 312.742 165.541 302.875 174.792C293.084 183.975 288 195.965 288 208V224H394.667V160H341.333Z" fill="black"/>
</svg>
