<svg width="1024" height="1024" viewBox="0 0 1024 1024" fill="none" xmlns="http://www.w3.org/2000/svg">
<path fill-rule="evenodd" clip-rule="evenodd" d="M384 565.333C403.803 565.333 422.789 573.206 436.792 587.208C450.794 601.211 458.667 620.197 458.667 640V810.667C458.667 830.469 450.794 849.456 436.792 863.458C422.789 877.461 403.803 885.333 384 885.333H213.333C193.531 885.333 174.544 877.461 160.542 863.458C146.539 849.456 138.667 830.469 138.667 810.667V640C138.667 620.197 146.539 601.211 160.542 587.208C174.544 573.206 193.53 565.333 213.333 565.333H384ZM213.333 629.333C210.504 629.333 207.792 630.458 205.792 632.458C203.791 634.459 202.667 637.171 202.667 640V810.667C202.667 813.496 203.791 816.208 205.792 818.208C207.792 820.209 210.504 821.333 213.333 821.333H384C386.829 821.333 389.541 820.209 391.542 818.208C393.542 816.208 394.667 813.496 394.667 810.667V640C394.667 637.171 393.542 634.459 391.542 632.458C389.541 630.458 386.829 629.333 384 629.333H213.333Z" fill="black"/>
<path fill-rule="evenodd" clip-rule="evenodd" d="M810.667 565.333C830.47 565.333 849.456 573.206 863.458 587.208C877.461 601.211 885.333 620.197 885.333 640V810.667C885.333 830.469 877.461 849.456 863.458 863.458C849.456 877.461 830.469 885.333 810.667 885.333H640C620.197 885.333 601.211 877.461 587.208 863.458C573.206 849.456 565.333 830.469 565.333 810.667V640C565.333 620.197 573.206 601.211 587.208 587.208C601.211 573.206 620.197 565.333 640 565.333H810.667ZM640 629.333C637.171 629.333 634.459 630.458 632.458 632.458C630.458 634.459 629.333 637.171 629.333 640V810.667C629.333 813.496 630.458 816.208 632.458 818.208C634.459 820.209 637.171 821.333 640 821.333H810.667C813.496 821.333 816.208 820.209 818.208 818.208C820.209 816.208 821.333 813.496 821.333 810.667V640C821.333 637.171 820.209 634.459 818.208 632.458C816.208 630.458 813.496 629.333 810.667 629.333H640Z" fill="black"/>
<path fill-rule="evenodd" clip-rule="evenodd" d="M384 138.667C403.803 138.667 422.789 146.539 436.792 160.542C450.794 174.544 458.667 193.53 458.667 213.333V384C458.667 403.803 450.794 422.789 436.792 436.792C422.789 450.794 403.803 458.667 384 458.667H213.333C193.53 458.667 174.544 450.794 160.542 436.792C146.539 422.789 138.667 403.803 138.667 384V213.333C138.667 193.53 146.539 174.544 160.542 160.542C174.544 146.539 193.53 138.667 213.333 138.667H384ZM213.333 202.667C210.504 202.667 207.792 203.791 205.792 205.792C203.791 207.792 202.667 210.504 202.667 213.333V384C202.667 386.829 203.791 389.541 205.792 391.542C207.792 393.542 210.504 394.667 213.333 394.667H384C386.829 394.667 389.541 393.542 391.542 391.542C393.542 389.541 394.667 386.829 394.667 384V213.333C394.667 210.504 393.542 207.792 391.542 205.792C389.541 203.791 386.829 202.667 384 202.667H213.333Z" fill="black"/>
<path fill-rule="evenodd" clip-rule="evenodd" d="M810.667 138.667C830.47 138.667 849.456 146.539 863.458 160.542C877.461 174.544 885.333 193.531 885.333 213.333V384C885.333 403.803 877.461 422.789 863.458 436.792C849.456 450.794 830.47 458.667 810.667 458.667H640C620.197 458.667 601.211 450.794 587.208 436.792C573.206 422.789 565.333 403.803 565.333 384V213.333C565.333 193.53 573.206 174.544 587.208 160.542C601.211 146.539 620.197 138.667 640 138.667H810.667ZM640 202.667C637.171 202.667 634.459 203.791 632.458 205.792C630.458 207.792 629.333 210.504 629.333 213.333V384C629.333 386.829 630.458 389.541 632.458 391.542C634.459 393.542 637.171 394.667 640 394.667H810.667C813.496 394.667 816.208 393.542 818.208 391.542C820.209 389.541 821.333 386.829 821.333 384V213.333C821.333 210.504 820.209 207.792 818.208 205.792C816.208 203.791 813.496 202.667 810.667 202.667H640Z" fill="black"/>
</svg>
