<svg width="1024" height="1024" viewBox="0 0 1024 1024" fill="none" xmlns="http://www.w3.org/2000/svg">
<path d="M700.873 235.375C712.27 221.878 732.453 220.156 745.956 231.542C802.746 279.495 843.468 343.744 862.54 415.583C881.611 487.426 878.112 563.4 852.581 633.208C827.051 703.012 780.706 763.289 719.79 805.875C658.869 848.461 586.328 871.292 511.998 871.292C437.668 871.291 365.127 848.462 304.206 805.875C243.291 763.289 196.944 703.012 171.415 633.208C145.884 563.401 142.386 487.425 161.456 415.583C180.528 343.745 221.25 279.495 278.04 231.542C291.542 220.155 311.725 221.878 323.123 235.375C334.51 248.878 332.787 269.061 319.29 280.458C272.533 319.946 239.037 372.849 223.331 432C207.626 491.164 210.473 553.761 231.498 611.25C252.523 668.727 290.714 718.349 340.873 753.417C391.043 788.488 450.786 807.291 511.998 807.292C573.211 807.292 632.953 788.488 683.123 753.417C733.283 718.349 771.473 668.728 792.498 611.25C813.523 553.761 816.37 491.164 800.665 432C784.959 372.849 751.464 319.946 704.706 280.458C691.21 269.061 689.487 248.878 700.873 235.375Z" fill="black"/>
<path d="M511.998 138.667C529.671 138.667 543.998 152.994 543.998 170.667V512C543.998 529.673 529.671 544 511.998 544C494.326 543.999 479.998 529.673 479.998 512V170.667C479.998 152.994 494.326 138.668 511.998 138.667Z" fill="black"/>
</svg>
