<svg width="1024" height="1024" viewBox="0 0 1024 1024" fill="none" xmlns="http://www.w3.org/2000/svg">
<path d="M128 471.583C145.673 471.583 160 485.91 160 503.583V615.583L160.208 619.792C161.176 629.562 165.497 638.747 172.5 645.75C180.502 653.752 191.351 658.25 202.667 658.25H349.417L292.042 600.875C279.545 588.378 279.545 568.122 292.042 555.625C304.538 543.128 324.795 543.128 337.292 555.625L449.292 667.625C461.788 680.122 461.788 700.378 449.292 712.875L337.292 824.875C324.795 837.372 304.538 837.372 292.042 824.875C279.545 812.378 279.545 792.122 292.042 779.625L349.417 722.25H202.667C174.377 722.25 147.254 711.004 127.25 691C107.246 670.996 96 643.873 96 615.583V503.583C96 485.91 110.327 471.583 128 471.583Z" fill="black"/>
<path fill-rule="evenodd" clip-rule="evenodd" d="M746.667 514.25C783.443 514.25 818.703 528.87 844.708 554.875C870.713 580.88 885.333 616.14 885.333 652.917C885.333 689.693 870.713 724.953 844.708 750.958C818.703 776.963 783.443 791.583 746.667 791.583C709.89 791.583 674.63 776.963 648.625 750.958C622.62 724.953 608 689.693 608 652.917C608 616.14 622.62 580.88 648.625 554.875C674.63 528.87 709.89 514.25 746.667 514.25ZM746.667 578.25C726.864 578.25 707.878 586.122 693.875 600.125C679.872 614.128 672 633.114 672 652.917C672 672.72 679.872 691.706 693.875 705.708C707.878 719.711 726.864 727.583 746.667 727.583C766.47 727.583 785.456 719.711 799.458 705.708C813.461 691.706 821.333 672.72 821.333 652.917C821.333 633.114 813.461 614.128 799.458 600.125C785.456 586.122 766.47 578.25 746.667 578.25Z" fill="black"/>
<path fill-rule="evenodd" clip-rule="evenodd" d="M533.333 258.25C570.11 258.25 605.37 272.87 631.375 298.875C657.38 324.88 672 360.14 672 396.917C672 433.693 657.38 468.953 631.375 494.958C605.37 520.963 570.11 535.583 533.333 535.583C496.557 535.583 461.297 520.963 435.292 494.958C409.287 468.953 394.667 433.693 394.667 396.917C394.667 360.14 409.287 324.88 435.292 298.875C461.297 272.87 496.557 258.25 533.333 258.25ZM533.333 322.25C513.531 322.25 494.544 330.122 480.542 344.125C466.539 358.128 458.667 377.114 458.667 396.917C458.667 416.72 466.539 435.706 480.542 449.708C494.544 463.711 513.531 471.583 533.333 471.583C553.136 471.583 572.122 463.711 586.125 449.708C600.128 435.706 608 416.72 608 396.917C608 377.114 600.128 358.128 586.125 344.125C572.122 330.122 553.136 322.25 533.333 322.25Z" fill="black"/>
<path d="M709.333 2.25C737.623 2.25 764.746 13.4961 784.75 33.5C804.754 53.5039 816 80.6269 816 108.917V255.667L873.375 198.292C885.872 185.795 906.128 185.795 918.625 198.292C931.122 210.788 931.122 231.045 918.625 243.542L806.625 355.542C800.624 361.543 792.487 364.917 784 364.917C775.513 364.917 767.376 361.543 761.375 355.542L649.375 243.542C636.878 231.045 636.878 210.788 649.375 198.292C661.872 185.795 682.128 185.795 694.625 198.292L752 255.667V108.917C752 97.6008 747.502 86.7516 739.5 78.75C731.498 70.7484 720.649 66.25 709.333 66.25H597.333C579.66 66.25 565.333 51.9231 565.333 34.25C565.333 16.5769 579.66 2.25001 597.333 2.25H709.333Z" fill="black"/>
<path fill-rule="evenodd" clip-rule="evenodd" d="M277.333 44.9167C314.11 44.9167 349.37 59.5366 375.375 85.5417C401.38 111.547 416 146.807 416 183.583C416 220.36 401.38 255.62 375.375 281.625C349.37 307.63 314.11 322.25 277.333 322.25C240.557 322.25 205.297 307.63 179.292 281.625C153.287 255.62 138.667 220.36 138.667 183.583C138.667 146.807 153.287 111.547 179.292 85.5417C205.297 59.5366 240.557 44.9167 277.333 44.9167ZM277.333 108.917C257.531 108.917 238.544 116.789 224.542 130.792C210.539 144.794 202.667 163.781 202.667 183.583C202.667 203.386 210.539 222.372 224.542 236.375C238.544 250.378 257.53 258.25 277.333 258.25C297.136 258.25 316.122 250.378 330.125 236.375C344.128 222.372 352 203.386 352 183.583C352 163.78 344.128 144.794 330.125 130.792C316.122 116.789 297.136 108.917 277.333 108.917Z" fill="black"/>
</svg>
