<svg width="1024" height="1024" viewBox="0 0 1024 1024" fill="none" xmlns="http://www.w3.org/2000/svg">
<path d="M842.333 523C860.716 524.6 878.196 531.766 892.583 543.5C908.992 556.885 920.414 575.43 925.333 596C929.668 614.131 928.664 633.148 922.542 650.667H929.167C946.84 650.667 961.167 664.994 961.167 682.667C961.167 700.34 946.84 714.667 929.167 714.667H855.417L814.583 736H929.167C946.84 736 961.167 750.327 961.167 768C961.167 785.673 946.84 800 929.167 800H718.292C714.729 809.12 713.747 819.231 715.625 829.042C717.591 839.291 722.845 848.23 730.167 854.5C737.455 860.74 746.348 863.997 755.333 864H822.75C828.983 864.002 835.232 861.844 840.458 857.583C845.713 853.298 849.673 847.08 851.417 839.792C855.529 822.605 872.812 812.014 890 816.125C907.174 820.242 917.767 837.489 913.667 854.667C908.747 875.236 897.325 893.781 880.917 907.167C866.53 918.9 849.049 926.066 830.667 927.667L822.75 928H755.375C730.814 928.003 707.201 919.099 688.542 903.125C672.239 889.164 660.579 870.589 654.833 850L652.75 841.083C649.701 825.155 650.021 808.798 653.583 793.125C646.087 787.268 641.167 778.25 641.167 768C641.167 750.333 655.502 736.01 673.167 736H685.917C693.348 728.907 701.704 722.772 710.917 717.958L717.208 714.667H673.167C655.502 714.657 641.167 700.334 641.167 682.667C641.167 665 655.502 650.676 673.167 650.667H839.667L848.042 646.292C853.607 643.38 858.348 638.409 861.208 631.917C863.364 627.02 864.307 621.598 863.917 616.208L863.083 610.875C861.34 603.587 857.38 597.369 852.125 593.083C846.899 588.823 840.649 586.665 834.417 586.667H755.625C749.392 586.665 743.143 588.821 737.917 593.083C732.664 597.369 728.701 603.589 726.958 610.875C722.846 628.057 705.6 638.646 688.417 634.542C671.234 630.432 660.609 613.182 664.708 596C669.629 575.427 681.087 556.886 697.5 543.5C713.934 530.1 734.382 522.665 755.625 522.667H834.417L842.333 523Z" fill="black"/>
<path d="M896 352C913.673 352 928 366.327 928 384C928 401.673 913.673 416 896 416H885.333V469.333C885.333 487.006 871.006 501.333 853.333 501.333C835.66 501.333 821.333 487.006 821.333 469.333V416H202.667V821.333H554.667C572.34 821.333 586.667 835.66 586.667 853.333C586.667 871.006 572.34 885.333 554.667 885.333H128C110.327 885.333 96 871.006 96 853.333C96 835.66 110.327 821.333 128 821.333H138.667V416H128C110.327 416 96 401.673 96 384C96 366.327 110.327 352 128 352H896Z" fill="black"/>
<path d="M341.333 522.667C359.006 522.667 373.333 536.994 373.333 554.667V682.667C373.333 700.34 359.006 714.667 341.333 714.667C323.66 714.667 309.333 700.34 309.333 682.667V554.667C309.333 536.994 323.66 522.667 341.333 522.667Z" fill="black"/>
<path d="M512 522.667C529.673 522.667 544 536.994 544 554.667V682.667C544 700.34 529.673 714.667 512 714.667C494.327 714.667 480 700.34 480 682.667V554.667C480 536.994 494.327 522.667 512 522.667Z" fill="black"/>
<path d="M502.458 97.4582C509.705 95.1939 517.581 95.5645 524.625 98.5832L823.292 226.583C839.525 233.55 847.043 252.386 840.083 268.625C833.116 284.859 814.281 292.376 798.042 285.417L512 162.792L225.958 285.417C209.719 292.376 190.884 284.859 183.917 268.625C176.957 252.386 184.475 233.55 200.708 226.583L499.375 98.5832L502.458 97.4582Z" fill="black"/>
</svg>
