<svg width="1024" height="1024" viewBox="0 0 1024 1024" fill="none" xmlns="http://www.w3.org/2000/svg">
<path d="M617.375 489.375C629.872 476.878 650.128 476.878 662.625 489.375C675.122 501.872 675.122 522.128 662.625 534.625L491.958 705.292C479.462 717.788 459.205 717.788 446.708 705.292L361.375 619.958C348.878 607.462 348.878 587.205 361.375 574.708C373.872 562.212 394.128 562.212 406.625 574.708L469.333 637.417L617.375 489.375Z" fill="black"/>
<path fill-rule="evenodd" clip-rule="evenodd" d="M554.667 96C585.785 96 615.621 108.371 637.625 130.375C651.902 144.652 662.04 162.251 667.458 181.333H725.333C756.452 181.333 786.287 193.704 808.292 215.708C830.296 237.713 842.667 267.548 842.667 298.667V810.667C842.667 841.785 830.296 871.621 808.292 893.625C786.287 915.629 756.452 928 725.333 928H298.667C267.548 928 237.713 915.629 215.708 893.625C193.704 871.621 181.333 841.785 181.333 810.667V298.667C181.333 267.548 193.704 237.713 215.708 215.708C237.713 193.704 267.548 181.333 298.667 181.333H356.542C361.96 162.251 372.098 144.652 386.375 130.375C408.379 108.371 438.215 96 469.333 96H554.667ZM298.667 245.333C284.522 245.333 270.96 250.956 260.958 260.958C250.956 270.96 245.333 284.522 245.333 298.667V810.667L245.583 815.958C246.799 828.16 252.211 839.628 260.958 848.375C270.96 858.377 284.522 864 298.667 864H725.333C739.478 864 753.04 858.377 763.042 848.375C773.044 838.373 778.667 824.812 778.667 810.667V298.667C778.667 284.522 773.044 270.96 763.042 260.958C754.294 252.211 742.827 246.799 730.625 245.583L725.333 245.333H667.458C662.04 264.416 651.902 282.014 637.625 296.292C615.621 318.296 585.785 330.667 554.667 330.667H469.333C438.215 330.667 408.379 318.296 386.375 296.292C372.098 282.014 361.96 264.416 356.542 245.333H298.667ZM469.333 160C455.188 160 441.627 165.623 431.625 175.625C421.623 185.627 416 199.188 416 213.333C416 227.478 421.623 241.04 431.625 251.042C441.627 261.044 455.188 266.667 469.333 266.667H554.667L559.958 266.417C572.16 265.201 583.628 259.789 592.375 251.042C602.377 241.04 608 227.478 608 213.333C608 199.188 602.377 185.627 592.375 175.625C583.628 166.878 572.16 161.466 559.958 160.25L554.667 160H469.333Z" fill="black"/>
</svg>
