<svg width="1024" height="1024" viewBox="0 0 1024 1024" fill="none" xmlns="http://www.w3.org/2000/svg">
<path d="M725.333 650.667C743.006 650.667 757.333 664.994 757.333 682.667C757.333 700.34 743.006 714.667 725.333 714.667H597.333C579.66 714.667 565.333 700.34 565.333 682.667C565.333 664.994 579.66 650.667 597.333 650.667H725.333Z" fill="black"/>
<path d="M341.333 480C359.006 480 373.333 494.327 373.333 512C373.333 529.673 359.006 544 341.333 544H298.667C280.994 544 266.667 529.673 266.667 512C266.667 494.327 280.994 480 298.667 480H341.333Z" fill="black"/>
<path fill-rule="evenodd" clip-rule="evenodd" d="M768 138.667C799.119 138.667 828.954 151.037 850.958 173.042C872.963 195.046 885.333 224.881 885.333 256V768C885.333 799.119 872.963 828.954 850.958 850.958C828.954 872.963 799.119 885.333 768 885.333H256C224.881 885.333 195.046 872.963 173.042 850.958C151.037 828.954 138.667 799.119 138.667 768V256C138.667 224.881 151.037 195.046 173.042 173.042C195.046 151.037 224.881 138.667 256 138.667H768ZM499.375 373.333C500.564 376.682 501.333 380.244 501.333 384V810.667C501.333 814.423 500.564 817.985 499.375 821.333H768C782.145 821.333 795.706 815.71 805.708 805.708C815.71 795.706 821.333 782.145 821.333 768V373.333H499.375ZM202.667 768L202.917 773.292C204.133 785.494 209.545 796.961 218.292 805.708C228.294 815.71 241.855 821.333 256 821.333H439.292C438.103 817.985 437.333 814.423 437.333 810.667V384C437.333 380.244 438.103 376.682 439.292 373.333H202.667V768ZM256 202.667C241.855 202.667 228.294 208.29 218.292 218.292C208.29 228.294 202.667 241.855 202.667 256V309.333H821.333V256C821.333 241.855 815.71 228.294 805.708 218.292C796.961 209.545 785.494 204.133 773.292 202.917L768 202.667H256Z" fill="black"/>
</svg>
