<svg width="1024" height="1024" viewBox="0 0 1024 1024" fill="none" xmlns="http://www.w3.org/2000/svg">
<path d="M853.333 736C871.006 736 885.333 750.327 885.333 768C885.333 785.673 871.006 800 853.333 800H810.667C792.994 800 778.667 785.673 778.667 768C778.667 750.327 792.994 736 810.667 736H853.333Z" fill="black"/>
<path fill-rule="evenodd" clip-rule="evenodd" d="M890.667 480C911.884 480 932.247 488.414 947.25 503.417C962.253 518.42 970.667 538.783 970.667 560V848C970.667 869.217 962.253 889.58 947.25 904.583C932.247 919.586 911.884 928 890.667 928H602.667C581.449 928 561.086 919.586 546.083 904.583C531.08 889.58 522.667 869.217 522.667 848V560C522.667 538.783 531.08 518.42 546.083 503.417C561.086 488.414 581.449 480 602.667 480H890.667ZM757.333 853.333C757.333 857.09 756.564 860.651 755.375 864H890.667C894.91 864 898.999 862.334 902 859.333C905.001 856.333 906.667 852.243 906.667 848V672H757.333V853.333ZM586.667 848L586.958 851.125C587.571 854.206 589.079 857.079 591.333 859.333C594.334 862.334 598.423 864 602.667 864H695.292C694.103 860.651 693.333 857.09 693.333 853.333V672H586.667V848ZM602.667 544C598.423 544 594.334 545.666 591.333 548.667C588.333 551.667 586.667 555.757 586.667 560V608H906.667V560C906.667 555.757 905.001 551.667 902 548.667C899.746 546.413 896.873 544.905 893.792 544.292L890.667 544H602.667Z" fill="black"/>
<path d="M384 138.667C392.482 138.67 400.627 142.044 406.625 148.042L525.25 266.667H810.667C841.78 266.67 871.624 279.041 893.625 301.042C915.626 323.043 927.997 352.886 928 384C927.994 401.664 913.664 415.993 896 416C878.336 415.993 864.006 401.664 864 384C863.997 369.86 858.374 356.291 848.375 346.292C839.631 337.548 828.155 332.135 815.958 330.917L810.667 330.667H512C503.518 330.663 495.373 327.289 489.375 321.292L370.75 202.667H213.333C199.199 202.67 185.623 208.3 175.625 218.292C165.633 228.29 160.003 241.864 160 256V725.333C160.003 739.474 165.626 753.042 175.625 763.042C185.624 773.04 199.194 778.663 213.333 778.667H405.333C422.997 778.674 437.328 793.003 437.333 810.667C437.328 828.331 422.997 842.66 405.333 842.667H213.333C182.22 842.663 152.376 830.292 130.375 808.292C108.374 786.29 96.0028 756.448 96 725.333V256C96.0028 224.891 108.381 195.042 130.375 173.042C152.375 151.048 182.225 138.67 213.333 138.667H384Z" fill="black"/>
</svg>
