<svg width="1024" height="1024" viewBox="0 0 1024 1024" fill="none" xmlns="http://www.w3.org/2000/svg">
<path d="M330.667 693.083C348.34 693.083 362.667 707.41 362.667 725.083V725.5C362.667 743.173 348.34 757.5 330.667 757.5C312.994 757.5 298.667 743.173 298.667 725.5V725.083C298.667 707.41 312.994 693.083 330.667 693.083Z" fill="black"/>
<path d="M501.333 693.083C519.006 693.083 533.333 707.41 533.333 725.083V725.5C533.333 743.173 519.006 757.5 501.333 757.5C483.66 757.5 469.333 743.173 469.333 725.5V725.083C469.333 707.41 483.66 693.083 501.333 693.083Z" fill="black"/>
<path d="M672 693.083C689.673 693.083 704 707.41 704 725.083V725.5C704 743.173 689.673 757.5 672 757.5C654.327 757.5 640 743.173 640 725.5V725.083C640 707.41 654.327 693.083 672 693.083Z" fill="black"/>
<path d="M330.667 565.083C348.34 565.083 362.667 579.41 362.667 597.083V597.5C362.667 615.173 348.34 629.5 330.667 629.5C312.994 629.5 298.667 615.173 298.667 597.5V597.083C298.667 579.41 312.994 565.083 330.667 565.083Z" fill="black"/>
<path d="M501.333 565.083C519.006 565.083 533.333 579.41 533.333 597.083V597.5C533.333 615.173 519.006 629.5 501.333 629.5C483.66 629.5 469.333 615.173 469.333 597.5V597.083C469.333 579.41 483.66 565.083 501.333 565.083Z" fill="black"/>
<path d="M672 565.083C689.673 565.083 704 579.41 704 597.083V597.5C704 615.173 689.673 629.5 672 629.5C654.327 629.5 640 615.173 640 597.5V597.083C640 579.41 654.327 565.083 672 565.083Z" fill="black"/>
<path fill-rule="evenodd" clip-rule="evenodd" d="M629.333 266.417C649.136 266.417 668.122 274.289 682.125 288.292C696.128 302.294 704 321.28 704 341.083V383.75C704 403.553 696.128 422.539 682.125 436.542C668.122 450.544 649.136 458.417 629.333 458.417H373.333C353.53 458.417 334.544 450.544 320.542 436.542C308.288 424.288 300.738 408.219 299.042 391.125L298.667 383.75V341.083C298.667 321.28 306.539 302.294 320.542 288.292C334.544 274.289 353.53 266.417 373.333 266.417H629.333ZM373.333 330.417C370.504 330.417 367.792 331.541 365.792 333.542C363.791 335.542 362.667 338.254 362.667 341.083V383.75C362.667 386.579 363.791 389.291 365.792 391.292C367.792 393.292 370.504 394.417 373.333 394.417H629.333C632.162 394.417 634.875 393.292 636.875 391.292C638.875 389.291 640 386.579 640 383.75V341.083C640 338.254 638.875 335.542 636.875 333.542C634.875 331.541 632.162 330.417 629.333 330.417H373.333Z" fill="black"/>
<path fill-rule="evenodd" clip-rule="evenodd" d="M757.333 95.75C788.452 95.75 818.287 108.121 840.292 130.125C862.296 152.129 874.667 181.965 874.667 213.083V810.417C874.667 841.535 862.296 871.371 840.292 893.375C818.287 915.379 788.452 927.75 757.333 927.75H245.333C214.215 927.75 184.379 915.379 162.375 893.375C140.371 871.371 128 841.535 128 810.417V213.083C128 181.965 140.371 152.129 162.375 130.125C184.379 108.121 214.215 95.75 245.333 95.75H757.333ZM245.333 159.75C231.188 159.75 217.627 165.373 207.625 175.375C197.623 185.377 192 198.938 192 213.083V810.417L192.25 815.708C193.466 827.91 198.878 839.378 207.625 848.125C217.627 858.127 231.188 863.75 245.333 863.75H757.333C771.478 863.75 785.04 858.127 795.042 848.125C805.044 838.123 810.667 824.562 810.667 810.417V213.083C810.667 198.938 805.044 185.377 795.042 175.375C785.04 165.373 771.478 159.75 757.333 159.75H245.333Z" fill="black"/>
</svg>
