<svg width="1024" height="1024" viewBox="0 0 1024 1024" fill="none" xmlns="http://www.w3.org/2000/svg">
<path d="M512 573.833C536.123 573.833 560.01 578.655 582.25 588C604.486 597.345 624.66 611.022 641.542 628.25C653.905 640.872 653.659 661.132 641.042 673.5C628.418 685.864 608.159 685.664 595.792 673.042C584.872 661.902 571.839 653.044 557.458 647C543.068 640.954 527.609 637.833 512 637.833C496.391 637.833 480.932 640.954 466.542 647C452.161 653.044 439.128 661.902 428.208 673.042C415.841 685.664 395.582 685.864 382.958 673.5C370.341 661.132 370.095 640.872 382.458 628.25C399.34 611.022 419.514 597.345 441.75 588C463.99 578.655 487.877 573.833 512 573.833Z" fill="black"/>
<path d="M384.417 394.667C402.09 394.667 416.417 408.994 416.417 426.667C416.417 444.34 402.09 458.667 384.417 458.667H384C366.327 458.667 352 444.34 352 426.667C352 408.994 366.327 394.667 384 394.667H384.417Z" fill="black"/>
<path d="M640.417 394.667C658.09 394.667 672.417 408.994 672.417 426.667C672.417 444.34 658.09 458.667 640.417 458.667H640C622.327 458.667 608 444.34 608 426.667C608 408.994 622.327 394.667 640 394.667H640.417Z" fill="black"/>
<path fill-rule="evenodd" clip-rule="evenodd" d="M512 96C566.63 96 620.737 106.761 671.208 127.667C721.676 148.573 767.54 179.207 806.167 217.833C844.793 256.46 875.427 302.324 896.333 352.792C917.239 403.263 928 457.37 928 512L927.5 532.458C925.154 580.099 914.626 627.047 896.333 671.208C875.427 721.676 844.793 767.54 806.167 806.167C767.54 844.793 721.676 875.427 671.208 896.333C627.047 914.626 580.099 925.154 532.458 927.5L512 928C457.37 928 403.263 917.239 352.792 896.333C302.324 875.427 256.46 844.793 217.833 806.167C179.207 767.54 148.573 721.676 127.667 671.208C109.374 627.047 98.8457 580.099 96.5 532.458L96 512C96 457.37 106.761 403.263 127.667 352.792C148.573 302.324 179.207 256.46 217.833 217.833C256.46 179.207 302.324 148.573 352.792 127.667C403.263 106.761 457.37 96 512 96ZM512 160C465.775 160 419.998 169.102 377.292 186.792C334.586 204.481 295.769 230.398 263.083 263.083C230.398 295.769 204.481 334.586 186.792 377.292C169.102 419.998 160 465.775 160 512L160.417 529.292C162.4 569.61 171.311 609.335 186.792 646.708C204.481 689.414 230.398 728.231 263.083 760.917C295.769 793.602 334.586 819.519 377.292 837.208C419.998 854.898 465.775 864 512 864L529.292 863.583C569.61 861.6 609.335 852.689 646.708 837.208C689.414 819.519 728.231 793.602 760.917 760.917C793.602 728.231 819.519 689.414 837.208 646.708C854.898 604.002 864 558.225 864 512L863.583 494.708C861.6 454.39 852.689 414.665 837.208 377.292C819.519 334.586 793.602 295.769 760.917 263.083C728.231 230.398 689.414 204.481 646.708 186.792C604.002 169.102 558.225 160 512 160Z" fill="black"/>
</svg>
