<svg width="1024" height="1024" viewBox="0 0 1024 1024" fill="none" xmlns="http://www.w3.org/2000/svg">
<path d="M502.167 140.202C509.626 137.794 517.765 138.195 525 141.41L909 312.077C920.554 317.212 927.997 328.683 928 341.327V895.993C928 913.666 913.673 927.993 896 927.993C878.327 927.993 864 913.666 864 895.993V362.118L512 205.66L160 362.118V895.993C160 913.666 145.673 927.993 128 927.993C110.327 927.993 96 913.666 96 895.993V341.327C96.0026 328.683 103.446 317.212 115 312.077L499 141.41L502.167 140.202Z" fill="black"/>
<path fill-rule="evenodd" clip-rule="evenodd" d="M512 437.327C531.801 437.327 550.789 445.201 564.792 459.202C578.793 473.203 586.665 492.193 586.667 511.993V522.66H725.333C743.004 522.66 757.33 536.99 757.333 554.66V895.993C757.333 913.666 743.006 927.993 725.333 927.993H298.667C280.994 927.993 266.667 913.666 266.667 895.993V639.993C266.67 622.323 280.996 607.993 298.667 607.993H352V511.993C352.002 492.193 359.874 473.203 373.875 459.202C387.877 445.201 406.865 437.327 426.667 437.327H512ZM586.667 863.993H693.333V586.66H586.667V863.993ZM330.667 671.993V863.993H522.667V671.993H330.667ZM426.667 501.327C423.839 501.327 421.125 502.453 419.125 504.452C417.126 506.45 416.002 509.167 416 511.993V607.993H522.667V511.993C522.665 509.167 521.541 506.45 519.542 504.452C517.542 502.453 514.827 501.327 512 501.327H426.667Z" fill="black"/>
</svg>
