<svg width="1024" height="1024" viewBox="0 0 1024 1024" fill="none" xmlns="http://www.w3.org/2000/svg">
<path fill-rule="evenodd" clip-rule="evenodd" d="M704 565.333C740.777 565.333 776.037 579.953 802.042 605.958C828.047 631.963 842.667 667.223 842.667 704C842.667 740.777 828.047 776.037 802.042 802.042C776.037 828.047 740.777 842.667 704 842.667C667.223 842.667 631.963 828.047 605.958 802.042C579.953 776.037 565.333 740.777 565.333 704C565.333 667.223 579.953 631.963 605.958 605.958C631.963 579.953 667.223 565.333 704 565.333ZM704 629.333C684.197 629.333 665.211 637.206 651.208 651.208C637.206 665.211 629.333 684.197 629.333 704C629.333 723.803 637.206 742.789 651.208 756.792C665.211 770.794 684.197 778.667 704 778.667C723.803 778.667 742.789 770.794 756.792 756.792C770.794 742.789 778.667 723.803 778.667 704C778.667 684.197 770.794 665.211 756.792 651.208C742.789 637.206 723.803 629.333 704 629.333Z" fill="black"/>
<path fill-rule="evenodd" clip-rule="evenodd" d="M405.333 309.333C430.794 309.333 455.205 319.455 473.208 337.458C491.212 355.462 501.333 379.873 501.333 405.333L500.875 414.833C498.691 436.806 488.959 457.458 473.208 473.208C457.458 488.959 436.806 498.691 414.833 500.875L405.333 501.333C379.873 501.333 355.462 491.212 337.458 473.208C319.455 455.205 309.333 430.794 309.333 405.333C309.333 379.873 319.455 355.462 337.458 337.458C355.462 319.455 379.873 309.333 405.333 309.333ZM405.333 373.333C396.846 373.333 388.71 376.707 382.708 382.708C376.707 388.709 373.333 396.846 373.333 405.333C373.333 413.82 376.707 421.957 382.708 427.958C388.71 433.959 396.846 437.333 405.333 437.333L411.625 436.708C417.768 435.476 423.462 432.454 427.958 427.958C433.96 421.957 437.333 413.82 437.333 405.333L436.708 399.042C435.476 392.898 432.454 387.204 427.958 382.708C421.957 376.707 413.82 373.333 405.333 373.333Z" fill="black"/>
<path fill-rule="evenodd" clip-rule="evenodd" d="M824.875 224C852.222 224 878.455 234.871 897.792 254.208C917.129 273.545 928 299.778 928 327.125V824.875C928 852.222 917.129 878.455 897.792 897.792C878.455 917.129 852.222 928 824.875 928H327.125C299.778 928 273.545 917.129 254.208 897.792C234.871 878.455 224 852.222 224 824.875V327.125C224 299.778 234.871 273.545 254.208 254.208C273.545 234.871 299.778 224 327.125 224H824.875ZM327.125 288C316.752 288 306.793 292.124 299.458 299.458C292.124 306.793 288 316.752 288 327.125V824.875C288 835.248 292.124 845.207 299.458 852.542C306.793 859.876 316.752 864 327.125 864H824.875C835.248 864 845.207 859.876 852.542 852.542C859.876 845.207 864 835.248 864 824.875V327.125C864 316.752 859.876 306.793 852.542 299.458C845.207 292.124 835.248 288 824.875 288H327.125Z" fill="black"/>
<path fill-rule="evenodd" clip-rule="evenodd" d="M149.333 53.3333C174.794 53.3333 199.205 63.4548 217.208 81.4583C235.212 99.4618 245.333 123.873 245.333 149.333L244.875 158.833C242.691 180.806 232.959 201.458 217.208 217.208C201.458 232.959 180.806 242.691 158.833 244.875L149.333 245.333C123.873 245.333 99.4618 235.212 81.4583 217.208C63.4548 199.205 53.3333 174.794 53.3333 149.333C53.3333 123.873 63.4548 99.4618 81.4583 81.4583C99.4618 63.4548 123.873 53.3333 149.333 53.3333ZM149.333 117.333C140.846 117.333 132.709 120.707 126.708 126.708C120.707 132.709 117.333 140.846 117.333 149.333C117.333 157.82 120.707 165.957 126.708 171.958C132.709 177.959 140.846 181.333 149.333 181.333L155.625 180.708C161.768 179.476 167.462 176.454 171.958 171.958C177.96 165.957 181.333 157.82 181.333 149.333L180.708 143.042C179.476 136.898 176.454 131.204 171.958 126.708C165.957 120.707 157.82 117.333 149.333 117.333Z" fill="black"/>
</svg>
