<svg width="1024" height="1024" viewBox="0 0 1024 1024" fill="none" xmlns="http://www.w3.org/2000/svg">
<path d="M608 895.981V746.648C608 721.797 608.927 712.171 607.375 702.856C606.509 697.662 604.905 692.847 596.042 683.981C587.329 675.268 584.4 662.309 588.5 650.69C592.601 639.071 603 630.839 615.25 629.523C672.849 623.352 723.543 609.356 759.833 577.94C794.749 547.708 821.329 496.861 821.333 405.356C821.287 362.689 804.639 321.717 774.917 291.106C766.284 282.217 763.554 269.12 767.917 257.523C779.214 227.483 780.301 194.768 771.375 164.315C769.199 164.65 766.78 165.112 764.125 165.69C744.271 170.007 710.591 181.962 662 214.356C654.41 219.412 645.034 220.987 636.208 218.69C554.766 197.479 469.234 197.479 387.792 218.69C378.966 220.987 369.59 219.412 362 214.356C313.409 181.962 279.729 170.007 259.875 165.69C257.203 165.109 254.769 164.651 252.583 164.315C243.661 194.765 244.787 227.487 256.083 257.523C260.446 269.12 257.716 282.217 249.083 291.106C219.361 321.717 202.713 362.689 202.667 405.356C202.671 496.861 229.251 547.708 264.167 577.94C300.457 609.356 351.151 623.352 408.75 629.523C421 630.839 431.399 639.071 435.5 650.69C439.6 662.309 436.671 675.268 427.958 683.981C419.433 692.51 416.266 699.625 414.875 706.856C413.239 715.38 413.66 725.966 415.75 742.69C415.914 744 415.999 745.327 416 746.648V895.981C416 913.654 401.673 927.981 384 927.981C366.327 927.981 352 913.654 352 895.981V851.69C320.297 857.402 292.652 856.538 268.167 849.69C233.258 839.923 208.778 819.372 190.25 798.065C173.464 778.76 157.357 752.999 147.083 739.106C134.545 722.154 126.282 715.51 118.958 713.356C102.016 708.365 92.3144 690.595 97.2917 673.648C102.278 656.693 120.087 646.995 137.042 651.981C165.975 660.497 184.949 682.646 198.542 701.023C214.4 722.464 223.336 738.577 238.542 756.065C252.012 771.555 266.465 782.764 285.417 788.065C300.983 792.418 322.178 793.391 352 786.356V748.315C349.97 731.538 348.515 713.124 352.042 694.773C352.615 691.792 353.305 688.837 354.125 685.94C307.167 676.56 260.406 659.352 222.25 626.315C169.706 580.815 138.667 510.058 138.667 405.315L138.958 394.231C141.373 345.497 159.323 298.875 190.083 261.19C177.283 214.183 181.075 163.958 201.208 119.148L202.833 115.981C207.044 108.852 213.923 103.601 222 101.398L230.417 132.273C222.704 103.993 222.028 101.604 222 101.398L222.083 101.356L222.208 101.315C222.285 101.294 222.377 101.294 222.458 101.273C222.636 101.227 222.84 101.155 223.042 101.106C223.446 101.009 223.915 100.919 224.417 100.815C225.417 100.606 226.616 100.392 228 100.19C230.78 99.7838 234.32 99.4519 238.625 99.3563C247.26 99.1646 258.841 99.9705 273.458 103.148C300.466 109.019 337.504 122.993 385.458 153.398C468.691 133.972 555.266 133.978 638.5 153.398C686.469 122.979 723.529 109.02 750.542 103.148C765.159 99.9705 776.74 99.1646 785.375 99.3563C789.68 99.4519 793.22 99.7838 796 100.19C797.384 100.392 798.583 100.606 799.583 100.815C800.085 100.919 800.554 101.009 800.958 101.106C801.16 101.155 801.364 101.227 801.542 101.273C801.623 101.294 801.715 101.294 801.792 101.315L801.917 101.356L801.958 101.398C801.935 101.573 801.462 103.305 796.625 121.065L801.958 101.398C811.187 103.915 818.871 110.423 822.792 119.148C842.926 163.961 846.679 214.179 833.875 261.19C866.968 301.723 885.28 352.59 885.333 405.315L884.958 424.565C881.358 518.815 851.012 583.657 801.75 626.315C763.411 659.51 716.392 676.757 669.208 686.106C669.687 688.148 670.146 690.235 670.5 692.356C673.209 708.631 672.001 728.857 672 746.648V895.981C672 913.654 657.673 927.981 640 927.981C622.327 927.981 608 913.654 608 895.981Z" fill="black"/>
</svg>
