<svg width="1024" height="1024" viewBox="0 0 1024 1024" fill="none" xmlns="http://www.w3.org/2000/svg">
<path fill-rule="evenodd" clip-rule="evenodd" d="M401.097 341.029C412.098 334.803 425.593 334.942 436.434 341.44L670.491 481.874C681.065 488.219 687.543 499.668 687.543 512C687.541 524.331 681.065 535.781 670.491 542.126L436.434 682.56C425.594 689.057 412.097 689.195 401.097 682.971C390.091 676.74 383.27 665.081 383.269 652.434V371.566C383.269 358.918 390.091 347.261 401.097 341.029ZM453.486 590.4L584.137 512L453.486 433.554V590.4Z" fill="black"/>
<path fill-rule="evenodd" clip-rule="evenodd" d="M792.868 102.4C851.84 102.4 908.38 125.843 950.08 167.543C991.779 209.242 1015.22 265.782 1015.22 324.754V699.246C1015.22 758.218 991.779 814.758 950.08 856.457C908.38 898.156 851.84 921.6 792.868 921.6H231.132C172.16 921.6 115.62 898.156 73.9202 856.457C32.2207 814.758 8.77734 758.218 8.77734 699.246V324.754C8.77734 265.782 32.2207 209.242 73.9202 167.543C115.62 125.843 172.16 102.4 231.132 102.4H792.868ZM231.132 172.617C190.782 172.617 152.097 188.657 123.566 217.189C95.0346 245.72 78.9945 284.405 78.9945 324.754V699.246C78.9945 739.595 95.0346 778.28 123.566 806.811C152.097 835.343 190.782 851.383 231.132 851.383H792.868C833.218 851.383 871.903 835.343 900.434 806.811C928.965 778.28 945.006 739.595 945.006 699.246V324.754C945.006 284.405 928.965 245.72 900.434 217.189C871.903 188.657 833.218 172.617 792.868 172.617H231.132Z" fill="black"/>
</svg>
